<svg width="17" height="15" viewBox="0 0 17 15" fill="none" xmlns="http://www.w3.org/2000/svg">
<rect x="0.6" y="0.6" width="8.51429" height="13.3714" stroke="#C20000" stroke-width="1.2"/>
<path d="M4 6.4C3.66863 6.4 3.4 6.66863 3.4 7C3.4 7.33137 3.66863 7.6 4 7.6V6.4ZM16.5671 7.42426C16.8014 7.18995 16.8014 6.81005 16.5671 6.57574L12.7487 2.75736C12.5144 2.52304 12.1345 2.52304 11.9002 2.75736C11.6659 2.99167 11.6659 3.37157 11.9002 3.60589L15.2943 7L11.9002 10.3941C11.6659 10.6284 11.6659 11.0083 11.9002 11.2426C12.1345 11.477 12.5144 11.477 12.7487 11.2426L16.5671 7.42426ZM4 7.6H16.1429V6.4H4V7.6Z" fill="#C20000"/>
</svg>
