<?xml version="1.0" standalone="no"?>
<!DOCTYPE svg PUBLIC "-//W3C//DTD SVG 1.1//EN" "http://www.w3.org/Graphics/SVG/1.1/DTD/svg11.dtd" >
<svg xmlns="http://www.w3.org/2000/svg" xmlns:xlink="http://www.w3.org/1999/xlink" version="1.1">
<metadata>
Created by FontForge 20170731 at Mon Jan 31 23:10:13 2022
 By Aleksey,,,
</metadata>
<defs>
<font id="KineticLight" horiz-adv-x="929" >
  <font-face 
    font-family="Kinetic Light"
    font-weight="300"
    font-stretch="normal"
    units-per-em="2048"
    panose-1="0 0 0 0 0 0 0 0 0 0"
    ascent="1638"
    descent="-410"
    x-height="976"
    cap-height="1388"
    bbox="-201 -372 1845 1865"
    underline-thickness="102"
    underline-position="-307"
    unicode-range="U+000A-2122"
  />
<missing-glyph horiz-adv-x="1079" 
d="M102 1434h875v-1434h-875v1434zM160 1393l379 -633l381 633h-760zM514 717l-369 614v-1231zM541 674l-379 -631h758zM565 717l371 -621v1239z" />
    <glyph glyph-name=".notdef" horiz-adv-x="1079" 
d="M102 1434h875v-1434h-875v1434zM160 1393l379 -633l381 633h-760zM514 717l-369 614v-1231zM541 674l-379 -631h758zM565 717l371 -621v1239z" />
    <glyph glyph-name=".null" horiz-adv-x="0" 
 />
    <glyph glyph-name=".null" horiz-adv-x="0" 
 />
    <glyph glyph-name="nonmarkingreturn" horiz-adv-x="682" 
 />
    <glyph glyph-name="controlLF" unicode="&#xa;" horiz-adv-x="0" 
 />
    <glyph glyph-name="controlCR" unicode="&#xd;" horiz-adv-x="0" 
 />
    <glyph glyph-name="space" unicode=" " horiz-adv-x="483" 
 />
    <glyph glyph-name="exclam" unicode="!" horiz-adv-x="397" 
d="M143 22q-22 21 -22 54q0 34 22 56t55 22q34 0 55 -22q22 -24 22 -56q0 -33 -22 -54q-24 -22 -55 -22t-55 22zM242 341h-88l-22 1058h132z" />
    <glyph glyph-name="quotedbl" unicode="&#x22;" horiz-adv-x="503" 
d="M70 1177v408h99v-408h-99zM334 1177v408h99v-408h-99z" />
    <glyph glyph-name="quotedbl" unicode="&#x201d;" horiz-adv-x="503" 
d="M70 1177v408h99v-408h-99zM334 1177v408h99v-408h-99z" />
    <glyph glyph-name="quotedbl" unicode="&#x201c;" horiz-adv-x="503" 
d="M70 1177v408h99v-408h-99zM334 1177v408h99v-408h-99z" />
    <glyph glyph-name="numbersign" unicode="#" horiz-adv-x="1406" 
d="M735 0l89 419h-364l-88 -419h-99l88 419h-265l23 99h263l78 352h-276l23 99h276l88 419h99l-88 -419h363l88 419h99l-88 -419h265l-23 -99h-264l-77 -352h276l-23 -99h-275l-89 -419h-99zM559 870l-76 -352h363l77 352h-364z" />
    <glyph glyph-name="dollar" unicode="$" horiz-adv-x="1114" 
d="M506 0v199q-183 17 -287 125q-104 109 -110 271h110q16 -131 105 -215q86 -82 236 -82q159 0 245 80t86 206q0 98 -56 156q-55 56 -141 91t-183 60q-95 25 -183 68q-87 43 -141 110q-56 70 -56 188q0 67 26 125t75 107q46 46 118 79q70 32 156 41v199h99v-199
q79 -9 145 -42q67 -33 116 -84q48 -50 79 -119q29 -66 34 -141h-110q-9 125 -92 205q-85 82 -217 82q-75 0 -134 -21t-100 -56q-40 -34 -63 -82q-22 -45 -22 -94q0 -94 56 -147q55 -52 141 -85q81 -31 183 -58q93 -24 183 -70q84 -43 141 -115t57 -198q0 -157 -103 -263
q-104 -106 -294 -122v-199h-99z" />
    <glyph glyph-name="percent" unicode="%" horiz-adv-x="1374" 
d="M627 1273q20 -49 20 -108t-20 -108q-21 -51 -58 -88q-38 -38 -89 -59t-108 -21t-108 21q-49 20 -88 59t-59 88q-21 51 -21 108t21 108q20 49 59 88q37 37 88 58t108 21t108 -21q53 -22 89 -58q37 -37 58 -88zM246 1300q-50 -52 -50 -135q0 -85 51 -136t125 -51
q75 0 126 51q50 50 50 136q0 85 -50 135q-52 52 -126 52q-76 0 -126 -52zM207 52l848 1388h111l-849 -1388h-110zM746 220q-21 51 -21 108q0 56 21 107t58 88q39 39 88 59q51 21 108 21t108 -21q49 -20 88 -59t59 -88q21 -51 21 -107q0 -57 -21 -108q-20 -49 -59 -88
t-88 -59q-51 -21 -108 -21t-108 21q-49 20 -88 59q-37 37 -58 88zM1126 192q51 51 51 136q0 84 -51 135q-52 52 -126 52t-126 -52q-50 -50 -50 -135q0 -86 50 -136q52 -52 126 -52t126 52z" />
    <glyph glyph-name="ampersand" unicode="&#x26;" horiz-adv-x="1318" 
d="M140 237q-25 57 -25 124q0 83 41 159t91 132q58 69 132 128l-77 77q-42 37 -72 81q-25 35 -49 89q-22 50 -22 116q0 64 23 122q22 55 65 98t98 65q57 23 123 23q64 0 122 -23q55 -22 98 -65t65 -98q23 -58 23 -122q0 -57 -24 -108t-53 -89q-36 -44 -78 -78l-103 -88
l335 -343q31 50 48 76q54 83 55 84q10 15 62 94h121l-220 -319l320 -320h-143l-232 232q-47 -69 -108 -122q-50 -44 -129 -83q-78 -38 -170 -38q-74 0 -138 26q-67 27 -109 68q-44 43 -70 102zM249 496q-35 -61 -35 -135q0 -93 66 -157q65 -64 177 -64q74 0 136 32
q61 32 108 72q55 49 97 105l-353 364q-61 -44 -116 -106q-45 -49 -80 -111zM390 912l67 -67l99 88q34 28 59 60q26 31 43 66q18 37 18 84q0 93 -58 151t-150 58q-94 0 -152 -58t-58 -151q0 -46 21 -88q23 -46 45 -73q24 -31 66 -70z" />
    <glyph glyph-name="quotesingle" unicode="'" horiz-adv-x="239" 
d="M169 1585v-408h-99v408h99z" />
    <glyph glyph-name="quotesingle" unicode="&#x2019;" horiz-adv-x="239" 
d="M169 1585v-408h-99v408h99z" />
    <glyph glyph-name="quotesingle" unicode="&#x2018;" horiz-adv-x="239" 
d="M169 1585v-408h-99v408h99z" />
    <glyph glyph-name="parenleft" unicode="(" horiz-adv-x="563" 
d="M259 877q-41 -156 -41 -329q0 -172 41 -330q40 -155 91 -273q56 -135 132 -256l-66 -55q-85 123 -150 266q-56 124 -102 292q-45 165 -45 356q0 192 45 357t102 291q66 146 150 267l66 -55q-76 -121 -132 -256q-49 -116 -91 -275z" />
    <glyph glyph-name="parenright" unicode=")" horiz-adv-x="563" 
d="M304 219q41 156 41 329t-41 329q-40 153 -92 275q-56 135 -132 256l66 55q81 -119 148 -267q56 -123 103 -291q47 -167 47 -357t-47 -357q-48 -172 -103 -291q-66 -145 -148 -266l-66 55q76 121 132 256q53 124 92 274z" />
    <glyph glyph-name="asterisk" unicode="*" horiz-adv-x="739" 
d="M578 912l-78 -55l-132 220l-131 -220l-78 55l154 198l-231 66l33 77l221 -77l-12 264h88l-10 -264l220 77l33 -77l-231 -66z" />
    <glyph glyph-name="plus" unicode="+" horiz-adv-x="991" 
d="M546 195h-100v375h-364v99h364v375h100v-375h362v-99h-362v-375z" />
    <glyph glyph-name="comma" unicode="," horiz-adv-x="317" 
d="M107 208q-21 21 -21 55q0 33 22 55t54 22t55 -23q22 -22 22 -65q0 -56 -23 -105q-21 -44 -50 -80q-30 -39 -70 -68l-22 21q23 23 40 47q12 16 29 51q14 29 19 68q-33 0 -55 22z" />
    <glyph glyph-name="hyphen" unicode="-" horiz-adv-x="690" 
d="M642 803v-89h-595v89h595z" />
    <glyph glyph-name="period" unicode="." horiz-adv-x="274" 
d="M81 208q-22 22 -22 55t22 55t55 22t55 -22t22 -55q0 -34 -22 -55q-24 -22 -55 -22q-33 0 -55 22z" />
    <glyph glyph-name="slash" unicode="/" horiz-adv-x="718" 
d="M695 1585l-573 -1785h-99l572 1785h100z" />
    <glyph glyph-name="zero" unicode="0" horiz-adv-x="1288" 
d="M1129 1002q43 -130 43 -302q0 -171 -43 -300q-44 -133 -117 -222q-73 -90 -169 -136q-95 -46 -199 -46q-105 0 -200 46q-97 47 -168 136q-74 92 -117 222q-44 132 -44 300t44 302q42 127 117 221q71 89 168 136q95 46 200 46q104 0 199 -46q96 -46 169 -136
q74 -91 117 -221zM262 961q-36 -114 -36 -261q0 -150 36 -262q36 -114 94 -189q59 -77 134 -116q73 -38 154 -38t154 38q74 38 133 116t95 189q37 116 37 262q0 144 -37 261q-35 111 -95 191q-59 79 -133 116q-76 38 -154 38t-154 -38q-75 -38 -134 -116q-58 -78 -94 -191z
" />
    <glyph glyph-name="one" unicode="1" horiz-adv-x="638" 
d="M430 1392h78v-1388h-111v1245l-253 -177l-56 89z" />
    <glyph glyph-name="two" unicode="2" horiz-adv-x="1050" 
d="M256 103h684v-99h-827v88l530 573q49 49 92 111q34 49 65 113q30 63 30 129q0 61 -22 114q-22 54 -61 91q-38 36 -94 59q-54 22 -121 22q-65 0 -123 -23q-54 -21 -99 -63q-43 -40 -68 -93q-25 -54 -30 -116h-110q4 80 38 153q33 72 90 126t134 84q79 31 168 31
q90 0 165 -30q79 -31 130 -80q53 -50 83 -122t30 -153q0 -85 -33 -157q-35 -77 -73 -130q-46 -66 -103 -121z" />
    <glyph glyph-name="three" unicode="3" horiz-adv-x="1112" 
d="M135 1051q5 74 36 134q34 66 85 112q53 48 127 77q75 29 159 29q94 0 173 -29q76 -28 132 -79q54 -49 84 -119q30 -69 30 -148q0 -88 -36 -145t-80 -95q-50 -41 -115 -67q74 -27 132 -74q51 -41 91 -104q41 -65 41 -165q0 -81 -31 -149q-31 -67 -90 -122
q-58 -53 -138 -83q-84 -31 -181 -31q-94 0 -173 29q-77 28 -135 77q-59 50 -94 112q-37 66 -50 134h110q14 -51 42 -96q28 -43 72 -80q42 -35 100 -56q57 -21 128 -21q75 0 136 23q59 22 103 63q42 39 67 92t25 108t-25 110q-24 52 -67 91q-47 42 -104 63q-63 23 -135 23
h-88v100h76q75 0 129 20t96 57q38 34 62 85q22 47 22 101q0 58 -22 108q-24 53 -62 89q-41 38 -96 58q-57 21 -129 21q-62 0 -114 -21q-50 -20 -92 -56q-40 -35 -63 -81q-22 -46 -27 -95h-111z" />
    <glyph glyph-name="four" unicode="4" horiz-adv-x="1114" 
d="M1015 334h-165v-330h-110v330h-650v89l627 969h133v-959h165v-99zM211 433h529v816z" />
    <glyph glyph-name="five" unicode="5" horiz-adv-x="1118" 
d="M434 894q58 25 131 25q91 0 170 -36q81 -37 140 -97t95 -146t36 -184t-36 -184q-37 -88 -96 -147q-64 -64 -143 -97q-84 -35 -177 -35q-89 0 -167 29q-75 28 -132 77q-59 51 -93 112q-36 64 -49 134h110q13 -50 41 -96q28 -47 70 -80q46 -36 98 -56q56 -21 122 -21
q68 0 132 28q62 27 108 75q45 46 73 115q28 68 28 146q0 77 -28 145q-27 66 -73 115t-108 76q-64 28 -132 28q-73 0 -130 -34t-93 -73q-44 -47 -75 -103h-110l88 782h684v-99h-596l-54 -528q32 43 74 76q40 31 92 53z" />
    <glyph glyph-name="six" unicode="6" horiz-adv-x="1114" 
d="M734 28q-84 -35 -178 -35q-93 0 -177 35q-82 34 -143 97q-60 61 -96 147t-36 184q0 71 18 134q19 65 42 112q30 62 62 107l396 583h122l-364 -517q16 10 48 21q16 6 56 16q28 7 72 7q96 0 178 -36q84 -37 143 -97q61 -62 96 -146q35 -83 35 -184t-35 -184
q-36 -86 -96 -147q-61 -63 -143 -97zM424 120q64 -28 132 -28q69 0 133 28q58 25 107 76q47 49 74 114q27 66 27 146q0 79 -27 145q-26 64 -74 115q-46 49 -107 76q-64 28 -133 28q-68 0 -132 -28q-62 -27 -108 -76t-73 -115q-28 -68 -28 -145q0 -78 28 -146q27 -67 73 -114
q48 -50 108 -76z" />
    <glyph glyph-name="seven" unicode="7" horiz-adv-x="983" 
d="M82 1392h816v-88l-595 -1300h-122l595 1289h-694v99z" />
    <glyph glyph-name="eight" unicode="8" horiz-adv-x="1112" 
d="M736 24q-84 -31 -180 -31t-181 31q-82 30 -139 84q-60 56 -90 126q-31 71 -31 155q0 109 43 177t93 108q59 47 139 68q-63 27 -110 69q-40 36 -76 95q-34 56 -34 145q0 73 29 134q31 65 81 112q52 49 121 77q72 29 155 29q81 0 153 -29q70 -28 122 -77q50 -47 80 -112
t30 -134q0 -90 -34 -146q-35 -57 -76 -94q-48 -42 -111 -69q78 -21 137 -68q54 -43 95 -108q44 -70 44 -177q0 -82 -32 -155q-31 -71 -89 -126q-56 -53 -139 -84zM249 505q-25 -56 -25 -116q0 -59 25 -115t67 -95q46 -43 104 -64q63 -23 136 -23q74 0 135 23q59 22 104 64
q42 39 67 95q24 54 24 115q0 62 -24 116q-25 56 -67 95q-46 43 -104 64q-63 23 -135 23q-73 0 -136 -23q-58 -21 -104 -64q-42 -39 -67 -95zM301 1146q-21 -46 -21 -95q0 -51 21 -96q21 -46 58 -81q36 -35 88 -56q51 -21 109 -21q56 0 107 21q54 22 89 56q37 35 58 81
q21 45 21 96q0 49 -21 95q-21 47 -58 81q-38 35 -89 56t-107 21q-57 0 -108 -21t-89 -56q-37 -34 -58 -81z" />
    <glyph glyph-name="nine" unicode="9" horiz-adv-x="1112" 
d="M377 1368q84 35 177 35q94 0 178 -35q82 -34 143 -97q60 -61 96 -146q35 -82 35 -185q0 -73 -19 -134q-23 -74 -43 -112q-31 -65 -59 -106l-396 -584h-122l364 518q-18 -12 -49 -22q-23 -8 -56 -16q-29 -7 -72 -7q-94 0 -177 36q-84 37 -143 97t-96 147q-36 84 -36 183
q0 98 36 184t96 147q61 63 143 97zM687 1276q-64 28 -133 28q-68 0 -132 -28q-62 -27 -108 -75q-45 -46 -73 -115q-28 -68 -28 -146q0 -77 28 -145q27 -67 73 -114q47 -49 108 -77q60 -28 132 -28q73 0 133 28q59 27 107 77q47 49 74 114q27 66 27 145q0 80 -27 146
q-27 67 -74 115q-47 49 -107 75z" />
    <glyph glyph-name="colon" unicode=":" horiz-adv-x="311" 
d="M99 1045q-21 23 -21 56q0 34 22 55t54 21q34 0 56 -22t22 -54q0 -34 -22 -56t-56 -22t-55 22zM99 208q-21 21 -21 55q0 33 22 55t54 22q34 0 56 -22t22 -55q0 -34 -22 -55q-24 -22 -56 -22q-33 0 -55 22z" />
    <glyph glyph-name="semicolon" unicode=";" horiz-adv-x="342" 
d="M119 208q-21 21 -21 55q0 33 22 55t54 22q33 0 56 -23q22 -22 22 -65q0 -56 -23 -105q-21 -44 -50 -80q-30 -39 -70 -68l-23 21q23 23 40 47q12 16 29 51q14 29 19 68q-33 0 -55 22zM119 1045q-21 23 -21 56q0 34 22 55t54 21q34 0 56 -22t22 -54q0 -34 -22 -56t-56 -22
t-55 22z" />
    <glyph glyph-name="less" unicode="&#x3c;" horiz-adv-x="935" 
d="M843 1023l-639 -341l639 -342v-110l-761 419v65l761 419v-110z" />
    <glyph glyph-name="equal" unicode="=" horiz-adv-x="950" 
d="M68 868h814v-99h-814v99zM68 372v99h814v-99h-814z" />
    <glyph glyph-name="greater" unicode="&#x3e;" horiz-adv-x="935" 
d="M731 682l-639 341v110l761 -419v-65l-761 -419v110z" />
    <glyph glyph-name="question" unicode="?" horiz-adv-x="931" 
d="M814 1383q28 -65 28 -139q0 -87 -26 -148q-27 -62 -62 -105q-40 -48 -82 -83q-43 -35 -83 -84q-37 -45 -63 -105q-26 -61 -26 -148v-21h-109v21q0 101 25 167q26 69 62 115q36 47 83 87q47 41 83 81q36 41 63 94q25 50 25 129q0 108 -74 180q-75 73 -191 73
q-57 0 -107 -22q-51 -23 -89 -62q-36 -38 -58 -97q-21 -57 -21 -127v-33h-110v33q0 90 30 165q31 77 80 129q50 53 121 83t154 30q79 0 151 -28q70 -27 119 -75q51 -50 77 -110zM390 208q-22 21 -22 55q0 33 22 55t56 22q33 0 55 -22t22 -55q0 -34 -22 -55q-24 -22 -55 -22
q-32 0 -56 22z" />
    <glyph glyph-name="at" unicode="@" horiz-adv-x="1673" 
d="M1069 518h-10q-29 -45 -69 -77q-37 -32 -86 -54q-52 -23 -121 -23q-67 0 -124 25q-58 25 -102 74q-42 46 -68 114q-25 65 -25 150q0 83 25 149q27 70 68 116q45 50 101 74q57 25 125 25q70 0 118 -23q45 -22 78 -50q37 -32 57 -70h12l21 131h66v-440q0 -84 43 -130
t101 -46q34 0 66 16q34 17 61 53q28 37 44 93q16 55 16 136q0 115 -49 222q-48 105 -136 190q-85 82 -200 132t-243 50t-243 -50t-200 -135q-87 -87 -136 -200t-49 -243q0 -129 49 -242q50 -115 136 -201q87 -87 200 -136t243 -49q72 0 136 16q58 14 104 32q42 17 90 51
l44 -88q-46 -30 -105 -55q-55 -23 -118 -38q-70 -17 -151 -17q-150 0 -285 56q-134 56 -231 154q-99 100 -155 232q-56 131 -56 285t56 285q58 136 154 232t232 154q133 57 285 57q153 0 289 -58q134 -57 231 -154q96 -96 152 -225q55 -126 55 -269q0 -93 -23 -167
q-22 -72 -61 -121q-39 -50 -88 -73q-51 -24 -103 -24q-64 0 -105 23q-40 22 -67 54q-33 34 -49 77zM639 923q-66 -69 -66 -196q0 -126 66 -195t166 -69q99 0 165 69t66 195q0 127 -66 196t-165 69q-100 0 -166 -69z" />
    <glyph glyph-name="A" unicode="A" horiz-adv-x="1181" 
d="M635 1388l539 -1388h-121l-143 374h-639l-143 -374h-122l540 1388h89zM303 473h574l-287 739z" />
    <glyph glyph-name="B" unicode="B" horiz-adv-x="1148" 
d="M1038 557q41 -67 41 -160q0 -85 -32 -155q-33 -72 -90 -126q-60 -57 -138 -85q-85 -31 -181 -31h-507v1388h485q90 0 164 -27q76 -28 126 -75q53 -50 79 -112q27 -64 27 -138q0 -83 -30 -140q-28 -53 -69 -91q-42 -39 -99 -67q77 -29 133 -75q51 -40 91 -106zM241 1289
v-507h375q132 0 210 73q77 72 77 181q0 108 -77 180q-78 73 -210 73h-375zM943 285q25 53 25 112q0 54 -25 104q-26 52 -70 93t-104 65t-131 24h-397v-584h397q71 0 131 24q61 24 104 66q45 44 70 96z" />
    <glyph glyph-name="C" unicode="C" horiz-adv-x="1323" 
d="M1159 463h109q-33 -103 -86 -191q-52 -86 -125 -150q-72 -63 -163 -98t-198 -35q-121 0 -237 52q-114 51 -201 144q-89 95 -139 223q-51 130 -51 286t51 286q50 128 139 223q87 93 201 144q116 52 237 52q107 0 198 -35q90 -34 161 -98q72 -64 122 -150q54 -91 81 -191
h-110q-51 166 -164 270q-114 105 -288 105q-103 0 -197 -44q-95 -44 -166 -123q-70 -77 -113 -191q-42 -111 -42 -248t42 -248q42 -112 113 -190q73 -80 166 -124q94 -44 197 -44q174 0 290 105q116 106 173 270z" />
    <glyph glyph-name="D" unicode="D" horiz-adv-x="1196" 
d="M1079 974q53 -129 53 -280t-53 -280q-52 -126 -143 -220q-88 -91 -213 -143q-123 -51 -264 -51h-330v1388h330q141 0 264 -51q125 -52 213 -143q91 -94 143 -220zM979 452q43 108 43 242t-43 242q-43 109 -118 188q-73 77 -179 122q-102 43 -223 43h-220v-1190h220
q121 0 223 43q106 45 179 122q75 79 118 188z" />
    <glyph glyph-name="E" unicode="E" horiz-adv-x="1036" 
d="M241 99h750v-99h-860v1388h837v-99h-727v-518h672v-99h-672v-573z" />
    <glyph glyph-name="F" unicode="F" horiz-adv-x="960" 
d="M947 1289h-706v-540h584v-99h-584v-650h-110v1388h816v-99z" />
    <glyph glyph-name="G" unicode="G" horiz-adv-x="1374" 
d="M717 672l563 1v-673q-37 0 -64 25.5t-28 62.5l-8 198q-42 -82 -114 -149q-60 -58 -151 -103t-219 -45q-121 0 -237 52q-114 51 -201 144q-89 95 -139 223q-51 130 -51 286t51 286q50 128 139 223q87 93 201 144q116 52 237 52q109 0 198 -34q93 -36 160 -94
q72 -62 119 -137t74 -164h-111q-20 67 -59 125q-41 61 -95 106q-53 44 -127 72q-72 27 -159 27q-90 0 -171 -33q-111 -46 -192 -134q-70 -77 -113 -191q-42 -111 -42 -248t42 -248q42 -112 113 -190q83 -90 192 -135q49 -20 106 -28q131 -18 246 34q87 40 150 104
q66 67 104 154q38 86 38 187h-452v100z" />
    <glyph glyph-name="H" unicode="H" horiz-adv-x="1232" 
d="M991 1388h110v-1388h-110v661h-750v-661h-110v1388h110v-627h750v627z" />
    <glyph glyph-name="I" unicode="I" horiz-adv-x="368" 
d="M239 0h-110v1388h110v-1388z" />
    <glyph glyph-name="J" unicode="J" horiz-adv-x="970" 
d="M742 1388h109v-969q0 -202 -113 -315q-115 -115 -305 -115q-94 0 -172 29q-77 29 -132 79q-55 51 -85 119q-30 69 -30 148h110q5 -59 29 -108q24 -50 64 -89q38 -36 95 -58q56 -21 121 -21t122 24q55 23 98 68q45 46 66 103q23 61 23 136v969z" />
    <glyph glyph-name="K" unicode="K" horiz-adv-x="1030" 
d="M131 1388h110v-1388h-110v1388zM373 705l651 -705h-144l-639 705l595 683h144z" />
    <glyph glyph-name="L" unicode="L" 
d="M241 99h695v-99h-805v1388h110v-1289z" />
    <glyph glyph-name="M" unicode="M" horiz-adv-x="1542" 
d="M1310 1388h99v-1388h-109v1102l-496 -1102h-67l-496 1102v-1102h-110v1388h99l540 -1201z" />
    <glyph glyph-name="N" unicode="N" horiz-adv-x="1232" 
d="M991 1388h110v-1388h-99l-761 1179v-1179h-110v1388h99l761 -1178v1178z" />
    <glyph glyph-name="O" unicode="O" horiz-adv-x="1390" 
d="M1272 980q52 -129 52 -286t-52 -286q-53 -131 -139 -223q-87 -93 -200 -144q-115 -52 -237 -52q-121 0 -237 52q-114 51 -201 144q-89 95 -139 223q-51 130 -51 286t51 286q50 128 139 223q87 93 201 144q116 52 237 52q122 0 237 -52q113 -51 200 -144q86 -92 139 -223z
M1172 446q42 111 42 248t-42 248q-42 112 -114 191t-165 123q-94 44 -197 44t-197 -44q-95 -44 -166 -123q-70 -77 -113 -191q-42 -111 -42 -248t42 -248q42 -112 113 -190q73 -80 166 -124q94 -44 197 -44t197 44q91 43 165 124q72 80 114 190z" />
    <glyph glyph-name="P" unicode="P" horiz-adv-x="1040" 
d="M967 1132q32 -74 32 -163t-32 -163q-32 -75 -92 -133q-57 -56 -136 -89q-78 -33 -169 -33h-331v-551h-110v1388h441q91 0 169 -33q79 -33 136 -89q59 -57 92 -134zM864 845q26 60 26 124q0 65 -26 125q-26 58 -68 101q-44 43 -102 69q-57 25 -124 25h-331v-639h331
q67 0 124 25q58 25 102 69q42 42 68 101z" />
    <glyph glyph-name="Q" unicode="Q" horiz-adv-x="1400" 
d="M1224 317q-43 -74 -99 -130l177 -176l-66 -66l-176 177q-45 -40 -99 -67q-39 -21 -115 -45q-66 -21 -150 -21q-121 0 -237 52q-114 51 -201 144q-89 95 -139 223q-51 130 -51 286t51 286q50 128 139 223q87 93 201 144q116 52 237 52q122 0 237 -52q113 -51 200 -144
q86 -92 139 -222q52 -128 52 -287q0 -127 -31 -219q-33 -98 -69 -158zM1049 254q49 58 81 116q28 50 57 138q26 78 26 186q0 140 -41 248q-42 112 -114 191t-165 123q-94 44 -197 44t-197 -44q-95 -44 -166 -123q-70 -77 -113 -191q-42 -111 -42 -248t42 -248
q42 -112 113 -190q73 -80 166 -124q94 -44 197 -44q61 0 119 16q45 13 90 34q38 18 58 34l19 15l-187 187l66 67z" />
    <glyph glyph-name="R" unicode="R" horiz-adv-x="1114" 
d="M705 606l351 -606h-132l-330 595h-353v-595h-110v1388h485q89 0 168 -31q78 -31 133 -84q56 -54 87 -127q31 -72 31 -154q0 -122 -52 -200q-49 -74 -114 -117q-74 -48 -164 -69zM241 694h375q64 0 122 23q54 21 98 64q42 41 65 95q23 55 23 116q0 60 -23 115
q-23 54 -65 95q-44 43 -98 64q-58 23 -122 23h-375v-595z" />
    <glyph glyph-name="S" unicode="S" horiz-adv-x="1038" 
d="M906 572q57 -72 57 -198q0 -84 -30 -154q-29 -68 -88 -121q-56 -50 -138 -80t-185 -30q-104 0 -186 30q-80 29 -139 82q-58 52 -91 126q-31 70 -36 158h110q16 -130 105 -214q88 -83 237 -83q158 0 244 80t86 206q0 98 -56 156q-55 56 -141 91q-93 37 -183 61
q-100 26 -183 67q-87 43 -141 110q-56 70 -56 188q0 71 30 134q31 65 85 112q56 48 136 77q81 29 179 29q82 0 160 -31q74 -30 132 -83q55 -50 89 -122q32 -68 37 -149h-110q-9 125 -92 205q-84 81 -216 81q-76 0 -135 -21t-100 -56t-63 -81q-22 -45 -22 -95q0 -94 56 -147
q55 -52 141 -85q81 -31 183 -58q98 -25 183 -69q82 -42 141 -116z" />
    <glyph glyph-name="T" unicode="T" horiz-adv-x="954" 
d="M-8 1388h969v-99h-429v-1289h-111v1289h-429v99z" />
    <glyph glyph-name="U" unicode="U" horiz-adv-x="1216" 
d="M994 1388h110v-870q0 -123 -35 -222q-34 -95 -100 -166q-63 -68 -158 -105q-91 -36 -203 -36t-204 36t-156 105q-67 72 -100 166q-35 100 -35 222v870h109v-870q0 -209 106 -319q107 -111 280 -111t280 112q106 110 106 318v870z" />
    <glyph glyph-name="V" unicode="V" horiz-adv-x="1159" 
d="M1030 1388h122l-517 -1388h-111l-518 1388h122l451 -1245z" />
    <glyph glyph-name="W" unicode="W" horiz-adv-x="1665" 
d="M1537 1388h111l-408 -1388h-88l-320 1179l-320 -1179h-88l-408 1388h111l341 -1178l320 1178h88l320 -1178z" />
    <glyph glyph-name="X" unicode="X" horiz-adv-x="1087" 
d="M609 705l463 -705h-132l-397 617l-396 -617h-133l463 705l-441 683h132l375 -595l375 595h132z" />
    <glyph glyph-name="Y" unicode="Y" horiz-adv-x="1024" 
d="M908 1388h121l-463 -837v-551h-109v551l-463 837h120l397 -727z" />
    <glyph glyph-name="Y" unicode="&#x178;" horiz-adv-x="1024" 
d="M908 1388h121l-463 -837v-551h-109v551l-463 837h120l397 -727z" />
    <glyph glyph-name="Y" unicode="&#xdd;" horiz-adv-x="1024" 
d="M908 1388h121l-463 -837v-551h-109v551l-463 837h120l397 -727z" />
    <glyph glyph-name="Z" unicode="Z" horiz-adv-x="956" 
d="M168 99h760v-99h-903v77l748 1212h-715v99h859v-76z" />
    <glyph glyph-name="bracketleft" unicode="[" horiz-adv-x="362" 
d="M230 1486v-1586h265v-100h-364v1785h364v-99h-265z" />
    <glyph glyph-name="backslash" unicode="\" horiz-adv-x="718" 
d="M595 -200l-572 1785h99l573 -1785h-100z" />
    <glyph glyph-name="bracketright" unicode="]" horiz-adv-x="362" 
d="M132 -100v1586h-265v99h364v-1785h-364v100h265z" />
    <glyph glyph-name="asciicircum" unicode="^" horiz-adv-x="808" 
d="M734 824h-109l-221 473l-221 -473h-109l297 616h66z" />
    <glyph glyph-name="underscore" unicode="_" horiz-adv-x="946" 
d="M814 -198v-91h-683v91h683z" />
    <glyph glyph-name="a" unicode="a" 
d="M801 784q25 -62 25 -138v-639q-29 0 -51.5 18t-29.5 47l-18 78h-12q-34 -47 -72 -78q-35 -29 -95 -53q-58 -23 -140 -23q-166 0 -254 79t-88 197q0 67 28 124t93 101q66 44 166 69t253 25h121v55q0 108 -68 175t-186 67t-178 -50t-86 -126h-99q9 53 37 103t76 89
q48 38 108 60q64 23 142 23q82 0 145 -25q64 -25 111 -71t72 -107zM727 404v88h-121q-128 0 -213 -18t-136 -48t-72 -69q-20 -37 -20 -85q0 -67 64 -122t189 -55q141 0 225 84t84 225z" />
    <glyph glyph-name="a" unicode="&#xe5;" 
d="M801 784q25 -62 25 -138v-639q-29 0 -51.5 18t-29.5 47l-18 78h-12q-34 -47 -72 -78q-35 -29 -95 -53q-58 -23 -140 -23q-166 0 -254 79t-88 197q0 67 28 124t93 101q66 44 166 69t253 25h121v55q0 108 -68 175t-186 67t-178 -50t-86 -126h-99q9 53 37 103t76 89
q48 38 108 60q64 23 142 23q82 0 145 -25q64 -25 111 -71t72 -107zM727 404v88h-121q-128 0 -213 -18t-136 -48t-72 -69q-20 -37 -20 -85q0 -67 64 -122t189 -55q141 0 225 84t84 225z" />
    <glyph glyph-name="b" unicode="b" horiz-adv-x="1077" 
d="M972 690q36 -90 36 -198q0 -106 -36 -198q-36 -91 -96 -157t-143 -104q-81 -37 -177 -37q-82 0 -146 28t-103 60q-47 40 -81 89h-11l-20 -101q-6 -29 -28.5 -47t-51.5 -18v1388h100v-583h11q33 48 81 87q44 35 104 61q62 27 145 27q96 0 177 -37q84 -38 143 -103t96 -157
zM880 333q29 73 29 159t-29 159q-28 70 -78 125q-46 51 -112 82q-63 30 -134 30q-72 0 -135 -30q-66 -31 -112 -82q-49 -53 -77 -126q-29 -75 -29 -158q0 -86 29 -159q27 -69 77 -125q46 -51 112 -83q63 -30 135 -30q71 0 134 30q66 32 112 83q51 58 78 125z" />
    <glyph glyph-name="c" unicode="c" horiz-adv-x="999" 
d="M716 167q78 70 111 170h111q-42 -149 -148 -245t-270 -96q-97 0 -178 37q-82 37 -144 104q-60 64 -95 156q-35 91 -35 199q0 107 35 198q36 94 95 157q61 65 144 103q81 37 178 37q166 0 271 -96t147 -245h-111q-33 98 -112 171q-77 71 -195 71q-74 0 -136 -29
q-63 -29 -112 -83q-49 -53 -77 -126q-28 -72 -28 -158q0 -88 28 -159q27 -69 77 -125q47 -53 112 -83q64 -30 136 -30q116 0 196 72z" />
    <glyph glyph-name="d" unicode="d" horiz-adv-x="1075" 
d="M861 1395h99v-1388q-28 0 -50.5 18t-28.5 46l-20 102h-11q-37 -49 -84 -89q-42 -33 -102 -60q-62 -28 -144 -28q-97 0 -178 37q-82 37 -144 104q-60 65 -95 157q-35 93 -35 198q0 107 35 198q36 94 95 157q61 65 144 103q81 37 178 37q84 0 144 -27q57 -26 102 -61
q51 -43 84 -87h11v583zM843 333q28 71 28 159t-28 159q-28 72 -77 125q-46 51 -112 82q-63 30 -134 30q-72 0 -136 -30t-112 -82q-49 -53 -77 -126q-28 -72 -28 -158q0 -88 28 -159q27 -69 77 -125q47 -53 112 -83q64 -30 136 -30q71 0 134 30q66 32 112 83q50 56 77 125z
" />
    <glyph glyph-name="e" unicode="e" horiz-adv-x="1026" 
d="M925 708q35 -87 35 -184q0 -3 -3 -30q-1 -5 -2.5 -13.5t-1.5 -10.5q-1 -3 -2 -10.5t-2 -11.5h-782q9 -84 38 -145q30 -65 78 -111q49 -47 110 -72q62 -25 137 -25q54 0 97 15q47 16 79 37q30 20 58 51q31 34 42 51h121q-20 -47 -55 -91q-39 -48 -85 -82q-49 -36 -113 -58
q-63 -22 -144 -22q-100 0 -184 37q-85 37 -147 104q-61 66 -96 156q-35 91 -35 199q0 107 35 198q36 94 95 157q61 65 144 103q81 37 178 37q89 0 170 -35q79 -34 140 -97q61 -62 95 -147zM167 547h694q-9 75 -39 138t-74 107q-46 46 -104 71q-57 25 -124 25q-68 0 -125 -25
q-58 -25 -105 -71q-43 -42 -78 -108q-31 -58 -45 -137z" />
    <glyph glyph-name="f" unicode="f" horiz-adv-x="536" 
d="M331 1252q-50 -43 -50 -143v-133h242v-99h-242v-870h-99v870h-155v99h155v133q0 133 72 209q72 77 180 77q20 0 36 -3q15 -3 29 -8q4 -2 12 -5.5t12 -5.5v-88q-3 1 -9 2t-9 2q-2 0 -9.5 2t-11.5 3q-16 2 -27 2q-74 0 -126 -44z" />
    <glyph glyph-name="g" unicode="g" horiz-adv-x="1050" 
d="M854 911q5 28 28 46.5t52 18.5v-936q0 -84 -31 -161q-29 -73 -86 -130t-130 -86q-78 -31 -161 -31q-86 0 -161 24q-69 22 -122 64t-86 94q-34 53 -49 115h109q33 -84 105 -141t204 -57q61 0 122 24q56 22 99 65q43 42 65 98q23 57 23 122v177h-12q-37 -50 -81 -89
q-43 -35 -100 -60q-64 -28 -137 -28q-90 0 -171 36q-80 36 -141 101q-59 64 -95 152q-35 87 -35 185t35 185q35 86 95 151q61 65 141 101q81 36 171 36q77 0 137 -27q56 -25 100 -61q49 -43 81 -87h12zM817 366q29 70 29 148t-29 148q-27 66 -76 118t-109 80t-127 28
q-66 0 -128 -28q-60 -27 -110 -80q-49 -52 -76 -118q-29 -70 -29 -148t29 -148q28 -68 76 -119t109 -79q63 -29 129 -29q64 0 127 29q61 28 109 79t76 119z" />
    <glyph glyph-name="h" unicode="h" horiz-adv-x="1017" 
d="M888 745q30 -75 30 -166v-572h-99v572q0 64 -23 122q-22 55 -64 99q-41 42 -95 65q-55 23 -116 23q-64 0 -122 -23q-55 -22 -98 -65q-43 -42 -65 -98q-23 -57 -23 -123v-572h-100v1308h-60v80h160v-64v-16v-482h11q28 43 70 78q37 28 95 52q59 24 142 24q82 0 154 -30
t122 -83q51 -54 81 -129z" />
    <glyph glyph-name="i" unicode="i" horiz-adv-x="342" 
d="M68 976h159v-79v-890h-99v890h-60v79zM227 1173h-99v99h99v-99z" />
    <glyph glyph-name="j" unicode="j" horiz-adv-x="329" 
d="M114 -71v1047h99v-1047q0 -132 -72 -209t-182 -77q-36 0 -63 11q-12 4 -25 12v87q12 -6 18 -7q19 -4 49 -4q84 0 130 47t46 140zM213 1173h-99v99h99v-99z" />
    <glyph glyph-name="k" unicode="k" horiz-adv-x="847" 
d="M344 514l486 -507h-133l-484 507l440 462h133zM53 1395h160v-1388h-100v1308h-60v80z" />
    <glyph glyph-name="l" unicode="l" horiz-adv-x="327" 
d="M113 1395h100v-1388h-100v1308h-60v80h60z" />
    <glyph glyph-name="m" unicode="m" horiz-adv-x="1503" 
d="M1376 764q26 -73 26 -162v-595h-99v595q0 132 -72 209t-170 77q-107 0 -181 -77q-73 -76 -73 -209v-595h-99v595q0 132 -72 209t-170 77q-109 0 -181 -77t-72 -209v-595h-100v969q29 0 51.5 -18t29.5 -47l19 -78h10q20 39 60 78q31 28 79 52t114 24q82 0 141 -31
q55 -29 91 -68q37 -40 66 -99q27 55 66 99q38 39 91 68q57 31 140 31q74 0 132 -26q62 -28 104 -76q44 -50 69 -121z" />
    <glyph glyph-name="n" unicode="n" horiz-adv-x="1015" 
d="M888 745q29 -73 29 -166v-572h-99v572q0 64 -23 122q-22 55 -64 99q-42 43 -94 65q-55 23 -117 23q-64 0 -122 -23q-55 -22 -98 -65q-41 -41 -64 -98t-23 -123v-572h-100v969q29 0 51.5 -18t29.5 -47l19 -78h10q28 43 70 78q36 27 96 52q59 24 142 24q82 0 154 -30
t122 -83q51 -54 81 -129z" />
    <glyph glyph-name="o" unicode="o" horiz-adv-x="1040" 
d="M936 690q35 -88 35 -198q0 -109 -35 -198q-37 -93 -96 -157q-63 -68 -143 -104q-81 -37 -177 -37q-97 0 -178 37q-82 37 -144 104q-60 64 -95 156q-35 91 -35 199q0 107 35 198q36 94 95 157q61 65 144 103q81 37 178 37q96 0 177 -37q82 -37 143 -103q58 -62 96 -157z
M843 333q28 71 28 159t-28 159q-28 72 -77 125q-47 51 -113 82q-64 30 -134 30q-71 0 -135 -30t-112 -82q-49 -53 -77 -125q-28 -71 -28 -159t28 -159q27 -69 77 -125q47 -53 112 -83q64 -30 135 -30q72 0 135 30q66 32 112 83q50 56 77 125z" />
    <glyph glyph-name="p" unicode="p" horiz-adv-x="1077" 
d="M972 690q36 -90 36 -198q0 -106 -36 -198q-36 -91 -96 -157t-143 -104q-81 -37 -177 -37q-82 0 -146 28t-103 60q-47 40 -81 89h-11v-519h-100v1322q29 0 51.5 -18t28.5 -47l20 -99h11q33 48 81 87q44 35 104 61q62 27 145 27q96 0 177 -37q84 -38 143 -103t96 -157z
M880 333q29 73 29 159t-29 159q-28 70 -78 125q-48 52 -112 82t-134 30q-72 0 -135 -30q-66 -31 -112 -82q-49 -53 -77 -126q-29 -75 -29 -158q0 -86 29 -159q27 -69 77 -125q46 -51 112 -83q63 -30 135 -30q71 0 134 30q66 32 112 83q51 58 78 125z" />
    <glyph glyph-name="q" unicode="q" horiz-adv-x="1075" 
d="M881 912q6 28 28.5 46t50.5 18v-1322h-99v519h-11q-37 -49 -84 -89q-42 -33 -102 -60q-62 -28 -144 -28q-97 0 -178 37q-82 37 -144 104q-60 65 -95 157q-35 93 -35 198q0 107 35 198q36 94 95 157q61 65 144 103q81 37 178 37q84 0 144 -27q57 -26 102 -61
q51 -43 84 -87h11zM843 333q28 71 28 159t-28 159q-28 72 -77 125q-48 52 -112 82q-65 30 -134 30q-70 0 -135 -30q-66 -31 -113 -82q-49 -53 -77 -126q-28 -72 -28 -158q0 -88 28 -159q27 -69 77 -125q46 -52 113 -83q65 -30 135 -30q71 0 134 30q66 32 112 83
q50 56 77 125z" />
    <glyph glyph-name="r" unicode="r" horiz-adv-x="587" 
d="M531 987h44v-99h-55q-140 0 -224 -84q-83 -83 -83 -235v-562h-100v969q29 0 52 -18t30 -47l18 -78h10q28 43 70 78q35 27 97 52q58 24 141 24z" />
    <glyph glyph-name="s" unicode="s" horiz-adv-x="825" 
d="M709 425q42 -51 42 -143q0 -56 -24 -109q-23 -51 -68 -91q-48 -43 -103 -63q-63 -23 -135 -23q-79 0 -143 23q-61 22 -108 64q-45 40 -72 95q-25 51 -30 115h99q16 -93 76 -145q61 -53 177 -53q108 0 170 56t62 131q0 65 -42 101q-41 35 -104 55q-60 19 -136 33
q-75 14 -135 40q-59 26 -103 76q-42 48 -42 136q0 55 22 102q22 48 63 84t100 57q60 21 135 21q69 0 129 -23q59 -22 102 -60q44 -38 69 -88q26 -51 30 -104h-99q-16 73 -75 126q-56 50 -156 50q-108 0 -164 -49q-57 -49 -57 -116q0 -62 42 -95q40 -32 103 -50
q59 -17 136 -33q75 -15 136 -42t103 -78z" />
    <glyph glyph-name="t" unicode="t" horiz-adv-x="589" 
d="M552 877h-242v-595q0 -100 51 -143q52 -44 126 -44q29 0 48 4q5 1 17 7v-88q-13 -7 -24 -11q-28 -11 -64 -11q-108 0 -180 77q-73 78 -73 209v596l-199 1v97h199v287h99v-287h242v-99z" />
    <glyph glyph-name="u" unicode="u" horiz-adv-x="1015" 
d="M802 976h99v-969h-97l-2 143h-12q-34 -47 -72 -78q-35 -29 -95 -53q-58 -23 -140 -23q-85 0 -155 30q-71 30 -121 83q-51 54 -81 129t-30 166v572h100v-572q0 -64 23 -122q22 -55 64 -99q41 -42 95 -65q55 -23 115 -23q64 0 122 23q56 22 99 65t65 98q23 57 23 123v572z
" />
    <glyph glyph-name="v" unicode="v" horiz-adv-x="917" 
d="M790 976h110l-397 -969h-89l-396 969h110l331 -826z" />
    <glyph glyph-name="w" unicode="w" horiz-adv-x="1325" 
d="M1202 976h99l-320 -969h-65l-254 771l-253 -771h-67l-319 969h100l252 -771l254 771h66l254 -771z" />
    <glyph glyph-name="x" unicode="x" horiz-adv-x="864" 
d="M498 503l341 -496h-120l-287 418l-287 -418h-120l341 496l-320 473h122l264 -397l264 397h122z" />
    <glyph glyph-name="y" unicode="y" horiz-adv-x="919" 
d="M790 976h110l-441 -1079q-51 -131 -111 -193q-60 -61 -153 -61q-16 0 -24 1t-22 3q-10 1 -21 7v88h44q66 0 104 36q37 36 73 119l55 131l-386 948h110l330 -826z" />
    <glyph glyph-name="y" unicode="&#xff;" horiz-adv-x="919" 
d="M790 976h110l-441 -1079q-51 -131 -111 -193q-60 -61 -153 -61q-16 0 -24 1t-22 3q-10 1 -21 7v88h44q66 0 104 36q37 36 73 119l55 131l-386 948h110l330 -826z" />
    <glyph glyph-name="y" unicode="&#xfd;" horiz-adv-x="919" 
d="M790 976h110l-441 -1079q-51 -131 -111 -193q-60 -61 -153 -61q-16 0 -24 1t-22 3q-10 1 -21 7v88h44q66 0 104 36q37 36 73 119l55 131l-386 948h110l330 -826z" />
    <glyph glyph-name="z" unicode="z" horiz-adv-x="763" 
d="M173 106h551v-99h-683v77l540 793h-540v99h672v-77z" />
    <glyph glyph-name="braceleft" unicode="{" horiz-adv-x="491" 
d="M100 737q154 0 154 154v429q0 126 70 196q69 69 195 69h76v-99h-76q-76 0 -121 -45t-45 -121v-429q0 -63 -23 -101q-22 -37 -49 -59q-30 -24 -71 -38q41 -14 71 -38q28 -22 50 -60t22 -101v-429q0 -75 45 -120t121 -45h76v-100h-76q-126 0 -195 69q-70 70 -70 196v429
q0 154 -154 155v88z" />
    <glyph glyph-name="verticalbar" unicode="|" horiz-adv-x="362" 
d="M131 -156v1741h99v-1741h-99z" />
    <glyph glyph-name="braceright" unicode="}" horiz-adv-x="493" 
d="M392 737v-88q-154 0 -154 -155v-429q0 -126 -70 -196q-69 -69 -195 -69h-77v100h77q75 0 120 45t45 120v429q0 62 22 100q24 42 49 61q30 24 73 38q-43 14 -73 38q-25 20 -49 59q-22 37 -22 101v429q0 76 -45 121t-120 45h-77v99h77q126 0 195 -69q70 -70 70 -196v-429
q0 -154 154 -154z" />
    <glyph glyph-name="asciitilde" unicode="~" horiz-adv-x="1075" 
d="M140 576q65 71 166 71q66 0 128 -30q55 -27 119 -69q73 -48 107 -68q53 -31 97 -31q65 0 110 46q45 47 45 131h88q0 -132 -66 -204t-165 -72q-63 0 -128 31q-60 29 -120 68q-87 57 -107 69q-51 30 -97 30q-65 0 -110 -46t-45 -130h-88q0 132 66 204z" />
    <glyph glyph-name="nonbreakingspace" unicode="&#xa0;" horiz-adv-x="483" 
 />
    <glyph glyph-name="exclamdown" unicode="&#xa1;" horiz-adv-x="380" 
d="M135 1021q-22 22 -22 56q0 33 22 54q24 22 55 22q34 0 55 -22q22 -24 22 -54q0 -33 -23 -56q-22 -22 -54 -22q-33 0 -55 22zM135 812h99l22 -992h-133z" />
    <glyph glyph-name="cent" unicode="&#xa2;" horiz-adv-x="1083" 
d="M504 -37v199q-86 14 -156 53q-75 42 -126 103q-56 67 -85 150q-31 88 -31 190q0 101 31 189q30 86 85 150q53 62 126 103q70 39 156 53v221h99v-221q137 -16 235 -104q97 -86 139 -237h-111q-33 98 -112 170t-196 72q-70 0 -135 -30q-64 -30 -112 -82q-49 -53 -77 -126
q-29 -75 -29 -158q0 -86 29 -159q28 -71 77 -126q45 -51 112 -82q65 -30 135 -30q119 0 197 71q77 70 111 171h111q-42 -150 -138 -237q-97 -88 -236 -104v-199h-99z" />
    <glyph glyph-name="sterling" unicode="&#xa3;" horiz-adv-x="1136" 
d="M357 459q0 -52 -16 -85q-17 -35 -34 -58q-21 -27 -49 -44h772v-99h-926v99q66 16 105 60q39 43 39 127v298h-133v99h133v320q0 82 30 154t84 126q56 56 126 85q72 30 157 30t154 -28q71 -29 123 -79q56 -54 84 -119q31 -70 35 -148h-110q-4 54 -28 108q-22 51 -61 88
q-38 37 -90 58q-51 21 -107 21t-110 -23q-51 -22 -92 -63q-40 -40 -63 -95t-23 -116v-319h397v-99h-397v-298z" />
    <glyph glyph-name="currency" unicode="&#xa4;" horiz-adv-x="1318" 
d="M1138 700q0 -131 -76 -253l151 -151l-151 -151l-151 151q-124 -76 -252 -76q-131 0 -253 76l-151 -151l-151 151l151 151q-76 124 -76 253q0 128 76 252l-151 151l151 151l151 -151q124 76 253 76q128 0 252 -76l151 151l151 -151l-151 -151q76 -124 76 -252zM837 521
q73 73 73 179q0 105 -73 178t-178 73q-106 0 -179 -73t-73 -178q0 -106 73 -179t179 -73q105 0 178 73z" />
    <glyph glyph-name="yen" unicode="&#xa5;" horiz-adv-x="1048" 
d="M149 812h276l-419 749h121l397 -728l397 728h120l-418 -749h275v-99h-319v-177h319v-99h-319v-264h-110v264h-320v99h320v177h-320v99z" />
    <glyph glyph-name="section" unicode="&#xa7;" horiz-adv-x="1062" 
d="M901 902q49 -61 49 -157q0 -84 -44 -143q-43 -58 -95 -99q-61 -46 -139 -76q53 -16 100 -52q37 -28 70 -75q31 -44 31 -117q0 -117 -91 -196t-251 -79q-158 0 -245 88t-96 221h99q17 -99 80 -155q62 -55 162 -55q125 0 184 55t59 121t-49 106q-50 41 -122 69
q-62 24 -160 55q-94 30 -160 66q-74 41 -122 99t-48 156q0 83 44 144q43 59 99 100q61 46 143 76q-54 16 -99 51q-38 29 -68 75q-31 48 -31 116q0 57 24 108q25 53 67 89q43 37 104 58q59 20 135 20q70 0 128 -23t98 -63q41 -41 65 -95q25 -55 29 -116h-99q-17 93 -77 146
q-59 52 -144 52q-119 0 -174 -54q-57 -56 -57 -122q0 -64 48 -105t120 -69q68 -27 157 -55q88 -28 156 -66q74 -42 120 -99zM771 894q-80 65 -272 116q-77 -27 -144 -68q-57 -37 -99 -86q-44 -52 -44 -122q0 -83 83 -149q82 -65 280 -115q79 29 137 69q54 38 95 86
q44 52 44 120q0 84 -80 149z" />
    <glyph glyph-name="copyright" unicode="&#xa9;" horiz-adv-x="1589" 
d="M1423 981q54 -129 54 -276q0 -151 -54 -278q-55 -130 -146 -224q-92 -95 -217 -149q-124 -54 -266 -54q-141 0 -265 54q-125 54 -217 149q-93 96 -147 224t-54 278q0 147 54 276t147 225t217 150t265 54q142 0 266 -54t217 -150q91 -94 146 -225zM255 948
q-45 -111 -45 -243q0 -133 45 -244q45 -110 124 -191q80 -82 185 -126q106 -45 230 -45t230 45q105 44 185 126q79 81 124 191q45 111 45 244q0 132 -45 243q-45 112 -124 192q-78 80 -185 125q-109 46 -230 46t-230 -46q-107 -45 -185 -125q-79 -80 -124 -192zM581 810
q-18 -44 -18 -105q0 -62 18 -106q19 -48 51 -84q30 -35 74 -55q43 -20 88 -20q83 0 134 39t76 104h99q-25 -98 -105 -170t-204 -72q-64 0 -126 28q-58 26 -105 76q-46 49 -73 115q-26 64 -26 145q0 82 26 146q27 67 73 114q49 51 105 76q60 27 126 27q126 0 204 -71
q80 -72 105 -171h-99q-26 67 -76 105t-134 38q-47 0 -88 -19q-42 -20 -74 -56t-51 -84z" />
    <glyph glyph-name="softhyphen" unicode="&#xad;" horiz-adv-x="0" 
 />
    <glyph glyph-name="registered" unicode="&#xae;" horiz-adv-x="1589" 
d="M1423 981q54 -129 54 -276q0 -151 -54 -278q-55 -130 -146 -224q-92 -95 -217 -149q-124 -54 -266 -54q-141 0 -265 54q-125 54 -217 149q-93 96 -147 224t-54 278q0 147 54 276t147 225t217 150t265 54q142 0 266 -54t217 -150q91 -94 146 -225zM255 948
q-45 -111 -45 -243q0 -133 45 -244q45 -110 124 -191q80 -82 185 -126q106 -45 230 -45t230 45q105 44 185 126q79 81 124 191q45 111 45 244q0 132 -45 243q-45 112 -124 192q-78 80 -185 125q-109 46 -230 46t-230 -46q-107 -45 -185 -125q-79 -80 -124 -192zM997 995
q62 -64 62 -147q0 -62 -28 -101q-27 -37 -61 -59q-38 -24 -88 -38l198 -298h-110l-187 287h-122v-287h-88v706h254q109 0 170 -63zM827 969h-166v-242h166q57 0 95 35t38 86q0 50 -38 86q-36 35 -95 35z" />
    <glyph glyph-name="mu" unicode="&#xb5;" horiz-adv-x="1048" 
d="M123 1142h100v-572q0 -64 23 -122q22 -55 64 -99q42 -43 94 -65q55 -23 116 -23q64 0 122 23q56 22 99 65t65 98q23 57 23 123v572h99v-969h-67l-32 143h-12q-34 -47 -72 -78q-35 -29 -95 -53q-58 -23 -141 -23q-71 0 -121 22q-48 21 -86 48q-39 30 -68 73h-11v-485h-100
v1322z" />
    <glyph glyph-name="paragraph" unicode="&#xb6;" horiz-adv-x="968" 
d="M837 1561v-1586h-99v1487h-231v-1487h-99v969q-69 0 -129 23q-58 22 -102 65q-43 42 -66 98q-23 57 -23 123q0 65 23 122q22 55 66 97q46 44 102 66q60 23 129 23h429z" />
    <glyph glyph-name="questiondown" unicode="&#xbf;" horiz-adv-x="931" 
d="M115 14q-27 60 -27 125q0 79 25 129q27 54 63 93q34 37 83 76q45 36 82 79t63 104q25 59 25 148v21h111v-21q0 -101 -25 -167q-24 -65 -63 -114q-35 -44 -83 -83q-48 -38 -83 -72q-38 -36 -63 -81q-25 -44 -25 -112q0 -45 20 -88q20 -44 55 -74q34 -30 84 -50
q47 -19 106 -19q58 0 108 22q52 23 88 62q37 40 58 97t21 128v33h110v-33q0 -90 -30 -165q-31 -77 -80 -129q-52 -55 -122 -84q-72 -30 -154 -30q-86 0 -152 26q-69 27 -118 73q-51 48 -77 106zM551 1131q21 -21 21 -54t-21 -56q-21 -22 -55 -22t-56 22t-22 56q0 33 22 54
q24 22 56 22q33 0 55 -22z" />
    <glyph glyph-name="Agrave" unicode="&#xc0;" horiz-adv-x="1177" 
d="M632 1391l540 -1388h-121l-143 374h-639l-143 -374h-122l540 1388h88zM875 476l-287 738l-287 -738h574zM489 1821l132 -264h-77l-187 264h132z" />
    <glyph glyph-name="Aacute" unicode="&#xc1;" horiz-adv-x="1177" 
d="M632 1391l540 -1388h-121l-143 374h-639l-143 -374h-122l540 1388h88zM875 476l-287 738l-287 -738h574zM555 1557l132 264h133l-188 -264h-77z" />
    <glyph glyph-name="Acircumflex" unicode="&#xc2;" horiz-adv-x="1177" 
d="M632 1391l540 -1388h-121l-143 374h-639l-143 -374h-122l540 1388h88zM875 476l-287 738l-287 -738h574zM544 1799h88l209 -253h-110l-143 175l-143 -175h-111z" />
    <glyph glyph-name="Atilde" unicode="&#xc3;" horiz-adv-x="1177" 
d="M632 1391l540 -1388h-121l-143 374h-639l-143 -374h-122l540 1388h88zM664 1645q29 -23 57 -23q34 0 60 32q28 32 28 90h76q0 -109 -49 -165q-50 -56 -115 -56q-42 0 -77 23q-36 22 -63 49q-34 32 -58 50q-28 21 -56 21q-33 0 -60 -31q-28 -32 -28 -89h-78q0 108 51 163
q50 56 115 56q41 0 76 -21q36 -22 64 -50q27 -26 57 -49zM875 476l-287 738l-287 -738h574z" />
    <glyph glyph-name="Adieresis" unicode="&#xc4;" horiz-adv-x="1177" 
d="M632 1391l540 -1388h-121l-143 374h-639l-143 -374h-122l540 1388h88zM875 476l-287 738l-287 -738h574zM478 1733q22 -22 22 -56t-22 -55q-21 -21 -55 -21t-55 21t-23 55q0 33 23 56q22 22 55 22t55 -22zM809 1733q21 -23 21 -56q0 -34 -21 -55t-56 -21q-34 0 -55 21
t-21 55q0 33 21 56q22 22 55 22q32 0 56 -22z" />
    <glyph glyph-name="Aring" unicode="&#xc5;" horiz-adv-x="1177" 
d="M632 1391l540 -1388h-121l-143 374h-639l-143 -374h-122l540 1388h88zM875 476l-287 738l-287 -738h574zM462 1563q-50 50 -50 126t50 125q49 49 126 51q76 0 125 -51q50 -50 52 -125q0 -74 -52 -126q-51 -51 -125 -51q-75 0 -126 51zM517 1759q-28 -28 -28 -70
q0 -43 28 -71q29 -29 71 -28q42 0 70 28q29 29 29 71q0 41 -29 70t-70 29q-42 0 -71 -29z" />
    <glyph glyph-name="AE" unicode="&#xc6;" horiz-adv-x="1701" 
d="M1657 102v-99h-793v374h-540l-210 -374h-120l782 1388h859v-99h-661v-518h606v-99h-606v-573h683zM842 1292l-463 -816h485v816h-22z" />
    <glyph glyph-name="Ccedilla" unicode="&#xc7;" horiz-adv-x="1320" 
d="M984 1198q-114 105 -288 105q-101 0 -197 -45q-95 -44 -166 -123q-71 -78 -113 -190q-42 -111 -42 -248t42 -248q43 -114 113 -191q71 -79 166 -123q94 -44 197 -44q176 0 290 104q116 106 173 270h109q-63 -202 -201 -331q-139 -130 -345 -140l-37 -79q65 -9 105 -46
q38 -35 38 -87q0 -67 -47 -110q-49 -44 -140 -44q-27 0 -38 1q-7 1 -16 2.5t-10 1.5q-13 1 -24 6v78q14 -6 21 -7t25 -3q9 -1 30 -1q57 0 84 21t27 55q0 25 -24 46t-75 21q-9 0 -23 -2q-7 -1 -17 -6q-3 -1 -8.5 -2.5t-7.5 -1.5l63 157q-118 14 -222 67q-104 54 -184 144
q-78 89 -127 215q-47 122 -47 277t51 286q50 128 139 223q87 93 201 144q116 52 237 52q107 0 198 -35q90 -34 161 -98q72 -64 122 -150q54 -91 81 -191h-110q-51 166 -164 270z" />
    <glyph glyph-name="Egrave" unicode="&#xc8;" horiz-adv-x="1034" 
d="M991 102v-99h-860v1388h837v-99h-727v-518h672v-99h-672v-573h750zM484 1821l132 -264h-77l-187 264h132z" />
    <glyph glyph-name="Eacute" unicode="&#xc9;" horiz-adv-x="1034" 
d="M991 102v-99h-860v1388h837v-99h-727v-518h672v-99h-672v-573h750zM506 1557l132 264h132l-187 -264h-77z" />
    <glyph glyph-name="Ecircumflex" unicode="&#xca;" horiz-adv-x="1036" 
d="M241 99h750v-99h-860v1388h837v-99h-727v-518h672v-99h-672v-573zM516 1807h88l210 -253h-109l-145 176l-143 -176h-109z" />
    <glyph glyph-name="Edieresis" unicode="&#xcb;" horiz-adv-x="1034" 
d="M991 102v-99h-860v1388h837v-99h-727v-518h672v-99h-672v-573h750zM451 1733q22 -22 22 -56t-22 -55q-21 -21 -55 -21t-55 21t-23 55q0 33 23 56q21 21 55 21t55 -21zM781 1733q23 -23 23 -56q0 -34 -23 -55q-21 -21 -55 -21t-55 21q-20 20 -22 55q0 34 22 56
q21 21 55 21t55 -21z" />
    <glyph glyph-name="Igrave" unicode="&#xcc;" horiz-adv-x="372" 
d="M98 1821l132 -264h-77l-188 264h133zM241 1391v-1388h-110v1388h110z" />
    <glyph glyph-name="Iacute" unicode="&#xcd;" horiz-adv-x="370" 
d="M241 1391v-1388h-110v1388h110zM154 1557l131 264h132l-187 -264h-76z" />
    <glyph glyph-name="Icircumflex" unicode="&#xce;" horiz-adv-x="370" 
d="M141 1809h88l210 -252h-111l-143 176l-143 -176h-110zM240 1391v-1388h-110v1388h110z" />
    <glyph glyph-name="Idieresis" unicode="&#xcf;" horiz-adv-x="370" 
d="M75 1733q22 -24 22 -56q0 -33 -22 -55q-21 -21 -55 -21t-56 21q-21 21 -21 55q0 33 21 56q21 21 56 21q34 0 55 -21zM240 1391v-1388h-110v1388h110zM405 1733q23 -23 23 -56q0 -34 -23 -55q-21 -21 -55 -21q-33 0 -54 21t-23 55q0 33 23 56q21 21 54 21q34 0 55 -21z
" />
    <glyph glyph-name="Ntilde" unicode="&#xd1;" horiz-adv-x="1232" 
d="M991 1391h110v-1388h-99l-761 1179v-1179h-110v1388h99l761 -1178v1178zM703 1666q27 -21 56 -21q34 0 61 31q28 32 28 89h76q0 -108 -49 -163q-50 -56 -116 -56q-41 0 -76 21q-33 20 -63 50q-26 25 -59 49q-29 22 -56 23q-34 0 -60 -32q-28 -32 -28 -90h-76
q0 109 49 165q50 56 115 56q42 0 77 -23q36 -22 63 -49q34 -32 58 -50z" />
    <glyph glyph-name="Ograve" unicode="&#xd2;" horiz-adv-x="1390" 
d="M1272 983q52 -129 52 -286t-52 -286q-50 -128 -139 -223q-87 -93 -200 -144q-115 -52 -237 -52t-237 52q-113 51 -201 144q-89 95 -139 223q-51 131 -51 286t51 286q50 128 139 223q87 93 201 144q115 52 237 52t237 -52q113 -51 200 -144q89 -95 139 -223zM219 945
q-41 -114 -41 -248q0 -136 41 -248q42 -110 114 -190q73 -80 166 -124q94 -44 197 -44t197 44q93 44 166 124q73 81 113 190q42 111 42 248q0 135 -42 248q-42 111 -113 191q-70 77 -166 122t-197 45t-197 -45q-94 -44 -166 -122q-72 -79 -114 -191zM608 1821l132 -264h-77
l-188 264h133z" />
    <glyph glyph-name="Oacute" unicode="&#xd3;" horiz-adv-x="1390" 
d="M1272 983q52 -129 52 -286t-52 -286q-50 -128 -139 -223q-87 -93 -200 -144q-115 -52 -237 -52t-237 52q-113 51 -201 144q-89 95 -139 223q-51 131 -51 286t51 286q50 128 139 223q87 93 201 144q115 52 237 52t237 -52q113 -51 200 -144q89 -95 139 -223zM219 945
q-41 -114 -41 -248q0 -136 41 -248q42 -110 114 -190q73 -80 166 -124q94 -44 197 -44t197 44q93 44 166 124q73 81 113 190q42 111 42 248q0 135 -42 248q-42 111 -113 191q-70 77 -166 122t-197 45t-197 -45q-94 -44 -166 -122q-72 -79 -114 -191zM673 1557l133 264h132
l-187 -264h-78z" />
    <glyph glyph-name="Ocircumflex" unicode="&#xd4;" horiz-adv-x="1390" 
d="M1272 983q52 -129 52 -286t-52 -286q-50 -128 -139 -223q-87 -93 -200 -144q-115 -52 -237 -52t-237 52q-113 51 -201 144q-89 95 -139 223q-51 131 -51 286t51 286q50 128 139 223q87 93 201 144q115 52 237 52t237 -52q113 -51 200 -144q89 -95 139 -223zM219 945
q-41 -114 -41 -248q0 -136 41 -248q42 -110 114 -190q73 -80 166 -124q94 -44 197 -44t197 44q93 44 166 124q73 81 113 190q42 111 42 248q0 135 -42 248q-42 111 -113 191q-70 77 -166 122t-197 45t-197 -45q-94 -44 -166 -122q-72 -79 -114 -191zM652 1799h88l209 -253
h-110l-143 175l-143 -175h-111z" />
    <glyph glyph-name="Otilde" unicode="&#xd5;" horiz-adv-x="1390" 
d="M1272 983q52 -129 52 -286t-52 -286q-50 -128 -139 -223q-87 -93 -200 -144q-115 -52 -237 -52t-237 52q-113 51 -201 144q-89 95 -139 223q-51 131 -51 286t51 286q50 128 139 223q87 93 201 144q115 52 237 52t237 -52q113 -51 200 -144q89 -95 139 -223zM219 945
q-41 -114 -41 -248q0 -136 41 -248q42 -110 114 -190q73 -80 166 -124q94 -44 197 -44t197 44q93 44 166 124q73 81 113 190q42 111 42 248q0 135 -42 248q-42 111 -113 191q-70 77 -166 122t-197 45t-197 -45q-94 -44 -166 -122q-72 -79 -114 -191zM771 1666q29 -21 57 -21
q34 0 61 31q28 32 28 89h76q0 -107 -50 -163t-115 -56q-42 0 -76 21q-36 22 -64 50q-29 28 -58 49q-29 22 -56 23q-34 0 -60 -32q-28 -32 -28 -90h-76q0 109 49 165q50 56 115 56q42 0 77 -23q36 -22 63 -49q33 -31 57 -50z" />
    <glyph glyph-name="Odieresis" unicode="&#xd6;" horiz-adv-x="1390" 
d="M1272 983q52 -129 52 -286t-52 -286q-50 -128 -139 -223q-87 -93 -200 -144q-115 -52 -237 -52t-237 52q-113 51 -201 144q-89 95 -139 223q-51 131 -51 286t51 286q50 128 139 223q87 93 201 144q115 52 237 52t237 -52q113 -51 200 -144q89 -95 139 -223zM219 945
q-41 -114 -41 -248q0 -136 41 -248q42 -110 114 -190q73 -80 166 -124q94 -44 197 -44t197 44q93 44 166 124q73 81 113 190q42 111 42 248q0 135 -42 248q-42 111 -113 191q-70 77 -166 122t-197 45t-197 -45q-94 -44 -166 -122q-72 -79 -114 -191zM585 1733q23 -23 23 -56
q0 -34 -23 -55q-21 -21 -55 -21t-55 21t-21 55q0 33 21 56q21 21 55 21t55 -21zM917 1733q21 -23 21 -56q0 -34 -21 -55t-56 -21q-34 0 -55 21q-22 22 -22 55q0 32 22 56q21 21 55 21q33 0 56 -21z" />
    <glyph glyph-name="Oslash" unicode="&#xd8;" horiz-adv-x="1449" 
d="M63 124l155 154q-55 81 -89 189q-32 102 -32 230q0 155 51 286q50 128 139 223q87 93 201 144q116 52 237 52q133 0 246 -55t206 -154l143 143l66 -66l-154 -155q55 -81 89 -189q33 -105 33 -229q0 -154 -53 -286q-53 -131 -139 -223q-87 -93 -200 -144
q-115 -52 -237 -52q-126 0 -242 55q-118 56 -210 154l-143 -143zM249 945q-41 -108 -41 -248q0 -106 23 -192q21 -79 64 -149l805 759q-67 91 -167 139q-103 49 -208 49q-101 0 -197 -45q-93 -44 -165 -123q-72 -80 -114 -190zM1201 449q42 111 42 248q0 97 -23 183
q-22 82 -65 159l-804 -761q73 -91 170 -140q93 -47 204 -47q103 0 197 44q93 43 165 123q72 79 114 191z" />
    <glyph glyph-name="Ugrave" unicode="&#xd9;" horiz-adv-x="1216" 
d="M812 29q-96 -37 -204 -37q-110 0 -204 37q-91 36 -156 104t-101 166q-36 96 -34 221v871h109v-871q0 -206 106 -318q105 -111 280 -111q174 0 279 111q106 112 107 318v871h110v-871q0 -124 -36 -221q-37 -100 -100 -166q-65 -68 -156 -104zM542 1821l132 -265h-77
l-187 265h132z" />
    <glyph glyph-name="Uacute" unicode="&#xda;" horiz-adv-x="1216" 
d="M812 29q-96 -37 -204 -37q-110 0 -204 37q-91 36 -156 104t-101 166q-36 96 -34 221v871h109v-871q0 -206 106 -318q105 -111 280 -111q174 0 279 111q106 112 107 318v871h110v-871q0 -124 -36 -221q-37 -100 -100 -166q-65 -68 -156 -104zM564 1556l132 265h132
l-187 -265h-77z" />
    <glyph glyph-name="Ucircumflex" unicode="&#xdb;" horiz-adv-x="1216" 
d="M812 29q-96 -37 -204 -37q-110 0 -204 37q-91 36 -156 104t-101 166q-36 96 -34 221v871h109v-871q0 -206 106 -318q105 -111 280 -111q174 0 279 111q106 112 107 318v871h110v-871q0 -124 -36 -221q-37 -100 -100 -166q-65 -68 -156 -104zM564 1799h88l210 -253h-110
l-144 175l-143 -175h-110z" />
    <glyph glyph-name="Udieresis" unicode="&#xdc;" horiz-adv-x="1216" 
d="M812 29q-96 -37 -204 -37q-110 0 -204 37q-91 36 -156 104t-101 166q-36 96 -34 221v871h109v-871q0 -206 106 -318q105 -111 280 -111q174 0 279 111q106 112 107 318v871h110v-871q0 -124 -36 -221q-37 -100 -100 -166q-65 -68 -156 -104zM498 1733q21 -23 21 -56
q0 -34 -21 -55t-55 -21t-55 21q-20 20 -22 55q0 34 22 56q21 21 55 21t55 -21zM828 1733q23 -23 23 -56q0 -34 -23 -55q-21 -21 -55 -21t-55 21q-20 20 -22 55q0 34 22 56q21 21 55 21t55 -21z" />
    <glyph glyph-name="germandbls" unicode="&#xdf;" horiz-adv-x="997" 
d="M754 970q-44 -44 -92 -70q80 -21 143 -69q55 -42 98 -107q45 -68 45 -177q0 -78 -29 -148q-28 -68 -79 -119t-119 -79t-148 -28h-121v99h121q57 0 108 21t88 58q38 38 59 89t21 107q0 57 -21 108q-20 49 -59 88t-88 59q-51 21 -108 21h-99v99q56 0 108 23q50 22 88 60
t59 89t21 103q0 53 -21 104q-20 49 -59 88q-38 38 -88 60q-52 23 -108 23q-61 0 -114 -22t-91 -60t-59 -93q-22 -58 -22 -121v-1003h-100v1003q0 86 30 158q31 75 81 126q51 52 121 82q68 29 154 29q82 0 148 -28q69 -29 119 -79q51 -51 79 -119q29 -70 29 -148
q0 -79 -30 -134q-31 -58 -65 -93z" />
    <glyph glyph-name="agrave" unicode="&#xe0;" 
d="M331 968q64 23 142 23t145 -25q61 -24 111 -71q46 -44 71 -107q26 -64 26 -138v-639q-29 0 -51.5 18t-29.5 47l-18 78h-12q-34 -47 -72 -78q-36 -30 -94 -53q-58 -24 -141 -23q-164 0 -254 79q-88 79 -88 196q0 64 29 124q28 58 92 102q60 42 166 68q104 26 253 26h121
v55q0 108 -69 175t-185 67q-117 0 -178 -51q-63 -52 -86 -125h-99q9 55 37 104q27 49 76 88q48 38 108 60zM229 154q62 -55 189 -55q141 0 225 84t84 225v88h-121q-128 0 -213 -18q-81 -16 -136 -48q-50 -30 -71 -68q-19 -37 -21 -87q0 -66 64 -121zM396 1430l132 -265h-76
l-188 265h132z" />
    <glyph glyph-name="aacute" unicode="&#xe1;" 
d="M331 968q63 23 142 23q77 0 144 -25q63 -25 112 -71q46 -44 71 -107q26 -64 26 -138v-639q-29 0 -51.5 18t-29.5 47l-18 78h-12q-34 -47 -72 -78q-36 -30 -94 -53q-58 -24 -141 -23q-164 0 -254 79q-88 79 -88 196q0 64 29 124q28 58 92 102q60 42 166 68q104 26 253 26
h121v55q0 108 -69 175t-185 67q-117 0 -178 -51q-62 -52 -86 -126h-99q10 56 37 105t76 88q48 38 108 60zM229 154q62 -55 189 -55q141 0 225 84t84 225v88h-121q-128 0 -213 -18q-81 -16 -136 -48q-50 -30 -71 -68q-20 -39 -22 -87q0 -65 65 -121zM440 1165l132 265h133
l-188 -265h-77z" />
    <glyph glyph-name="acircumflex" unicode="&#xe2;" 
d="M331 968q64 23 142 23q77 0 144 -25q63 -25 112 -71q46 -44 71 -107q26 -64 26 -138v-639q-29 0 -51.5 18t-29.5 47l-18 78h-12q-34 -47 -72 -78q-36 -30 -94 -53q-58 -24 -141 -23q-164 0 -254 79q-88 79 -88 196q0 64 29 124q28 58 92 102q60 42 166 68q104 26 253 26
h121v55q0 108 -69 175t-185 67q-117 0 -178 -51q-62 -52 -86 -126h-99q10 56 37 105t76 88q48 38 108 60zM229 154q62 -55 189 -55q141 0 225 84t84 225v88h-121q-128 0 -213 -18q-81 -16 -136 -48q-50 -30 -71 -68q-20 -39 -22 -87q0 -65 65 -121zM442 1421h88l210 -254
h-111l-143 177l-143 -177h-110z" />
    <glyph glyph-name="atilde" unicode="&#xe3;" 
d="M331 968q63 23 142 23q77 0 144 -25q63 -25 112 -71q46 -44 71 -107q26 -64 26 -138v-639q-29 0 -51.5 18t-29.5 47l-18 78h-12q-34 -47 -72 -78q-36 -30 -94 -53q-58 -24 -141 -23q-164 0 -254 79q-88 79 -88 196q0 64 29 124q28 58 92 102q60 42 166 68q104 26 253 26
h121v55q0 108 -69 175t-185 67q-117 0 -178 -51q-62 -52 -86 -126h-99q10 56 37 105t76 88q48 38 108 60zM229 154q62 -55 189 -55q141 0 225 84t84 225v88h-121q-128 0 -213 -18q-81 -16 -136 -48q-50 -30 -71 -68q-20 -39 -22 -87q0 -65 65 -121zM560 1256q28 -22 56 -22
q34 0 61 31q28 32 28 90h77q0 -109 -49 -164t-117 -57q-41 0 -75 23q-35 21 -64 49q-28 27 -58 50q-28 21 -55 22q-34 0 -62 -32q-28 -33 -27 -89h-77q0 108 49 164q50 56 117 56q43 0 75 -22q32 -19 64 -50q27 -26 57 -49z" />
    <glyph glyph-name="adieresis" unicode="&#xe4;" 
d="M331 968q63 23 142 23q77 0 144 -25q63 -25 112 -71q46 -44 71 -107q26 -64 26 -138v-639q-29 0 -51.5 18t-29.5 47l-18 78h-12q-34 -47 -72 -78q-36 -30 -94 -53q-58 -24 -141 -23q-164 0 -254 79q-88 79 -88 196q0 64 29 124q28 58 92 102q60 42 166 68q104 26 253 26
h121v55q0 108 -69 175t-185 67q-117 0 -178 -51q-62 -52 -86 -126h-99q10 56 37 105t76 88q48 38 108 60zM229 154q62 -55 189 -55q141 0 225 84t84 225v88h-121q-128 0 -213 -18q-81 -16 -136 -48q-50 -30 -71 -68q-20 -39 -22 -87q0 -65 65 -121zM385 1333q23 -21 23 -55
q0 -33 -23 -56q-21 -21 -55 -21t-55 21q-20 20 -22 56q0 34 22 55q22 22 55 22t55 -22zM715 1333q23 -21 23 -55q0 -33 -23 -56q-21 -21 -54 -21q-34 0 -55 21q-22 22 -23 56q0 34 23 55q22 22 55 22q32 0 54 -22z" />
    <glyph glyph-name="ae" unicode="&#xe6;" horiz-adv-x="1609" 
d="M1388 253h122q-20 -51 -54 -96q-35 -46 -81 -80q-48 -36 -106 -56q-60 -21 -135 -21q-105 0 -173 35q-65 33 -111 79q-50 50 -79 117q-31 -66 -84 -117q-46 -46 -115 -79q-73 -35 -176 -35q-84 0 -145 21q-63 22 -103 57t-61 84q-21 48 -21 103q0 65 27 121t90 98
q64 43 167 65q106 23 256 23h109v78q0 108 -67 175t-175 67q-117 0 -178 -51q-63 -52 -86 -125h-99q9 53 37 103t76 89q48 38 108 60q64 23 142 23q93 0 152 -33q61 -34 93 -72q36 -41 64 -104q34 58 84 104q39 36 107 72q63 33 150 33q89 0 168 -32q78 -32 134 -89t86 -139
q31 -84 31 -180q0 -13 -2 -31q-1 -5 -3 -13t-2 -11t-1.5 -11t-2.5 -12h-717q16 -181 106 -278q89 -96 214 -96q98 0 160 48q60 46 94 106zM222 149q58 -50 174 -50q148 0 234 84q85 84 85 225v65h-109q-132 0 -213 -17q-83 -18 -136 -47q-50 -28 -71 -66q-21 -37 -21 -78
q0 -67 57 -116zM1341 807q-85 85 -218 85q-116 0 -200 -84q-85 -85 -109 -236h629q-16 149 -102 235z" />
    <glyph glyph-name="ccedilla" unicode="&#xe7;" horiz-adv-x="997" 
d="M715 820q-78 72 -195 72q-72 0 -136 -30t-112 -82q-49 -53 -77 -126q-28 -72 -28 -158q0 -88 28 -159t77 -126q45 -51 112 -82q64 -30 136 -30q116 0 196 72q78 70 111 170h111q-42 -149 -136 -237q-93 -87 -223 -102l-38 -79q64 -9 104 -46q39 -36 39 -87
q0 -67 -47 -110q-49 -44 -140 -44q-27 0 -37 1q-6 1 -16 3l-11 1q-11 1 -24 6v78q14 -6 22 -7q11 -2 24 -3q9 -1 31 -1q57 0 84 21q26 20 26 55q0 25 -24 46t-75 21q-11 0 -23 -2q-3 -1 -17 -6q-4 -1 -9 -2.5t-6 -1.5l61 155q-95 5 -172 41q-80 38 -139 103q-60 66 -92 154
q-32 87 -32 198q0 107 35 198q36 94 95 157q61 65 144 103q81 37 178 37q166 0 271 -96t147 -245h-111q-32 96 -112 170z" />
    <glyph glyph-name="egrave" unicode="&#xe8;" horiz-adv-x="1024" 
d="M925 253q-19 -46 -56 -92q-34 -42 -84 -80q-51 -37 -114 -59q-66 -22 -143 -22q-97 0 -184 38q-85 37 -146 103q-61 65 -97 156q-35 87 -35 199q0 110 35 198q36 90 96 156q58 64 143 104q85 38 177 37q89 0 170 -35q84 -37 141 -97q59 -62 95 -147q36 -87 35 -184
q0 -3 -3 -30q-1 -5 -2.5 -13t-1.5 -12q-1 -3 -2 -10t-2 -11h-782q9 -82 38 -145q30 -65 78 -111q49 -47 110 -72q65 -26 137 -25q52 0 97 14q44 14 79 38q36 25 58 50q34 40 42 52h121zM641 867q-57 25 -124 25q-63 0 -124 -25q-58 -25 -105 -71q-45 -43 -78 -107
q-31 -59 -45 -138h694q-9 75 -39 138q-29 60 -74 107q-45 45 -105 71zM440 1430l132 -265h-77l-187 265h132z" />
    <glyph glyph-name="eacute" unicode="&#xe9;" horiz-adv-x="1024" 
d="M925 253q-19 -46 -56 -92q-34 -42 -84 -80q-51 -37 -114 -59q-66 -22 -143 -22q-97 0 -184 38q-85 37 -146 103q-61 65 -97 156q-35 87 -35 199q0 110 35 198q36 90 96 156q58 64 143 104q85 38 177 37q89 0 170 -35q84 -37 141 -97q59 -62 95 -147q36 -87 35 -184
q0 -3 -3 -30q-1 -5 -2.5 -13t-1.5 -12q-1 -3 -2 -10t-2 -11h-782q9 -82 38 -145q30 -65 78 -111q49 -47 110 -72q65 -26 137 -25q52 0 97 14q44 14 79 38q36 25 58 50q34 40 42 52h121zM641 867q-57 25 -124 25q-63 0 -124 -25q-58 -25 -105 -71q-45 -43 -78 -107
q-31 -59 -45 -138h694q-9 75 -39 138q-29 60 -74 107q-45 45 -105 71zM484 1165l132 265h133l-187 -265h-78z" />
    <glyph glyph-name="ecircumflex" unicode="&#xea;" horiz-adv-x="1024" 
d="M925 253q-19 -46 -56 -92q-34 -42 -84 -80q-51 -37 -114 -59q-66 -22 -143 -22q-97 0 -184 38q-85 37 -146 103q-61 65 -97 156q-35 87 -35 199q0 110 35 198q36 90 96 156q58 64 143 104q85 38 177 37q89 0 170 -35q84 -37 141 -97q59 -62 95 -147q36 -87 35 -184
q0 -3 -3 -30q-1 -5 -2.5 -13t-1.5 -12q-1 -3 -2 -10t-2 -11h-782q9 -82 38 -145q30 -65 78 -111q49 -47 110 -72q65 -26 137 -25q52 0 97 14q44 14 79 38q36 25 58 50q34 40 42 52h121zM641 867q-57 25 -124 25q-63 0 -124 -25q-58 -25 -105 -71q-45 -43 -78 -107
q-31 -59 -45 -138h694q-9 75 -39 138q-29 60 -74 107q-45 45 -105 71zM473 1410h89l208 -253h-109l-143 176l-144 -176h-110z" />
    <glyph glyph-name="edieresis" unicode="&#xeb;" horiz-adv-x="1024" 
d="M925 253q-19 -46 -56 -92q-34 -42 -84 -80q-51 -37 -114 -59q-66 -22 -143 -22q-97 0 -184 38q-85 37 -146 103q-61 65 -97 156q-35 87 -35 199q0 110 35 198q36 90 96 156q58 64 143 104q85 38 177 37q89 0 170 -35q84 -37 141 -97q59 -62 95 -147q36 -87 35 -184
q0 -3 -3 -30q-1 -5 -2.5 -13t-1.5 -12q-1 -3 -2 -10t-2 -11h-782q9 -82 38 -145q30 -65 78 -111q49 -47 110 -72q65 -26 137 -25q52 0 97 14q44 14 79 38q36 25 58 50q34 40 42 52h121zM641 867q-57 25 -124 25q-63 0 -124 -25q-58 -25 -105 -71q-45 -43 -78 -107
q-31 -59 -45 -138h694q-9 75 -39 138q-29 60 -74 107q-45 45 -105 71zM407 1333q22 -21 22 -55t-22 -56q-21 -21 -55 -21t-55 21q-21 22 -23 56q0 34 23 55q22 22 55 22t55 -22zM738 1333q22 -22 22 -55q0 -32 -22 -56q-21 -21 -56 -21q-34 0 -55 21t-21 56q0 34 21 55
q22 22 55 22q32 0 56 -22z" />
    <glyph glyph-name="igrave" unicode="&#xec;" horiz-adv-x="325" 
d="M68 1421l132 -264h-76l-187 264h131zM212 980v-969h-100v969h100z" />
    <glyph glyph-name="iacute" unicode="&#xed;" horiz-adv-x="325" 
d="M213 980v-969h-100v969h100zM135 1157l133 264h132l-187 -264h-78z" />
    <glyph glyph-name="icircumflex" unicode="&#xee;" horiz-adv-x="325" 
d="M124 1421h88l209 -254h-110l-143 177l-144 -177h-110zM212 980v-969h-100v969h100z" />
    <glyph glyph-name="idieresis" unicode="&#xef;" horiz-adv-x="323" 
d="M57 1333q22 -21 22 -55t-22 -56q-21 -21 -55 -21t-55 21q-21 22 -23 56q0 34 23 55q22 22 55 22t55 -22zM211 980v-969h-100v969h100zM387 1333q22 -21 22 -55t-22 -56q-21 -21 -55 -21t-55 21q-20 20 -22 56q0 34 22 55q22 22 55 22t55 -22z" />
    <glyph glyph-name="ntilde" unicode="&#xf1;" horiz-adv-x="1013" 
d="M389 967q59 24 142 24q81 0 154 -29q73 -30 122 -84q49 -52 80 -129q30 -75 30 -166v-572h-99v572q0 68 -23 123q-25 57 -64 98t-94 65t-117 23q-64 0 -121 -23q-57 -25 -99 -65q-42 -42 -65 -98q-24 -54 -22 -123v-572h-100v969h66l34 -143h10q28 43 70 78q36 27 96 52z
M593 1278q26 -22 55 -22q35 0 61 32q28 32 28 89h77q0 -108 -49 -164q-50 -56 -117 -56q-42 0 -76 21q-31 19 -63 51q-27 26 -57 49q-30 22 -56 22q-34 0 -62 -32q-28 -33 -27 -90h-77q0 109 49 165q50 56 117 56q40 0 75 -22q37 -23 65 -49q33 -31 57 -50z" />
    <glyph glyph-name="ograve" unicode="&#xf2;" horiz-adv-x="1036" 
d="M934 694q35 -88 35 -198t-35 -199q-36 -90 -96 -156q-59 -65 -143 -103t-178 -38q-93 0 -177 38t-143 103q-60 66 -96 156q-35 87 -35 199q0 110 35 198q36 90 96 156q58 64 143 104q85 38 177 37q93 0 178 -37q83 -38 143 -104t96 -156zM194 654q-29 -73 -29 -158
q0 -84 29 -159q29 -74 76 -126q49 -54 113 -82q63 -30 134 -30q72 0 135 30t112 82q49 53 77 126q29 76 28 159q0 87 -28 158q-28 73 -77 126q-48 53 -112 83q-64 31 -135 29q-70 0 -134 -29q-63 -30 -113 -83q-47 -52 -76 -126zM429 1421l133 -264h-78l-187 264h132z" />
    <glyph glyph-name="oacute" unicode="&#xf3;" horiz-adv-x="1036" 
d="M934 694q35 -88 35 -198t-35 -199q-36 -90 -96 -156q-59 -65 -143 -103t-178 -38q-93 0 -177 38t-143 103q-60 66 -96 156q-35 87 -35 199q0 110 35 198q36 90 96 156q58 64 143 104q85 38 177 37q93 0 178 -37q83 -38 143 -104t96 -156zM194 654q-29 -73 -29 -158
q0 -84 29 -159q29 -74 76 -126q49 -54 113 -82q63 -30 134 -30q72 0 135 30t112 82q49 53 77 126q29 76 28 159q0 87 -28 158q-28 73 -77 126q-48 53 -112 83q-64 31 -135 29q-70 0 -134 -29q-63 -30 -113 -83q-47 -52 -76 -126zM495 1157l132 264h133l-188 -264h-77z" />
    <glyph glyph-name="ocircumflex" unicode="&#xf4;" horiz-adv-x="1036" 
d="M934 694q35 -88 35 -198t-35 -199q-36 -90 -96 -156q-59 -65 -143 -103t-178 -38q-93 0 -177 38t-143 103q-60 66 -96 156q-35 87 -35 199q0 110 35 198q36 90 96 156q58 64 143 104q85 38 177 37q93 0 178 -37q83 -38 143 -104t96 -156zM194 654q-29 -73 -29 -158
q0 -84 29 -159q29 -74 76 -126q49 -54 113 -82q63 -30 134 -30q72 0 135 30t112 82q49 53 77 126q29 76 28 159q0 87 -28 158q-28 73 -77 126q-48 53 -112 83q-64 31 -135 29q-70 0 -134 -29q-63 -30 -113 -83q-47 -52 -76 -126zM473 1421h89l208 -254h-109l-144 177
l-143 -177h-110z" />
    <glyph glyph-name="otilde" unicode="&#xf5;" horiz-adv-x="1036" 
d="M934 694q35 -88 35 -198t-35 -199q-36 -90 -96 -156q-59 -65 -143 -103t-178 -38q-93 0 -177 38t-143 103q-60 66 -96 156q-35 87 -35 199q0 110 35 198q36 90 96 156q58 64 143 104q85 38 177 37q93 0 178 -37q83 -38 143 -104t96 -156zM194 654q-29 -73 -29 -158
q0 -84 29 -159q29 -74 76 -126q49 -54 113 -82q63 -30 134 -30q72 0 135 30t112 82q49 53 77 126q29 76 28 159q0 87 -28 158q-28 73 -77 126q-48 53 -112 83q-64 31 -135 29q-70 0 -134 -29q-63 -30 -113 -83q-47 -52 -76 -126zM605 1266q27 -21 56 -21q34 0 60 32
q28 32 28 90h76q0 -109 -49 -165q-50 -56 -115 -56q-43 0 -77 21q-33 20 -63 50q-27 26 -57 49q-29 22 -57 23q-35 0 -61 -32q-28 -32 -28 -90h-76q0 109 49 165q50 56 116 56q40 0 76 -22q33 -20 63 -50q31 -29 59 -50z" />
    <glyph glyph-name="odieresis" unicode="&#xf6;" horiz-adv-x="1036" 
d="M934 694q35 -88 35 -198t-35 -199q-36 -90 -96 -156q-59 -65 -143 -103t-178 -38q-93 0 -177 38t-143 103q-60 66 -96 156q-35 87 -35 199q0 110 35 198q36 90 96 156q58 64 143 104q85 38 177 37q93 0 178 -37q83 -38 143 -104t96 -156zM194 654q-29 -73 -29 -158
q0 -84 29 -159q29 -74 76 -126q49 -54 113 -82q63 -30 134 -30q72 0 135 30t112 82q49 53 77 126q29 76 28 159q0 87 -28 158q-28 73 -77 126q-48 53 -112 83q-64 31 -135 29q-70 0 -134 -29q-63 -30 -113 -83q-47 -52 -76 -126zM407 1333q22 -21 22 -55t-22 -56
q-21 -21 -55 -21t-55 21q-21 22 -23 56q0 34 23 55q22 22 55 22t55 -22zM738 1333q22 -22 22 -55q0 -32 -22 -56q-21 -21 -56 -21q-34 0 -55 21t-21 56q0 34 21 55q22 22 55 22q32 0 56 -22z" />
    <glyph glyph-name="oslash" unicode="&#xf8;" horiz-adv-x="1091" 
d="M1032 903l-122 -110q43 -58 65 -135q24 -83 24 -162q0 -108 -36 -199t-96 -157q-59 -65 -143 -103q-81 -37 -177 -37q-94 0 -172 37q-79 37 -137 95l-110 -111l-67 67l122 110q-43 58 -65 131q-23 75 -23 167q0 110 35 198q36 90 96 156t143 104q81 37 178 37
q93 0 171 -37q81 -38 138 -95l109 110zM223 655q-29 -73 -29 -159q0 -48 8 -91q7 -37 19 -70q10 -35 29 -60l539 518q-26 26 -64 48q-39 20 -76 34q-46 17 -102 17q-72 0 -135 -30q-66 -31 -112 -82q-49 -53 -77 -125zM871 337q29 73 29 159q0 52 -9 89q-8 32 -20 69
q-11 34 -27 62l-539 -518q30 -32 63 -51q35 -18 76 -32q48 -16 103 -16q71 0 134 30q68 32 112 82q51 57 78 126z" />
    <glyph glyph-name="ugrave" unicode="&#xf9;" horiz-adv-x="1013" 
d="M623 23q-58 -23 -140 -23q-83 0 -155 29q-72 31 -121 84q-51 54 -81 129t-30 166v572h100v-572q0 -65 23 -123q26 -59 63 -98q38 -40 95 -65q55 -24 116 -23q65 0 123 23q58 25 98 65q41 41 64 98q24 55 24 123v572h99v-969h-67l-32 143h-12q-34 -47 -72 -78
q-35 -29 -95 -53zM428 1432l131 -265h-76l-188 265h133z" />
    <glyph glyph-name="uacute" unicode="&#xfa;" horiz-adv-x="1013" 
d="M623 23q-58 -23 -140 -23q-83 0 -155 29q-72 31 -121 84q-51 54 -81 129t-30 166v572h100v-572q0 -65 23 -123q26 -59 63 -98q38 -40 95 -65q55 -24 116 -23q65 0 123 23q58 25 98 65q41 41 64 98q24 55 24 123v572h99v-969h-67l-32 143h-12q-34 -47 -72 -78
q-35 -29 -95 -53zM460 1167l132 265h133l-188 -265h-77z" />
    <glyph glyph-name="ucircumflex" unicode="&#xfb;" horiz-adv-x="1013" 
d="M623 23q-58 -23 -140 -23q-83 0 -155 29q-72 31 -121 84q-51 54 -81 129t-30 166v572h100v-572q0 -65 23 -123q26 -59 63 -98q38 -40 95 -65q55 -24 116 -23q65 0 123 23q58 25 98 65q41 41 64 98q24 55 24 123v572h99v-969h-67l-32 143h-12q-34 -47 -72 -78
q-35 -29 -95 -53zM460 1421h88l210 -254h-111l-143 177l-143 -177h-110z" />
    <glyph glyph-name="udieresis" unicode="&#xfc;" horiz-adv-x="1013" 
d="M623 23q-58 -23 -140 -23q-83 0 -155 29q-72 31 -121 84q-51 54 -81 129t-30 166v572h100v-572q0 -65 23 -123q26 -59 63 -98q38 -40 95 -65q55 -24 116 -23q65 0 123 23q58 25 98 65q41 41 64 98q24 55 24 123v572h99v-969h-67l-32 143h-12q-34 -47 -72 -78
q-35 -29 -95 -53zM394 1333q22 -22 22 -55q0 -32 -22 -56q-21 -21 -55 -21q-33 0 -56 21q-21 21 -21 56q0 34 21 55q22 22 56 22q33 0 55 -22zM725 1333q22 -21 22 -55t-22 -56q-21 -21 -55 -21t-55 21q-21 22 -23 56q0 34 23 55q22 22 55 22t55 -22z" />
    <glyph glyph-name="florin" unicode="&#x192;" horiz-adv-x="622" 
d="M350 889l-132 -716q-33 -199 -111 -281q-78 -83 -219 -83q-37 0 -65 11q-13 4 -24 12l22 87q12 -6 20 -7q14 -2 22 -3t25 -1q83 0 135 58t85 207q20 103 67 358q28 150 64 358h-143l23 99h143l44 221q33 197 111 280q78 82 219 82q20 0 36 -3q20 -4 29 -7q4 -2 12 -5.5
t12 -5.5l-22 -88q-2 0 -8.5 1.5t-11.5 2.5q-3 0 -11 1.5t-12 2.5q-16 2 -24 2q-84 0 -135 -57q-53 -59 -85 -206q-9 -40 -14 -63q-11 -57 -14 -72q-8 -35 -16 -86h243l-23 -99h-242z" />
    <glyph glyph-name="perthousand" unicode="&#x2030;" horiz-adv-x="1939" 
d="M623 1393q20 -49 20 -108q0 -58 -20 -107q-22 -53 -58 -89t-89 -58q-51 -21 -108 -21t-108 21t-88 58q-38 38 -59 89t-21 107q0 57 21 108t59 89q37 37 88 58t108 21t108 -21q53 -22 89 -58t58 -89zM242 1421q-50 -52 -50 -136t51 -135q52 -52 125 -52q74 0 126 52
q50 50 50 135q0 86 -50 136q-51 51 -126 51q-76 0 -126 -51zM203 173l848 1388h111l-849 -1388h-110zM697 341q-21 51 -21 107q0 57 21 108q20 49 59 88t88 59q51 21 108 21t108 -21q49 -20 88 -59q37 -37 58 -88t21 -108q0 -56 -21 -107q-22 -53 -58 -89q-37 -37 -88 -58
t-108 -21t-108 21t-88 58q-38 38 -59 89zM1078 313q50 50 50 135q0 86 -50 136q-51 51 -126 51t-126 -51t-51 -136q0 -83 52 -135t125 -52q74 0 126 52zM1315 341q-21 51 -21 107q0 57 21 108t58 88q39 39 88 59q51 21 108 21t108 -21q49 -20 88 -59t59 -88q21 -51 21 -108
q0 -56 -21 -107t-59 -89q-37 -37 -88 -58t-108 -21t-108 21t-88 58q-36 36 -58 89zM1695 313q50 52 50 135q0 85 -51 136t-125 51t-125 -51t-51 -136q0 -84 51 -135q52 -52 125 -52q76 0 126 52z" />
    <glyph glyph-name="Euro" unicode="&#x20ac;" horiz-adv-x="1533" 
d="M253 811v45v43q0 14 2 32q1 5 3 13t2 11h-162v88h177q24 112 77 213q52 99 129 168t174 108t215 39q104 0 191 -34q88 -34 159 -98q68 -61 121 -151q52 -89 80 -190h-110q-51 166 -163 270q-111 104 -278 104q-97 0 -176 -32t-142 -92q-60 -57 -104 -136
q-41 -73 -63 -169h474v-88h-490q0 -2 -1.5 -10.5t-2.5 -13.5q-2 -18 -2 -32v-43v-45q0 -15 2 -35q1 -6 2.5 -17t1.5 -14h490v-87h-474q20 -81 62 -151q43 -72 105 -126t142 -87q81 -33 176 -33q167 0 280 104q115 106 172 270h109q-32 -101 -86 -190q-53 -88 -124 -150
q-73 -64 -160 -98q-90 -35 -191 -35q-116 0 -215 38q-95 37 -174 106q-77 68 -129 157q-53 91 -77 195h-177v87h162q0 4 -2 14t-3 17q-2 20 -2 35z" />
    <glyph glyph-name="trademark" unicode="&#x2122;" horiz-adv-x="1230" 
d="M517 1399v-88h-177v-474h-88v474h-176v88h441zM891 1003h-44l-154 219v-385h-88v562h66l199 -286l198 286h65v-562h-88v385z" />
    </font>
</defs>
</svg>
