<?xml version="1.0" standalone="no"?>
<!DOCTYPE svg PUBLIC "-//W3C//DTD SVG 1.1//EN" "http://www.w3.org/Graphics/SVG/1.1/DTD/svg11.dtd" >
<svg xmlns="http://www.w3.org/2000/svg" xmlns:xlink="http://www.w3.org/1999/xlink" version="1.1">
<metadata>
Created by FontForge 20170731 at Mon Jan 31 23:10:13 2022
 By Aleksey,,,
</metadata>
<defs>
<font id="KineticLightItalic" horiz-adv-x="1335" >
  <font-face 
    font-family="Kinetic Light Italic"
    font-weight="400"
    font-style="italic"
    font-stretch="normal"
    units-per-em="2048"
    panose-1="0 0 0 0 0 0 0 0 0 0"
    ascent="1638"
    descent="-410"
    x-height="976"
    cap-height="1388"
    bbox="-350 -372 1773 1865"
    underline-thickness="102"
    underline-position="-307"
    unicode-range="U+000A-2122"
  />
<missing-glyph horiz-adv-x="1079" 
d="M102 1434h875v-1434h-875v1434zM160 1393l379 -633l381 633h-760zM514 717l-369 614v-1231zM541 674l-379 -631h758zM565 717l371 -621v1239z" />
    <glyph glyph-name=".notdef" horiz-adv-x="1079" 
d="M102 1434h875v-1434h-875v1434zM160 1393l379 -633l381 633h-760zM514 717l-369 614v-1231zM541 674l-379 -631h758zM565 717l371 -621v1239z" />
    <glyph glyph-name=".null" horiz-adv-x="0" 
 />
    <glyph glyph-name=".null" horiz-adv-x="0" 
 />
    <glyph glyph-name="nonmarkingreturn" horiz-adv-x="682" 
 />
    <glyph glyph-name="controlLF" unicode="&#xa;" horiz-adv-x="0" 
 />
    <glyph glyph-name="controlCR" unicode="&#xd;" horiz-adv-x="0" 
 />
    <glyph glyph-name="space" unicode=" " horiz-adv-x="552" 
 />
    <glyph glyph-name="exclam" unicode="!" horiz-adv-x="342" 
d="M4 113q-18 21 -12 55t33 56q26 22 60 22q32 0 50 -22q17 -23 11 -56t-33 -55q-26 -21 -58 -21q-33 0 -51 21zM165 433h-88l183 1058h132z" />
    <glyph glyph-name="quotedbl" unicode="&#x22;" horiz-adv-x="495" 
d="M142 1083l80 408h99l-80 -408h-99zM407 1083l79 408h99l-79 -408h-99z" />
    <glyph glyph-name="quotedbl" unicode="&#x201d;" horiz-adv-x="495" 
d="M142 1083l80 408h99l-80 -408h-99zM407 1083l79 408h99l-79 -408h-99z" />
    <glyph glyph-name="quotedbl" unicode="&#x201c;" horiz-adv-x="495" 
d="M142 1083l80 408h99l-80 -408h-99zM407 1083l79 408h99l-79 -408h-99z" />
    <glyph glyph-name="numbersign" unicode="#" horiz-adv-x="1345" 
d="M592 103l170 418h-364l-169 -418h-99l169 418h-264l41 99h264l146 353h-275l41 99h276l170 419h99l-170 -419h364l169 419h99l-169 -419h264l-42 -99h-264l-145 -353h275l-42 -99h-275l-170 -418h-99zM585 973l-145 -353h364l145 353h-364z" />
    <glyph glyph-name="dollar" unicode="$" horiz-adv-x="1058" 
d="M323 -107l39 199q-179 16 -262 125t-58 271h111q-9 -132 62 -215q70 -82 221 -82q157 0 260 80q102 79 126 206q19 98 -26 156q-44 56 -123 91q-78 34 -171 60q-92 25 -170 68t-119 110q-42 69 -20 188q13 65 51 125q36 57 95 107q54 45 134 79q74 31 163 40l39 199h99
l-39 -199q80 -9 138 -41q60 -33 99 -84q40 -52 56 -119q17 -70 7 -141h-110q15 123 -53 205q-68 81 -200 81q-76 0 -139 -21q-64 -21 -111 -55q-46 -33 -79 -82q-31 -46 -40 -94q-18 -96 27 -147t125 -85q75 -32 171 -58q91 -25 170 -70q78 -44 119 -115q42 -72 18 -198
q-30 -157 -154 -263t-318 -122l-39 -199h-99z" />
    <glyph glyph-name="percent" unicode="%" horiz-adv-x="1312" 
d="M719 1323q10 -48 -1 -108q-10 -54 -41 -107q-31 -52 -75 -89q-43 -36 -100 -58q-54 -21 -113 -21q-57 0 -103 21q-48 22 -77 58q-32 40 -42 89q-10 51 0 107q11 57 42 108q33 53 76 89t100 58q54 21 111 21q58 0 104 -21q49 -22 78 -58q31 -38 41 -89zM344 1351
q-60 -51 -77 -136q-16 -83 25 -135t114 -52q75 0 136 52t77 135q17 85 -24 136t-116 51t-135 -51zM62 103l1118 1388h110l-1118 -1388h-110zM633 271q-10 51 0 107q11 57 42 108t76 88q46 38 99 59q54 21 112 21q57 0 104 -21t77 -59q31 -39 41 -88q10 -51 0 -108
q-10 -56 -42 -107q-34 -55 -75 -89q-44 -37 -100 -58q-55 -21 -112 -21t-104 21q-46 21 -76 58q-32 40 -42 89zM1008 243q61 52 77 135q17 85 -24 136t-116 51q-76 0 -136 -51t-77 -136q-16 -84 24 -135q41 -52 116 -52t136 52z" />
    <glyph glyph-name="ampersand" unicode="&#x26;" horiz-adv-x="1259" 
d="M31 287q-14 61 -1 124q17 86 71 159q55 75 117 132q71 68 158 128l-63 78q-37 40 -56 80q-20 38 -32 90q-11 49 1 116q14 67 47 122t84 98q48 41 110 64q61 23 127 23q64 0 118 -23q52 -22 86 -64t46 -98q11 -54 -1 -122q-11 -57 -45 -108q-37 -54 -70 -89
q-43 -43 -93 -79l-121 -88l268 -342q10 12 64 75q47 54 71 84q27 31 81 95h120l-282 -320l258 -319h-143l-188 231q-63 -71 -131 -122q-57 -43 -145 -83q-81 -37 -177 -37q-77 0 -134 25q-58 25 -95 68q-36 42 -50 102zM190 546q-48 -63 -62 -135q-18 -92 36 -156t165 -64
q74 0 143 32q70 33 121 71q58 44 117 106l-282 363q-73 -47 -136 -105q-52 -46 -102 -112zM412 962l54 -66l116 88q43 30 71 59q29 28 56 67q25 36 34 84q18 91 -29 150q-46 58 -139 58q-92 0 -162 -58t-88 -150q-9 -47 4 -88q15 -45 31 -74q19 -33 52 -70z" />
    <glyph glyph-name="quotesingle" unicode="'" horiz-adv-x="270" 
d="M339 1491l-79 -408h-99l79 408h99z" />
    <glyph glyph-name="quotesingle" unicode="&#x2019;" horiz-adv-x="270" 
d="M339 1491l-79 -408h-99l79 408h99z" />
    <glyph glyph-name="quotesingle" unicode="&#x2018;" horiz-adv-x="270" 
d="M339 1491l-79 -408h-99l79 408h99z" />
    <glyph glyph-name="parenleft" unicode="(" horiz-adv-x="471" 
d="M274 928q-70 -154 -105 -329q-34 -170 -23 -330q10 -152 38 -274q29 -133 83 -256l-78 -55q-59 119 -97 267q-32 123 -46 291q-14 165 24 357t115 356q78 165 159 291q99 152 201 267l56 -55q-96 -117 -182 -256q-78 -128 -145 -274z" />
    <glyph glyph-name="parenright" unicode=")" horiz-adv-x="471" 
d="M161 269q70 153 105 330q34 170 23 329q-10 151 -38 274q-30 138 -82 256l76 55q55 -114 96 -267q34 -129 47 -291q14 -168 -23 -356q-37 -192 -116 -358q-79 -167 -159 -290q-94 -145 -201 -267l-55 55q96 117 182 256q78 128 145 274z" />
    <glyph glyph-name="asterisk" unicode="*" horiz-adv-x="677" 
d="M600 962l-88 -54l-90 219l-174 -219l-67 54l193 198l-219 66l49 77l205 -77l40 265h88l-62 -265l235 77l19 -77l-245 -66z" />
    <glyph glyph-name="plus" unicode="+" horiz-adv-x="929" 
d="M428 246h-100l73 374h-364l20 99h363l73 376h100l-73 -376h363l-19 -99h-363z" />
    <glyph glyph-name="comma" unicode="," horiz-adv-x="258" 
d="M-39 113q-17 19 -10 55q6 35 32 56q26 22 59 22t51 -23q17 -21 9 -65q-11 -58 -43 -105q-33 -48 -66 -81q-33 -34 -83 -67l-18 21q24 20 48 47q17 19 40 51q19 27 32 68q-33 0 -51 21z" />
    <glyph glyph-name="hyphen" unicode="-" horiz-adv-x="677" 
d="M639 708l-17 -88h-595l17 88h595z" />
    <glyph glyph-name="period" unicode="." horiz-adv-x="256" 
d="M-40 113q-17 20 -11 55q6 34 33 56q26 22 58 22q33 0 51 -22q18 -23 12 -56t-33 -55q-26 -21 -60 -21q-32 0 -50 21z" />
    <glyph glyph-name="slash" unicode="/" horiz-adv-x="657" 
d="M790 1491l-920 -1785h-99l919 1785h100z" />
    <glyph glyph-name="zero" unicode="0" horiz-adv-x="1310" 
d="M1253 1079q20 -142 -16 -324q-36 -181 -110 -324q-72 -138 -172 -238q-97 -97 -210 -147q-114 -50 -224 -50t-205 50q-94 50 -153 147q-61 99 -80 238q-20 142 16 324q37 186 110 324q77 144 172 238q100 98 210 146q114 50 225 50q110 0 204 -50q93 -49 153 -146
t80 -238zM311 1035q-61 -117 -93 -280q-31 -159 -16 -282q15 -120 62 -204q46 -82 120 -125q70 -41 158 -41t174 41q89 42 167 125q80 85 142 204q62 120 94 282q31 154 15 280q-15 121 -62 206q-46 83 -119 124t-158 41q-84 0 -174 -41q-89 -41 -168 -124
q-78 -82 -142 -206z" />
    <glyph glyph-name="one" unicode="1" horiz-adv-x="598" 
d="M571 1499h83l-290 -1494h-119l260 1340l-309 -190l-42 95z" />
    <glyph glyph-name="two" unicode="2" horiz-adv-x="1052" 
d="M123 112h735l-20 -107h-889l18 95l689 616q68 57 123 120q46 51 94 122q46 69 59 138q13 62 0 123q-12 57 -47 98q-33 38 -88 63q-54 24 -126 24t-138 -25q-67 -25 -119 -67q-53 -42 -92 -101t-57 -124h-118q21 89 72 165q48 75 124 135q71 57 162 90q89 33 186 33
q99 0 173 -31q71 -30 122 -87q47 -53 64 -131q16 -77 0 -165q-18 -92 -68 -168q-54 -82 -106 -140q-66 -74 -136 -131z" />
    <glyph glyph-name="three" unicode="3" horiz-adv-x="1120" 
d="M311 1132h-119q19 75 68 145q46 67 115 120q69 54 152 83q85 30 178 30q101 0 179 -30q77 -29 126 -85q48 -54 66 -128q18 -73 1 -160q-18 -95 -69 -156q-50 -61 -107 -102q-62 -44 -138 -73q77 -29 127 -78q48 -45 77 -113q31 -72 10 -177q-16 -81 -66 -160
q-48 -76 -121 -132q-72 -56 -167 -89t-201 -33q-102 0 -180 30q-79 30 -130 83q-52 54 -77 121q-25 68 -25 144h118q3 -56 25 -103q24 -52 60 -86q39 -37 96 -60q58 -23 134 -23q83 0 151 25q73 27 124 68q57 46 92 98t48 117q12 62 -3 118q-15 55 -53 98q-36 40 -99 67
q-59 25 -140 25h-95l21 108h82q77 0 142 22t116 61q49 38 85 92q33 51 44 108q12 63 -1 117t-48 95q-33 39 -92 62q-58 23 -133 23q-64 0 -127 -23t-112 -60t-84 -87q-35 -51 -50 -102z" />
    <glyph glyph-name="four" unicode="4" horiz-adv-x="1118" 
d="M811 361l-69 -356h-118l69 356h-699l18 95l878 1043h143l-201 -1032h178l-20 -106h-179zM144 467h570l171 878z" />
    <glyph glyph-name="five" unicode="5" horiz-adv-x="1120" 
d="M481 963q66 26 145 26q95 0 176 -38q80 -38 131 -104q50 -64 71 -157q21 -92 0 -198q-21 -105 -77 -198q-56 -92 -134 -158q-81 -69 -174 -105q-95 -37 -198 -37q-97 0 -173 30q-77 30 -127 83q-51 55 -76 121q-25 68 -25 144h119q3 -51 24 -103q20 -48 59 -86
q39 -37 93 -60q55 -23 127 -23q76 0 148 30q75 31 132 81q58 50 103 124q43 70 60 157q17 88 1 156q-16 70 -56 123q-39 52 -100 82q-62 30 -136 30q-81 0 -147 -36t-115 -79q-60 -52 -103 -111h-118l259 842h735l-21 -107h-640l-169 -568q43 46 95 82q46 32 111 57z" />
    <glyph glyph-name="six" unicode="6" horiz-adv-x="1124" 
d="M626 31q-95 -37 -198 -37t-184 37q-79 36 -134 105q-50 63 -72 158q-21 92 0 198q15 78 47 144q35 72 68 121q32 49 90 114l548 628h131l-500 -557q28 15 57 23q34 11 63 17q32 7 79 7q100 0 184 -38q81 -38 134 -104q51 -64 72 -157q21 -92 0 -198q-21 -105 -77 -198
q-56 -92 -134 -158q-81 -69 -174 -105zM312 130q60 -30 136 -30q77 0 149 30q73 31 131 81t103 124q43 70 60 157q17 88 1 156q-17 71 -55 123q-38 51 -100 82q-60 30 -137 30q-76 0 -148 -30q-71 -30 -131 -82q-61 -53 -104 -123t-60 -156q-16 -85 -1 -157q14 -68 56 -124
q37 -49 100 -81z" />
    <glyph glyph-name="seven" unicode="7" horiz-adv-x="856" 
d="M979 1499l-18 -95l-912 -1399h-131l910 1387h-747l21 107h877z" />
    <glyph glyph-name="eight" unicode="8" horiz-adv-x="1116" 
d="M624 27q-94 -33 -200 -33q-107 0 -188 33q-82 33 -132 91q-51 58 -70 135q-20 79 -2 167q23 118 83 190q59 72 124 117q76 51 163 73q-58 28 -103 74q-37 40 -63 102q-24 59 -6 156q15 76 60 145q42 65 110 120q66 53 147 83q83 30 172 30q87 0 158 -30t116 -83t63 -121
q19 -71 4 -144q-18 -95 -68 -157t-101 -101q-64 -47 -133 -74q77 -22 133 -73q46 -43 79 -117q33 -73 10 -190q-19 -94 -66 -167q-50 -77 -123 -135t-167 -91zM200 544q-36 -56 -50 -124q-13 -65 2 -124q15 -58 53 -102q37 -43 98 -69q59 -25 142 -25q82 0 150 25
q70 26 125 69q53 42 92 102q36 56 50 124q13 65 -2 124q-16 61 -52 103q-37 43 -98 69q-59 25 -141 25t-151 -25t-125 -69q-54 -42 -93 -103zM391 1234q-31 -50 -42 -102q-10 -53 2 -103q13 -50 45 -87q33 -38 84 -61q48 -22 112 -22q63 0 120 22t107 61q47 37 80 87t43 103
q10 52 -3 102q-14 50 -46 87q-33 37 -83 60q-51 23 -112 23q-60 0 -121 -23q-58 -22 -107 -60q-47 -37 -79 -87z" />
    <glyph glyph-name="nine" unicode="9" horiz-adv-x="1118" 
d="M519 1473q95 37 198 37t184 -37q79 -36 133 -104q52 -65 73 -158q20 -88 -1 -198q-15 -76 -48 -145q-33 -70 -70 -121q-36 -55 -86 -113l-548 -629h-131l500 557q-26 -14 -57 -23q-34 -11 -64 -17q-34 -7 -79 -7q-101 0 -183 38q-79 36 -134 105q-51 64 -72 157
q-21 91 0 198q21 105 77 198q57 93 133 158q78 66 175 104zM833 1374q-60 30 -137 30q-76 0 -148 -30q-75 -31 -132 -81q-58 -50 -103 -124q-43 -71 -60 -156q-17 -88 -1 -157q16 -68 56 -122q39 -52 100 -83q60 -30 136 -30t148 30q71 30 132 83q59 52 103 123
q43 70 60 156q16 84 1 156q-15 70 -55 124q-37 49 -100 81z" />
    <glyph glyph-name="colon" unicode=":" horiz-adv-x="303" 
d="M147 951q-17 23 -11 55q6 34 33 55q27 22 58 22q34 0 52 -22q17 -21 11 -55q-6 -32 -33 -55q-26 -22 -59 -22q-35 0 -51 22zM-16 113q-17 20 -11 55q6 34 33 56q26 22 59 22t51 -22q17 -22 11 -56q-6 -33 -33 -55q-26 -21 -59 -21t-51 21z" />
    <glyph glyph-name="semicolon" unicode=";" horiz-adv-x="303" 
d="M-16 113q-17 20 -11 55q6 34 33 56q26 22 59 22q32 0 50 -23q18 -22 10 -65q-10 -56 -44 -105q-35 -51 -65 -81q-33 -34 -83 -67l-19 21q28 23 49 47q17 19 40 51q19 27 32 68q-33 0 -51 21zM147 951q-17 23 -11 55q6 34 33 55q27 22 58 22q33 0 51 -22t12 -55
q-6 -32 -33 -55q-26 -22 -60 -22t-50 22z" />
    <glyph glyph-name="less" unicode="&#x3c;" horiz-adv-x="886" 
d="M860 929l-705 -341l572 -342l-21 -110l-679 419l12 65l842 419z" />
    <glyph glyph-name="equal" unicode="=" horiz-adv-x="950" 
d="M112 918h814l-19 -99h-814zM15 422l20 99h814l-19 -99h-815z" />
    <glyph glyph-name="greater" unicode="&#x3e;" horiz-adv-x="886" 
d="M691 588l-573 341l21 110l680 -419l-13 -65l-842 -419l21 110z" />
    <glyph glyph-name="question" unicode="?" horiz-adv-x="882" 
d="M904 1288q15 -63 0 -138q-16 -88 -54 -148q-39 -62 -83 -105q-55 -53 -98 -84q-51 -36 -99 -83q-46 -45 -84 -105t-54 -148l-4 -21h-110l5 21q20 102 57 166q40 70 85 116q47 48 99 87t99 81q42 38 81 93q34 49 50 130q21 109 -38 180q-60 72 -177 72q-58 0 -112 -22
q-56 -23 -100 -61q-47 -41 -78 -97q-32 -57 -45 -127l-7 -34h-110l7 34q18 89 62 165q42 73 105 128q62 55 137 84q74 29 160 29q82 0 146 -27q63 -26 104 -75t56 -111zM251 113q-17 20 -11 55q6 34 33 56q26 22 59 22q34 0 52 -22q17 -22 11 -56q-6 -33 -33 -55
q-26 -21 -59 -21q-34 0 -52 21z" />
    <glyph glyph-name="at" unicode="@" horiz-adv-x="1613" 
d="M970 389q-39 -45 -84 -77q-44 -33 -96 -54q-57 -23 -125 -23q-67 0 -120 25t-87 74q-34 50 -46 115q-12 67 4 150q17 85 54 149q39 67 91 115q54 49 115 74q62 25 130 25q70 0 113 -23q44 -24 69 -50q29 -31 43 -70h12l47 132h66l-86 -441q-16 -84 18 -130t92 -46
q32 0 69 17q38 17 71 52q35 37 62 93q29 61 43 136q23 114 -6 222q-29 109 -99 191q-69 81 -175 131t-233 50q-126 0 -252 -50q-125 -50 -227 -135q-103 -87 -175 -200q-70 -110 -96 -242q-25 -127 2 -243q27 -114 97 -201q69 -85 174 -135q106 -50 233 -50q72 0 139 16
q46 11 110 33q57 22 101 50l27 -88q-48 -28 -117 -55q-61 -23 -125 -38q-73 -17 -154 -17q-150 0 -274 56q-122 55 -202 155q-79 99 -109 231q-30 136 -1 286q30 153 112 285q83 134 199 231q118 98 261 155q141 56 297 56q154 0 278 -58q123 -58 200 -154q79 -99 109 -225
q30 -128 3 -269q-18 -94 -56 -167q-39 -74 -84 -121q-47 -49 -103 -73q-55 -24 -108 -24q-62 0 -99 23q-38 24 -58 54q-24 33 -33 77h-11zM630 794q-81 -71 -105 -195q-24 -126 29 -196q53 -69 151 -69q99 0 179 69t104 196t-28 195q-52 69 -152 69q-98 0 -178 -69z" />
    <glyph glyph-name="A" unicode="A" horiz-adv-x="1132" 
d="M749 1388l269 -1388h-120l-71 374h-639l-216 -374h-121l810 1388h88zM813 473l-143 739l-430 -739h573z" />
    <glyph glyph-name="B" unicode="B" horiz-adv-x="1091" 
d="M906 805q-52 -40 -112 -67q69 -28 117 -75q42 -39 71 -106q28 -65 10 -160q-17 -85 -62 -155q-46 -72 -114 -126q-69 -55 -156 -85q-90 -31 -186 -31h-507l270 1388h485q90 0 159 -27t111 -75t57 -112q16 -67 1 -138q-16 -84 -58 -140q-42 -58 -86 -91zM327 1289
l-98 -507h375q131 0 224 73q91 71 112 181q21 108 -42 180q-64 73 -195 73h-376zM607 683h-397l-114 -584h397q71 0 136 24t117 66q51 41 88 96q35 52 47 112q10 52 -5 104q-16 53 -51 93q-36 41 -92 65q-55 24 -126 24z" />
    <glyph glyph-name="C" unicode="C" horiz-adv-x="1267" 
d="M1054 1195q-93 105 -267 105q-103 0 -206 -44q-100 -43 -189 -124q-90 -82 -151 -190t-89 -248q-27 -135 -7 -248q20 -111 76 -190q58 -81 142 -124q86 -44 188 -44q175 0 311 105t225 270h110q-53 -101 -124 -191q-70 -88 -154 -150q-88 -65 -182 -98q-99 -35 -205 -35
q-121 0 -227 52q-104 51 -173 144q-68 91 -95 223q-26 128 4 286q30 154 107 286q75 129 182 223q104 92 229 144q122 52 247 52q106 0 191 -35q82 -34 142 -98q59 -63 93 -150q35 -88 44 -191h-110q-18 164 -112 270z" />
    <glyph glyph-name="D" unicode="D" horiz-adv-x="1140" 
d="M1106 974q29 -129 -1 -280q-31 -155 -107 -280q-77 -126 -186 -220q-105 -90 -241 -143q-132 -51 -274 -51h-330l270 1388h330q141 0 254 -51q114 -52 185 -143q71 -92 100 -220zM96 99h221q121 0 231 43q115 45 202 122q92 82 155 188q64 109 90 242q26 135 4 242
q-22 109 -82 188q-59 78 -155 122q-93 43 -214 43h-221z" />
    <glyph glyph-name="E" unicode="E" horiz-adv-x="978" 
d="M846 99l-19 -99h-860l270 1388h837l-19 -99h-728l-100 -518h672l-19 -98h-673l-111 -574h750z" />
    <glyph glyph-name="F" unicode="F" horiz-adv-x="905" 
d="M-35 0l270 1388h816l-19 -99h-706l-105 -540h584l-19 -99h-585l-126 -650h-110z" />
    <glyph glyph-name="G" unicode="G" horiz-adv-x="1316" 
d="M667 572l20 100h562l-130 -672q-37 0 -59 25.5t-16 62.5l30 198q-58 -81 -143 -149q-73 -59 -171 -103q-100 -45 -228 -45q-121 0 -227 52q-104 51 -173 144q-68 91 -95 223q-26 128 4 286q30 154 107 286q75 129 182 223q104 92 229 144t247 52q109 0 192 -34
q82 -34 141 -94q57 -59 92 -137q36 -80 43 -165h-111q-6 65 -35 126t-74 106t-113 72q-67 27 -154 27q-89 0 -177 -33q-119 -45 -218 -135q-90 -82 -151 -190t-89 -248q-27 -135 -7 -248q20 -111 76 -190q64 -89 166 -135q44 -20 100 -28q128 -18 253 34q95 40 171 104
q78 66 133 154q56 89 75 187h-452z" />
    <glyph glyph-name="H" unicode="H" horiz-adv-x="1171" 
d="M237 1388h110l-122 -627h750l121 627h110l-270 -1388h-109l128 661h-750l-128 -661h-110z" />
    <glyph glyph-name="I" unicode="I" horiz-adv-x="309" 
d="M345 1388l-270 -1388h-110l270 1388h110z" />
    <glyph glyph-name="J" unicode="J" horiz-adv-x="917" 
d="M963 1388l-188 -969q-39 -202 -175 -315q-138 -115 -327 -115q-93 0 -166 29t-117 79q-46 52 -62 119q-16 68 -1 148h110q-7 -56 8 -108q15 -51 47 -89q31 -36 83 -58q51 -21 117 -21t127 24q59 23 112 68q51 43 85 103q33 58 49 136l189 969h109z" />
    <glyph glyph-name="K" unicode="K" horiz-adv-x="970" 
d="M716 0l-502 705l-137 -705h-110l270 1388h110l-133 -683l728 683h144l-740 -683l514 -705h-144z" />
    <glyph glyph-name="L" unicode="L" horiz-adv-x="880" 
d="M96 99h695l-19 -99h-805l270 1388h110z" />
    <glyph glyph-name="M" unicode="M" horiz-adv-x="1480" 
d="M643 187l773 1201h99l-270 -1388h-109l214 1102l-711 -1102h-66l-282 1102l-214 -1102h-110l270 1388h99z" />
    <glyph glyph-name="N" unicode="N" horiz-adv-x="1169" 
d="M1205 1388l-270 -1388h-99l-532 1179l-229 -1179h-110l270 1388h99l532 -1178l229 1178h110z" />
    <glyph glyph-name="O" unicode="O" 
d="M1301 980q27 -130 -3 -286q-30 -155 -108 -286q-77 -129 -183 -223q-105 -93 -228 -144q-125 -52 -247 -52q-121 0 -227 52q-104 51 -173 144q-68 91 -95 223q-26 128 4 286q30 154 107 286q75 129 182 223q104 92 229 144t247 52q121 0 227 -52q103 -51 172 -144
t96 -223zM241 942q-61 -108 -89 -248q-27 -135 -7 -248q20 -111 76 -190q58 -81 142 -124q86 -44 188 -44q103 0 206 44q100 43 189 124q90 82 151 190q63 111 90 248t6 248q-21 109 -77 190q-57 81 -141 124q-86 44 -188 44q-103 0 -206 -44q-100 -43 -189 -124
q-90 -82 -151 -190z" />
    <glyph glyph-name="P" unicode="P" horiz-adv-x="987" 
d="M237 1388h441q90 0 162 -33t119 -89q48 -57 66 -134q18 -76 1 -163q-17 -86 -65 -163q-47 -75 -117 -133q-66 -54 -154 -89q-84 -33 -175 -33h-331l-107 -551h-110zM203 650h331q68 0 130 25q67 27 115 68q53 45 88 102q35 58 49 124q13 64 -1 125q-13 55 -49 101
q-35 44 -88 69t-119 25h-332z" />
    <glyph glyph-name="Q" unicode="Q" horiz-adv-x="1345" 
d="M1064 -55l-142 177q-54 -41 -112 -67q-43 -21 -124 -45q-70 -21 -154 -21q-121 0 -227 52q-104 51 -173 144q-68 91 -95 223q-26 128 4 286q30 154 107 286q75 129 182 223q104 92 229 144t247 52q121 0 227 -52q103 -51 172 -144t96 -222t-3 -287q-24 -126 -74 -220
q-49 -92 -100 -157q-58 -75 -124 -130l142 -176zM363 132q86 -44 188 -44q61 0 122 16q50 13 97 34q44 20 65 34l22 15l-151 187l79 67l152 -187q55 52 103 116q42 57 84 138t63 186q27 137 6 248q-21 109 -77 190q-57 81 -141 124q-86 44 -188 44q-103 0 -206 -44
q-100 -43 -189 -124q-90 -82 -151 -190t-89 -248q-27 -135 -7 -248q20 -111 76 -190q58 -81 142 -124z" />
    <glyph glyph-name="R" unicode="R" horiz-adv-x="1054" 
d="M657 606l234 -606h-133l-214 595h-353l-116 -595h-110l270 1388h485q89 0 162 -31q71 -30 116 -84q47 -57 63 -127q16 -72 1 -154q-24 -123 -90 -200q-63 -73 -137 -117q-83 -48 -178 -69zM326 1289l-116 -595h376q63 0 126 23q59 22 111 64q50 41 83 95t45 116
q11 59 -1 115q-12 53 -46 95q-35 42 -85 64q-54 23 -118 23h-375z" />
    <glyph glyph-name="S" unicode="S" horiz-adv-x="980" 
d="M152 859q-42 69 -20 188q13 70 56 134q44 66 107 112q68 49 151 77q87 29 184 29q84 0 155 -31q67 -29 115 -83q45 -51 65 -122q20 -69 9 -149h-110q15 123 -53 205q-68 81 -200 81q-76 0 -139 -21q-62 -21 -111 -56q-47 -34 -79 -81q-31 -45 -40 -95q-18 -96 27 -147
t125 -85q75 -32 171 -58q94 -26 170 -69q77 -44 119 -116t18 -198q-16 -83 -60 -154q-43 -70 -111 -121q-65 -49 -154 -80q-87 -30 -191 -30q-102 0 -179 30q-76 30 -124 82q-48 53 -66 126t-6 158h111q-9 -131 62 -214t221 -83q157 0 260 80q102 79 126 206q19 98 -26 156
q-44 56 -123 91q-84 37 -171 61q-96 26 -170 67q-78 43 -119 110z" />
    <glyph glyph-name="T" unicode="T" horiz-adv-x="913" 
d="M88 1289l19 99h970l-20 -99h-429l-250 -1289h-111l250 1289h-429z" />
    <glyph glyph-name="U" unicode="U" horiz-adv-x="1157" 
d="M652 25q-99 -36 -211 -36t-196 36q-85 36 -137 105q-50 66 -67 166q-16 98 8 222l169 870h110l-170 -870q-41 -207 44 -319q84 -111 258 -111q173 0 302 112q128 111 168 318l169 870h110l-169 -870q-24 -124 -78 -222q-52 -95 -133 -166q-78 -69 -177 -105z" />
    <glyph glyph-name="V" unicode="V" horiz-adv-x="1114" 
d="M1264 1388l-787 -1388h-111l-248 1388h122l209 -1245l694 1245h121z" />
    <glyph glyph-name="W" unicode="W" horiz-adv-x="1617" 
d="M899 1388h89l90 -1178l570 1178h111l-677 -1388h-89l-90 1179l-549 -1179h-88l-138 1388h111l112 -1178z" />
    <glyph glyph-name="X" unicode="X" horiz-adv-x="1036" 
d="M537 793l491 595h132l-574 -683l326 -705h-132l-278 617l-515 -617h-133l600 705l-308 683h132z" />
    <glyph glyph-name="Y" unicode="Y" horiz-adv-x="980" 
d="M300 0l107 551l-299 837h120l256 -727l538 727h121l-626 -837l-107 -551h-110z" />
    <glyph glyph-name="Y" unicode="&#x178;" horiz-adv-x="980" 
d="M300 0l107 551l-299 837h120l256 -727l538 727h121l-626 -837l-107 -551h-110z" />
    <glyph glyph-name="Y" unicode="&#xdd;" horiz-adv-x="980" 
d="M300 0l107 551l-299 837h120l256 -727l538 727h121l-626 -837l-107 -551h-110z" />
    <glyph glyph-name="Z" unicode="Z" horiz-adv-x="907" 
d="M151 1289l19 99h858l-14 -76l-985 -1213h761l-20 -99h-903l15 77l984 1212h-715z" />
    <glyph glyph-name="bracketleft" unicode="[" horiz-adv-x="309" 
d="M337 1392l-308 -1586h264l-19 -100h-364l347 1785h364l-19 -99h-265z" />
    <glyph glyph-name="bracketright" unicode="]" horiz-adv-x="307" 
d="M-66 -194l308 1586h-264l19 99h364l-347 -1785h-364l19 100h265z" />
    <glyph glyph-name="asciicircum" unicode="^" horiz-adv-x="765" 
d="M749 874h-109l-129 474l-313 -474h-109l416 617h67z" />
    <glyph glyph-name="underscore" unicode="_" horiz-adv-x="899" 
d="M799 -148l-17 -90h-684l18 90h683z" />
    <glyph glyph-name="grave" unicode="`" horiz-adv-x="489" 
d="M381 1452l135 -311h-147l-228 311h240z" />
    <glyph glyph-name="a" unicode="a" horiz-adv-x="874" 
d="M833 784q13 -62 -2 -138l-124 -639q-29 0 -48.5 18.5t-20.5 46.5l-2 78h-12q-47 -51 -87 -78q-40 -29 -106 -53q-63 -23 -145 -23q-165 0 -238 79t-50 197q14 67 53 124q40 57 112 101q72 43 180 69q106 25 257 25h122l10 55q21 108 -34 175t-173 67q-119 0 -188 -50
q-73 -53 -111 -126h-98q21 55 57 103q40 52 93 89q55 38 120 60q69 23 147 23q81 0 140 -25t97 -71q38 -45 51 -107zM685 404l17 88h-121q-129 0 -217 -18t-145 -48q-56 -30 -85 -69q-28 -38 -37 -85q-14 -67 40 -122q52 -55 179 -55q142 0 242 84t127 225z" />
    <glyph glyph-name="a" unicode="&#xe5;" horiz-adv-x="874" 
d="M833 784q13 -62 -2 -138l-124 -639q-29 0 -48.5 18.5t-20.5 46.5l-2 78h-12q-47 -51 -87 -78q-40 -29 -106 -53q-63 -23 -145 -23q-165 0 -238 79t-50 197q14 67 53 124q40 57 112 101q72 43 180 69q106 25 257 25h122l10 55q21 108 -34 175t-173 67q-119 0 -188 -50
q-73 -53 -111 -126h-98q21 55 57 103q40 52 93 89q55 38 120 60q69 23 147 23q81 0 140 -25t97 -71q38 -45 51 -107zM685 404l17 88h-121q-129 0 -217 -18t-145 -48q-56 -30 -85 -69q-28 -38 -37 -85q-14 -67 40 -122q52 -55 179 -55q142 0 242 84t127 225z" />
    <glyph glyph-name="b" unicode="b" horiz-adv-x="1019" 
d="M983 690q18 -90 -3 -198q-20 -104 -74 -198q-52 -90 -126 -157t-164 -104q-89 -37 -184 -37q-82 0 -141 28q-56 27 -91 60q-39 39 -64 89h-11l-40 -101q-11 -29 -37 -47t-55 -18l269 1388h101l-114 -583h11q44 48 99 87q50 34 115 61q66 27 150 27q97 0 171 -37
q76 -38 123 -103q46 -64 65 -157zM881 492q17 88 2 159q-15 72 -53 125q-36 50 -96 82q-57 30 -129 30q-71 0 -140 -30q-71 -31 -128 -82q-59 -52 -102 -126q-44 -74 -60 -158q-17 -88 -2 -159q14 -70 53 -125q36 -51 96 -83q57 -30 129 -30q71 0 140 30q72 31 128 83
q60 55 102 125q43 71 60 159z" />
    <glyph glyph-name="c" unicode="c" horiz-adv-x="944" 
d="M626 167q94 73 144 170h111q-70 -148 -195 -245q-124 -96 -290 -96q-96 0 -170 37q-76 38 -124 104q-47 64 -65 156q-18 88 4 199q21 109 73 198q53 90 127 157q73 65 163 103q89 37 185 37q166 0 253 -96q85 -94 99 -245h-111q-14 99 -78 171q-64 71 -182 71
q-74 0 -141 -29q-69 -30 -129 -83t-101 -126q-43 -75 -59 -158q-17 -90 -3 -159q14 -70 53 -125q36 -52 96 -83q58 -30 130 -30q117 0 210 72z" />
    <glyph glyph-name="d" unicode="d" horiz-adv-x="1019" 
d="M1009 1395h99l-270 -1388q-29 0 -47.5 18t-18.5 46v102h-11q-45 -48 -101 -89q-52 -35 -114 -61q-66 -27 -150 -27q-96 0 -170 37q-77 39 -124 103q-46 64 -65 158q-17 88 4 198q21 109 73 198q54 92 126 157t164 103q89 37 185 37q83 0 139 -27q50 -24 90 -61
q41 -41 67 -87h11zM844 492q17 90 3 159q-15 72 -53 125q-36 50 -96 82q-57 30 -128 30q-72 0 -141 -30q-72 -30 -129 -82q-60 -53 -101 -126q-43 -75 -59 -158q-17 -90 -3 -159q14 -70 53 -125q36 -52 96 -83q58 -30 129 -30q72 0 141 30q72 31 128 83q61 56 101 125
q42 73 59 159z" />
    <glyph glyph-name="e" unicode="e" horiz-adv-x="972" 
d="M940 708q18 -86 -1 -184q-2 -13 -8 -30q-5 -14 -9 -24q-2 -3 -4.5 -10.5t-3.5 -11.5h-783q-7 -79 11 -145t56 -111q39 -46 96 -72q56 -25 132 -25q54 0 100 15q50 16 86 37q32 18 68 51q27 24 52 51h121q-30 -49 -72 -91q-49 -49 -101 -82q-56 -36 -125 -58
q-67 -22 -148 -22q-100 0 -177 37q-75 36 -126 104q-49 65 -67 156q-18 88 4 199q21 109 73 198q53 90 127 157q73 65 163 103q89 37 185 37q89 0 164 -35q71 -34 121 -97q48 -61 66 -147zM845 547q6 75 -12 138q-18 61 -54 107q-37 46 -90 71t-119 25q-67 0 -129 -25
q-63 -25 -119 -71q-54 -44 -100 -108q-43 -60 -71 -137h694z" />
    <glyph glyph-name="f" unicode="f" horiz-adv-x="489" 
d="M647 1384l22 -11l-17 -88q-3 1 -8.5 2t-8.5 2q-1 0 -8 2t-12 3q-16 2 -27 2q-75 0 -134 -44q-60 -44 -79 -143l-25 -133h242l-19 -99h-243l-169 -870h-99l169 870h-154l19 99h155l25 133q25 131 114 209q88 77 195 77q19 0 35 -3q14 -3 27 -8z" />
    <glyph glyph-name="g" unicode="g" horiz-adv-x="995" 
d="M911 911q11 28 37.5 46.5t55.5 18.5l-182 -936q-16 -85 -62 -161q-43 -72 -112 -130q-67 -56 -147 -86q-84 -31 -166 -31q-87 0 -157 24q-64 22 -109 64t-68 94q-24 54 -27 115h110q16 -83 77 -141q60 -57 193 -57q60 0 126 24q62 23 112 65q49 41 84 98q33 53 47 122
l34 177h-12q-45 -48 -98 -89q-47 -33 -112 -60q-68 -28 -143 -28q-90 0 -164 36t-121 101t-65 152t1 185t71 185q51 86 124 151q72 65 160 101q87 36 178 36q78 0 133 -27q53 -26 88 -61q40 -41 64 -87h12zM825 514q15 82 1 148q-14 65 -53 118q-38 52 -94 80t-122 28
q-67 0 -133 -28q-69 -29 -126 -80q-60 -53 -99 -118q-42 -69 -57 -148t0 -148q14 -67 53 -119q37 -51 94 -79q58 -29 123 -29q64 0 133 29q68 29 124 79q58 52 99 119q42 69 57 148z" />
    <glyph glyph-name="h" unicode="h" horiz-adv-x="962" 
d="M911 745q16 -78 -2 -166l-111 -572h-99l111 572q12 65 0 122t-45 99q-34 43 -82 65q-51 23 -111 23q-64 0 -127 -23q-59 -21 -110 -65q-49 -41 -84 -98q-33 -52 -47 -123l-111 -572h-100l254 1308h-60l16 80h160l-13 -63l-3 -17l-94 -482h11q33 40 85 78q42 28 106 52
q63 24 147 24q81 0 147 -30q68 -31 107 -83q40 -53 55 -129z" />
    <glyph glyph-name="i" unicode="i" horiz-adv-x="286" 
d="M255 1272h99l-19 -99h-99zM137 976h159l-15 -79l-173 -890h-99l173 890h-61z" />
    <glyph glyph-name="j" unicode="j" horiz-adv-x="280" 
d="M-16 -71l204 1047h99l-204 -1047q-26 -132 -113 -209q-88 -77 -196 -77q-37 0 -62 11q-11 4 -22 12l17 87q10 -6 17 -7q19 -4 48 -4q85 0 139 47q55 48 73 140zM245 1272h99l-19 -99h-99z" />
    <glyph glyph-name="k" unicode="k" horiz-adv-x="796" 
d="M854 976l-532 -462l387 -507h-132l-386 507l530 462h133zM203 1395h160l-172 -881l-98 -507h-100l254 1308h-60z" />
    <glyph glyph-name="l" unicode="l" horiz-adv-x="274" 
d="M262 1395h101l-16 -80l-254 -1308h-100l254 1308h-60l16 80h59z" />
    <glyph glyph-name="m" unicode="m" horiz-adv-x="1447" 
d="M1404 764q12 -69 -7 -162l-115 -595h-99l115 595q26 134 -30 209q-57 77 -156 77q-107 0 -196 -77q-88 -76 -114 -209l-115 -595h-99l115 595q26 133 -31 209q-57 77 -155 77q-107 0 -195 -77q-89 -78 -114 -209l-115 -595h-100l188 969q29 0 48.5 -18.5t20.5 -46.5
l3 -78h11q31 44 74 78q36 27 90 52q52 24 119 24q81 0 134 -31q50 -30 78 -68q30 -41 47 -99q38 57 85 99q45 39 105 68q64 31 146 31q73 0 126 -26q56 -27 90 -76t46 -121z" />
    <glyph glyph-name="n" unicode="n" horiz-adv-x="962" 
d="M911 745q16 -78 -2 -166l-111 -572h-99l111 572q12 65 0 122q-12 59 -44 99q-33 42 -83 65q-51 23 -111 23q-64 0 -127 -23q-59 -21 -110 -65q-49 -41 -84 -98q-33 -52 -47 -123l-111 -572h-100l188 969q29 0 48.5 -18.5t20.5 -46.5l3 -78h11q33 40 85 78q42 28 106 52
q63 24 147 24q81 0 147 -30q68 -31 107 -83q40 -53 55 -129z" />
    <glyph glyph-name="o" unicode="o" horiz-adv-x="985" 
d="M948 690q18 -90 -3 -198q-20 -104 -74 -198q-51 -89 -127 -157q-75 -67 -163 -104q-89 -37 -185 -37t-170 37q-76 38 -124 104q-47 64 -65 156q-18 88 4 199q21 109 73 198q53 90 127 157q73 65 163 103q89 37 185 37t170 -37q76 -38 123 -103q48 -66 66 -157zM845 492
q17 88 2 159q-15 72 -53 125q-37 52 -96 82t-128 30q-72 0 -141 -30q-72 -30 -129 -82q-59 -53 -101 -125q-42 -73 -59 -159q-17 -90 -3 -159q14 -70 53 -125q36 -52 96 -83q58 -30 130 -30q71 0 140 30q72 31 128 83q61 56 101 125q44 75 60 159z" />
    <glyph glyph-name="p" unicode="p" horiz-adv-x="1021" 
d="M985 690q18 -90 -3 -198q-20 -102 -75 -198q-52 -90 -126 -157q-75 -67 -163 -104q-89 -37 -185 -37q-81 0 -140 28q-56 27 -91 60q-41 41 -65 89h-11l-100 -519h-100l257 1322q29 0 48 -18.5t19 -46.5l1 -99h10q43 48 99 87q50 34 115 61q66 27 151 27q96 0 170 -37
q76 -38 123 -103q48 -66 66 -157zM883 492q16 85 1 159q-15 72 -53 125q-37 52 -96 82t-128 30q-72 0 -141 -30q-71 -31 -128 -82q-56 -51 -101 -126q-44 -74 -60 -158q-17 -88 -2 -159q14 -70 53 -125q36 -51 96 -83q57 -30 128 -30q72 0 141 30q72 31 128 83
q60 55 102 125q43 71 60 159z" />
    <glyph glyph-name="q" unicode="q" horiz-adv-x="1019" 
d="M936 912q11 28 37 46t54 18l-257 -1322h-99l101 519h-11q-45 -48 -101 -89q-48 -33 -114 -60q-68 -28 -150 -28q-96 0 -170 37q-76 38 -124 104q-47 64 -65 157q-17 88 4 198q21 109 73 198q54 92 126 157t164 103q89 37 185 37q83 0 139 -27q50 -24 90 -61
q41 -41 67 -87h11zM845 492q17 88 2 159q-15 72 -53 125q-37 52 -96 82t-128 30q-72 0 -141 -30q-72 -30 -129 -82q-60 -53 -101 -126q-43 -75 -59 -158q-17 -90 -3 -159q14 -70 53 -125q36 -52 96 -83q58 -30 129 -30q72 0 141 30q72 31 128 83q61 56 101 125q44 75 60 159
z" />
    <glyph glyph-name="r" unicode="r" horiz-adv-x="538" 
d="M602 987h44l-19 -99h-55q-140 0 -241 -84q-98 -82 -129 -235l-109 -562h-100l188 969q29 0 48.5 -18.5t20.5 -46.5l3 -78h11q33 40 85 78q41 27 107 52q63 24 146 24z" />
    <glyph glyph-name="s" unicode="s" horiz-adv-x="768" 
d="M286 839q-65 -49 -79 -116q-12 -63 23 -95t94 -50q62 -19 129 -33q73 -15 128 -42q57 -28 88 -78q32 -51 14 -143q-10 -54 -46 -109q-34 -52 -85 -91q-55 -42 -116 -63q-67 -23 -139 -23q-78 0 -138 23q-57 22 -96 64q-36 39 -53 95q-16 52 -8 115h99q-1 -93 48 -145
q50 -53 167 -53q106 0 180 56q73 55 88 131q13 64 -22 101q-33 35 -94 55q-58 20 -129 33q-73 14 -128 40t-88 76q-31 48 -15 136q11 55 42 102q32 49 79 84q49 37 111 57q65 21 139 21q69 0 124 -23q53 -22 91 -60q37 -37 52 -88q16 -53 10 -104h-99q-3 75 -51 126
q-47 50 -146 50q-109 0 -174 -49z" />
    <glyph glyph-name="t" unicode="t" horiz-adv-x="544" 
d="M364 877l-115 -595q-20 -100 22 -143q42 -44 118 -44q29 0 49 4q6 1 18 7l-17 -88q-15 -7 -27 -11q-30 -11 -65 -11q-108 0 -165 77t-32 209l115 595l1 1l-199 1l19 97h199l21 109l34 178h99l-55 -287h242l-20 -99h-242z" />
    <glyph glyph-name="u" unicode="u" horiz-adv-x="960" 
d="M870 976h99l-188 -969h-98l27 143h-12q-47 -51 -87 -78q-41 -29 -105 -53q-63 -23 -146 -23q-84 0 -148 30q-66 31 -105 83q-41 55 -56 129q-16 78 2 166l111 572h101l-112 -572q-13 -62 0 -122q12 -56 44 -99q32 -42 82 -65q51 -23 111 -23q64 0 127 23q60 22 111 65
q49 41 84 98q33 52 47 123z" />
    <glyph glyph-name="v" unicode="v" horiz-adv-x="872" 
d="M862 976h110l-586 -969h-88l-208 969h110l170 -826z" />
    <glyph glyph-name="w" unicode="w" horiz-adv-x="1280" 
d="M1274 976h99l-508 -969h-66l-104 771l-403 -771h-66l-131 969h100l103 -771l403 771h66l104 -771z" />
    <glyph glyph-name="x" unicode="x" horiz-adv-x="819" 
d="M890 976l-411 -473l244 -496h-120l-205 418l-369 -418h-120l437 496l-227 473h121l188 -397l341 397h121z" />
    <glyph glyph-name="y" unicode="y" horiz-adv-x="874" 
d="M864 976h110l-651 -1079q-75 -130 -149 -193q-71 -61 -164 -61q-17 0 -24 1q-3 0 -11 1t-11 2q-7 1 -19 7l17 88h44q66 0 111 36q43 35 96 119l80 131l-201 948h110l170 -826z" />
    <glyph glyph-name="y" unicode="&#xff;" horiz-adv-x="874" 
d="M864 976h110l-651 -1079q-75 -130 -149 -193q-71 -61 -164 -61q-17 0 -24 1q-3 0 -11 1t-11 2q-7 1 -19 7l17 88h44q66 0 111 36q43 35 96 119l80 131l-201 948h110l170 -826z" />
    <glyph glyph-name="y" unicode="&#xfd;" horiz-adv-x="874" 
d="M864 976h110l-651 -1079q-75 -130 -149 -193q-71 -61 -164 -61q-17 0 -24 1q-3 0 -11 1t-11 2q-7 1 -19 7l17 88h44q66 0 111 36q43 35 96 119l80 131l-201 948h110l170 -826z" />
    <glyph glyph-name="z" unicode="z" horiz-adv-x="718" 
d="M786 976l-15 -77l-694 -793h551l-20 -99h-683l15 77l694 793h-540l20 99h672z" />
    <glyph glyph-name="braceleft" unicode="{" horiz-adv-x="512" 
d="M62 643q154 0 184 154l83 429q24 125 108 195t209 70h76l-19 -99h-77q-74 0 -129 -46q-54 -45 -69 -120l-83 -429q-12 -63 -43 -102t-60 -59q-30 -21 -79 -37q38 -14 64 -38q23 -22 38 -60q15 -39 3 -101l-84 -430q-15 -74 22 -120q35 -44 112 -44h76l-19 -100h-76
q-127 0 -182 69q-56 70 -32 195l84 430q30 153 -124 155z" />
    <glyph glyph-name="verticalbar" unicode="|" horiz-adv-x="679" 
d="M416 -294l-225 1785h99l226 -1785h-100z" />
    <glyph glyph-name="braceright" unicode="}" horiz-adv-x="512" 
d="M431 643l-18 -88q-154 0 -184 -155l-83 -430q-24 -126 -107 -195q-82 -69 -209 -69h-78l20 100h77q76 0 129 44t68 120l83 430q12 61 42 100q32 42 61 61q34 24 80 38q-42 15 -66 37q-21 19 -37 60q-14 36 -2 101l83 429q15 76 -21 121t-111 45h-78l19 99h78
q126 0 182 -70q55 -68 31 -195l-83 -429q-30 -154 124 -154z" />
    <glyph glyph-name="asciitilde" unicode="~" horiz-adv-x="1036" 
d="M138 769q81 72 180 72q64 0 121 -31t106 -68q70 -53 94 -69q45 -30 91 -30q66 0 119 46q54 46 70 130h89q-25 -131 -106 -204q-78 -71 -179 -71q-65 0 -122 30q-52 27 -107 69q-59 44 -94 68q-47 31 -91 31q-66 0 -119 -46t-70 -131h-88q26 133 106 204z" />
    <glyph glyph-name="nonbreakingspace" unicode="&#xa0;" horiz-adv-x="552" 
 />
    <glyph glyph-name="exclamdown" unicode="&#xa1;" horiz-adv-x="333" 
d="M177 1021q-17 22 -11 56q6 32 33 54t59 22q33 0 51 -22q17 -23 11 -54q-6 -34 -33 -56q-26 -22 -58 -22q-34 0 -52 22zM137 812h99l-171 -992h-132z" />
    <glyph glyph-name="cent" unicode="&#xa2;" horiz-adv-x="1019" 
d="M332 -37l39 199q-84 14 -146 53q-64 40 -105 103q-43 66 -56 150q-14 89 6 190q20 105 67 189q49 87 115 150q64 61 146 103q77 39 165 53l43 221h99l-43 -221q136 -17 216 -104q78 -86 92 -237h-110q-13 95 -80 170q-65 72 -181 72q-71 0 -141 -30t-128 -82
q-62 -55 -102 -126q-43 -75 -59 -158q-17 -88 -2 -159q15 -73 52 -126q35 -51 96 -82q59 -30 130 -30q118 0 210 71q95 73 145 171h110q-70 -150 -183 -237q-113 -88 -257 -104l-39 -199h-99z" />
    <glyph glyph-name="sterling" unicode="&#xa3;" horiz-adv-x="1085" 
d="M344 757l-58 -298q-11 -53 -32 -85q-19 -29 -46 -58q-28 -28 -57 -44h771l-19 -99h-925l19 99q70 17 116 60q48 45 64 127l58 298h-133l19 99h133l62 320q17 83 61 154q45 72 108 126q64 55 142 85t163 30q86 0 149 -28q65 -29 108 -79q42 -49 60 -119q17 -65 6 -148
h-110q6 61 -6 108q-13 50 -45 88q-31 37 -78 58q-46 21 -103 21q-56 0 -114 -23q-55 -22 -104 -63q-49 -42 -82 -95q-33 -54 -45 -116l-62 -319h397l-20 -99h-397z" />
    <glyph glyph-name="currency" unicode="&#xa4;" horiz-adv-x="1329" 
d="M1097 473q-20 -67 -77 -133l151 -148l-102 -102l-148 145q-61 -46 -128 -69t-140 -23q-69 0 -133 19q-63 19 -142 76l-149 -150l-102 104l151 148q-47 62 -69 125q-23 67 -23 140q0 91 26 158q26 66 66 123l-151 146l102 101l149 -148q64 48 124 69q66 23 138 23
q90 0 156 -24q64 -23 125 -70l148 150l102 -101l-151 -151q51 -65 74 -130q24 -67 24 -148q0 -61 -21 -130zM871 387q93 90 93 224q0 135 -93 225t-221 90q-132 0 -224 -91t-92 -224q0 -128 92 -222q91 -92 224 -92q128 0 221 90z" />
    <glyph glyph-name="yen" unicode="&#xa5;" horiz-adv-x="989" 
d="M121 713l20 99h275l-273 749h120l256 -728l539 728h120l-564 -749h275l-19 -99h-319l-35 -177h320l-19 -99h-320l-51 -264h-110l51 264h-319l19 99h320l34 177h-320z" />
    <glyph glyph-name="section" unicode="&#xa7;" horiz-adv-x="997" 
d="M909 902q37 -60 18 -157q-17 -85 -72 -143q-57 -61 -113 -99q-69 -46 -154 -76q49 -16 90 -52q32 -29 55 -75q23 -45 9 -117q-22 -116 -130 -196q-106 -79 -266 -79q-158 0 -228 88q-70 87 -53 221h99q-2 -101 50 -155q52 -55 151 -55q125 0 195 55q69 55 83 121
q13 64 -29 106q-40 40 -109 69q-60 25 -149 55q-86 29 -147 66q-65 40 -103 99q-38 58 -18 156q16 84 72 144q54 58 119 100q69 46 157 76q-50 15 -89 51q-32 29 -53 75q-21 47 -8 116q10 57 45 108q37 54 84 89q50 37 115 58q61 20 139 20q70 0 124 -23q53 -23 86 -63
q32 -39 46 -95q14 -54 6 -116h-99q2 93 -48 146q-49 52 -134 52q-119 0 -185 -54t-80 -122q-13 -64 28 -105t106 -69q59 -25 146 -55q85 -29 144 -66q63 -39 100 -99zM777 894q-68 65 -249 116q-84 -27 -157 -68q-66 -38 -116 -86q-54 -51 -68 -122q-16 -83 54 -149
t258 -115q83 28 150 69q63 40 112 86q54 51 67 120q17 84 -51 149z" />
    <glyph glyph-name="copyright" unicode="&#xa9;" horiz-adv-x="1527" 
d="M1449 981q29 -129 0 -276q-28 -147 -108 -278q-78 -127 -190 -224q-109 -94 -246 -149q-135 -54 -276 -54t-255 54q-116 55 -188 149q-73 95 -103 224q-30 127 -1 278q28 145 109 276q80 130 190 225q111 96 246 150t276 54t255 -54q115 -54 188 -150q75 -98 103 -225z
M274 948q-68 -111 -93 -243q-26 -134 -2 -244q24 -112 87 -191q65 -82 161 -126q97 -45 221 -45t239 45q110 43 209 126q92 77 161 191q67 111 93 244t2 243q-25 115 -86 192q-63 80 -161 125q-100 46 -222 46q-121 0 -239 -46q-113 -44 -209 -125q-91 -76 -161 -192z
M574 810q-30 -50 -40 -105q-10 -56 -1 -106q9 -49 34 -84t63 -55t84 -20q84 0 142 39q59 40 96 104h99q-43 -97 -138 -170q-95 -72 -218 -72q-64 0 -120 28q-54 27 -91 76q-36 48 -50 115t1 145t55 146q38 65 95 114t121 76t130 27q125 0 190 -71q66 -72 72 -171h-99
q-12 67 -55 105q-42 38 -127 38q-47 0 -92 -19q-43 -18 -84 -56q-38 -35 -67 -84z" />
    <glyph glyph-name="softhyphen" unicode="&#xad;" horiz-adv-x="0" 
 />
    <glyph glyph-name="registered" unicode="&#xae;" horiz-adv-x="1527" 
d="M1449 981q29 -129 0 -276q-28 -147 -108 -278q-78 -127 -190 -224q-109 -94 -246 -149q-135 -54 -276 -54t-255 54q-116 55 -188 149q-73 95 -103 224q-30 127 -1 278q28 145 109 276q80 130 190 225q111 96 246 150t276 54t255 -54q115 -54 188 -150q75 -98 103 -225z
M274 948q-68 -111 -93 -243q-26 -134 -2 -244q24 -112 87 -191q65 -82 161 -126q97 -45 221 -45t239 45q110 43 209 126q92 77 161 191q67 111 93 244t2 243q-25 115 -86 192q-63 80 -161 125q-100 46 -222 46q-121 0 -239 -46q-113 -44 -209 -125q-91 -76 -161 -192z
M1025 995q49 -63 33 -147q-12 -63 -47 -101q-35 -39 -72 -59q-42 -24 -96 -38l140 -298h-109l-132 287h-121l-56 -287h-88l137 706h254q108 0 157 -63zM851 969h-166l-47 -242h165q56 0 102 35q43 33 54 86q10 50 -21 86q-31 35 -87 35z" />
    <glyph glyph-name="mu" unicode="&#xb5;" horiz-adv-x="993" 
d="M-74 -180l258 1322h100l-112 -572q-13 -62 0 -122q12 -56 44 -99q32 -42 82 -65q51 -23 111 -23q64 0 127 23q60 22 111 65q49 41 84 98q33 52 47 123l111 572h99l-188 -969h-67l-4 143h-12q-47 -51 -87 -78q-41 -29 -105 -53q-63 -23 -146 -23q-72 0 -117 22
q-48 23 -77 48q-33 30 -53 73h-11l-94 -485h-101z" />
    <glyph glyph-name="paragraph" unicode="&#xb6;" horiz-adv-x="909" 
d="M975 1561l-309 -1586h-99l289 1487h-231l-289 -1487h-99l188 969q-69 0 -124 23q-54 23 -89 65q-35 43 -47 98q-12 57 1 123q14 69 47 122q34 55 85 97q54 45 114 66q64 23 133 23h430z" />
    <glyph glyph-name="questiondown" unicode="&#xbf;" horiz-adv-x="872" 
d="M-45 14q-16 60 -3 125q15 80 50 129q39 55 81 93q41 37 98 76q56 38 98 79q43 42 82 104q38 60 54 148l4 21h111l-4 -21q-20 -101 -58 -167q-38 -65 -85 -114q-44 -45 -99 -83q-42 -29 -96 -72q-44 -35 -79 -81q-33 -43 -47 -112q-9 -48 2 -88q12 -43 42 -74
q29 -31 74 -50q44 -19 101 -19q59 0 113 22q57 23 100 62q47 42 77 97q33 60 46 128l6 33h110l-6 -33q-18 -89 -62 -165q-43 -75 -105 -129t-139 -84q-78 -30 -159 -30q-86 0 -147 26q-64 28 -104 73q-39 45 -56 106zM607 1131q17 -20 11 -54q-6 -33 -32 -56
q-25 -22 -59 -22q-33 0 -51 22q-18 23 -12 56t33 54q27 22 60 22q31 0 50 -22z" />
    <glyph glyph-name="Agrave" unicode="&#xc0;" horiz-adv-x="1130" 
d="M748 1391l270 -1388h-121l-70 374h-639l-216 -374h-122l810 1388h88zM813 476l-143 738l-431 -738h574zM689 1821l80 -264h-77l-135 264h132z" />
    <glyph glyph-name="Aacute" unicode="&#xc1;" horiz-adv-x="1130" 
d="M748 1391l270 -1388h-121l-70 374h-639l-216 -374h-122l810 1388h88zM813 476l-143 738l-431 -738h574zM703 1557l184 264h132l-238 -264h-78z" />
    <glyph glyph-name="Acircumflex" unicode="&#xc2;" horiz-adv-x="1130" 
d="M748 1391l270 -1388h-121l-70 374h-639l-216 -374h-122l810 1388h88zM813 476l-143 738l-431 -738h574zM739 1799h89l159 -253h-109l-109 175l-178 -175h-110z" />
    <glyph glyph-name="Atilde" unicode="&#xc3;" horiz-adv-x="1130" 
d="M748 1391l270 -1388h-121l-70 374h-639l-216 -374h-122l810 1388h88zM829 1645q25 -23 53 -23q33 0 66 33q35 33 45 89h77q-21 -107 -82 -165q-61 -56 -126 -56q-41 0 -72 23q-29 20 -53 49q-23 27 -49 50q-24 21 -52 21q-34 0 -66 -31q-35 -33 -45 -89h-78
q21 107 83 163q61 56 126 56q42 0 72 -21q29 -20 54 -50q20 -24 47 -49zM813 476l-143 738l-431 -738h574z" />
    <glyph glyph-name="Adieresis" unicode="&#xc4;" horiz-adv-x="1130" 
d="M748 1391l270 -1388h-121l-70 374h-639l-216 -374h-122l810 1388h88zM813 476l-143 738l-431 -738h574zM660 1733q18 -23 12 -56t-34 -55q-25 -21 -59 -21q-32 0 -50 21t-12 55t33 56t59 22t51 -22zM991 1733q17 -23 11 -56q-6 -34 -32 -55t-60 -21q-33 0 -51 21
q-17 20 -11 55q6 32 33 56q27 22 59 22t51 -22z" />
    <glyph glyph-name="Aring" unicode="&#xc5;" horiz-adv-x="1128" 
d="M748 1391l270 -1388h-121l-70 374h-639l-216 -374h-122l810 1388h88zM813 476l-143 738l-431 -738h574zM612 1563q-41 52 -26 126q15 76 75 125q58 49 136 51q75 0 114 -51q41 -52 28 -125q-15 -75 -76 -126q-59 -50 -135 -50t-116 50zM705 1759q-35 -30 -42 -70
q-8 -43 14 -71q25 -29 66 -28q43 0 75 28q36 29 43 71q8 43 -15 70q-24 29 -64 29q-42 0 -77 -29z" />
    <glyph glyph-name="AE" unicode="&#xc6;" horiz-adv-x="1656" 
d="M1523 102l-20 -99h-793l73 374h-540l-282 -374h-121l1052 1388h859l-20 -99h-660l-101 -518h606l-19 -99h-606l-111 -573h683zM938 1292l-621 -816h485l159 816h-23z" />
    <glyph glyph-name="Ccedilla" unicode="&#xc7;" horiz-adv-x="1265" 
d="M1055 1198q-93 105 -268 105q-102 0 -205 -44q-102 -43 -190 -124q-88 -80 -150 -190q-63 -111 -90 -248q-27 -135 -7 -248q19 -111 77 -191q58 -81 141 -123q86 -44 189 -44q175 0 310 104q136 104 225 271h110q-105 -205 -266 -332q-164 -130 -372 -140l-52 -79
q62 -9 95 -46q32 -37 22 -87q-13 -65 -69 -109q-57 -45 -148 -45q-16 0 -38 2q-14 1 -26 3q-11 1 -22 6l15 78q14 -6 20 -7q10 -2 24 -3q9 -1 30 -1q56 0 88 21t38 55q4 24 -16 46q-20 21 -70 21q-10 0 -24 -2q-9 -1 -18 -5q-3 -1 -8.5 -3t-7.5 -2l92 157q-114 13 -208 67
t-156 144q-63 92 -85 215q-23 129 6 277q30 154 107 286q75 129 182 223q104 92 229 144t247 52q107 0 192 -35q81 -33 141 -98q59 -63 93 -150q35 -88 44 -191h-110q-18 165 -111 270z" />
    <glyph glyph-name="Egrave" unicode="&#xc8;" horiz-adv-x="978" 
d="M846 102l-19 -99h-860l270 1388h837l-19 -99h-728l-100 -518h672l-19 -99h-673l-111 -573h750zM673 1821l81 -264h-77l-136 264h132z" />
    <glyph glyph-name="Eacute" unicode="&#xc9;" horiz-adv-x="978" 
d="M846 102l-19 -99h-860l270 1388h837l-19 -99h-728l-100 -518h672l-19 -99h-673l-111 -573h750zM643 1557l184 264h133l-239 -264h-78z" />
    <glyph glyph-name="Ecircumflex" unicode="&#xca;" horiz-adv-x="978" 
d="M846 102l-19 -99h-860l270 1388h837l-19 -99h-728l-100 -518h672l-19 -99h-673l-111 -573h750zM703 1809h89l160 -252h-109l-110 176l-178 -176h-110z" />
    <glyph glyph-name="Edieresis" unicode="&#xcb;" horiz-adv-x="978" 
d="M846 102l-19 -99h-860l270 1388h837l-19 -99h-728l-100 -518h672l-19 -99h-673l-111 -573h750zM623 1733q18 -23 12 -56t-34 -55q-25 -21 -59 -21q-32 0 -50 21t-12 55t33 56t59 22t51 -22zM953 1733q18 -23 12 -56q-6 -34 -33 -55q-26 -21 -59 -21t-51 21t-12 55t33 56
t60 22q31 0 50 -22z" />
    <glyph glyph-name="Igrave" unicode="&#xcc;" horiz-adv-x="313" 
d="M287 1821l81 -264h-76l-137 264h132zM347 1391l-270 -1388h-110l270 1388h110z" />
    <glyph glyph-name="Iacute" unicode="&#xcd;" horiz-adv-x="315" 
d="M347 1391l-270 -1388h-110l270 1388h110zM292 1557l182 264h133l-239 -264h-76z" />
    <glyph glyph-name="Icircumflex" unicode="&#xce;" horiz-adv-x="315" 
d="M329 1809h88l161 -252h-111l-109 176l-177 -176h-110zM347 1391l-270 -1388h-110l270 1388h110z" />
    <glyph glyph-name="Idieresis" unicode="&#xcf;" horiz-adv-x="315" 
d="M248 1733q17 -23 11 -56q-6 -34 -32 -55q-25 -21 -59 -21t-52 21q-17 20 -11 55q6 32 33 56q27 22 60 22q31 0 50 -22zM347 1391l-270 -1388h-110l270 1388h110zM579 1733q17 -22 11 -56t-33 -55q-25 -21 -59 -21q-33 0 -51 21q-17 20 -11 55q6 34 33 56t59 22t51 -22z
" />
    <glyph glyph-name="Ntilde" unicode="&#xd1;" horiz-adv-x="1171" 
d="M1096 1391h110l-270 -1388h-99l-531 1179l-229 -1179h-110l270 1388h99l531 -1178zM863 1666q23 -21 52 -21q34 0 66 31q35 33 45 89h77q-21 -106 -82 -163q-61 -56 -126 -56q-42 0 -72 21q-29 20 -54 50q-22 27 -48 49q-25 22 -52 23q-34 0 -66 -32q-36 -34 -46 -90h-76
q21 108 81 165q61 56 126 56q41 0 72 -23q31 -22 54 -49t49 -50z" />
    <glyph glyph-name="Ograve" unicode="&#xd2;" 
d="M1300 983q27 -130 -3 -286q-29 -153 -109 -286q-75 -129 -182 -223q-105 -93 -228 -144q-125 -52 -247 -52q-120 0 -226 52q-102 50 -173 144q-69 93 -96 223q-26 128 4 286q30 154 107 286q75 129 182 223q105 93 230 144q125 52 246 52t227 -52q103 -51 172 -144
t96 -223zM240 945q-62 -110 -89 -248q-27 -135 -7 -248q21 -112 77 -190q59 -82 141 -124q86 -44 189 -44q102 0 205 44q102 43 190 124q88 80 150 190q63 111 90 248q26 132 6 248q-21 113 -76 191q-57 80 -142 123q-86 44 -188 44t-205 -44q-101 -43 -190 -123
q-88 -81 -151 -191zM799 1821l81 -264h-78l-136 264h133z" />
    <glyph glyph-name="Oacute" unicode="&#xd3;" 
d="M1300 983q27 -130 -3 -286q-29 -153 -109 -286q-75 -129 -182 -223q-105 -93 -228 -144q-125 -52 -247 -52q-120 0 -226 52q-102 50 -173 144q-69 93 -96 223q-26 128 4 286q30 154 107 286q75 129 182 223q105 93 230 144q125 52 246 52t227 -52q103 -51 172 -144
t96 -223zM240 945q-62 -110 -89 -248q-27 -135 -7 -248q21 -112 77 -190q59 -82 141 -124q86 -44 189 -44q102 0 205 44q102 43 190 124q88 80 150 190q63 111 90 248q26 132 6 248q-21 113 -76 191q-57 80 -142 123q-86 44 -188 44t-205 -44q-101 -43 -190 -123
q-88 -81 -151 -191zM813 1557l184 264h132l-239 -264h-77z" />
    <glyph glyph-name="Ocircumflex" unicode="&#xd4;" 
d="M1300 983q27 -130 -3 -286q-29 -153 -109 -286q-75 -129 -182 -223q-105 -93 -228 -144q-125 -52 -247 -52q-120 0 -226 52q-102 50 -173 144q-69 93 -96 223q-26 128 4 286q30 154 107 286q75 129 182 223q105 93 230 144q125 52 246 52t227 -52q103 -51 172 -144
t96 -223zM240 945q-62 -110 -89 -248q-27 -135 -7 -248q21 -112 77 -190q59 -82 141 -124q86 -44 189 -44q102 0 205 44q102 43 190 124q88 80 150 190q63 111 90 248q26 132 6 248q-21 113 -76 191q-58 81 -141 123q-86 44 -189 44q-102 0 -205 -44q-101 -43 -190 -123
q-88 -81 -151 -191zM839 1799h88l159 -253h-109l-109 175l-178 -175h-110z" />
    <glyph glyph-name="Otilde" unicode="&#xd5;" 
d="M1300 983q27 -130 -3 -286q-29 -153 -109 -286q-75 -129 -182 -223q-105 -93 -228 -144q-125 -52 -247 -52q-120 0 -226 52q-102 50 -173 144q-69 93 -96 223q-26 128 4 286q30 154 107 286q75 129 182 223q105 93 230 144q125 52 246 52t227 -52q103 -51 172 -144
t96 -223zM240 945q-62 -110 -89 -248q-27 -135 -7 -248q21 -112 77 -190q59 -82 141 -124q86 -44 189 -44q102 0 205 44q102 43 190 124q88 80 150 190q63 111 90 248q26 132 6 248q-21 113 -76 191q-57 80 -142 123q-86 44 -188 44t-205 -44q-101 -43 -190 -123
q-88 -81 -151 -191zM932 1666q24 -21 53 -21q34 0 66 31q36 34 46 89h76q-21 -107 -81 -163q-61 -56 -126 -56q-42 0 -72 21q-29 20 -54 50q-20 23 -49 49q-25 22 -51 23q-35 0 -67 -32q-35 -33 -45 -90h-77q21 107 82 165q61 56 126 56q41 0 72 -23q31 -22 54 -49
q24 -29 47 -50z" />
    <glyph glyph-name="Odieresis" unicode="&#xd6;" 
d="M1300 983q27 -130 -3 -286q-29 -153 -109 -286q-75 -129 -182 -223q-105 -93 -228 -144q-125 -52 -247 -52q-120 0 -226 52q-102 50 -173 144q-69 93 -96 223q-26 128 4 286q30 154 107 286q75 129 182 223q105 93 230 144q125 52 246 52t227 -52q103 -51 172 -144
t96 -223zM240 945q-62 -110 -89 -248q-27 -135 -7 -248q21 -112 77 -190q59 -82 141 -124q86 -44 189 -44q102 0 205 44q102 43 190 124q88 80 150 190q63 111 90 248q26 132 6 248q-21 113 -76 191q-57 80 -142 123q-86 44 -188 44t-205 -44q-101 -43 -190 -123
q-88 -81 -151 -191zM759 1733q18 -23 12 -56t-34 -55q-25 -21 -59 -21q-32 0 -50 21q-17 20 -11 55q6 33 32 56q27 22 59 22t51 -22zM1090 1733q17 -23 11 -56q-6 -34 -32 -55q-25 -21 -60 -21q-33 0 -51 21q-17 20 -11 55q6 32 33 56q27 22 59 22t51 -22z" />
    <glyph glyph-name="Oslash" unicode="&#xd8;" horiz-adv-x="1398" 
d="M-72 125l185 153q-41 85 -53 189q-12 101 13 230q30 154 107 286q75 129 182 223q104 92 229 144t247 52q132 0 235 -55q102 -55 176 -154l171 143l53 -66l-184 -155q41 -85 53 -189q12 -102 -13 -229q-30 -155 -108 -286t-182 -223q-105 -93 -228 -144
q-125 -52 -247 -52q-126 0 -232 55q-105 55 -179 154l-171 -143zM273 945q-63 -111 -90 -248q-21 -110 -14 -192q8 -86 35 -149l953 760q-48 90 -140 138q-93 49 -198 49q-103 0 -206 -44q-100 -43 -189 -124q-90 -82 -151 -190zM1128 449q63 111 90 248q20 102 13 183
q-8 86 -34 159l-952 -761q55 -90 143 -139q86 -48 195 -48q103 0 206 44q100 43 189 124q88 80 150 190z" />
    <glyph glyph-name="Ugrave" unicode="&#xd9;" horiz-adv-x="1159" 
d="M653 29q-102 -37 -211 -37q-110 0 -196 37q-85 36 -136 104q-51 67 -69 166q-16 97 9 221l169 871h109l-169 -871q-40 -206 44 -318q84 -111 258 -111q173 0 301 111q127 110 169 318l169 871h110l-170 -871q-24 -123 -78 -221q-55 -99 -132 -166q-79 -68 -177 -104z
M732 1821l81 -264h-78l-136 264h133z" />
    <glyph glyph-name="Uacute" unicode="&#xda;" horiz-adv-x="1159" 
d="M653 29q-102 -37 -211 -37q-110 0 -196 37q-85 36 -136 104q-51 67 -69 166q-16 97 9 221l169 871h109l-169 -871q-40 -206 44 -318q84 -111 258 -111q173 0 301 111q127 110 169 318l169 871h110l-170 -871q-24 -123 -78 -221q-55 -99 -132 -166q-79 -68 -177 -104z
M702 1557l184 264h132l-239 -264h-77z" />
    <glyph glyph-name="Ucircumflex" unicode="&#xdb;" horiz-adv-x="1159" 
d="M653 29q-102 -37 -211 -37q-110 0 -196 37q-85 36 -136 104q-51 67 -69 166q-16 97 9 221l169 871h109l-169 -871q-40 -206 44 -318q84 -111 258 -111q173 0 301 111q127 110 169 318l169 871h110l-170 -871q-24 -123 -78 -221q-55 -99 -132 -166q-79 -68 -177 -104z
M749 1799h88l161 -253h-110l-110 175l-177 -175h-110z" />
    <glyph glyph-name="Udieresis" unicode="&#xdc;" horiz-adv-x="1159" 
d="M653 29q-102 -37 -211 -37q-110 0 -196 37q-85 36 -136 104q-51 67 -69 166q-16 97 9 221l169 871h109l-169 -871q-40 -206 44 -318q84 -111 258 -111q173 0 301 111q127 110 169 318l169 871h110l-170 -871q-24 -123 -78 -221q-55 -99 -132 -166q-79 -68 -177 -104z
M670 1733q17 -23 11 -56q-6 -34 -32 -55q-25 -21 -59 -21q-33 0 -51 21t-12 55q6 33 34 56q27 22 59 22q31 0 50 -22zM1001 1733q17 -22 11 -56t-33 -55q-25 -21 -59 -21q-33 0 -51 21q-17 20 -11 55q6 34 33 56t59 22t51 -22z" />
    <glyph glyph-name="germandbls" unicode="&#xdf;" horiz-adv-x="962" 
d="M835 970q-51 -43 -106 -70q75 -21 129 -69q47 -42 77 -107q32 -69 11 -177q-15 -79 -57 -148q-41 -67 -102 -119q-58 -50 -134 -79q-72 -28 -154 -28h-122l20 99h121q58 0 112 21q57 22 100 58q41 34 75 89q32 51 42 107q11 57 0 108q-10 49 -41 88q-30 38 -77 59
q-46 21 -104 21h-99l20 99q55 0 112 23q55 22 100 60q43 36 76 89q30 49 41 103q10 50 -1 104q-10 48 -42 88q-30 38 -76 60q-48 23 -103 23q-63 0 -119 -22q-59 -23 -103 -60q-43 -36 -77 -93q-31 -52 -45 -121l-195 -1003h-100l195 1003q17 87 61 158q45 75 105 126
q61 52 137 82q74 29 160 29q82 0 142 -28q61 -28 103 -79t57 -119q15 -69 0 -148q-15 -77 -56 -134q-42 -58 -83 -93z" />
    <glyph glyph-name="agrave" unicode="&#xe0;" horiz-adv-x="876" 
d="M399 968q69 23 147 23q76 0 139 -25q58 -25 98 -71q38 -46 50 -107q14 -67 0 -138l-125 -639q-29 0 -48 18t-20 47l-3 78h-12q-47 -51 -87 -78q-41 -29 -105 -53q-63 -24 -145 -23q-165 0 -239 79q-73 79 -50 196q14 67 53 124q40 58 113 102q70 42 178 68q109 26 258 26
h122l11 55q21 107 -35 175q-56 67 -172 67q-119 0 -189 -51q-71 -52 -110 -126h-99q21 57 58 105q39 51 92 88q55 38 120 60zM139 154q52 -55 179 -55q140 0 241 84q100 84 127 225l18 88h-122q-128 0 -217 -18q-82 -15 -144 -48q-57 -30 -85 -68q-27 -38 -38 -87
q-13 -65 41 -121zM554 1430l81 -265h-77l-137 265h133z" />
    <glyph glyph-name="aacute" unicode="&#xe1;" horiz-adv-x="874" 
d="M399 968q69 23 147 23q76 0 139 -25q58 -25 98 -71q38 -46 50 -107q14 -67 0 -138l-125 -639q-29 0 -48 18t-20 47l-3 78h-12q-47 -51 -87 -78q-41 -29 -105 -53q-63 -24 -145 -23q-165 0 -239 79q-73 79 -50 196q14 67 53 124q40 58 113 102q70 42 178 68q109 26 258 26
h122l11 55q21 107 -35 175q-56 67 -172 67q-119 0 -189 -51q-71 -52 -110 -126h-99q21 57 58 105q39 51 92 88q55 38 120 60zM139 154q52 -55 179 -55q140 0 241 84q100 84 127 225l18 88h-122q-128 0 -217 -18q-82 -15 -144 -48q-57 -30 -85 -68q-27 -38 -38 -87
q-13 -65 41 -121zM546 1165l184 265h133l-239 -265h-78z" />
    <glyph glyph-name="acircumflex" unicode="&#xe2;" horiz-adv-x="874" 
d="M399 968q69 23 147 23q76 0 139 -25q58 -25 98 -71q38 -46 50 -107q14 -67 0 -138l-125 -639q-29 0 -48 18t-20 47l-3 78h-12q-47 -51 -87 -78q-41 -29 -105 -53q-63 -24 -145 -23q-165 0 -239 79q-73 79 -50 196q14 67 53 124q40 58 113 102q70 42 178 68q109 26 258 26
h122l11 55q21 107 -35 175q-56 67 -172 67q-119 0 -189 -51q-71 -52 -110 -126h-99q21 57 58 105q39 51 92 88q55 38 120 60zM139 154q52 -55 179 -55q140 0 241 84q100 84 127 225l18 88h-122q-128 0 -217 -18q-82 -15 -144 -48q-57 -30 -85 -68q-27 -38 -38 -87
q-13 -65 41 -121zM598 1421h89l160 -254h-111l-109 177l-177 -177h-110z" />
    <glyph glyph-name="atilde" unicode="&#xe3;" horiz-adv-x="874" 
d="M399 968q69 23 147 23q76 0 139 -25q58 -25 98 -71q38 -46 50 -107q14 -67 0 -138l-125 -639q-29 0 -48 18t-20 47l-3 78h-12q-47 -51 -87 -78q-41 -29 -105 -53q-63 -24 -145 -23q-165 0 -239 79q-73 79 -50 196q14 67 53 124q40 58 113 102q70 42 178 68q109 26 258 26
h122l11 55q21 107 -35 175q-56 67 -172 67q-119 0 -189 -51q-71 -52 -110 -126h-99q21 57 58 105q39 51 92 88q55 38 120 60zM139 154q52 -55 179 -55q140 0 241 84q100 84 127 225l18 88h-122q-128 0 -217 -18q-82 -15 -144 -48q-57 -30 -85 -68q-27 -38 -38 -87
q-13 -65 41 -121zM684 1256q24 -22 52 -22q35 0 67 31q35 33 45 90h77q-21 -109 -81 -164q-60 -56 -127 -57q-42 0 -71 23q-33 23 -55 49q-24 29 -47 50q-23 20 -52 22q-35 0 -68 -32q-34 -32 -44 -89h-77q21 107 81 164q61 56 127 56q43 0 71 -22q31 -22 55 -50
q20 -24 47 -49z" />
    <glyph glyph-name="adieresis" unicode="&#xe4;" horiz-adv-x="874" 
d="M399 968q69 23 147 23q76 0 139 -25q58 -25 98 -71q38 -46 50 -107q14 -67 0 -138l-125 -639q-29 0 -48 18t-20 47l-3 78h-12q-47 -51 -87 -78q-41 -29 -105 -53q-63 -24 -145 -23q-165 0 -239 79q-73 79 -50 196q14 67 53 124q40 58 113 102q70 42 178 68q109 26 258 26
h122l11 55q21 107 -35 175q-56 67 -172 67q-119 0 -189 -51q-71 -52 -110 -126h-99q21 57 58 105q39 51 92 88q55 38 120 60zM139 154q52 -55 179 -55q140 0 241 84q100 84 127 225l18 88h-122q-128 0 -217 -18q-82 -15 -144 -48q-57 -30 -85 -68q-27 -38 -38 -87
q-13 -65 41 -121zM524 1333q18 -21 12 -55t-33 -56q-25 -21 -59 -21q-33 0 -51 21t-12 56q6 34 33 55q27 22 59 22t51 -22zM854 1333q18 -21 12 -55t-33 -56q-25 -21 -59 -21q-33 0 -51 21t-12 56q6 33 34 55q27 22 59 22q31 0 50 -22z" />
    <glyph glyph-name="ae" unicode="&#xe6;" horiz-adv-x="1556" 
d="M1317 253h122q-27 -49 -73 -96q-45 -46 -96 -80q-54 -35 -117 -56q-65 -21 -139 -21q-105 0 -166 35q-58 34 -96 79q-41 52 -56 117q-44 -67 -106 -117q-55 -45 -131 -79q-79 -35 -183 -35q-84 0 -141 21q-56 21 -91 57q-34 35 -46 84q-12 47 -1 103q14 68 51 121
q40 57 109 98q71 42 180 65q110 23 260 23h110l15 78q21 107 -34 175q-54 67 -161 67q-119 0 -189 -51q-72 -52 -110 -125h-99q20 53 58 103q41 54 92 89q55 38 120 60q69 23 147 23q92 0 145 -33q53 -34 79 -72q30 -44 44 -104q48 60 104 104q48 37 121 72q69 33 157 33
q89 0 162 -32q70 -31 116 -89q43 -55 59 -139q15 -82 -4 -180q-3 -15 -8 -31q-5 -14 -9 -24q-3 -7 -9 -23h-717q-18 -183 52 -278q70 -96 195 -96q99 0 169 48q68 46 115 106zM130 149q48 -50 165 -50q149 0 251 84t129 225l12 65h-109q-133 0 -217 -17q-87 -18 -144 -47
t-85 -66t-36 -78q-14 -67 34 -116zM1377 807q-69 85 -200 85q-117 0 -218 -84q-97 -81 -153 -236h628q12 150 -57 235z" />
    <glyph glyph-name="ccedilla" unicode="&#xe7;" horiz-adv-x="944" 
d="M753 820q-65 72 -182 72q-71 0 -141 -30t-128 -82q-62 -55 -102 -126q-42 -71 -59 -158q-17 -88 -2 -159q15 -73 52 -126q35 -51 96 -82q59 -30 130 -30q117 0 210 72q94 73 144 170h111q-71 -151 -181 -237q-111 -87 -244 -102l-53 -79q62 -9 95 -46q32 -37 22 -87
q-14 -68 -68 -110q-56 -44 -149 -44q-27 0 -37 1q-6 1 -15.5 2.5t-10.5 1.5q-13 2 -23 6l15 78q14 -6 21 -7q10 -2 24 -3q9 -1 30 -1q58 0 88 21q31 22 37 55q4 25 -15 46q-20 21 -71 21q-9 0 -23 -2q-5 -1 -18 -6q-3 -1 -8.5 -2.5t-7.5 -1.5l91 155q-93 5 -164 41t-119 103
q-47 66 -62 154q-15 90 6 198q21 109 73 198q53 90 127 157q73 65 163 103q89 37 185 37q166 0 253 -96q85 -94 99 -245h-111q-13 98 -78 170z" />
    <glyph glyph-name="egrave" unicode="&#xe8;" horiz-adv-x="972" 
d="M855 253q-29 -46 -74 -92q-43 -43 -100 -80q-60 -38 -125 -59q-71 -22 -147 -22q-98 0 -177 38t-126 103q-49 68 -67 156q-18 90 3 199q21 107 74 198q52 90 126 156q71 64 164 104q92 38 184 37q89 0 164 -35q77 -38 122 -97q46 -61 66 -147t-1 -184q-2 -13 -8 -30
q-2 -5 -5.5 -13.5t-4.5 -11.5q-2 -4 -4 -11t-4 -10h-782q-8 -80 10 -145q18 -66 56 -111q39 -46 96 -72q59 -26 133 -25q51 0 99 14q46 13 86 38q43 27 68 50q30 28 52 52h122zM690 867q-53 25 -119 25q-62 0 -129 -25q-63 -25 -119 -71q-54 -43 -99 -107q-45 -63 -72 -138
h694q6 75 -12 138t-53 107q-36 45 -91 71zM598 1430l81 -265h-77l-136 265h132z" />
    <glyph glyph-name="eacute" unicode="&#xe9;" horiz-adv-x="972" 
d="M855 253q-29 -46 -74 -92q-43 -43 -100 -80q-60 -38 -125 -59q-71 -22 -147 -22q-98 0 -177 38t-126 103q-49 68 -67 156q-18 90 3 199q21 107 74 198q52 90 126 156q71 64 164 104q92 38 184 37q89 0 164 -35q77 -38 122 -97q46 -61 66 -147t-1 -184q-2 -13 -8 -30
q-2 -5 -5.5 -13.5t-4.5 -11.5q-2 -4 -4 -11t-4 -10h-782q-8 -80 10 -145q18 -66 56 -111q39 -46 96 -72q59 -26 133 -25q51 0 99 14q46 13 86 38q43 27 68 50q30 28 52 52h122zM690 867q-53 25 -119 25q-62 0 -129 -25q-63 -25 -119 -71q-54 -43 -99 -107q-45 -63 -72 -138
h694q6 75 -12 138t-53 107q-36 45 -91 71zM591 1165l184 265h132l-239 -265h-77z" />
    <glyph glyph-name="ecircumflex" unicode="&#xea;" horiz-adv-x="972" 
d="M855 253q-29 -46 -74 -92q-43 -43 -100 -80q-60 -38 -125 -59q-71 -22 -147 -22q-98 0 -177 38t-126 103q-49 68 -67 156q-18 90 3 199q21 107 74 198q52 90 126 156q71 64 164 104q92 38 184 37q89 0 164 -35q77 -38 122 -97q46 -61 66 -147t-1 -184q-2 -13 -8 -30
q-2 -5 -5.5 -13.5t-4.5 -11.5q-2 -4 -4 -11t-4 -10h-782q-8 -80 10 -145q18 -66 56 -111q39 -46 96 -72q59 -26 133 -25q51 0 99 14q46 13 86 38q43 27 68 50q30 28 52 52h122zM690 867q-53 25 -119 25q-62 0 -129 -25q-63 -25 -119 -71q-54 -43 -99 -107q-45 -63 -72 -138
h694q6 75 -12 138t-53 107q-36 45 -91 71zM628 1410h88l159 -253h-109l-109 176l-177 -176h-111z" />
    <glyph glyph-name="edieresis" unicode="&#xeb;" horiz-adv-x="972" 
d="M855 253q-29 -46 -74 -92q-43 -43 -100 -80q-60 -38 -125 -59q-71 -22 -147 -22q-98 0 -177 38t-126 103q-49 68 -67 156q-18 90 3 199q21 107 74 198q52 90 126 156q71 64 164 104q92 38 184 37q89 0 164 -35q77 -38 122 -97q46 -61 66 -147t-1 -184q-2 -13 -8 -30
q-2 -5 -5.5 -13.5t-4.5 -11.5q-2 -4 -4 -11t-4 -10h-782q-8 -80 10 -145q18 -66 56 -111q39 -46 96 -72q59 -26 133 -25q51 0 99 14q46 13 86 38q43 27 68 50q30 28 52 52h122zM690 867q-53 25 -119 25q-62 0 -129 -25q-63 -25 -119 -71q-54 -43 -99 -107q-45 -63 -72 -138
h694q6 75 -12 138t-53 107q-36 45 -91 71zM546 1333q18 -21 12 -55t-33 -56q-26 -21 -60 -21q-32 0 -50 21t-12 56q6 34 33 55q27 22 59 22t51 -22zM877 1333q17 -20 11 -55q-6 -33 -32 -56q-26 -21 -60 -21q-33 0 -51 21q-17 20 -11 56q6 33 33 55t59 22t51 -22z" />
    <glyph glyph-name="igrave" unicode="&#xec;" horiz-adv-x="272" 
d="M224 1421l81 -264h-76l-136 264h131zM283 980l-189 -969h-100l189 969h100z" />
    <glyph glyph-name="iacute" unicode="&#xed;" horiz-adv-x="278" 
d="M283 980l-189 -969h-100l189 969h100zM240 1157l183 264h133l-239 -264h-77z" />
    <glyph glyph-name="icircumflex" unicode="&#xee;" horiz-adv-x="276" 
d="M280 1421h89l159 -254h-110l-109 177l-178 -177h-110zM283 980l-189 -969h-100l189 969h100z" />
    <glyph glyph-name="idieresis" unicode="&#xef;" horiz-adv-x="276" 
d="M196 1333q18 -21 12 -55t-33 -56q-26 -21 -59 -21t-51 21t-12 56q6 33 34 55q27 22 59 22q31 0 50 -22zM283 980l-189 -969h-100l189 969h100zM527 1333q18 -21 12 -55q-6 -33 -34 -56q-25 -21 -59 -21q-33 0 -51 21q-17 20 -11 56q6 34 33 55q27 22 59 22t51 -22z" />
    <glyph glyph-name="ntilde" unicode="&#xf1;" horiz-adv-x="962" 
d="M457 967q63 24 146 24q82 0 149 -29q66 -30 105 -84q40 -53 55 -129q16 -78 -2 -166l-111 -572h-99l111 572q13 65 1 123q-14 56 -45 98q-32 41 -82 65t-112 23q-65 0 -126 -23q-62 -25 -111 -65q-52 -44 -84 -98q-33 -54 -46 -123l-112 -572h-100l189 969h66l6 -143h11
q33 40 85 78q42 28 106 52zM720 1278q22 -22 52 -22q35 0 67 32q35 33 45 89h77q-21 -107 -81 -164q-61 -56 -127 -56q-42 0 -72 21q-27 19 -54 51q-20 24 -47 49q-25 22 -52 22q-35 0 -68 -32t-44 -90h-78q21 107 82 165q61 56 127 56q41 0 71 -22q33 -23 55 -49
q24 -29 47 -50z" />
    <glyph glyph-name="ograve" unicode="&#xf2;" horiz-adv-x="985" 
d="M950 694q18 -90 -3 -198q-21 -107 -75 -199q-52 -90 -126 -156q-73 -65 -163 -103q-91 -38 -185 -38t-170 38t-123 103q-47 64 -65 156q-18 90 3 199q21 107 74 198q53 90 126 156q72 64 163 104q92 38 185 37q93 0 170 -37q74 -37 123 -104q48 -66 66 -156zM202 654
q-43 -72 -60 -158q-17 -87 -2 -159q15 -74 52 -126q38 -53 97 -82q57 -30 128 -30q72 0 141 30q68 29 128 82q58 53 102 126q43 72 58 159q17 86 3 158q-15 73 -53 126q-37 52 -96 83q-58 30 -128 29q-71 0 -141 -29q-68 -30 -129 -83q-57 -52 -100 -126zM586 1421l81 -264
h-77l-136 264h132z" />
    <glyph glyph-name="oacute" unicode="&#xf3;" horiz-adv-x="985" 
d="M950 694q18 -90 -3 -198q-21 -107 -75 -199q-52 -90 -126 -156q-73 -65 -163 -103q-91 -38 -185 -38t-170 38t-123 103q-47 64 -65 156q-18 90 3 199q21 107 74 198q53 90 126 156q72 64 163 104q92 38 185 37q93 0 170 -37q74 -37 123 -104q48 -66 66 -156zM202 654
q-43 -72 -60 -158q-17 -87 -2 -159q15 -74 52 -126q38 -53 97 -82q57 -30 128 -30q72 0 141 30q68 29 128 82q58 53 102 126q43 72 58 159q17 86 3 158q-15 73 -53 126q-37 52 -96 83q-58 30 -128 29q-71 0 -141 -29q-68 -30 -129 -83q-57 -52 -100 -126zM600 1157l184 264
h133l-239 -264h-78z" />
    <glyph glyph-name="ocircumflex" unicode="&#xf4;" horiz-adv-x="985" 
d="M950 694q18 -90 -3 -198q-21 -107 -75 -199q-52 -90 -126 -156q-73 -65 -163 -103q-91 -38 -185 -38t-170 38t-123 103q-47 64 -65 156q-18 90 3 199q21 107 74 198q53 90 126 156q72 64 163 104q92 38 185 37q93 0 170 -37q74 -37 123 -104q48 -66 66 -156zM202 654
q-43 -72 -60 -158q-17 -87 -2 -159q15 -74 52 -126q38 -53 97 -82q57 -30 128 -30q72 0 141 30q68 29 128 82q58 53 102 126q43 72 58 159q17 86 3 158q-15 73 -53 126q-37 52 -96 83q-58 30 -128 29q-71 0 -141 -29q-68 -30 -129 -83q-57 -52 -100 -126zM630 1421h89
l159 -254h-110l-109 177l-177 -177h-111z" />
    <glyph glyph-name="otilde" unicode="&#xf5;" horiz-adv-x="983" 
d="M950 694q18 -90 -3 -198q-21 -107 -75 -199q-52 -90 -126 -156q-73 -65 -163 -103q-91 -38 -185 -38t-170 38t-123 103q-47 64 -65 156q-18 90 3 199q21 107 74 198q53 90 126 156q72 64 163 104q92 38 185 37q93 0 170 -37q74 -37 123 -104q48 -66 66 -156zM202 654
q-43 -72 -60 -158q-17 -87 -2 -159q15 -74 52 -126q38 -53 97 -82q57 -30 128 -30q72 0 141 30q68 29 128 82q58 53 102 126q43 72 58 159q17 86 3 158q-15 73 -53 126q-37 52 -96 83q-58 30 -128 29q-71 0 -141 -29q-68 -30 -129 -83q-57 -52 -100 -126zM732 1266
q22 -21 51 -21q35 0 67 32q34 33 45 90h77q-21 -107 -82 -165q-61 -56 -126 -56q-42 0 -72 21q-29 20 -54 50q-20 24 -47 49q-25 22 -53 23q-35 0 -67 -32q-35 -33 -45 -90h-76q21 108 81 165q61 56 126 56q41 0 72 -22q29 -20 54 -50q23 -27 49 -50z" />
    <glyph glyph-name="odieresis" unicode="&#xf6;" horiz-adv-x="985" 
d="M950 694q18 -90 -3 -198q-21 -107 -75 -199q-52 -90 -126 -156q-73 -65 -163 -103q-91 -38 -185 -38t-170 38t-123 103q-47 64 -65 156q-18 90 3 199q21 107 74 198q53 90 126 156q72 64 163 104q92 38 185 37q93 0 170 -37q74 -37 123 -104q48 -66 66 -156zM202 654
q-43 -72 -60 -158q-17 -87 -2 -159q15 -74 52 -126q38 -53 97 -82q57 -30 128 -30q72 0 141 30q68 29 128 82q58 53 102 126q43 72 58 159q17 86 3 158q-15 73 -53 126q-37 52 -96 83q-58 30 -128 29q-71 0 -141 -29q-68 -30 -129 -83q-57 -52 -100 -126zM546 1333
q18 -21 12 -55t-33 -56q-26 -21 -59 -21t-51 21q-17 20 -11 56q6 34 33 55q27 22 59 22q31 0 50 -22zM878 1333q17 -20 11 -55q-6 -32 -33 -56q-26 -21 -60 -21q-32 0 -50 21q-17 20 -11 56q6 34 32 55q27 22 59 22q33 0 52 -22z" />
    <glyph glyph-name="oslash" unicode="&#xf8;" horiz-adv-x="1040" 
d="M1086 903l-143 -110q31 -57 39 -135q8 -80 -8 -162q-21 -106 -74 -199q-51 -89 -127 -157q-73 -65 -163 -103q-89 -37 -184 -37q-94 0 -165 37q-74 39 -119 95l-131 -111l-54 67l143 110q-29 53 -39 131q-9 74 9 167q21 107 74 198q52 90 126 156q75 67 163 104
q89 37 185 37q94 0 165 -37q73 -38 118 -95l132 110zM229 655q-43 -71 -60 -159q-10 -49 -10 -91q0 -32 6 -70q5 -38 17 -60l640 518q-21 27 -54 48q-35 20 -70 34q-43 17 -99 17q-71 0 -140 -30q-71 -31 -128 -82q-58 -52 -102 -125zM815 337q43 71 60 159q10 47 8 89
q-1 37 -6 69q-5 34 -15 62l-640 -518q23 -31 54 -51q32 -18 70 -32q45 -16 99 -16q71 0 140 30q74 32 128 82q59 54 102 126z" />
    <glyph glyph-name="ugrave" unicode="&#xf9;" horiz-adv-x="960" 
d="M506 23q-63 -23 -145 -23t-149 29q-65 30 -104 84q-41 55 -56 129q-16 78 2 166l111 572h100l-111 -572q-13 -65 -1 -123q14 -58 44 -98q32 -41 82 -65t112 -23q64 0 127 23q65 26 111 65q50 42 83 98q34 55 48 123l111 572h99l-188 -969h-67l-4 143h-12q-47 -51 -87 -78
q-40 -29 -106 -53zM585 1432l79 -265h-76l-136 265h133z" />
    <glyph glyph-name="uacute" unicode="&#xfa;" horiz-adv-x="960" 
d="M506 23q-63 -23 -145 -23t-149 29q-65 30 -104 84q-41 55 -56 129q-16 78 2 166l111 572h100l-111 -572q-13 -65 -1 -123q14 -58 44 -98q32 -41 82 -65t112 -23q64 0 127 23q65 26 111 65q50 42 83 98q34 55 48 123l111 572h99l-188 -969h-67l-4 143h-12q-47 -51 -87 -78
q-40 -29 -106 -53zM565 1167l184 265h133l-239 -265h-78z" />
    <glyph glyph-name="ucircumflex" unicode="&#xfb;" horiz-adv-x="960" 
d="M506 23q-63 -23 -145 -23t-149 29q-65 30 -104 84q-41 55 -56 129q-16 78 2 166l111 572h100l-111 -572q-13 -65 -1 -123q14 -58 44 -98q32 -41 82 -65t112 -23q64 0 127 23q65 26 111 65q50 42 83 98q34 55 48 123l111 572h99l-188 -969h-67l-4 143h-12q-47 -51 -87 -78
q-40 -29 -106 -53zM615 1421h88l160 -254h-110l-109 177l-178 -177h-109z" />
    <glyph glyph-name="udieresis" unicode="&#xfc;" horiz-adv-x="960" 
d="M506 23q-63 -23 -145 -23t-149 29q-65 30 -104 84q-41 55 -56 129q-16 78 2 166l111 572h100l-111 -572q-13 -65 -1 -123q14 -58 44 -98q32 -41 82 -65t112 -23q64 0 127 23q65 26 111 65q50 42 83 98q34 55 48 123l111 572h99l-188 -969h-67l-4 143h-12q-47 -51 -87 -78
q-40 -29 -106 -53zM532 1333q17 -20 11 -55q-6 -32 -33 -56q-26 -21 -59 -21t-51 21q-17 20 -11 56q6 34 32 55q27 22 60 22q32 0 51 -22zM862 1333q18 -21 12 -55t-33 -56q-26 -21 -59 -21t-51 21t-12 56q6 33 34 55q27 22 59 22q31 0 50 -22z" />
    <glyph glyph-name="florin" unicode="&#x192;" horiz-adv-x="581" 
d="M408 889l-272 -716q-72 -199 -166 -281q-95 -83 -235 -83q-36 0 -63 11q-12 4 -21 12l39 87q10 -6 19 -7l21 -3q7 -1 24 -1q83 0 147 58q61 56 125 207q42 106 137 358q89 235 134 358h-143l42 99h143l87 221q72 199 165 280q94 82 235 82q20 0 36 -3q19 -3 27 -7
q3 -1 10 -5t11 -6l-38 -88q-1 0 -5 1t-7.5 2t-7.5 1q-3 0 -10.5 1.5t-11.5 2.5q-16 2 -23 2q-83 0 -146 -57q-64 -58 -126 -206q-5 -11 -26 -63q-6 -14 -15.5 -39.5t-12.5 -32.5q-19 -47 -33 -86h244l-42 -99h-242z" />
    <glyph glyph-name="perthousand" unicode="&#x2030;" horiz-adv-x="1882" 
d="M729 1393q10 -48 -1 -108q-10 -54 -41 -107q-31 -52 -75 -89q-43 -36 -100 -58q-54 -21 -113 -21q-56 0 -103 21q-48 22 -77 58q-31 38 -41 89t0 107q10 57 42 108q34 55 75 89q43 36 100 58q54 21 111 21q58 0 105 -21q48 -22 77 -58q31 -38 41 -89zM354 1421
q-59 -50 -76 -136q-16 -84 24 -135q41 -52 115 -52t135 52t77 135q17 85 -24 136t-116 51t-135 -51zM72 173l1118 1388h111l-1119 -1388h-110zM599 341q-10 51 0 107q11 57 42 108t76 88q46 38 99 59q54 21 112 21t104 -21q47 -21 77 -59q31 -39 41 -88q10 -51 0 -108
q-10 -56 -42 -107q-34 -55 -75 -89q-44 -37 -100 -58q-55 -21 -112 -21t-104 21q-46 21 -76 58q-32 40 -42 89zM974 313q61 52 77 135q17 85 -24 136t-116 51q-76 0 -136 -51t-77 -136q-16 -83 25 -135t115 -52q75 0 136 52zM1217 341q-10 51 0 107q11 57 42 108
q32 53 75 88q46 38 99 59q54 21 113 21q56 0 103 -21t77 -59q32 -40 42 -88q10 -51 0 -108q-10 -56 -42 -107q-33 -53 -76 -89t-100 -58q-54 -21 -111 -21t-104 21q-48 22 -77 58q-31 38 -41 89zM1591 313q61 52 77 135q16 84 -25 136q-41 51 -114 51q-76 0 -136 -51
t-77 -136q-16 -84 24 -135q41 -52 116 -52q74 0 135 52z" />
    <glyph glyph-name="Euro" unicode="&#x20ac;" horiz-adv-x="1474" 
d="M246 811q4 19 9 45q1 8 4 22.5t4 20.5q2 10 9 32q4 13 9 24h-162l18 88h176q46 112 119 213t161 168q90 69 195 108t223 39q104 0 184 -34q81 -35 140 -98t92 -151q34 -91 43 -190h-110q-18 163 -111 270q-91 104 -258 104q-97 0 -181 -32q-88 -33 -160 -92
q-74 -60 -131 -136q-58 -77 -96 -169h474l-17 -88h-489q-5 -11 -9 -24q-5 -16 -9 -32q-1 -6 -2.5 -12.5t-3 -15.5l-2.5 -15q-5 -26 -9 -45q-1 -4 -4 -35q-2 -22 -2 -31h489l-17 -87h-474q5 -83 33 -151q30 -72 81 -126q52 -55 125 -87q75 -33 169 -33q167 0 301 104
q136 106 224 270h109q-53 -102 -123 -190q-69 -87 -153 -150q-85 -64 -179 -98q-96 -35 -198 -35q-117 0 -208 38q-88 37 -153 106q-64 69 -98 157q-36 93 -40 195h-176l17 87h161q0 7 2 31q3 31 4 35z" />
    <glyph glyph-name="trademark" unicode="&#x2122;" horiz-adv-x="1175" 
d="M621 1399l-17 -88h-176l-92 -474h-89l92 474h-176l17 88h441zM919 1003h-44l-112 219l-75 -385h-88l109 562h66l143 -286l254 286h66l-109 -562h-89l75 385z" />
    </font>
</defs>
</svg>
