<?xml version="1.0" standalone="no"?>
<!DOCTYPE svg PUBLIC "-//W3C//DTD SVG 1.1//EN" "http://www.w3.org/Graphics/SVG/1.1/DTD/svg11.dtd" >
<svg xmlns="http://www.w3.org/2000/svg" xmlns:xlink="http://www.w3.org/1999/xlink" version="1.1">
<metadata>
Created by FontForge 20170731 at Mon Jan 31 23:10:12 2022
 By Aleksey,,,
</metadata>
<defs>
<font id="KineticBlack" horiz-adv-x="1529" >
  <font-face 
    font-family="Kinetic Black"
    font-weight="900"
    font-stretch="normal"
    units-per-em="2048"
    panose-1="0 0 0 0 0 0 0 0 0 0"
    ascent="1638"
    descent="-410"
    x-height="1023"
    cap-height="1388"
    bbox="-135 -498 2173 1948"
    underline-thickness="102"
    underline-position="-307"
    unicode-range="U+000A-2122"
  />
<missing-glyph horiz-adv-x="1079" 
d="M102 1434h875v-1434h-875v1434zM160 1393l379 -633l381 633h-760zM514 717l-369 614v-1231zM541 674l-379 -631h758zM565 717l371 -621v1239z" />
    <glyph glyph-name=".notdef" horiz-adv-x="1079" 
d="M102 1434h875v-1434h-875v1434zM160 1393l379 -633l381 633h-760zM514 717l-369 614v-1231zM541 674l-379 -631h758zM565 717l371 -621v1239z" />
    <glyph glyph-name=".null" horiz-adv-x="0" 
 />
    <glyph glyph-name=".null" horiz-adv-x="0" 
 />
    <glyph glyph-name="nonmarkingreturn" horiz-adv-x="682" 
 />
    <glyph glyph-name="LF" unicode="&#xa;" horiz-adv-x="0" 
 />
    <glyph glyph-name="controlCR" unicode="&#xd;" horiz-adv-x="0" 
 />
    <glyph glyph-name="space" unicode=" " horiz-adv-x="608" 
 />
    <glyph glyph-name="exclam" unicode="!" horiz-adv-x="630" 
d="M128 591l-44 904h463l-44 -904h-375zM466 445q59 -59 59 -151t-59 -151t-151 -59t-151 59q-58 58 -58 151t58 151t151 58t151 -58z" />
    <glyph glyph-name="quotedbl" unicode="&#x22;" horiz-adv-x="917" 
d="M409 1495v-496h-341v496h341zM850 1495v-496h-342v496h342z" />
    <glyph glyph-name="quotedbl" unicode="&#x201d;" horiz-adv-x="917" 
d="M409 1495v-496h-341v496h341zM850 1495v-496h-342v496h342z" />
    <glyph glyph-name="quotedbl" unicode="&#x201c;" horiz-adv-x="917" 
d="M409 1495v-496h-341v496h341zM850 1495v-496h-342v496h342z" />
    <glyph glyph-name="numbersign" unicode="#" horiz-adv-x="1542" 
d="M171 911l66 297h198l55 287h331l-55 -287h165l55 287h331l-55 -287h209l-66 -297h-198l-45 -221h210l-66 -297h-199l-55 -287h-330l55 287h-165l-56 -287h-330l55 287h-209l66 297h198l44 221h-209zM711 922l-44 -243h165l44 243h-165z" />
    <glyph glyph-name="dollar" unicode="$" horiz-adv-x="1312" 
d="M468 -70v176q-172 50 -280 166q-106 113 -106 297l430 44q0 -59 35 -95q34 -37 86 -37t75 22q24 23 24 55q0 34 -46 52q-51 20 -117 38q-41 11 -151 48q-77 26 -151 76q-71 48 -117 126q-46 77 -46 200t56 200q58 80 125 122q79 51 183 75v176h396v-187q149 -51 246 -158
q96 -106 96 -272l-430 -44q0 49 -29 80q-29 30 -70 30q-31 0 -55 -16q-22 -15 -22 -39q0 -34 46 -52q60 -23 117 -39q59 -16 151 -47q77 -26 151 -76q69 -47 117 -127q46 -77 46 -199t-58 -204t-125 -129q-81 -58 -181 -86v-176h-396z" />
    <glyph glyph-name="percent" unicode="%" horiz-adv-x="1572" 
d="M699 1322q26 -60 26 -125q0 -64 -26 -124q-25 -59 -69 -102q-41 -41 -105 -68q-59 -25 -131 -25t-131 25q-64 27 -105 68q-44 43 -69 102q-26 60 -26 124q0 65 26 125q25 57 69 101q41 41 105 68q61 26 131 26t131 -26q64 -27 105 -68q44 -44 69 -101zM1044 1495h331
l-849 -1389h-330zM339 1252q-22 -22 -22 -55t22 -55t55 -22t55 22t22 55t-22 55t-55 22t-55 -22zM871 279q-25 57 -25 125q0 67 25 124t70 102q41 41 104 68q59 25 131 25t131 -25q64 -27 105 -68q45 -45 70 -102t25 -124q0 -68 -25 -125q-24 -55 -70 -101q-41 -41 -105 -68
q-61 -26 -131 -26t-131 26q-63 27 -104 68q-46 46 -70 101zM1231 349q22 22 22 55t-22 55t-55 22t-55 -22t-22 -55t22 -55t55 -22t55 22z" />
    <glyph glyph-name="ampersand" unicode="&#x26;" horiz-adv-x="1662" 
d="M1034 106l-110 110q-38 -36 -97 -66q-48 -24 -117 -45t-160 -21q-115 0 -205 29q-89 29 -148 79q-58 50 -90 119q-31 68 -31 148q0 91 41 161q40 68 91 116q59 59 132 97q-36 38 -66 91q-23 42 -45 101q-21 57 -21 128q0 75 30 141q30 67 87 116q56 49 139 78
q82 29 185 29q94 0 172 -29q77 -28 132 -78q54 -48 85 -116q29 -64 29 -141q0 -80 -34 -142q-36 -65 -76 -107q-51 -55 -110 -93l88 -88l55 77h419l-220 -319l374 -375h-529zM539 470q22 -22 55 -22q28 0 48 15l18 18l-110 110q-6 -6 -18 -20q-16 -26 -16 -46q0 -32 23 -55z
M616 1045q11 -15 33 -35q23 23 33 35q16 23 22 34q11 19 11 41q0 23 -17 45q-16 21 -49 21t-50 -21q-16 -20 -16 -45q0 -24 10 -41q14 -24 23 -34z" />
    <glyph glyph-name="quotesingle" unicode="'" horiz-adv-x="499" 
d="M68 999v496h363v-496h-363z" />
    <glyph glyph-name="quotesingle" unicode="&#x2019;" horiz-adv-x="499" 
d="M68 999v496h363v-496h-363z" />
    <glyph glyph-name="quotesingle" unicode="&#x2018;" horiz-adv-x="499" 
d="M68 999v496h363v-496h-363z" />
    <glyph glyph-name="parenleft" unicode="(" horiz-adv-x="833" 
d="M584 903q-35 -136 -35 -301q0 -166 35 -302q35 -137 79 -244q51 -122 117 -225l-330 -221q-103 122 -183 278q-69 133 -125 313q-56 182 -56 401t56 401q56 180 125 313q80 156 183 278l330 -221q-67 -105 -117 -224q-42 -103 -79 -246z" />
    <glyph glyph-name="parenright" unicode=")" horiz-adv-x="833" 
d="M248 300q37 143 37 302q0 158 -37 301q-35 136 -80 246q-51 121 -115 224l331 221q97 -117 180 -278q68 -130 126 -313q57 -180 57 -401q0 -220 -57 -402t-126 -312q-83 -161 -180 -278l-331 221q63 101 115 225q46 113 80 244z" />
    <glyph glyph-name="asterisk" unicode="*" horiz-adv-x="876" 
d="M559 1495l-11 -210l188 77l77 -231l-199 -44l133 -154l-199 -144l-110 177l-110 -177l-198 144l132 154l-199 44l78 231l187 -77l-11 210h242z" />
    <glyph glyph-name="plus" unicode="+" horiz-adv-x="1052" 
d="M713 205h-375v276h-264v374h264v276h375v-276h264v-374h-264v-276z" />
    <glyph glyph-name="comma" unicode="," horiz-adv-x="555" 
d="M124 445q58 58 151 58q41 0 79 -18t66 -49q29 -32 47 -77q17 -42 17 -98q0 -125 -41 -210q-40 -83 -91 -134q-56 -59 -132 -97l-77 110q26 12 57 40q24 20 45 48t30 66q-92 0 -151 59q-58 58 -58 151t58 151z" />
    <glyph glyph-name="hyphen" unicode="-" horiz-adv-x="841" 
d="M773 855v-374h-705v374h705z" />
    <glyph glyph-name="period" unicode="." horiz-adv-x="550" 
d="M124 143q-58 58 -58 151t58 151t151 58t151 -58t58 -151t-58 -151q-59 -59 -151 -59t-151 59z" />
    <glyph glyph-name="slash" unicode="/" horiz-adv-x="944" 
d="M934 1495l-573 -1785h-408l573 1785h408z" />
    <glyph glyph-name="zero" unicode="0" horiz-adv-x="1421" 
d="M1289 1001q49 -135 49 -297q0 -163 -49 -298q-48 -133 -133 -225q-88 -96 -199 -144q-113 -49 -247 -49t-247 49q-111 48 -199 144q-86 94 -134 225q-48 132 -48 298q0 165 48 297q48 133 134 226q88 96 199 144q113 49 247 49t247 -49q111 -48 199 -144q84 -91 133 -226
zM841 477q56 71 56 227t-56 227q-55 70 -131 70t-131 -70q-56 -71 -56 -227t56 -227t131 -71t131 71z" />
    <glyph glyph-name="one" unicode="1" horiz-adv-x="911" 
d="M438 1398h374v-1388h-440v881l-133 -88l-198 331z" />
    <glyph glyph-name="two" unicode="2" horiz-adv-x="1236" 
d="M1147 428v-418h-1036v286l452 474q29 27 55 57q18 22 37 54q18 30 18 54q0 34 -22 50t-55 16q-35 0 -61 -29q-27 -30 -27 -81l-430 44q4 102 44 192q39 88 110 153q72 66 169 103q96 37 217 37q122 0 221 -35q100 -37 167 -95q68 -59 104 -140q37 -83 37 -171
q0 -90 -40 -172q-36 -72 -88 -138q-56 -69 -126 -130l-110 -111h364z" />
    <glyph glyph-name="three" unicode="3" horiz-adv-x="1284" 
d="M539 935l-441 44q5 91 43 171q38 79 108 140q67 58 167 95q99 35 222 35q128 0 227 -33q98 -33 166 -87q66 -53 101 -126t35 -151q0 -75 -31 -128q-32 -54 -69 -90q-45 -40 -99 -68q64 -28 115 -75q44 -39 80 -101q37 -63 37 -155q0 -81 -37 -158q-36 -74 -106 -134
q-67 -57 -169 -92q-99 -34 -228 -34q-138 0 -244 36t-180 99q-76 65 -115 148q-41 86 -45 179l440 45q5 -28 23 -56q10 -21 33 -38t55 -17q42 0 65 28t23 61t-24 60q-25 28 -75 28h-133v330h133q32 0 55 17q22 16 22 49t-21 50q-20 16 -45 16t-41 -13q-19 -16 -28 -31
q-8 -15 -19 -44z" />
    <glyph glyph-name="four" unicode="4" horiz-adv-x="1300" 
d="M1220 627v-397h-133v-220h-440v220h-573v353l507 815h506v-771h133zM669 891l-166 -264h166v264z" />
    <glyph glyph-name="five" unicode="5" horiz-adv-x="1277" 
d="M671 951q36 6 83 6q89 0 171 -35q81 -36 140 -98q56 -59 94 -150q36 -91 36 -190q0 -109 -39 -199q-39 -91 -109 -156q-71 -67 -173 -104q-101 -37 -230 -37q-128 0 -230 36q-103 36 -176 97q-74 61 -112 141q-40 82 -44 166l441 45q7 -27 19 -45q8 -13 30 -30
q19 -14 50 -14q41 0 70 32t29 90q0 57 -29 89t-70 32q-24 0 -44 -11q-20 -10 -31 -22q-15 -15 -24 -33h-408l99 837h882v-353h-518l-22 -132q22 13 53 22q34 11 62 16z" />
    <glyph glyph-name="six" unicode="6" horiz-adv-x="1271" 
d="M867 26q-101 -38 -231 -38q-128 0 -232 39q-100 38 -177 110q-76 72 -114 166q-39 97 -39 214q0 93 31 177q33 89 68 151q41 75 99 145l287 408h462l-286 -408q100 -14 184 -55q83 -41 146 -107q61 -64 97 -149q36 -89 36 -184q0 -106 -40 -201q-37 -89 -114 -161
q-72 -67 -177 -107zM555 575q-30 -30 -30 -80q0 -51 30 -81t81 -30q50 0 80 30t30 81q0 50 -30 80t-80 30q-51 0 -81 -30z" />
    <glyph glyph-name="seven" unicode="7" horiz-adv-x="1136" 
d="M74 1398h991v-364l-473 -1024h-474l452 969h-496v419z" />
    <glyph glyph-name="eight" unicode="8" horiz-adv-x="1310" 
d="M903 23q-108 -35 -248 -35t-248 35t-180 95q-74 62 -109 140q-36 81 -36 171q0 93 34 154q36 64 76 101q48 46 110 75q-43 26 -83 68q-31 34 -57 86q-25 50 -25 122q0 76 34 144q35 70 100 123q67 55 163 86q99 32 221 32q121 0 220 -32q96 -31 163 -86t101 -123t34 -144
q0 -71 -27 -122q-30 -56 -57 -86q-37 -39 -82 -68q64 -30 111 -75q40 -37 76 -101q34 -61 34 -154q0 -88 -37 -171q-35 -78 -109 -140q-70 -58 -179 -95zM725 531q-29 30 -70 30q-43 0 -71 -30q-28 -29 -28 -80q0 -52 28 -81q28 -30 71 -30q41 0 70 30q29 31 29 81
q0 49 -29 80zM710 1055q-24 24 -55 24t-55 -24q-22 -22 -22 -65t22 -65q23 -23 55 -23t55 23q22 22 22 65t-22 65z" />
    <glyph glyph-name="nine" unicode="9" horiz-adv-x="1271" 
d="M404 1382q101 38 232 38q125 0 231 -40q102 -38 177 -109q76 -71 114 -167q40 -100 40 -213q0 -93 -31 -177t-69 -151q-44 -78 -99 -146l-286 -407h-463l286 407q-97 13 -184 56q-85 42 -146 106q-63 66 -97 150q-35 87 -35 184q0 108 39 201q37 89 114 161
q72 67 177 107zM716 833q30 30 30 80q0 51 -30 81q-29 29 -80 29q-52 0 -81 -29q-30 -30 -30 -81q0 -50 30 -80t81 -30q50 0 80 30z" />
    <glyph glyph-name="colon" unicode=":" horiz-adv-x="579" 
d="M138 760q-58 58 -58 151t58 151t151 58t151 -58q59 -59 59 -151t-59 -151t-151 -59t-151 59zM138 143q-58 58 -58 151t58 151t151 58t151 -58q59 -59 59 -151t-59 -151t-151 -59t-151 59z" />
    <glyph glyph-name="semicolon" unicode=";" horiz-adv-x="581" 
d="M138 760q-58 58 -58 151t58 151t151 58t151 -58q59 -59 59 -151t-59 -151t-151 -59t-151 59zM138 445q58 58 151 58q43 0 80 -18q38 -18 66 -49q27 -30 46 -77q18 -45 18 -98q0 -125 -41 -210q-39 -81 -92 -134q-56 -59 -132 -97l-77 110q26 12 57 40q26 22 46 48t29 66
q-92 0 -151 59q-58 58 -58 151t58 151z" />
    <glyph glyph-name="less" unicode="&#x3c;" horiz-adv-x="1032" 
d="M492 613l452 -154v-353l-870 331v352l870 331v-353z" />
    <glyph glyph-name="equal" unicode="=" horiz-adv-x="1015" 
d="M937 1054v-320h-859v320h859zM937 602v-319h-859v319h859z" />
    <glyph glyph-name="greater" unicode="&#x3e;" horiz-adv-x="1032" 
d="M538 613l-452 154v353l870 -331v-352l-870 -331v353z" />
    <glyph glyph-name="question" unicode="?" horiz-adv-x="1118" 
d="M1021 1274q33 -72 33 -154q0 -72 -21 -122q-21 -51 -54 -89q-32 -37 -72 -70q-26 -21 -72 -67q-37 -38 -60 -78q-26 -44 -30 -103h-396q0 116 37 193q38 79 84 131q46 53 84 87q37 34 37 63q0 55 -55 55q-24 0 -51 -24q-26 -23 -26 -75l-408 44q5 95 42 177
q38 83 104 143t157 96q95 36 204 36q120 0 212 -31t155 -85q62 -53 96 -127zM698 444q58 -58 58 -150q0 -93 -58 -151q-59 -59 -151 -59t-151 59q-58 58 -58 151q0 92 58 150q59 59 151 59t151 -59z" />
    <glyph glyph-name="at" unicode="@" horiz-adv-x="1710" 
d="M545 1293q140 58 306 58q172 0 317 -56q142 -55 247 -154q104 -98 161 -232q57 -133 57 -285q0 -100 -25 -175q-25 -76 -70 -128q-43 -50 -108 -78q-63 -27 -138 -27q-67 0 -113 21q-42 19 -74 46q-37 29 -56 66q-23 -37 -57 -66q-37 -28 -78 -46q-48 -21 -118 -21
q-68 0 -132 28q-62 27 -108 78q-47 52 -74 123q-28 75 -28 157q0 86 27 158q26 70 72 122q45 51 102 78q59 28 119 28q42 0 74 -12q29 -11 56 -28q27 -18 46 -37l22 55h232v-342q0 -93 27 -129t61 -36q33 0 60 36q28 37 28 129q0 105 -37 192q-37 88 -107 153
q-68 64 -168 102q-99 38 -217 38q-113 0 -207 -39q-97 -40 -164 -107q-70 -70 -108 -160q-39 -93 -39 -201t39 -201q38 -90 108 -160q67 -67 164 -107q94 -39 207 -39q69 0 128 17q63 18 101 38q55 26 91 55l143 -198q-49 -44 -119 -77q-59 -31 -146 -54t-198 -23
q-166 0 -306 58q-143 59 -245 160q-104 102 -162 238q-58 135 -58 293t58 293q58 136 162 238q102 101 245 160zM905 497q34 38 34 105t-34 105t-76 38t-76 -38t-34 -105t34 -105t76 -38t76 38z" />
    <glyph glyph-name="A" unicode="A" horiz-adv-x="1447" 
d="M910 242h-374l-66 -242h-474l463 1388h529l462 -1388h-473zM811 595l-88 331l-88 -331h176z" />
    <glyph glyph-name="B" unicode="B" horiz-adv-x="1345" 
d="M1138 804q-47 -40 -103 -66q76 -27 132 -73q53 -41 92 -107q40 -68 40 -172q0 -79 -32 -149t-93 -122t-149 -84q-86 -31 -199 -31h-728v1388h683q115 0 199 -28t144 -77q56 -46 89 -113q31 -63 31 -134q0 -84 -33 -140q-34 -58 -73 -92zM539 1058v-199h132q50 0 81 29
q29 28 29 71q0 42 -29 70q-31 29 -81 29h-132zM539 331h165q60 0 90 29q31 30 31 81q0 50 -31 80q-32 30 -90 30h-165v-220z" />
    <glyph glyph-name="C" unicode="C" horiz-adv-x="1480" 
d="M655 420q54 -23 109 -23q65 0 111 23q44 22 76 54q31 31 55 77l441 -44q-33 -147 -119 -265q-36 -49 -88 -98q-50 -47 -119 -83q-76 -40 -156 -60q-90 -23 -201 -23q-150 0 -285 56t-232 153q-100 100 -154 227q-56 132 -56 280q0 147 56 279q55 129 154 228
q97 97 232 153t285 56q111 0 201 -23q84 -21 156 -59q64 -34 119 -85q46 -43 88 -97q86 -118 119 -265l-441 -44q-22 41 -55 77q-34 30 -76 53q-47 25 -111 25q-53 0 -109 -24q-52 -22 -91 -63q-41 -43 -63 -95q-23 -55 -23 -116t23 -116q21 -50 63 -94q41 -43 91 -64z" />
    <glyph glyph-name="D" unicode="D" horiz-adv-x="1392" 
d="M98 0v1388h529q159 0 295 -53t231 -145q96 -93 148 -220q53 -129 53 -276q0 -149 -53 -276q-52 -127 -148 -220q-95 -92 -231 -145t-295 -53h-529zM539 397h88q55 0 109 23q53 23 92 64q42 44 63 94q23 55 23 116t-23 116q-22 52 -63 95q-39 40 -92 63q-56 24 -109 24
h-88v-595z" />
    <glyph glyph-name="E" unicode="E" horiz-adv-x="1267" 
d="M98 0v1388h1080v-374h-639v-133h584v-352h-584v-154h661v-375h-1102z" />
    <glyph glyph-name="F" unicode="F" horiz-adv-x="1177" 
d="M98 0v1388h1047v-396h-606v-177h485v-396h-485v-419h-441z" />
    <glyph glyph-name="G" unicode="G" 
d="M742 485v264h716v-749h-132q-65 0 -119 36t-79 96q-39 -43 -97 -77q-51 -32 -127 -54q-78 -23 -184 -23q-136 0 -260 56t-218 153q-95 98 -150 227t-55 280q0 147 56 279q55 129 154 228q97 97 232 153t285 56q108 0 196 -21q89 -21 157 -55q69 -35 119 -77
q52 -44 88 -89q86 -107 123 -242l-441 -45q-24 32 -59 56q-30 19 -76 37q-45 18 -107 18q-53 0 -109 -24q-52 -22 -91 -63q-41 -43 -63 -95q-23 -55 -23 -116t23 -116q21 -50 63 -94q41 -43 91 -64q54 -23 109 -23t94 13q42 14 69 31q32 19 57 44h-242z" />
    <glyph glyph-name="H" unicode="H" horiz-adv-x="1497" 
d="M958 1388h440v-1388h-440v496h-419v-496h-441v1388h441v-474h419v474z" />
    <glyph glyph-name="I" unicode="I" horiz-adv-x="638" 
d="M539 1388v-1388h-441v1388h441z" />
    <glyph glyph-name="J" unicode="J" horiz-adv-x="1165" 
d="M641 1388h441v-881q0 -118 -38 -217q-38 -100 -108 -168q-72 -70 -170 -107q-99 -37 -224 -37t-224 37q-100 37 -171 104q-69 64 -107 156q-38 91 -38 199l441 44q0 -58 28 -89q29 -32 71 -32t70 29q29 31 29 81v881z" />
    <glyph glyph-name="K" unicode="K" horiz-adv-x="1374" 
d="M1376 0h-495l-342 595v-595h-441v1388h441v-584l298 584h495l-396 -683z" />
    <glyph glyph-name="L" unicode="L" horiz-adv-x="1146" 
d="M98 0v1388h441v-969h595v-419h-1036z" />
    <glyph glyph-name="M" unicode="M" horiz-adv-x="1806" 
d="M903 661l341 727h463v-1388h-441v650l-297 -650h-132l-298 650v-650h-441v1388h463z" />
    <glyph glyph-name="N" unicode="N" horiz-adv-x="1519" 
d="M980 1388h440v-1388h-418l-463 661v-661h-441v1388h419l463 -661v661z" />
    <glyph glyph-name="O" unicode="O" 
d="M1435 973q56 -132 56 -279q0 -148 -56 -280q-54 -127 -154 -227q-97 -97 -232 -153t-285 -56t-285 56t-232 153q-100 100 -154 227q-56 132 -56 280q0 147 56 279q55 129 154 228q97 97 232 153t285 56t285 -56t232 -153q99 -99 154 -228zM1027 578q24 58 24 116t-24 116
q-22 54 -62 95q-39 40 -92 63q-56 24 -109 24t-109 -24q-52 -22 -91 -63q-41 -43 -63 -95q-23 -55 -23 -116t23 -116q21 -50 63 -94q41 -43 91 -64q54 -23 109 -23t109 23q53 23 92 64q40 42 62 94z" />
    <glyph glyph-name="P" unicode="P" horiz-adv-x="1282" 
d="M98 1388h617q125 0 224 -37q101 -37 171 -105q71 -68 108 -160t37 -205q0 -112 -37 -204t-108 -160q-70 -67 -171 -105q-99 -37 -224 -37h-176v-375h-441v1388zM539 771h132q57 0 89 30t32 80q0 51 -32 81q-31 30 -89 30h-132v-221z" />
    <glyph glyph-name="Q" unicode="Q" horiz-adv-x="1548" 
d="M1502 165l-231 -231l-143 143q-38 -28 -95 -51q-47 -18 -115 -33q-69 -15 -154 -15q-150 0 -285 56t-232 153q-100 100 -154 227q-56 132 -56 280q0 147 56 279q55 129 154 228q97 97 232 153t285 56t285 -56t232 -153q99 -99 154 -228q56 -132 56 -279q0 -88 -18 -160
q-17 -66 -43 -124q-28 -63 -60 -113zM501 810q-23 -55 -23 -116t23 -116q21 -50 63 -94q41 -43 91 -64q54 -23 109 -23h22l-77 77l231 231l100 -99q0 2 1.5 10.5t2.5 13.5l2 10q1 11 2 17q3 30 3 37q0 58 -24 116q-22 54 -62 95q-39 40 -92 63q-56 24 -109 24t-109 -24
q-52 -22 -91 -63q-41 -43 -63 -95z" />
    <glyph glyph-name="R" unicode="R" horiz-adv-x="1376" 
d="M881 0l-221 419h-121v-419h-441v1388h648q123 0 219 -37q98 -38 168 -103t107 -153q37 -87 37 -191q0 -100 -34 -171q-35 -74 -76 -116q-47 -54 -110 -88l308 -529h-484zM539 804h163q50 0 82 29q30 27 30 70q0 44 -30 71q-32 29 -82 29h-163v-199z" />
    <glyph glyph-name="S" unicode="S" horiz-adv-x="1243" 
d="M115 792q-46 77 -46 200q0 78 37 157q37 78 104 135q67 56 167 92q96 34 221 34q138 0 244 -36q107 -36 179 -99t111 -148q39 -86 39 -179l-430 -45q0 52 -28 81q-28 30 -71 30q-31 0 -55 -16q-22 -15 -22 -39q0 -34 46 -52q60 -23 117 -39q59 -16 151 -47
q77 -26 151 -76q69 -47 117 -127q46 -77 46 -199q0 -86 -39 -167q-39 -82 -109 -141q-72 -61 -173 -97q-102 -36 -230 -36q-142 0 -251 39q-111 40 -186 104q-77 66 -117 154q-41 90 -41 188l430 44q0 -59 35 -95q34 -37 86 -37t75 22q24 23 24 55q0 34 -46 52
q-51 20 -117 38q-41 11 -151 48q-77 26 -151 76q-70 48 -117 126z" />
    <glyph glyph-name="T" unicode="T" horiz-adv-x="1193" 
d="M817 970v-970h-441v970h-364v418h1168v-418h-363z" />
    <glyph glyph-name="U" unicode="U" horiz-adv-x="1431" 
d="M76 1388h440v-793q0 -92 53 -145t146 -53q92 0 145 53t53 145v793h441v-793q0 -140 -44 -255q-42 -109 -127 -193q-83 -81 -202 -125q-120 -44 -266 -44q-148 0 -268 44q-116 43 -200 125q-85 84 -127 193q-44 115 -44 255v793z" />
    <glyph glyph-name="V" unicode="V" horiz-adv-x="1380" 
d="M910 1388h474l-430 -1388h-528l-430 1388h474l220 -837z" />
    <glyph glyph-name="W" unicode="W" horiz-adv-x="2002" 
d="M1001 738l-210 -738h-396l-397 1388h474l176 -705l198 705h309l198 -705l176 705h474l-396 -1388h-397z" />
    <glyph glyph-name="X" unicode="X" horiz-adv-x="1411" 
d="M892 1388h496l-407 -683l429 -705h-496l-209 375l-209 -375h-496l430 705l-408 683h496l187 -352z" />
    <glyph glyph-name="Y" unicode="Y" horiz-adv-x="1374" 
d="M466 0v485l-484 903h484l221 -451l220 451h485l-485 -903v-485h-441z" />
    <glyph glyph-name="Y" unicode="&#x178;" horiz-adv-x="1374" 
d="M466 0v485l-484 903h484l221 -451l220 451h485l-485 -903v-485h-441z" />
    <glyph glyph-name="Y" unicode="&#xdd;" horiz-adv-x="1374" 
d="M466 0v485l-484 903h484l221 -451l220 451h485l-485 -903v-485h-441z" />
    <glyph glyph-name="Z" unicode="Z" horiz-adv-x="1261" 
d="M1172 1025l-529 -606h562v-419h-1146v364l529 606h-507v418h1091v-363z" />
    <glyph glyph-name="bracketleft" unicode="[" horiz-adv-x="800" 
d="M517 1098v-992h209v-396h-628v1785h628v-397h-209z" />
    <glyph glyph-name="backslash" unicode="\" horiz-adv-x="944" 
d="M583 -290l-573 1785h408l573 -1785h-408z" />
    <glyph glyph-name="bracketright" unicode="]" horiz-adv-x="800" 
d="M283 106v992h-209v397h628v-1785h-628v396h209z" />
    <glyph glyph-name="asciicircum" unicode="^" horiz-adv-x="1032" 
d="M979 833h-331l-132 276l-132 -276h-331l331 662h264z" />
    <glyph glyph-name="underscore" unicode="_" horiz-adv-x="935" 
d="M837 -4v-375h-739v375h739z" />
    <glyph glyph-name="a" unicode="a" horiz-adv-x="1097" 
d="M992 794q32 -78 32 -168v-617h-173q-52 0 -97.5 27t-71.5 73q-34 -34 -79 -62q-37 -24 -93 -42t-125 -18q-166 0 -254 81t-88 206q0 76 31 139t100 111q68 48 181 75q111 27 272 27q0 43 -22 65q-24 24 -55 24q-22 0 -35 -9q-15 -10 -25 -20q-11 -11 -17 -26l-386 44
q15 92 73 169q25 34 59 64q32 29 85 55q49 24 116 39q62 14 152 14q104 0 187 -31t142 -87t91 -133zM627 417v22q-108 0 -148 -29q-39 -28 -39 -70q0 -24 22 -45q23 -21 55 -21q42 0 76 38t34 105z" />
    <glyph glyph-name="a" unicode="&#xe5;" horiz-adv-x="1097" 
d="M992 794q32 -78 32 -168v-617h-173q-52 0 -97.5 27t-71.5 73q-34 -34 -79 -62q-37 -24 -93 -42t-125 -18q-166 0 -254 81t-88 206q0 76 31 139t100 111q68 48 181 75q111 27 272 27q0 43 -22 65q-24 24 -55 24q-22 0 -35 -9q-15 -10 -25 -20q-11 -11 -17 -26l-386 44
q15 92 73 169q25 34 59 64q32 29 85 55q49 24 116 39q62 14 152 14q104 0 187 -31t142 -87t91 -133zM627 417v22q-108 0 -148 -29q-39 -28 -39 -70q0 -24 22 -45q23 -21 55 -21q42 0 76 38t34 105z" />
    <glyph glyph-name="b" unicode="b" horiz-adv-x="1232" 
d="M1151 729q39 -98 39 -213q0 -116 -39 -213q-40 -100 -101 -167q-65 -71 -144 -109q-83 -40 -168 -40q-70 0 -125 18t-93 42q-48 30 -79 62q-26 -46 -71.5 -73t-97.5 -27h-184v1389h397v-441q24 26 59 44q29 17 80 31q46 13 114 13q85 0 168 -40q79 -38 144 -109
q61 -67 101 -167zM749 396q44 46 44 120t-44 120t-110 46t-110 -46t-44 -120t44 -120q43 -45 110 -45t110 45z" />
    <glyph glyph-name="c" unicode="c" horiz-adv-x="1157" 
d="M702 399q21 25 31 51l386 -44q-24 -117 -91 -209q-29 -39 -68 -77q-38 -37 -93 -68q-49 -28 -122 -47q-69 -18 -155 -18q-116 0 -217 42q-99 41 -174 115q-73 72 -117 168q-43 95 -43 204t43 204q44 98 117 169q73 72 174 114q100 42 217 42q90 0 155 -17q70 -18 122 -48
q57 -33 93 -67q39 -38 68 -77q67 -95 91 -210l-386 -44q-9 24 -31 49q-18 18 -44 34q-28 17 -68 17q-66 0 -110 -46t-44 -120q0 -77 44 -121t110 -44q41 0 68 15q25 14 44 33z" />
    <glyph glyph-name="d" unicode="d" horiz-adv-x="1232" 
d="M748 1398h397v-1389h-184q-52 0 -97.5 27t-71.5 73q-34 -34 -79 -62q-37 -24 -93 -42t-125 -18q-85 0 -168 40q-79 38 -144 109q-61 67 -101 167q-39 97 -39 213t39 213q40 100 101 167q65 71 144 109q83 40 168 40q67 0 113 -13q47 -13 78 -31q38 -19 62 -44v441z
M704 396q44 46 44 120t-44 120t-110 46t-110 -46t-44 -120t44 -120q44 -45 110 -45t110 45z" />
    <glyph glyph-name="e" unicode="e" horiz-adv-x="1163" 
d="M1078 733q41 -93 41 -195q0 -1 -3 -46q-1 -8 -2.5 -21.5t-1.5 -18.5q-1 -7 -2.5 -19.5t-1.5 -15.5h-661q9 -42 47 -76t96 -34q34 0 55 10q24 11 37 23q19 14 29 33l386 -44q-19 -60 -62 -123q-44 -65 -105 -111q-64 -49 -147 -78q-86 -30 -193 -30q-116 0 -217 42
q-99 41 -174 115q-73 72 -117 168q-43 95 -43 204t43 204q44 98 117 169q73 72 174 114q100 42 217 42q111 0 208 -41q95 -40 168 -110q71 -68 112 -161zM458 615h264q-9 50 -45 86q-38 36 -87 36t-87 -36q-36 -36 -45 -86z" />
    <glyph glyph-name="f" unicode="f" horiz-adv-x="790" 
d="M623 1022q-21 -11 -33 -28q-14 -18 -18 -37h187v-353h-198v-595h-397v595h-121v353h121v33q0 200 108 310q108 109 300 109q42 0 76 -6q33 -6 58 -12q27 -8 53 -15v-353q-4 1 -12.5 3t-13.5 2q-1 0 -10.5 1.5t-15.5 2.5q-20 2 -25 2q-36 0 -59 -12z" />
    <glyph glyph-name="g" unicode="g" horiz-adv-x="1234" 
d="M963 1023h184v-903q0 -102 -38 -192q-38 -89 -106 -153q-70 -65 -168 -103q-96 -37 -217 -37q-86 0 -155 15q-70 15 -123 41q-55 27 -92 58q-41 35 -69 67q-66 80 -90 182l408 45q9 -23 26 -40t39 -27q24 -11 56 -11q57 0 95 40q37 38 37 115v44q-26 -26 -61 -44
q-30 -17 -79 -31q-46 -13 -113 -13q-92 0 -173 37q-83 38 -145 103t-98 153q-36 89 -36 191q0 104 36 192t98 153t145 103q81 37 173 37q66 0 125 -19q52 -17 93 -43q45 -28 79 -59q25 46 70.5 72.5t98.5 26.5zM696 450q43 43 43 110q0 68 -43 111q-44 44 -100 44t-100 -44
q-43 -43 -43 -111q0 -67 43 -110q44 -44 100 -44t100 44z" />
    <glyph glyph-name="h" unicode="h" horiz-adv-x="1206" 
d="M1103 790q30 -81 30 -186v-595h-397v507q0 65 -35 105q-35 38 -86 38q-58 0 -95 -38t-37 -105v-507h-397v1007h-88v381h88v1h397v-452q27 23 70 48q36 19 83 35t111 16q81 0 153 -30t123 -87q49 -55 80 -138z" />
    <glyph glyph-name="i" unicode="i" horiz-adv-x="622" 
d="M534 1024v-1v-1014h-396v634h-89v381h485zM535 1123h-398v399h398v-399z" />
    <glyph glyph-name="j" unicode="j" horiz-adv-x="673" 
d="M188 142v881h397v-969q0 -200 -108 -310q-108 -109 -300 -109q-45 0 -76 4q-29 4 -58 11q-32 10 -53 18v352q10 -4 22 -6q10 -2 24 -3q18 -2 31 -2q121 0 121 133zM586 1123h-398v399h398v-399z" />
    <glyph glyph-name="k" unicode="k" horiz-adv-x="1148" 
d="M836 538l308 -529h-441l-220 419v-419h-397v1009h-88v381h485v-1v-761l198 386h430z" />
    <glyph glyph-name="l" unicode="l" horiz-adv-x="569" 
d="M-2 1399h485v-1390h-397v1009h-88v381z" />
    <glyph glyph-name="m" unicode="m" horiz-adv-x="1705" 
d="M1529 942q100 -105 100 -305v-628h-397v540q0 111 -88 111t-88 -111v-540h-397v540q0 111 -88 111t-88 -111v-540h-397v1014h173q53 0 98.5 -26.5t70.5 -72.5q25 31 66 59q36 26 82 43q52 19 116 19q72 0 127 -19q50 -18 85 -43q40 -28 63 -59q28 27 80 59q42 27 92 43
q59 19 126 19q165 0 264 -103z" />
    <glyph glyph-name="n" unicode="n" horiz-adv-x="1206" 
d="M1103 790q30 -81 30 -186v-595h-397v507q0 65 -35 105q-36 39 -86 39q-57 0 -95 -39q-37 -38 -37 -105v-507h-397v1014h173q53 0 98.5 -26.5t70.5 -72.5q30 28 79 59q42 27 92 43q59 19 126 19q90 0 165 -30t129 -87t84 -138z" />
    <glyph glyph-name="o" unicode="o" horiz-adv-x="1179" 
d="M1098 720q43 -95 43 -204t-43 -204q-44 -96 -117 -168q-76 -74 -175 -115q-102 -42 -216 -42q-116 0 -217 42q-99 41 -174 115q-73 72 -117 168q-43 95 -43 204t43 204q44 98 117 169q73 72 174 114q100 42 217 42q114 0 216 -42q101 -42 175 -114q73 -71 117 -169z
M700 396q44 46 44 120t-44 120t-110 46t-110 -46t-44 -120t44 -120q44 -45 110 -45t110 45z" />
    <glyph glyph-name="p" unicode="p" horiz-adv-x="1232" 
d="M1151 729q39 -98 39 -213q0 -116 -39 -213q-40 -100 -101 -167q-65 -71 -144 -109q-83 -40 -168 -40q-64 0 -114 14q-54 15 -80 30q-33 17 -59 45v-419h-397v1366h184q53 0 98.5 -26.5t70.5 -72.5q30 28 79 59q41 26 93 43q59 19 125 19q85 0 168 -40q79 -38 144 -109
q61 -67 101 -167zM749 396q44 46 44 120t-44 120t-110 46t-110 -46t-44 -120t44 -120q43 -45 110 -45t110 45z" />
    <glyph glyph-name="q" unicode="q" horiz-adv-x="1232" 
d="M961 1023h184v-1366h-397v419q-27 -27 -62 -45q-28 -16 -78 -30t-113 -14q-85 0 -168 40q-79 38 -144 109q-61 67 -101 167q-39 97 -39 213t39 213q40 100 101 167q65 71 144 109q83 40 168 40q66 0 125 -19q52 -17 93 -43q45 -28 79 -59q25 46 70.5 72.5t98.5 26.5z
M704 396q44 46 44 120t-44 120t-110 46t-110 -46t-44 -120t44 -120q44 -45 110 -45t110 45z" />
    <glyph glyph-name="r" unicode="r" horiz-adv-x="798" 
d="M738 1034q6 -2 16.5 -6t14.5 -5v-408q-4 1 -14.5 5t-16.5 6q-18 5 -35 8q-19 3 -44 3q-75 0 -126 -51q-50 -51 -50 -136v-441h-397v1014h173q53 0 98.5 -26.5t70.5 -72.5q28 34 61 59q35 27 73 43q44 19 97 19q25 0 44 -3q17 -3 35 -8z" />
    <glyph glyph-name="s" unicode="s" horiz-adv-x="1048" 
d="M962 474q38 -58 38 -145q0 -67 -31 -128t-90 -109q-57 -47 -144 -76t-198 -29q-113 0 -206 24q-88 23 -146 66q-60 44 -93 101q-36 58 -51 129l375 44q0 -24 22 -45t55 -21q77 0 77 55q0 17 -38 26t-93 21t-123 32q-63 19 -122 57q-57 37 -94 93t-37 146q0 61 30 121
q30 59 87 106q56 46 139 75q80 28 185 28q112 0 199 -23q85 -22 142 -66q59 -45 92 -101q34 -57 52 -129l-375 -44q0 23 -17 45q-17 21 -49 21q-24 0 -40 -14q-15 -14 -15 -30q0 -18 37 -27q28 -7 94 -21q51 -11 122 -32q66 -19 122 -56q56 -36 94 -94z" />
    <glyph glyph-name="t" unicode="t" horiz-adv-x="833" 
d="M761 671h-198v-177q0 -132 121 -132q22 0 31 1q13 1 24 3q9 1 22 7v-353q-4 -2 -53 -17q-29 -7 -58 -11q-38 -5 -76 -5q-192 0 -300 109q-108 110 -108 310v265h-135v352h135v242h397v-242h198v-352z" />
    <glyph glyph-name="u" unicode="u" horiz-adv-x="1208" 
d="M722 1023h396v-1014h-339l-2 100q-34 -34 -79 -62q-38 -24 -93 -42t-126 -18q-90 0 -165 30t-129 87q-53 56 -84 139q-29 78 -29 185v595h396v-507q0 -65 36 -104q34 -39 86 -39q56 0 94 39q38 40 38 104v507z" />
    <glyph glyph-name="v" unicode="v" horiz-adv-x="1173" 
d="M751 1023h419l-353 -1014h-462l-353 1014h419l165 -595z" />
    <glyph glyph-name="w" unicode="w" horiz-adv-x="1660" 
d="M1238 1023h419l-342 -1014h-341l-144 485l-143 -485h-341l-342 1014h419l121 -485l143 485h287l143 -485z" />
    <glyph glyph-name="x" unicode="x" horiz-adv-x="1155" 
d="M830 527l320 -518h-430l-143 254l-143 -254h-430l320 518l-298 496h419l132 -242l132 242h419z" />
    <glyph glyph-name="y" unicode="y" horiz-adv-x="1169" 
d="M749 1023h419l-397 -1014q-70 -181 -174 -278q-103 -96 -277 -96q-65 0 -111 11q-21 4 -44 11v352h88q32 0 56 8q19 6 37 19q18 11 29 29l-375 958h419l165 -529z" />
    <glyph glyph-name="y" unicode="&#xff;" horiz-adv-x="1169" 
d="M749 1023h419l-397 -1014q-70 -181 -174 -278q-103 -96 -277 -96q-65 0 -111 11q-21 4 -44 11v352h88q32 0 56 8q19 6 37 19q18 11 29 29l-375 958h419l165 -529z" />
    <glyph glyph-name="y" unicode="&#xfd;" horiz-adv-x="1169" 
d="M749 1023h419l-397 -1014q-70 -181 -174 -278q-103 -96 -277 -96q-65 0 -111 11q-21 4 -44 11v352h88q32 0 56 8q19 6 37 19q18 11 29 29l-375 958h419l165 -529z" />
    <glyph glyph-name="z" unicode="z" horiz-adv-x="1046" 
d="M598 373h386v-364h-914v320l363 331h-363v363h892v-319z" />
    <glyph glyph-name="braceleft" unicode="{" horiz-adv-x="882" 
d="M78 437v330q36 0 66 16q23 10 45 38q21 27 21 79v176q0 215 104 317t337 102h154v-397h-66q-51 0 -81 -30q-29 -29 -29 -80v-155q0 -71 -27 -114q-29 -47 -57 -71q-36 -30 -82 -46q46 -16 82 -46q28 -24 57 -71q27 -43 27 -114v-155q0 -51 29 -80q30 -30 81 -30h66v-396
h-154q-235 0 -337 101q-104 102 -104 317v177q0 51 -21 76q-19 24 -45 38q-28 13 -66 18z" />
    <glyph glyph-name="verticalbar" unicode="|" horiz-adv-x="616" 
d="M517 1495v-1741h-419v1741h419z" />
    <glyph glyph-name="braceright" unicode="}" horiz-adv-x="882" 
d="M803 767v-330q-37 -5 -66 -18q-26 -14 -45 -38q-21 -25 -21 -76v-177q0 -215 -104 -317q-102 -101 -337 -101h-154v396h66q50 0 80 30t30 80v155q0 71 25 114q26 45 57 71q37 31 83 46q-46 15 -83 46q-31 26 -57 71q-25 43 -25 114v155q0 50 -30 80t-80 30h-66v397h154
q234 0 337 -102q104 -102 104 -317v-176q0 -52 21 -79q22 -28 45 -38q30 -16 66 -16z" />
    <glyph glyph-name="asciitilde" unicode="~" horiz-adv-x="1142" 
d="M760 911l319 -22q0 -107 -23 -187q-22 -78 -64 -130q-39 -51 -95 -77q-53 -25 -115 -25q-58 0 -104 15q-49 16 -84 34q-14 7 -36.5 19t-30.5 16q-30 15 -54 15q-70 0 -88 -88l-319 22q0 106 23 186q22 75 64 130q40 51 94 77q55 26 116 26q54 0 104 -16q37 -12 83 -34
q11 -5 23 -11t25.5 -13t19.5 -10q32 -16 54 -16q70 0 88 89z" />
    <glyph glyph-name="nonbreakingspace" unicode="&#xa0;" horiz-adv-x="608" 
 />
    <glyph glyph-name="exclamdown" unicode="&#xa1;" horiz-adv-x="622" 
d="M499 733l44 -881h-463l44 881h375zM311 821q-92 0 -151 59q-58 58 -58 150q0 93 58 151q59 59 151 59t151 -59t59 -151q0 -91 -59 -150t-151 -59z" />
    <glyph glyph-name="cent" unicode="&#xa2;" horiz-adv-x="1226" 
d="M737 594q21 25 31 51l385 -44q-19 -89 -59 -161q-36 -62 -104 -130q-67 -67 -178 -101v-181h-397v198q-95 38 -172 106q-62 55 -116 149q-53 92 -53 230q0 135 53 229q53 95 116 150q78 68 172 106v176h397v-161q113 -36 178 -100q67 -66 104 -129q40 -72 59 -161
l-385 -44q-9 24 -31 49q-18 18 -44 34t-68 16q-67 0 -111 -45q-44 -46 -44 -120q0 -77 44 -121t111 -44q41 0 68 15q25 14 44 33z" />
    <glyph glyph-name="sterling" unicode="&#xa3;" horiz-adv-x="1277" 
d="M604 654q-14 -17 -33 -31h595v-419h-1080v419q50 0 80 30t30 80h-88v309h88v99q0 109 34 195q34 87 97 148t152 96q87 34 202 34q91 0 161 -18q66 -17 124 -49q55 -31 92 -69q33 -35 64 -79q58 -92 77 -214l-408 -44q0 52 -22 75q-23 24 -55 24t-55 -24q-22 -23 -22 -73
v-101h242v-309h-242q0 -24 -11 -44q-8 -15 -22 -35z" />
    <glyph glyph-name="currency" unicode="&#xa4;" horiz-adv-x="1386" 
d="M1200 655q-14 -60 -42 -123l152 -150l-227 -230l-151 154q-65 -28 -126 -43q-62 -15 -117 -15q-57 0 -115 15q-63 16 -121 43l-147 -154l-230 230l151 150q-28 54 -43 114q-15 58 -15 119t15 122q15 63 43 121l-151 154l222 225l155 -153q60 31 121 46q60 15 118 15
q59 0 119 -15q61 -15 121 -46l151 153l227 -225l-152 -154q28 -58 42 -117q14 -61 14 -118q0 -56 -14 -118zM839 625q60 60 60 145q0 86 -60 146q-61 61 -147 61q-84 0 -145 -61q-60 -60 -60 -146q0 -85 60 -145t145 -60q87 0 147 60z" />
    <glyph glyph-name="yen" unicode="&#xa5;" horiz-adv-x="1314" 
d="M1363 1592l-330 -595h88v-286h-243v-66h243v-287h-243v-154h-440v154h-254v287h254v66h-254v286h99l-330 595h485l220 -451l220 451h485z" />
    <glyph glyph-name="section" unicode="&#xa7;" horiz-adv-x="1110" 
d="M996 626q-29 -59 -57 -89q-37 -39 -82 -68q29 -25 55 -62q22 -36 38 -74q17 -41 17 -96q0 -65 -26 -118q-27 -56 -78 -98q-52 -42 -128 -67q-75 -25 -175 -25q-202 0 -315 91q-115 93 -148 250l353 44q0 -52 22 -75q23 -24 55 -24q23 0 45 17q21 16 21 49q0 31 -38 52
q-34 19 -93 43q-80 32 -123 51q-67 29 -122 75q-58 48 -94 115q-37 68 -37 171q0 76 25 129q24 52 57 89q42 44 83 69q-33 29 -55 61q-21 29 -38 73q-17 43 -17 97q0 62 27 118q28 58 78 98q52 42 128 67q75 25 175 25q202 0 315 -91q115 -93 148 -250l-353 -44q0 52 -22 75
q-23 24 -55 24q-23 0 -45 -17q-21 -17 -21 -49q0 -31 37 -52q32 -18 94 -43q64 -26 122 -51q69 -30 122 -74q57 -48 94 -116q38 -70 38 -171q0 -75 -27 -129zM634 709q3 11 3 24q0 44 -23 73t-50 44q-29 17 -70 26q-7 -10 -11 -20q-11 -24 -11 -46q0 -48 22 -74
q25 -30 48 -43q29 -17 73 -26q3 6 11 20q5 12 8 22z" />
    <glyph glyph-name="copyright" unicode="&#xa9;" horiz-adv-x="1632" 
d="M1498 995q56 -132 56 -279q0 -148 -56 -280q-54 -128 -155 -227q-98 -97 -235 -153q-136 -56 -292 -56t-292 56q-137 56 -235 153q-101 99 -155 227q-56 132 -56 280q0 147 56 279q55 130 155 228q98 97 235 153q136 56 292 56t292 -56q137 -56 235 -153
q100 -98 155 -228zM1284 522q39 90 39 194t-39 194q-40 93 -107 158q-68 66 -160 105q-93 39 -201 39q-107 0 -200 -39q-94 -39 -161 -105q-67 -65 -107 -158q-39 -90 -39 -194t39 -194q39 -91 107 -157q69 -67 161 -106q93 -39 200 -39q108 0 201 39q90 38 160 106
q68 66 107 157zM741 821q-35 -38 -35 -105q0 -66 35 -104q35 -39 86 -39q39 0 61 13q23 14 36 31q15 19 24 44l243 -22q-9 -49 -23 -80q-16 -36 -39 -74q-24 -39 -65 -74q-40 -35 -99 -57q-60 -23 -138 -23q-86 0 -154 29q-70 30 -121 81t-81 121t-30 154q0 81 30 153
t81 123q50 50 121 80q70 30 154 30q118 0 192 -49q73 -49 110 -105q44 -70 62 -155l-243 -22q-9 25 -24 44q-13 17 -36 31q-22 13 -61 13q-52 0 -86 -38z" />
    <glyph glyph-name="softhyphen" unicode="&#xad;" horiz-adv-x="0" 
 />
    <glyph glyph-name="registered" unicode="&#xae;" horiz-adv-x="1632" 
d="M1498 995q56 -132 56 -279q0 -148 -56 -280q-54 -128 -155 -227q-98 -97 -235 -153q-136 -56 -292 -56t-292 56q-137 56 -235 153q-101 99 -155 227q-56 132 -56 280q0 147 56 279q55 130 155 228q98 97 235 153q136 56 292 56t292 -56q137 -56 235 -153
q100 -98 155 -228zM1304 576q19 63 19 140q0 104 -39 194q-40 93 -107 158q-68 66 -160 105q-93 39 -201 39q-107 0 -200 -39q-94 -39 -161 -105q-67 -65 -107 -158q-39 -90 -39 -194t39 -194q39 -91 107 -157q69 -67 161 -106q93 -39 200 -39q84 0 148 21q62 20 110 45
q51 28 95 67h-221l-143 220h-22v-220h-242v727h308q131 0 209 -73t78 -181q0 -54 -19 -90q-16 -31 -43 -57q-29 -26 -60 -40l188 -253q30 32 59 86q26 47 43 104zM783 782h66q24 0 40 14q15 14 15 30q0 18 -15 31q-14 13 -40 13h-66v-88z" />
    <glyph glyph-name="mu" unicode="&#xb5;" horiz-adv-x="1234" 
d="M744 1218h397v-1014h-287l-55 99q-17 -32 -53 -61q-28 -24 -72 -42t-106 -18q-22 0 -31 1q-5 1 -13.5 2.5t-10.5 1.5q-12 2 -22 6v-341h-397v1366h397v-507q0 -65 35 -105q34 -38 86 -38q58 0 95 38t37 105v507z" />
    <glyph glyph-name="paragraph" unicode="&#xb6;" horiz-adv-x="1314" 
d="M467 1592h749v-1586h-319v1212h-110v-1212h-320v771q-87 0 -161 31q-76 32 -130 86t-86 130q-31 74 -31 161t31 161q32 76 86 130t130 86q71 30 161 30z" />
    <glyph glyph-name="questiondown" unicode="&#xbf;" horiz-adv-x="1116" 
d="M570 821q-92 0 -151 59q-58 58 -58 150q0 93 58 151q59 59 151 59t151 -59t59 -151q0 -91 -59 -150t-151 -59zM658 325l408 -44q-4 -95 -42 -177q-38 -84 -103 -143q-66 -60 -158 -96q-93 -35 -204 -35q-122 0 -211 30q-94 32 -156 85q-61 53 -95 126q-34 74 -34 155
q0 70 21 121q21 52 54 89q30 34 72 68q39 32 73 64q35 33 58 71q25 41 31 94h397q0 -108 -38 -181q-36 -70 -84 -123q-49 -54 -83 -85q-38 -35 -38 -63q0 -55 55 -55q24 0 51 24q26 23 26 75z" />
    <glyph glyph-name="Agrave" unicode="&#xc0;" horiz-adv-x="1439" 
d="M906 251h-374l-66 -243h-474l463 1389h528l463 -1389h-474zM752 1848l143 -308h-341l-221 308h419zM807 603l-88 331l-88 -331h176z" />
    <glyph glyph-name="Aacute" unicode="&#xc1;" horiz-adv-x="1439" 
d="M906 251h-374l-66 -243h-474l463 1389h528l463 -1389h-474zM543 1540l143 308h419l-221 -308h-341zM807 603l-88 331l-88 -331h176z" />
    <glyph glyph-name="Acircumflex" unicode="&#xc2;" horiz-adv-x="1439" 
d="M906 251h-374l-66 -243h-474l463 1389h528l463 -1389h-474zM807 1529l-88 121l-88 -121h-331l232 319h374l232 -319h-331zM807 603l-88 331l-88 -331h176z" />
    <glyph glyph-name="Atilde" unicode="&#xc3;" horiz-adv-x="1439" 
d="M906 251h-374l-66 -243h-474l463 1389h528l463 -1389h-474zM609 1507l-243 22q0 164 58 237q56 71 141 71q45 0 71 -9q30 -10 54 -24q9 -5 24 -13t20 -10q19 -10 40 -10q55 0 55 55l243 -22q0 -163 -58 -236q-57 -72 -141 -72q-42 0 -71 10q-35 12 -54 23q-9 5 -24 13
t-20 10q-19 10 -40 10q-55 0 -55 -55zM807 603l-88 331l-88 -331h176z" />
    <glyph glyph-name="Adieresis" unicode="&#xc4;" horiz-adv-x="1439" 
d="M906 251h-374l-66 -243h-474l463 1389h528l463 -1389h-474zM671 1766q15 -34 15 -72q0 -36 -15 -71q-15 -34 -41 -60t-60 -41t-71 -15t-72 15q-32 14 -59 41q-26 26 -41 60q-16 37 -16 71q0 35 16 72q14 32 41 59t59 41q37 16 72 16q34 0 71 -16q34 -15 60 -41
q27 -27 41 -59zM807 603l-88 331l-88 -331h176zM1111 1766q16 -37 16 -72q0 -34 -16 -71q-15 -34 -41 -60q-27 -27 -59 -41q-35 -15 -72 -15t-71 15t-60 41t-41 60q-15 35 -15 71q0 38 15 72q14 32 41 59q26 26 60 41q37 16 71 16q35 0 72 -16q32 -14 59 -41t41 -59z" />
    <glyph glyph-name="Aring" unicode="&#xc5;" horiz-adv-x="1439" 
d="M906 251h-374l-66 -243h-474l463 1389h528l463 -1389h-474zM904 1882q68 -65 68 -166q0 -100 -68 -165q-69 -66 -185 -66t-185 66q-68 65 -68 165q0 101 68 166q69 66 185 66t185 -66zM807 603l-88 331l-88 -331h176zM774 1661q22 22 22 55t-22 55t-55 22t-55 -22
t-22 -55t22 -55t55 -22t55 22z" />
    <glyph glyph-name="AE" unicode="&#xc6;" horiz-adv-x="2033" 
d="M929 8v243h-363l-111 -243h-473l661 1389h1300v-375h-573v-132h518v-353h-518v-154h595v-375h-1036zM929 625v397l-187 -397h187z" />
    <glyph glyph-name="Ccedilla" unicode="&#xc7;" horiz-adv-x="1480" 
d="M655 428q54 -23 109 -23q65 0 111 23q44 22 76 54q31 31 55 77l441 -44q-33 -139 -112 -251q-33 -48 -81 -96q-47 -47 -110 -86q-62 -39 -143 -64q-83 -26 -182 -32l-22 -66q64 -9 115 -33q47 -24 80 -60q37 -40 37 -105q0 -90 -77 -155t-232 -65q-73 0 -126 11
q-10 2 -27.5 7t-22.5 6v130q13 -6 26 -7q9 -1 28 -3q11 -1 34 -1q66 0 94 23q27 22 27 65q0 33 -27 55q-26 22 -94 22h-22l77 176q-135 15 -256 76q-116 59 -206 155q-84 90 -137 217q-51 123 -51 269t56 278q55 129 154 228t232 154q135 56 285 56q111 0 201 -23
q80 -20 156 -60q64 -34 119 -85q46 -43 88 -97q86 -118 119 -264l-441 -44q-22 41 -55 77q-34 30 -76 53q-45 24 -111 24q-57 0 -109 -23q-50 -21 -91 -64t-63 -95q-23 -55 -23 -115q0 -61 23 -116q22 -52 63 -95t91 -64z" />
    <glyph glyph-name="Egrave" unicode="&#xc8;" horiz-adv-x="1265" 
d="M96 8v1389h1080v-375h-639v-132h584v-353h-584v-154h661v-375h-1102zM680 1851l143 -309h-341l-220 309h418z" />
    <glyph glyph-name="Eacute" unicode="&#xc9;" horiz-adv-x="1265" 
d="M96 8v1389h1080v-375h-639v-132h584v-353h-584v-154h661v-375h-1102zM449 1540l143 308h419l-221 -308h-341z" />
    <glyph glyph-name="Ecircumflex" unicode="&#xca;" horiz-adv-x="1265" 
d="M96 8v1389h1080v-375h-639v-132h584v-353h-584v-154h661v-375h-1102zM735 1529l-88 121l-88 -121h-331l232 319h374l232 -319h-331z" />
    <glyph glyph-name="Edieresis" unicode="&#xcb;" horiz-adv-x="1265" 
d="M96 8v1389h1080v-375h-639v-132h584v-353h-584v-154h661v-375h-1102zM599 1766q15 -34 15 -72q0 -36 -15 -71q-15 -34 -41 -60t-60 -41q-35 -15 -71 -15q-37 0 -72 15q-32 14 -59 41q-26 26 -41 60q-16 37 -16 71q0 35 16 72q14 32 41 59t59 41q37 16 72 16q34 0 71 -16
q34 -15 60 -41q27 -27 41 -59zM1039 1766q16 -37 16 -72q0 -34 -16 -71q-15 -35 -40 -60q-26 -26 -60 -41t-71 -15q-38 0 -72 15t-60 41q-25 25 -40 60q-16 37 -16 71q0 35 16 72q15 34 40 59q26 26 60 41q37 16 72 16q34 0 71 -16q34 -15 60 -41q25 -25 40 -59z" />
    <glyph glyph-name="Igrave" unicode="&#xcc;" horiz-adv-x="634" 
d="M351 1848l143 -308h-341l-221 308h419zM538 1397v-1389h-440v1389h440z" />
    <glyph glyph-name="Iacute" unicode="&#xcd;" horiz-adv-x="634" 
d="M537 1397v-1389h-441v1389h441zM140 1540l144 308h418l-220 -308h-342z" />
    <glyph glyph-name="Icircumflex" unicode="&#xce;" horiz-adv-x="636" 
d="M406 1529l-88 121l-88 -121h-330l231 319h375l231 -319h-331zM539 1397v-1389h-441v1389h441z" />
    <glyph glyph-name="Idieresis" unicode="&#xcf;" horiz-adv-x="636" 
d="M269 1766q15 -34 15 -72q0 -36 -15 -71q-15 -34 -41 -60q-27 -27 -59 -41q-35 -15 -72 -15t-71 15t-60 41t-41 60q-15 35 -15 71q0 38 15 72q14 32 41 59q26 26 60 41q37 16 71 16q35 0 72 -16q32 -14 59 -41t41 -59zM538 1397v-1389h-441v1389h441zM710 1766
q15 -34 15 -72q0 -36 -15 -71q-15 -34 -41 -60q-27 -27 -59 -41q-34 -15 -72 -15t-72 15q-32 14 -59 41q-26 26 -41 60q-15 35 -15 71q0 38 15 72q14 32 41 59t59 41q37 16 72 16t72 -16q32 -14 59 -41t41 -59z" />
    <glyph glyph-name="Ntilde" unicode="&#xd1;" horiz-adv-x="1515" 
d="M978 1397h440v-1389h-418l-463 662v-662h-441v1389h419l463 -661v661zM647 1529l-242 22q0 165 57 237t141 72q43 0 72 -10q30 -10 54 -24q9 -5 24 -13t20 -10q19 -10 39 -10q56 0 56 55l242 -22q0 -164 -57 -236t-141 -72q-43 0 -72 10q-35 12 -54 23q-9 5 -24 13
t-20 10q-19 10 -40 10q-55 0 -55 -55z" />
    <glyph glyph-name="Ograve" unicode="&#xd2;" 
d="M1435 981q56 -132 56 -278q0 -148 -56 -280q-54 -127 -154 -227q-97 -97 -232 -153q-137 -57 -285 -57t-285 57q-135 56 -232 153q-100 100 -154 227q-56 132 -56 280q0 146 56 278q55 129 154 228t232 154q135 56 285 56t285 -56q133 -55 232 -154t154 -228zM808 1848
l143 -308h-341l-221 308h419zM1027 587q24 58 24 116q0 57 -24 115q-22 54 -62 95q-39 41 -92 64q-54 23 -109 23q-57 0 -109 -23q-50 -21 -91 -64t-63 -95q-23 -55 -23 -115q0 -61 23 -116q22 -52 63 -95t91 -64q52 -23 109 -23q55 0 109 23q53 23 92 64q40 41 62 95z" />
    <glyph glyph-name="Oacute" unicode="&#xd3;" 
d="M1435 981q56 -132 56 -278q0 -148 -56 -280q-54 -127 -154 -227q-97 -97 -232 -153q-137 -57 -285 -57t-285 57q-135 56 -232 153q-100 100 -154 227q-56 132 -56 280q0 146 56 278q55 129 154 228t232 154q135 56 285 56t285 -56q133 -55 232 -154t154 -228zM1027 587
q24 58 24 116q0 57 -24 115q-22 54 -62 95q-39 41 -92 64q-54 23 -109 23q-57 0 -109 -23q-50 -21 -91 -64t-63 -95q-23 -55 -23 -115q0 -61 23 -116q22 -52 63 -95t91 -64q52 -23 109 -23q55 0 109 23q53 23 92 64q40 41 62 95zM577 1540l143 308h419l-221 -308h-341z" />
    <glyph glyph-name="Ocircumflex" unicode="&#xd4;" 
d="M1435 981q56 -132 56 -278q0 -148 -56 -280q-54 -127 -154 -227q-97 -97 -232 -153q-137 -57 -285 -57t-285 57q-135 56 -232 153q-100 100 -154 227q-56 132 -56 280q0 146 56 278q55 129 154 228t232 154q135 56 285 56t285 -56q133 -55 232 -154t154 -228zM852 1529
l-88 121l-88 -121h-331l232 319h374l232 -319h-331zM1027 587q24 58 24 116q0 57 -24 115q-22 54 -62 95q-39 41 -92 64q-54 23 -109 23q-57 0 -109 -23q-50 -21 -91 -64t-63 -95q-23 -55 -23 -115q0 -61 23 -116q22 -52 63 -95t91 -64q52 -23 109 -23q55 0 109 23
q53 23 92 64q40 41 62 95z" />
    <glyph glyph-name="Otilde" unicode="&#xd5;" 
d="M1435 981q56 -132 56 -278q0 -148 -56 -280q-54 -127 -154 -227q-97 -97 -232 -153q-137 -57 -285 -57t-285 57q-135 56 -232 153q-100 100 -154 227q-56 132 -56 280q0 146 56 278q55 129 154 228t232 154q135 56 285 56t285 -56q133 -55 232 -154t154 -228zM654 1529
l-243 22q0 164 58 237q57 72 141 72q42 0 71 -10q30 -10 54 -24q9 -5 24 -13t20 -10q19 -10 40 -10q55 0 55 55l243 -22q0 -163 -58 -236q-57 -72 -141 -72q-42 0 -71 10q-35 12 -54 23q-9 5 -24 13t-20 10q-19 10 -40 10q-55 0 -55 -55zM1027 587q24 58 24 116
q0 57 -24 115q-22 54 -62 95q-39 41 -92 64q-54 23 -109 23q-57 0 -109 -23q-50 -21 -91 -64t-63 -95q-23 -55 -23 -115q0 -61 23 -116q22 -52 63 -95t91 -64q52 -23 109 -23q55 0 109 23q53 23 92 64q40 41 62 95z" />
    <glyph glyph-name="Odieresis" unicode="&#xd6;" 
d="M1435 981q56 -132 56 -278q0 -148 -56 -280q-54 -127 -154 -227q-97 -97 -232 -153q-137 -57 -285 -57t-285 57q-135 56 -232 153q-100 100 -154 227q-56 132 -56 280q0 146 56 278q55 129 154 228t232 154q135 56 285 56t285 -56q133 -55 232 -154t154 -228zM716 1766
q15 -34 15 -72q0 -36 -15 -71q-15 -34 -41 -60t-60 -41q-35 -15 -71 -15q-38 0 -72 15q-32 14 -59 41q-26 26 -41 60q-16 37 -16 71q0 35 16 72q14 32 41 59t59 41q37 16 72 16q34 0 71 -16q34 -15 60 -41q27 -27 41 -59zM1027 587q24 58 24 116q0 57 -24 115q-22 54 -62 95
q-39 41 -92 64q-54 23 -109 23q-57 0 -109 -23q-50 -21 -91 -64t-63 -95q-23 -55 -23 -115q0 -61 23 -116q22 -52 63 -95t91 -64q52 -23 109 -23q55 0 109 23q53 23 92 64q40 41 62 95zM1156 1766q16 -37 16 -72q0 -34 -16 -71q-15 -35 -40 -60q-26 -26 -60 -41t-72 -15
q-36 0 -71 15q-34 15 -60 41q-25 25 -40 60q-16 37 -16 71q0 35 16 72q15 34 40 59q26 26 60 41q37 16 71 16q35 0 72 -16q34 -15 60 -41q25 -25 40 -59z" />
    <glyph glyph-name="Oslash" unicode="&#xd8;" horiz-adv-x="1574" 
d="M39 295l99 88q-20 31 -40 82q-16 41 -26 99q-11 63 -11 139q0 146 56 278q55 129 154 228t232 154q135 56 285 56q86 0 148 -13q65 -14 110 -31q51 -19 95 -44l88 88l308 -309l-99 -88q23 -43 38 -81q14 -37 27 -101q12 -60 12 -137q0 -148 -56 -280q-54 -127 -154 -227
q-97 -98 -231 -153q-137 -57 -286 -57q-82 0 -150 14q-69 14 -110 31q-52 18 -92 44l-89 -89zM480 648l374 374q-183 0 -279 -96q-95 -95 -95 -278zM1097 758l-375 -375q183 0 279 96t96 279z" />
    <glyph glyph-name="Ugrave" unicode="&#xd9;" horiz-adv-x="1431" 
d="M76 1397h440v-794q0 -92 53 -145t146 -53q92 0 145 53t53 145v794h441v-794q0 -139 -44 -254q-42 -111 -127 -194q-81 -80 -202 -124q-123 -45 -266 -45q-145 0 -268 45q-118 43 -200 124q-85 83 -127 194q-44 115 -44 254v794zM748 1848l143 -308h-341l-221 308h419z
" />
    <glyph glyph-name="Uacute" unicode="&#xda;" horiz-adv-x="1431" 
d="M76 1397h440v-794q0 -92 53 -145t146 -53q92 0 145 53t53 145v794h441v-794q0 -139 -44 -254q-42 -111 -127 -194q-81 -80 -202 -124q-123 -45 -266 -45q-145 0 -268 45q-118 43 -200 124q-85 83 -127 194q-44 115 -44 254v794zM539 1540l143 308h418l-220 -308h-341z
" />
    <glyph glyph-name="Ucircumflex" unicode="&#xdb;" horiz-adv-x="1431" 
d="M76 1397h440v-794q0 -92 53 -145t146 -53q92 0 145 53t53 145v794h441v-794q0 -139 -44 -254q-42 -111 -127 -194q-81 -80 -202 -124q-123 -45 -266 -45q-145 0 -268 45q-118 43 -200 124q-85 83 -127 194q-44 115 -44 254v794zM803 1529l-88 121l-88 -121h-331l232 319
h374l232 -319h-331z" />
    <glyph glyph-name="Udieresis" unicode="&#xdc;" horiz-adv-x="1431" 
d="M76 1397h440v-794q0 -92 53 -145t146 -53q92 0 145 53t53 145v794h441v-794q0 -139 -44 -254q-42 -111 -127 -194q-81 -80 -202 -124q-123 -45 -266 -45q-145 0 -268 45q-118 43 -200 124q-85 83 -127 194q-44 115 -44 254v794zM666 1766q16 -37 16 -72q0 -34 -16 -71
q-15 -35 -40 -60q-26 -26 -60 -41t-72 -15q-36 0 -71 15q-34 15 -60 41q-25 25 -40 60q-16 37 -16 71q0 35 16 72q15 34 40 59q26 26 60 41q37 16 71 16q35 0 72 -16q34 -15 60 -41q25 -25 40 -59zM1107 1766q15 -34 15 -72q0 -36 -15 -71q-15 -34 -41 -60q-27 -27 -59 -41
q-35 -15 -72 -15t-71 15t-60 41t-41 60q-15 35 -15 71q0 38 15 72q14 32 41 59q26 26 60 41q37 16 71 16q35 0 72 -16q32 -14 59 -41t41 -59z" />
    <glyph glyph-name="germandbls" unicode="&#xdf;" horiz-adv-x="1193" 
d="M1122 767q36 -68 36 -166q0 -83 -32 -156q-31 -70 -90 -125q-58 -53 -142 -85q-83 -31 -187 -31h-155v353h111q50 0 74 27q25 28 25 61q0 32 -25 60t-74 28h-111v342q57 0 84 27t27 61q0 32 -25 60t-75 28q-51 0 -75 -29q-24 -28 -24 -70v-948h-396v948q0 98 36 184
q35 83 104 146q67 61 163 97q97 35 214 35q108 0 195 -33q89 -34 149 -88q62 -56 96 -130t34 -156q0 -63 -21 -111q-20 -47 -45 -79q-28 -36 -66 -64q63 -28 115 -77q45 -44 80 -109z" />
    <glyph glyph-name="agrave" unicode="&#xe0;" horiz-adv-x="1097" 
d="M420 1043q66 15 152 15q104 0 187 -31t142 -87t91 -133q32 -78 32 -168v-617h-173q-53 0 -98.5 26.5t-70.5 72.5q-34 -34 -79 -62q-34 -22 -93 -41q-56 -18 -125 -18q-167 0 -254 80q-88 81 -88 206q0 76 31 139q31 64 100 112q66 46 181 74t272 28q0 43 -22 65
q-23 23 -55 23q-22 0 -35 -9q-18 -12 -25 -19q-10 -10 -17 -27l-386 44q15 93 73 170q25 34 59 64q32 29 85 55q45 22 116 38zM605 1463l143 -308h-341l-221 308h419zM462 307q23 -21 55 -21q41 0 76 39q34 38 34 105v22q-108 0 -148 -29q-39 -29 -39 -70q0 -25 22 -46z" />
    <glyph glyph-name="aacute" unicode="&#xe1;" horiz-adv-x="1097" 
d="M420 1043q66 15 152 15q104 0 187 -31t142 -87t91 -133q32 -78 32 -168v-617h-173q-53 0 -98.5 26.5t-70.5 72.5q-34 -34 -79 -62q-34 -22 -93 -41q-56 -18 -125 -18q-167 0 -254 80q-88 81 -88 206q0 76 31 139q31 64 100 112q66 46 181 74t272 28q0 43 -22 65
q-23 23 -55 23q-22 0 -35 -9q-18 -12 -25 -19q-10 -10 -17 -27l-386 44q15 93 73 170q25 34 59 64q32 29 85 55q45 22 116 38zM374 1155l143 308h418l-220 -308h-341zM462 307q23 -21 55 -21q41 0 76 39q34 38 34 105v22q-108 0 -148 -29q-39 -29 -39 -70q0 -25 22 -46z" />
    <glyph glyph-name="acircumflex" unicode="&#xe2;" horiz-adv-x="1097" 
d="M420 1043q66 15 152 15q104 0 187 -31t142 -87t91 -133q32 -78 32 -168v-617h-173q-53 0 -98.5 26.5t-70.5 72.5q-34 -34 -79 -62q-34 -22 -93 -41q-56 -18 -125 -18q-167 0 -254 80q-88 81 -88 206q0 76 31 139q31 64 100 112q66 46 181 74t272 28q0 43 -22 65
q-23 23 -55 23q-22 0 -35 -9q-18 -12 -25 -19q-10 -10 -17 -27l-386 44q15 93 73 170q25 34 59 64q32 29 85 55q45 22 116 38zM660 1146l-88 121l-88 -121h-331l232 319h374l232 -319h-331zM462 307q23 -21 55 -21q41 0 76 39q34 38 34 105v22q-108 0 -148 -29
q-39 -29 -39 -70q0 -25 22 -46z" />
    <glyph glyph-name="atilde" unicode="&#xe3;" horiz-adv-x="1097" 
d="M420 1043q66 15 152 15q104 0 187 -31t142 -87t91 -133q32 -78 32 -168v-617h-173q-53 0 -98.5 26.5t-70.5 72.5q-34 -34 -79 -62q-34 -22 -93 -41q-56 -18 -125 -18q-167 0 -254 80q-88 81 -88 206q0 76 31 139q31 64 100 112q66 46 181 74t272 28q0 43 -22 65
q-23 23 -55 23q-22 0 -35 -9q-18 -12 -25 -19q-10 -10 -17 -27l-386 44q15 93 73 170q25 34 59 64q32 29 85 55q45 22 116 38zM466 1135l-242 22q0 165 57 237q56 71 141 71q43 0 72 -10q35 -12 54 -23q9 -5 24 -13t20 -10q19 -10 39 -10q55 0 55 55l243 -22
q0 -165 -57 -237q-56 -71 -141 -71q-43 0 -72 10q-35 12 -54 23q-9 5 -24 13t-20 10q-19 10 -40 10q-55 0 -55 -55zM462 307q23 -21 55 -21q41 0 76 39q34 38 34 105v22q-108 0 -148 -29q-39 -29 -39 -70q0 -25 22 -46z" />
    <glyph glyph-name="adieresis" unicode="&#xe4;" horiz-adv-x="1097" 
d="M420 1043q66 15 152 15q104 0 187 -31t142 -87t91 -133q32 -78 32 -168v-617h-173q-53 0 -98.5 26.5t-70.5 72.5q-34 -34 -79 -62q-34 -22 -93 -41q-56 -18 -125 -18q-167 0 -254 80q-88 81 -88 206q0 76 31 139q31 64 100 112q66 46 181 74t272 28q0 43 -22 65
q-23 23 -55 23q-22 0 -35 -9q-18 -12 -25 -19q-10 -10 -17 -27l-386 44q15 93 73 170q25 34 59 64q32 29 85 55q45 22 116 38zM534 1383q16 -37 16 -72q0 -34 -16 -71q-15 -35 -40 -60q-26 -26 -60 -41q-35 -15 -71 -15q-37 0 -72 15q-34 15 -60 41q-25 25 -40 60
q-16 37 -16 71q0 35 16 72q15 34 40 59q26 26 60 41q35 15 72 15t71 -15t60 -41q25 -25 40 -59zM462 307q23 -21 55 -21q41 0 76 39q34 38 34 105v22q-108 0 -148 -29q-39 -29 -39 -70q0 -25 22 -46zM975 1383q16 -37 16 -72q0 -34 -16 -71q-15 -34 -41 -60q-27 -27 -59 -41
q-35 -15 -72 -15t-71 15t-60 41t-41 60t-15 71t15 72q14 32 41 59q26 26 60 41q35 15 71 15q37 0 72 -15q32 -14 59 -41t41 -59z" />
    <glyph glyph-name="ae" unicode="&#xe6;" horiz-adv-x="1703" 
d="M406 1043q63 15 144 15q74 0 130 -18q55 -18 92 -37q43 -25 75 -55q31 30 77 55q33 17 91 37q53 18 119 18q111 0 208 -41q95 -40 168 -110q71 -68 112 -161t41 -195q0 -5 -3 -41q-1 -7 -2.5 -18.5t-1.5 -15.5q-1 -6 -2.5 -17.5t-1.5 -17.5h-661q9 -53 47 -86
q41 -36 96 -36q34 0 55 10t37 24q19 14 29 33l386 -44q-20 -62 -62 -124q-43 -63 -105 -110q-64 -49 -147 -78q-85 -30 -193 -30q-75 0 -132 21q-59 22 -97 45q-48 29 -80 66q-38 -36 -97 -66q-50 -25 -116 -45q-69 -21 -161 -21q-102 0 -180 23q-72 21 -127 63
q-51 39 -76 91q-25 50 -25 109q0 76 31 139q31 64 100 112q66 46 181 74t272 28q0 43 -22 65q-23 23 -55 23q-22 0 -35 -9q-15 -10 -25 -20q-11 -11 -17 -26l-386 44q15 94 71 170q23 34 56 64q35 32 81 55q44 22 111 38zM462 307q23 -21 55 -21q41 0 76 39q34 38 34 105v22
q-108 0 -148 -29q-39 -29 -39 -70q0 -25 22 -46zM1221 714q-37 35 -87 35t-87 -35q-36 -36 -45 -86h264q-9 50 -45 86z" />
    <glyph glyph-name="ccedilla" unicode="&#xe7;" horiz-adv-x="1157" 
d="M373 1016q100 42 217 42q86 0 155 -18q73 -19 122 -47q57 -33 93 -67q37 -36 68 -78q68 -95 91 -209l-386 -44q-9 22 -31 48q-21 21 -44 35q-26 16 -68 16q-66 0 -110 -45q-44 -46 -44 -120q0 -77 44 -121t110 -44q41 0 68 15q25 14 44 33q21 25 31 51l386 -44
q-24 -107 -84 -196q-25 -35 -62 -75q-39 -41 -82 -69q-44 -29 -109 -51t-137 -28l-22 -66q62 -9 114 -33q47 -24 81 -61q36 -39 36 -104q0 -92 -76 -156q-77 -65 -232 -65q-73 0 -126 11q-11 2 -29 7t-22 6v130q10 -4 27 -6q10 -1 27 -3q22 -2 35 -2q64 0 93 24q28 23 28 65
q0 32 -28 55q-26 22 -93 22h-22l77 187q-97 9 -181 52q-88 45 -151 112q-65 69 -104 160q-38 88 -38 194q0 109 43 204q44 96 117 168q75 74 174 115z" />
    <glyph glyph-name="egrave" unicode="&#xe8;" horiz-adv-x="1163" 
d="M711 386l386 -44q-20 -62 -62 -124q-43 -63 -105 -110q-64 -49 -147 -78q-86 -30 -193 -30q-116 0 -217 42t-174 114q-73 71 -117 169q-43 95 -43 204t43 204q44 96 117 168q75 74 174 115q100 42 217 42q111 0 208 -41q95 -40 168 -110q71 -68 112 -161t41 -195
q0 -1 -3 -46q-1 -8 -2.5 -21.5t-1.5 -18.5q-1 -7 -2.5 -19.5t-1.5 -15.5h-661q9 -42 47 -76q40 -35 96 -35q34 0 55 10q24 11 37 23q18 13 29 34zM623 1463l143 -308h-341l-221 308h419zM677 714q-37 35 -87 35t-87 -35q-36 -36 -45 -86h264q-9 50 -45 86z" />
    <glyph glyph-name="eacute" unicode="&#xe9;" horiz-adv-x="1163" 
d="M711 386l386 -44q-20 -62 -62 -124q-43 -63 -105 -110q-64 -49 -147 -78q-86 -30 -193 -30q-116 0 -217 42t-174 114q-73 71 -117 169q-43 95 -43 204t43 204q44 96 117 168q75 74 174 115q100 42 217 42q111 0 208 -41q95 -40 168 -110q71 -68 112 -161t41 -195
q0 -1 -3 -46q-1 -8 -2.5 -21.5t-1.5 -18.5q-1 -7 -2.5 -19.5t-1.5 -15.5h-661q9 -42 47 -76q40 -35 96 -35q34 0 55 10q24 11 37 23q18 13 29 34zM403 1155l143 308h418l-220 -308h-341zM677 714q-37 35 -87 35t-87 -35q-36 -36 -45 -86h264q-9 50 -45 86z" />
    <glyph glyph-name="ecircumflex" unicode="&#xea;" horiz-adv-x="1163" 
d="M711 386l386 -44q-20 -62 -62 -124q-43 -63 -105 -110q-64 -49 -147 -78q-86 -30 -193 -30q-116 0 -217 42t-174 114q-73 71 -117 169q-43 95 -43 204t43 204q44 96 117 168q75 74 174 115q100 42 217 42q111 0 208 -41q95 -40 168 -110q71 -68 112 -161t41 -195
q0 -1 -3 -46q-1 -8 -2.5 -21.5t-1.5 -18.5q-1 -7 -2.5 -19.5t-1.5 -15.5h-661q9 -42 47 -76q40 -35 96 -35q34 0 55 10q24 11 37 23q18 13 29 34zM667 1146l-88 121l-88 -121h-331l231 319h375l231 -319h-330zM677 714q-37 35 -87 35t-87 -35q-36 -36 -45 -86h264
q-9 50 -45 86z" />
    <glyph glyph-name="edieresis" unicode="&#xeb;" horiz-adv-x="1163" 
d="M711 386l386 -44q-20 -62 -62 -124q-43 -63 -105 -110q-64 -49 -147 -78q-86 -30 -193 -30q-116 0 -217 42t-174 114q-73 71 -117 169q-43 95 -43 204t43 204q44 96 117 168q75 74 174 115q100 42 217 42q111 0 208 -41q95 -40 168 -110q71 -68 112 -161t41 -195
q0 -1 -3 -46q-1 -8 -2.5 -21.5t-1.5 -18.5q-1 -7 -2.5 -19.5t-1.5 -15.5h-661q9 -42 47 -76q40 -35 96 -35q34 0 55 10q24 11 37 23q18 13 29 34zM530 1383q16 -37 16 -72q0 -34 -16 -71q-15 -35 -40 -60q-26 -26 -60 -41t-72 -15q-36 0 -71 15q-34 15 -60 41q-25 25 -40 60
q-16 37 -16 71q0 35 16 72q15 34 40 59q26 26 60 41q35 15 71 15q38 0 72 -15t60 -41q25 -25 40 -59zM677 714q-37 35 -87 35t-87 -35q-36 -36 -45 -86h264q-9 50 -45 86zM971 1383q15 -35 15 -72t-15 -71t-41 -60q-27 -27 -59 -41q-35 -15 -72 -15t-71 15t-60 41t-41 60
t-15 71t15 72q14 32 41 59q26 26 60 41t71 15t72 -15q32 -14 59 -41t41 -59z" />
    <glyph glyph-name="igrave" unicode="&#xec;" horiz-adv-x="569" 
d="M306 1454l143 -308h-341l-221 308h419zM482 1036v-1014h-396v1014h396z" />
    <glyph glyph-name="iacute" unicode="&#xed;" horiz-adv-x="569" 
d="M483 1036v-1014h-397v1014h397zM119 1146l143 308h419l-220 -308h-342z" />
    <glyph glyph-name="icircumflex" unicode="&#xee;" horiz-adv-x="567" 
d="M372 1146l-88 121l-89 -121h-330l231 319h375l231 -319h-330zM482 1036v-1014h-397v1014h397z" />
    <glyph glyph-name="idieresis" unicode="&#xef;" horiz-adv-x="571" 
d="M236 1383q16 -37 16 -72q0 -34 -16 -71q-15 -35 -40 -60q-26 -26 -60 -41t-72 -15q-36 0 -71 15q-34 15 -60 41q-25 25 -40 60q-16 37 -16 71q0 35 16 72q15 34 40 59q26 26 60 41q35 15 71 15q38 0 72 -15t60 -41q25 -25 40 -59zM483 1036v-1014h-397v1014h397z
M677 1383q15 -35 15 -72t-15 -71t-41 -60q-27 -27 -59 -41q-35 -15 -72 -15t-71 15t-60 41t-41 60t-15 71t15 72q14 32 41 59q26 26 60 41t71 15t72 -15q32 -14 59 -41t41 -59z" />
    <glyph glyph-name="ntilde" unicode="&#xf1;" horiz-adv-x="1206" 
d="M599 1039q59 19 126 19q90 0 165 -30t129 -87q53 -56 84 -139q30 -81 30 -185v-595h-397v507q0 65 -35 105q-35 38 -86 38q-58 0 -95 -38t-37 -105v-507h-397v1014h286l56 -99q30 28 79 59q42 27 92 43zM505 1157l-243 22q0 164 58 237q56 71 141 71q45 0 71 -9
q30 -10 54 -24q9 -5 24 -13t20 -10q19 -10 40 -10q55 0 55 55l242 -22q0 -165 -57 -237q-56 -71 -141 -71q-43 0 -72 10q-32 11 -53 23q-9 5 -24.5 12.5t-20.5 10.5q-19 10 -39 10q-55 0 -55 -55z" />
    <glyph glyph-name="ograve" unicode="&#xf2;" horiz-adv-x="1179" 
d="M82 325q-43 95 -43 204t43 204q44 96 117 168q75 74 174 115q100 42 217 42q114 0 216 -42q99 -41 175 -115q73 -72 117 -168q43 -95 43 -204t-43 -204q-44 -98 -117 -169q-74 -72 -175 -114q-102 -42 -216 -42q-116 0 -217 42t-174 114q-73 71 -117 169zM623 1454
l143 -308h-341l-221 308h419zM700 409q44 46 44 120t-44 120q-44 45 -110 45t-110 -45q-44 -46 -44 -120t44 -120q44 -45 110 -45t110 45z" />
    <glyph glyph-name="oacute" unicode="&#xf3;" horiz-adv-x="1179" 
d="M82 325q-43 95 -43 204t43 204q44 96 117 168q75 74 174 115q100 42 217 42q114 0 216 -42q99 -41 175 -115q73 -72 117 -168q43 -95 43 -204t-43 -204q-44 -98 -117 -169q-74 -72 -175 -114q-102 -42 -216 -42q-116 0 -217 42t-174 114q-73 71 -117 169zM414 1146
l143 308h418l-220 -308h-341zM700 409q44 46 44 120t-44 120q-44 45 -110 45t-110 -45q-44 -46 -44 -120t44 -120q44 -45 110 -45t110 45z" />
    <glyph glyph-name="ocircumflex" unicode="&#xf4;" horiz-adv-x="1179" 
d="M82 325q-43 95 -43 204t43 204q44 96 117 168q75 74 174 115q100 42 217 42q114 0 216 -42q99 -41 175 -115q73 -72 117 -168q43 -95 43 -204t-43 -204q-44 -98 -117 -169q-74 -72 -175 -114q-102 -42 -216 -42q-116 0 -217 42t-174 114q-73 71 -117 169zM678 1146
l-88 121l-88 -121h-331l232 319h374l231 -319h-330zM700 409q44 46 44 120t-44 120q-44 45 -110 45t-110 -45q-44 -46 -44 -120t44 -120q44 -45 110 -45t110 45z" />
    <glyph glyph-name="otilde" unicode="&#xf5;" horiz-adv-x="1179" 
d="M82 325q-43 95 -43 204t43 204q44 96 117 168q75 74 174 115q100 42 217 42q114 0 216 -42q99 -41 175 -115q73 -72 117 -168q43 -95 43 -204t-43 -204q-44 -98 -117 -169q-74 -72 -175 -114q-102 -42 -216 -42q-116 0 -217 42t-174 114q-73 71 -117 169zM480 1146
l-243 22q0 164 58 237q56 71 141 71q42 0 71 -10q35 -12 54 -23q9 -5 24 -13t20 -10q19 -10 40 -10q55 0 55 55l242 -22q0 -165 -57 -237q-56 -71 -141 -71q-43 0 -72 10q-35 12 -54 23q-9 5 -24 13t-20 10q-19 10 -39 10q-55 0 -55 -55zM700 409q44 46 44 120t-44 120
q-44 45 -110 45t-110 -45q-44 -46 -44 -120t44 -120q44 -45 110 -45t110 45z" />
    <glyph glyph-name="odieresis" unicode="&#xf6;" horiz-adv-x="1179" 
d="M82 325q-43 95 -43 204t43 204q44 96 117 168q75 74 174 115q100 42 217 42q114 0 216 -42q99 -41 175 -115q73 -72 117 -168q43 -95 43 -204t-43 -204q-44 -98 -117 -169q-74 -72 -175 -114q-102 -42 -216 -42q-116 0 -217 42t-174 114q-73 71 -117 169zM541 1383
q16 -37 16 -72q0 -34 -16 -71q-15 -35 -40 -60q-26 -26 -60 -41q-35 -15 -72 -15t-71 15t-60 41q-25 25 -40 60q-16 37 -16 71q0 35 16 72q15 34 40 59q26 26 60 41t71 15t72 -15q34 -15 60 -41q25 -25 40 -59zM700 409q44 46 44 120t-44 120q-44 45 -110 45t-110 -45
q-44 -46 -44 -120t44 -120q44 -45 110 -45t110 45zM982 1383q15 -35 15 -72t-15 -71t-41 -60q-27 -27 -59 -41q-34 -15 -72 -15q-36 0 -71 15q-34 15 -60 41t-41 60t-15 71t15 72q14 32 41 59q26 26 60 41q35 15 71 15q38 0 72 -15q32 -14 59 -41t41 -59z" />
    <glyph glyph-name="oslash" unicode="&#xf8;" horiz-adv-x="1208" 
d="M821 42q-102 -42 -216 -42q-62 0 -114 11q-47 10 -87 26q-44 19 -75 40l-88 -77l-198 209l77 77q-19 31 -33 71q-11 26 -23 77q-10 41 -10 95q0 109 43 204q43 96 117 168q75 74 174 115q100 42 217 42q61 0 112 -12q44 -10 88 -28q45 -19 75 -37l89 77l198 -210l-77 -77
q18 -33 33 -72q14 -44 22 -77q11 -46 11 -93q0 -109 -43 -204q-44 -98 -117 -169q-74 -72 -175 -114zM396 496l264 253q-264 0 -264 -253zM814 562l-264 -253q264 0 264 253z" />
    <glyph glyph-name="ugrave" unicode="&#xf9;" horiz-adv-x="1208" 
d="M605 18q-55 -18 -126 -18q-90 0 -165 30t-129 87q-53 56 -84 139q-29 78 -29 185v595h396v-507q0 -66 36 -105q34 -38 86 -38q57 0 94 38q38 40 38 105v507h396v-1014h-339l-2 99q-34 -34 -79 -62q-34 -22 -93 -41zM634 1463l143 -308h-342l-220 308h419z" />
    <glyph glyph-name="uacute" unicode="&#xfa;" horiz-adv-x="1208" 
d="M605 18q-55 -18 -126 -18q-90 0 -165 30t-129 87q-53 56 -84 139q-29 78 -29 185v595h396v-507q0 -66 36 -105q34 -38 86 -38q57 0 94 38q38 40 38 105v507h396v-1014h-341v99q-34 -34 -79 -62q-34 -22 -93 -41zM413 1157l143 308h419l-220 -308h-342z" />
    <glyph glyph-name="ucircumflex" unicode="&#xfb;" horiz-adv-x="1208" 
d="M605 18q-55 -18 -126 -18q-90 0 -165 30t-129 87q-53 56 -84 139q-29 78 -29 185v595h396v-507q0 -66 36 -105q34 -38 86 -38q57 0 94 38q38 40 38 105v507h396v-1014h-337l-4 99q-34 -34 -79 -62q-34 -22 -93 -41zM689 1146l-88 121l-89 -121h-330l231 319h375l231 -319
h-330z" />
    <glyph glyph-name="udieresis" unicode="&#xfc;" horiz-adv-x="1208" 
d="M605 18q-55 -18 -126 -18q-90 0 -165 30t-129 87q-53 56 -84 139q-29 78 -29 185v595h396v-507q0 -66 36 -105q34 -38 86 -38q57 0 94 38q38 40 38 105v507h396v-1014h-341v99q-34 -34 -79 -62q-34 -22 -93 -41zM552 1383q16 -37 16 -72q0 -34 -16 -71q-15 -34 -41 -60
q-27 -27 -59 -41q-34 -15 -72 -15q-36 0 -71 15q-34 15 -60 41t-41 60t-15 71t15 72q14 32 41 59q26 26 60 41t71 15q38 0 72 -15q32 -14 59 -41t41 -59zM993 1383q15 -35 15 -72t-15 -71t-41 -60q-27 -27 -59 -41q-35 -15 -72 -15t-72 15q-32 14 -59 41q-26 26 -41 60
t-15 71t15 72q14 32 41 59t59 41q35 15 72 15t72 -15q32 -14 59 -41t41 -59z" />
    <glyph glyph-name="florin" unicode="&#x192;" horiz-adv-x="989" 
d="M925 1240q-56 0 -91 -35q-34 -36 -52 -119h209l-66 -375h-209l-99 -529q-32 -166 -134 -259t-285 -93q-52 0 -92 6q-35 5 -69 16q-39 10 -60 22l78 341q9 -5 19 -6q3 -1 10.5 -2t11.5 -2q7 -1 25 -1q55 0 92 35q36 36 51 119l66 353h-154l66 375h154l33 176
q32 166 134 259t285 93q50 0 89 -6q30 -5 70 -16q34 -9 61 -22l-77 -341q-3 0 -9.5 1.5t-10.5 2.5q-3 0 -11 2l-12 3q-16 2 -23 2z" />
    <glyph glyph-name="perthousand" unicode="&#x2030;" horiz-adv-x="2238" 
d="M388 975q-70 0 -131 26q-64 27 -105 68q-44 44 -69 101q-26 60 -26 125q0 64 26 124q25 59 69 102q41 41 105 68q59 25 131 25t131 -25q64 -27 105 -68q44 -43 69 -102q25 -57 25 -124q0 -68 -25 -125t-69 -101q-41 -41 -105 -68q-61 -26 -131 -26zM333 1350
q-22 -22 -22 -55t22 -55t55 -22t55 22t22 55t-22 55t-55 22t-55 -22zM2147 626q26 -60 26 -124q0 -65 -26 -125q-25 -57 -69 -101q-42 -42 -105 -69q-59 -25 -131 -25t-131 25q-63 27 -105 69q-44 44 -69 101t-25 125q0 67 25 124q25 58 69 102q41 41 105 68q59 25 131 25
t131 -25q64 -27 105 -68q44 -44 69 -102zM1897 447q22 22 22 55t-22 55t-55 22t-55 -22t-22 -55t22 -55t55 -22t55 22zM1384 728q44 -44 69 -102q26 -60 26 -124q0 -65 -26 -125q-25 -57 -69 -101q-42 -42 -105 -69q-59 -25 -131 -25t-131 25q-63 27 -105 69q-44 44 -69 101
t-25 125q0 67 25 124q25 58 69 102q41 41 105 68q59 25 131 25t131 -25q64 -27 105 -68zM1203 447q22 22 22 55t-22 55t-55 22t-55 -22t-22 -55t22 -55t55 -22t55 22zM1038 1592h330l-848 -1388h-330z" />
    <glyph glyph-name="Euro" unicode="&#x20ac;" horiz-adv-x="1658" 
d="M1083 649q36 33 59 73l441 -44q-39 -140 -128 -249q-39 -48 -88 -90q-58 -50 -119 -80q-66 -34 -154 -56q-86 -21 -194 -21q-100 0 -182 21q-85 22 -148 56q-58 30 -118 80q-54 45 -92 90q-91 106 -143 249h-143v187h110v66h-110v188h143q51 139 143 246q39 47 92 92
q52 44 118 79q63 33 148 56q81 22 182 22q110 0 194 -22q89 -23 154 -56q68 -34 119 -79q48 -42 88 -92q90 -110 128 -246l-441 -44q-23 37 -59 70q-34 29 -76 50q-46 23 -107 23q-55 0 -95 -17q-43 -18 -68 -34q-36 -25 -57 -48h275v-188h-341v-66h341v-187h-275
q24 -28 57 -51q28 -18 68 -33q39 -15 95 -15q63 0 107 22q48 24 76 48z" />
    <glyph glyph-name="trademark" unicode="&#x2122;" horiz-adv-x="1484" 
d="M460 826h-242v353h-155v231h551v-231h-154v-353zM1011 948l-88 132v-254h-242v584h220l143 -209l143 209h221v-584h-243v254l-88 -132h-66z" />
    </font>
</defs>
</svg>
