<?xml version="1.0" standalone="no"?>
<!DOCTYPE svg PUBLIC "-//W3C//DTD SVG 1.1//EN" "http://www.w3.org/Graphics/SVG/1.1/DTD/svg11.dtd" >
<svg xmlns="http://www.w3.org/2000/svg" xmlns:xlink="http://www.w3.org/1999/xlink" version="1.1">
<metadata>
Created by FontForge 20170731 at Mon Jan 31 23:10:13 2022
 By Aleksey,,,
ryanrivaldovierra
</metadata>
<defs>
<font id="KineticRegular" horiz-adv-x="1234" >
  <font-face 
    font-family="Kinetic"
    font-weight="400"
    font-stretch="normal"
    units-per-em="2048"
    panose-1="0 0 0 0 0 0 0 0 0 0"
    ascent="1638"
    descent="-410"
    x-height="998"
    cap-height="1388"
    bbox="-115 -385 1968 1873"
    underline-thickness="102"
    underline-position="-307"
    unicode-range="U+000A-2122"
  />
<missing-glyph horiz-adv-x="1079" 
d="M102 1434h875v-1434h-875v1434zM160 1393l379 -633l381 633h-760zM514 717l-369 614v-1231zM541 674l-379 -631h758zM565 717l371 -621v1239z" />
    <glyph glyph-name=".notdef" horiz-adv-x="1079" 
d="M102 1434h875v-1434h-875v1434zM160 1393l379 -633l381 633h-760zM514 717l-369 614v-1231zM541 674l-379 -631h758zM565 717l371 -621v1239z" />
    <glyph glyph-name=".null" horiz-adv-x="0" 
 />
    <glyph glyph-name=".null" horiz-adv-x="0" 
 />
    <glyph glyph-name="nonmarkingreturn" horiz-adv-x="682" 
 />
    <glyph glyph-name="controlLF" unicode="&#xa;" horiz-adv-x="0" 
 />
    <glyph glyph-name="controlCR" unicode="&#xd;" horiz-adv-x="0" 
 />
    <glyph glyph-name="space" unicode=" " horiz-adv-x="530" 
 />
    <glyph glyph-name="exclam" unicode="!" horiz-adv-x="468" 
d="M356 1475l-34 -1035h-176l-33 1035h243zM320 283q36 -36 36 -86q0 -51 -36 -86q-37 -35 -86 -35t-86 35q-35 34 -35 86q0 51 35 86t86 35t86 -35z" />
    <glyph glyph-name="quotedbl" unicode="&#x22;" horiz-adv-x="641" 
d="M72 1067v408h176v-408h-176zM391 1067v408h177v-408h-177z" />
    <glyph glyph-name="quotedbl" unicode="&#x201d;" horiz-adv-x="641" 
d="M72 1067v408h176v-408h-176zM391 1067v408h177v-408h-177z" />
    <glyph glyph-name="quotedbl" unicode="&#x201c;" horiz-adv-x="641" 
d="M72 1067v408h176v-408h-176zM391 1067v408h177v-408h-177z" />
    <glyph glyph-name="numbersign" unicode="#" horiz-adv-x="1468" 
d="M1347 924h-265l-55 -286h265l-33 -154h-265l-78 -397h-153l77 397h-320l-77 -397h-154l77 397h-276l33 154h265l55 286h-265l34 155h264l78 396h154l-78 -396h320l77 396h154l-76 -396h275zM873 638l55 286h-330l-56 -286h331z" />
    <glyph glyph-name="dollar" unicode="$" horiz-adv-x="1173" 
d="M172 907q-55 71 -55 194q0 70 29 134q30 66 79 115q52 52 119 84q66 32 148 41v199h187v-210q77 -14 139 -47q64 -34 112 -87q46 -50 74 -122t28 -151h-210q0 107 -67 174q-68 68 -175 68q-57 0 -104 -16q-46 -16 -81 -46q-32 -28 -51 -64q-18 -35 -18 -72q0 -72 55 -112
q52 -38 137 -68q76 -27 178 -57q100 -30 177 -74q82 -47 137 -123t55 -203q0 -72 -30 -136t-81 -115q-52 -52 -122 -84q-72 -33 -153 -42v-198h-187v198q-85 5 -155 36q-69 31 -121 86q-49 52 -80 131q-30 77 -30 166h209q0 -117 65 -180q63 -62 200 -62q141 0 208 58
t67 142q0 78 -54 120q-56 44 -137 74q-96 35 -178 58q-89 25 -177 73q-79 43 -137 118z" />
    <glyph glyph-name="percent" unicode="%" horiz-adv-x="1400" 
d="M638 1298q24 -56 24 -109t-24 -109q-23 -53 -63 -92q-42 -40 -91 -62q-52 -23 -109 -23q-55 0 -109 23q-50 21 -92 62q-40 39 -63 92q-23 54 -23 109t23 109q23 53 63 92q41 40 92 62q52 23 109 23t109 -23q49 -22 91 -62q40 -39 63 -92zM353 87h-154l848 1388h155z
M234 1252q-14 -31 -14 -63t14 -63q15 -33 35 -53q22 -22 50 -36t56 -14q29 0 57 14q29 14 49 36q22 23 35 53q13 29 13 63t-13 63q-13 30 -35 53q-21 22 -50 36q-30 14 -56 14q-28 0 -56 -14t-50 -36q-20 -20 -35 -53zM762 265q-23 52 -23 108t23 110q21 49 63 91
q40 40 91 62q56 24 109 24q55 0 109 -24q49 -22 91 -62q41 -39 63 -91q23 -54 23 -110t-23 -108t-63 -92q-41 -41 -91 -63q-52 -23 -109 -23q-55 0 -109 23q-52 22 -91 63q-41 43 -63 92zM1166 310q13 29 13 63t-13 63q-15 33 -35 53q-25 25 -50 37q-27 13 -56 13
q-30 0 -56 -13t-50 -37q-20 -20 -35 -53q-14 -31 -14 -63t14 -63t35 -52q22 -22 50 -36q26 -13 56 -13q31 0 57 13t49 36q21 21 35 52z" />
    <glyph glyph-name="ampersand" unicode="&#x26;" horiz-adv-x="1372" 
d="M1297 87h-254l-177 177q-36 -53 -95 -95q-47 -35 -120 -64t-170 -29q-80 0 -152 28q-67 26 -118 74q-50 47 -77 108q-28 64 -28 131q0 86 35 156q33 66 80 118q52 58 117 101l-55 67q-14 16 -50 58q-25 29 -46 64t-34 73q-13 39 -13 91q0 65 27 125q26 58 74 106
q46 46 108 73q59 26 132 26t132 -26q62 -27 108 -73q45 -45 74 -106q28 -59 28 -125q0 -54 -13 -96t-36 -77q-22 -33 -49 -62q-14 -15 -57 -51l-77 -67l254 -253l132 209h221l-221 -341zM356 302q50 -49 136 -49q57 0 105 21q49 21 80 44q38 27 69 66l-276 276
q-45 -30 -84 -68q-29 -29 -56 -77q-26 -46 -26 -98q0 -65 52 -115zM403 979l67 -65l78 65q7 5 22 23q16 20 29 39q15 23 25 48q11 28 11 56q0 56 -44 100q-43 43 -110 43t-110 -43q-44 -44 -44 -100q0 -32 11 -62q10 -27 24 -49q16 -25 25 -35q6 -7 16 -20z" />
    <glyph glyph-name="quotesingle" unicode="'" horiz-adv-x="321" 
d="M72 1067v408h176v-408h-176z" />
    <glyph glyph-name="quotesingle" unicode="&#x2019;" horiz-adv-x="321" 
d="M72 1067v408h176v-408h-176z" />
    <glyph glyph-name="quotesingle" unicode="&#x2018;" horiz-adv-x="321" 
d="M72 1067v408h176v-408h-176z" />
    <glyph glyph-name="parenleft" unicode="(" horiz-adv-x="626" 
d="M339 912q-41 -152 -41 -329t41 -329q41 -151 91 -262q55 -126 133 -235l-144 -99q-85 112 -153 255q-56 123 -106 293q-49 168 -49 377t49 377q50 171 106 292q70 148 153 257l144 -99q-77 -108 -133 -236q-50 -111 -91 -262z" />
    <glyph glyph-name="parenright" unicode=")" horiz-adv-x="626" 
d="M287 254q41 152 41 329q0 176 -41 328q-42 154 -91 263q-56 128 -133 236l144 99q85 -112 153 -257q56 -123 106 -293q49 -168 49 -376q0 -207 -48 -377q-47 -164 -107 -293q-68 -143 -153 -255l-143 99q76 106 132 235q50 111 91 262z" />
    <glyph glyph-name="asterisk" unicode="*" horiz-adv-x="792" 
d="M153 947l143 176l-220 55l44 143l209 -77l-11 231h155l-12 -231l210 77l44 -143l-221 -55l143 -176l-132 -88l-110 187l-109 -187z" />
    <glyph glyph-name="plus" unicode="+" horiz-adv-x="1032" 
d="M422 1090h187v-353h341v-176h-341v-352h-187v352h-342v176h342v353z" />
    <glyph glyph-name="hyphen" unicode="-" horiz-adv-x="751" 
d="M694 737v-176h-639v176h639z" />
    <glyph glyph-name="slash" unicode="/" horiz-adv-x="790" 
d="M740 1475l-573 -1785h-187l572 1785h188z" />
    <glyph glyph-name="zero" unicode="0" horiz-adv-x="1282" 
d="M1148 1002q44 -134 44 -302t-44 -300q-43 -129 -121 -221q-78 -91 -175 -137q-98 -46 -211 -46t-211 46q-99 47 -176 137q-76 90 -120 221q-44 132 -44 300t44 302q43 130 120 221q76 90 175 136q98 46 212 46q113 0 211 -46q99 -46 175 -136q79 -93 121 -221zM952 476
q30 97 30 224q0 131 -29 225q-30 97 -78 162q-48 64 -111 98q-62 33 -123 33t-123 -33t-110 -98q-50 -67 -79 -162q-30 -97 -30 -225q0 -126 30 -224q29 -95 79 -162q49 -66 109 -98q61 -33 124 -33q61 0 123 33t110 98q48 64 78 162z" />
    <glyph glyph-name="one" unicode="1" horiz-adv-x="675" 
d="M443 1394h143v-1388h-210v1102l-187 -121l-99 165z" />
    <glyph glyph-name="two" unicode="2" horiz-adv-x="1083" 
d="M993 204v-198h-892v154l551 595q35 38 65 82q22 33 46 82q21 43 21 90q0 93 -63 151q-62 58 -179 58q-108 0 -175 -67q-68 -68 -68 -175h-209q0 93 32 174t90 136q59 56 142 87q85 32 188 32t187 -30q82 -29 142 -86q59 -56 90 -130q32 -76 32 -161q0 -64 -31 -132
q-29 -64 -68 -117q-44 -59 -99 -114l-395 -431h593z" />
    <glyph glyph-name="three" unicode="3" horiz-adv-x="1128" 
d="M102 1020q5 82 38 149q35 70 93 122q61 55 140 84q81 30 181 30q97 0 175 -31q79 -31 140 -86q58 -52 92 -123q33 -69 33 -145q0 -75 -27 -129q-25 -49 -61 -89q-39 -39 -88 -68q60 -28 110 -75q42 -40 76 -106q34 -65 34 -161q0 -82 -34 -151q-35 -71 -96 -125t-149 -87
q-87 -33 -194 -33q-108 0 -194 30q-83 29 -147 84q-59 51 -95 122q-33 65 -39 149h210q5 -39 24 -73q20 -34 54 -63q35 -29 82 -45q49 -17 105 -17q127 0 195 64q69 65 69 156q0 94 -70 157q-71 63 -194 63h-99v188h88q108 0 169 57q62 57 62 141q0 92 -62 151
q-61 58 -169 58t-171 -57t-72 -141h-209z" />
    <glyph glyph-name="four" unicode="4" horiz-adv-x="1161" 
d="M1070 282h-154v-276h-209v276h-617v176l584 936h242v-914h154v-198zM332 480h375v607z" />
    <glyph glyph-name="five" unicode="5" horiz-adv-x="1128" 
d="M483 931q41 12 91 12q94 0 180 -36q82 -35 148 -102q62 -64 99 -151q37 -88 37 -185q0 -98 -38 -185t-102 -151q-65 -65 -154 -101q-88 -36 -191 -36t-187 30t-144 84q-58 52 -93 122q-34 69 -39 149h209q5 -39 24 -73t53 -63q32 -28 79 -45q46 -17 98 -17q57 0 107 22
q54 24 89 59q37 37 58 91t21 114q0 61 -21 115q-20 52 -58 90q-35 35 -89 59q-50 22 -107 22q-67 0 -115 -26q-49 -27 -79 -58q-39 -39 -60 -80h-176l89 804h738v-198h-561l-34 -331q30 23 59 38q28 15 69 27z" />
    <glyph glyph-name="six" unicode="6" horiz-adv-x="1150" 
d="M767 32q-89 -36 -192 -36t-191 36t-153 101q-65 66 -103 151q-38 87 -38 185q0 61 21 123q23 68 46 111q27 55 65 108l387 583h231l-309 -462q2 0 7 1l10 2t10 1q2 0 7.5 1t10.5 2t10 1l33 3q87 0 167 -36q77 -35 141 -102q60 -63 97 -151t37 -185q0 -98 -38 -185
q-38 -86 -103 -151t-153 -101zM321 584q-21 -54 -21 -115q0 -60 21 -114q20 -52 59 -91q36 -36 88 -59q50 -22 107 -22q58 0 108 22q52 23 88 59q39 39 59 91q21 54 21 114q0 61 -21 115q-20 51 -59 90q-36 36 -88 59q-50 22 -108 22q-57 0 -107 -22q-52 -23 -88 -59
q-39 -39 -59 -90z" />
    <glyph glyph-name="seven" unicode="7" horiz-adv-x="1050" 
d="M90 1394h871v-143l-574 -1245h-220l550 1190h-627v198z" />
    <glyph glyph-name="eight" unicode="8" horiz-adv-x="1128" 
d="M759 28q-84 -32 -194 -32q-111 0 -195 32q-87 33 -149 89q-61 55 -96 129q-35 75 -35 157q0 99 35 167t76 109q47 47 110 76q-47 29 -84 69q-34 38 -56 86q-25 50 -25 121q0 72 31 142q30 68 86 119q59 54 134 83q78 30 168 30q91 0 167 -30q72 -28 133 -83
q58 -52 88 -119t30 -142q0 -73 -26 -121q-29 -52 -58 -86q-37 -40 -81 -69q61 -28 110 -76q42 -41 76 -109q34 -67 34 -167q0 -85 -34 -157q-34 -74 -96 -129q-62 -56 -149 -89zM760 579q-70 67 -195 67q-126 0 -196 -67q-69 -66 -69 -165t69 -165t196 -66q126 0 195 66
t69 165t-69 165zM413 889q59 -56 152 -56q91 0 150 56q58 55 58 131q0 84 -58 141q-59 57 -150 57q-93 0 -152 -57q-58 -57 -58 -141q0 -76 58 -131z" />
    <glyph glyph-name="nine" unicode="9" horiz-adv-x="1150" 
d="M384 1369q89 36 191 36q103 0 192 -36q88 -36 153 -101t103 -151q38 -87 38 -185q0 -62 -21 -124q-19 -57 -46 -110q-23 -46 -66 -107l-386 -585h-231l308 463q-11 -5 -24 -6q-2 0 -7.5 -1t-10.5 -2t-10 -1q-11 -1 -36 -1q-87 0 -166 36q-77 35 -141 102q-60 63 -97 151
t-37 185q0 98 38 185q37 86 103 151q65 65 153 101zM830 818q21 52 21 114q0 60 -21 114q-20 52 -59 91q-36 36 -88 59q-50 22 -108 22q-57 0 -107 -22q-52 -23 -88 -59q-38 -38 -59 -90q-21 -53 -21 -115t21 -114q21 -53 59 -91q36 -36 88 -59q50 -22 107 -22q58 0 108 22
q52 23 88 59q38 38 59 91z" />
    <glyph glyph-name="colon" unicode=":" horiz-adv-x="407" 
d="M290 1044q35 -35 35 -86t-35 -86q-36 -36 -87 -36q-50 0 -86 36q-35 35 -35 86t35 86t86 35q52 0 87 -35zM290 283q35 -35 35 -86q0 -52 -35 -86q-37 -35 -87 -35q-49 0 -86 35q-35 34 -35 86q0 51 35 86t86 35q52 0 87 -35z" />
    <glyph glyph-name="semicolon" unicode=";" horiz-adv-x="413" 
d="M292 1044q35 -35 35 -86t-35 -86q-36 -36 -86 -36t-86 36t-36 86t36 86q35 35 86 35t86 -35zM119 283q35 35 87 35q50 0 86 -37q35 -36 35 -95q0 -84 -27 -142q-26 -56 -61 -96q-42 -45 -88 -71l-34 44q22 16 42 40q19 23 33 49q15 28 24 66q-56 0 -94 35t-38 86t35 86z
" />
    <glyph glyph-name="less" unicode="&#x3c;" horiz-adv-x="978" 
d="M322 572l562 -287v-198l-804 419v132l804 419v-198z" />
    <glyph glyph-name="equal" unicode="=" horiz-adv-x="1015" 
d="M78 947h860v-187h-860v187zM78 352v187h860v-187h-860z" />
    <glyph glyph-name="greater" unicode="&#x3e;" horiz-adv-x="978" 
d="M94 285l562 287l-562 287v198l804 -419v-132l-804 -419v198z" />
    <glyph glyph-name="question" unicode="?" horiz-adv-x="987" 
d="M867 1244q31 -74 31 -154q0 -76 -24 -135q-21 -52 -59 -96t-77 -79q-41 -36 -77 -80q-39 -47 -60 -100q-23 -58 -23 -138v-22h-198v22q0 101 23 175q21 68 60 123q33 47 77 86q45 40 77 72q39 39 59 75q24 43 24 97q0 84 -59 141t-151 57q-93 0 -151 -64t-58 -189v-23
h-199v23q0 104 31 187q32 85 86 142q56 59 130 90q76 32 161 32q84 0 161 -31q74 -30 130 -84t86 -127zM565 283q36 -36 36 -86q0 -51 -36 -86q-37 -35 -86 -35t-86 35q-36 35 -36 86q0 50 36 86q35 35 86 35t86 -35z" />
    <glyph glyph-name="at" unicode="@" horiz-adv-x="1699" 
d="M559 1263q135 58 292 58t294 -57q136 -57 238 -156t160 -228t58 -275q0 -94 -26 -169q-26 -74 -67 -124t-98 -77q-55 -26 -118 -26q-64 0 -112 17q-46 16 -75 42q-36 27 -55 61q-26 -37 -60 -61q-32 -26 -76 -42q-46 -17 -107 -17q-71 0 -132 27t-108 77q-46 49 -73 118
q-28 72 -28 152q0 79 28 151q28 71 73 119q47 50 108 77q64 28 132 28q52 0 94 -17q38 -15 70 -34q33 -21 57 -48l33 88h121v-431q0 -92 30 -128t80 -36q56 0 100 56t44 197q0 113 -47 219q-47 105 -126 183q-80 79 -186 125q-105 46 -226 46t-226 -46q-106 -46 -185 -127
q-80 -81 -126 -190q-46 -108 -46 -232q0 -125 46 -233q46 -110 126 -189q81 -81 186 -127t225 -46q67 0 128 16q45 12 99 33q47 21 89 50l83 -126q-50 -34 -115 -59q-52 -21 -125 -39q-72 -18 -159 -18q-157 0 -292 58q-137 59 -239 159q-99 98 -159 234q-59 135 -59 287
q0 150 59 286q59 137 159 235q102 100 239 159zM750 370q38 -18 80 -18q92 0 150 61q59 62 59 170t-59 170t-150 62q-42 0 -80 -18q-36 -17 -66 -49q-28 -29 -46 -73q-18 -43 -18 -92q0 -50 18 -92q19 -45 46 -73q28 -30 66 -48z" />
    <glyph glyph-name="A" unicode="A" 
d="M529 1388h176l529 -1388h-220l-122 320h-551l-120 -320h-221zM419 518h397l-199 550z" />
    <glyph glyph-name="B" unicode="B" horiz-adv-x="1191" 
d="M1026 659q38 -42 68 -106q31 -65 31 -156q0 -79 -33 -151t-93 -126t-140 -87q-79 -33 -174 -33h-562v1388h551q80 0 154 -31q73 -30 127 -83q54 -52 84 -122q31 -71 31 -149q0 -65 -23 -116q-21 -45 -49 -82q-32 -41 -71 -67q56 -32 99 -79zM332 1190v-374h342
q83 0 141 56q57 56 57 131t-58 131t-140 56h-342zM898 332q18 40 18 87q0 45 -18 86q-17 38 -48 69q-28 28 -74 47q-43 18 -91 18h-353v-441h353q48 0 91 18q46 19 74 47q31 31 48 69z" />
    <glyph glyph-name="C" unicode="C" horiz-adv-x="1368" 
d="M1052 358q34 58 49 115h221q-25 -98 -78 -187q-52 -88 -130 -154q-81 -68 -179 -105q-102 -38 -219 -38q-132 0 -252 54q-122 55 -211 150q-90 96 -144 223q-54 128 -54 278q0 148 54 277q53 127 144 224q89 95 211 150q120 54 252 54q114 0 214 -38q95 -36 175 -105
q74 -64 129 -154q53 -86 77 -187h-221q-17 62 -49 115q-35 57 -80 95q-49 41 -108 63q-66 24 -137 24q-83 0 -167 -39q-82 -38 -145 -107q-60 -66 -101 -165q-39 -95 -39 -207t39 -207q40 -97 101 -164q62 -68 145 -108q81 -39 167 -39q75 0 144 24q62 21 112 64
q50 42 80 94z" />
    <glyph glyph-name="D" unicode="D" horiz-adv-x="1255" 
d="M1004 1186q90 -94 144 -221q54 -126 54 -271t-54 -271q-54 -127 -144 -221q-89 -94 -210 -148q-120 -54 -253 -54h-418v1388h418q133 0 253 -54q121 -54 210 -148zM955 496q38 88 38 198t-38 198q-40 92 -102 157t-144 103t-168 38h-209v-992h209q86 0 168 38t144 103
t102 157z" />
    <glyph glyph-name="E" unicode="E" horiz-adv-x="1122" 
d="M332 617v-419h727v-198h-936v1388h914v-198h-705v-374h650v-199h-650z" />
    <glyph glyph-name="F" unicode="F" horiz-adv-x="1026" 
d="M123 0v1388h881v-198h-672v-397h551v-198h-551v-595h-209z" />
    <glyph glyph-name="G" unicode="G" horiz-adv-x="1413" 
d="M705 518v199h617v-717h-11q-65 0 -119 36t-79 96q-42 -40 -104 -73q-50 -27 -125 -48q-77 -22 -168 -22q-132 0 -252 54q-122 55 -211 150q-90 96 -144 223q-54 128 -54 278q0 148 54 277q53 127 144 224q89 95 211 150q120 54 252 54q114 0 214 -38q96 -36 175 -103
q74 -62 129 -148q52 -81 77 -174h-221q-17 55 -49 104q-33 52 -80 88q-49 39 -108 60q-66 24 -137 24q-83 0 -167 -39q-82 -38 -145 -107q-61 -67 -101 -164q-39 -94 -39 -208q0 -112 39 -207q40 -97 101 -164q62 -68 145 -108q81 -39 167 -39q79 0 151 28q69 27 122 74
q53 46 87 108t48 132h-419z" />
    <glyph glyph-name="H" unicode="H" horiz-adv-x="1304" 
d="M971 805v583h210v-1388h-210v606h-639v-606h-209v1388h209v-583h639z" />
    <glyph glyph-name="I" unicode="I" horiz-adv-x="450" 
d="M330 0h-209v1388h209v-1388z" />
    <glyph glyph-name="J" unicode="J" horiz-adv-x="976" 
d="M659 397v991h209v-991q0 -85 -32 -161q-31 -75 -88 -130q-58 -57 -136 -86q-82 -31 -173 -31q-93 0 -175 31q-79 30 -135 86q-57 57 -89 130t-32 161h210q0 -99 61 -160t160 -61q96 0 159 61q61 60 61 160z" />
    <glyph glyph-name="K" unicode="K" horiz-adv-x="1134" 
d="M1092 1388l-562 -683l606 -705h-253l-551 650v-650h-209v1388h209v-639l506 639h254z" />
    <glyph glyph-name="L" unicode="L" horiz-adv-x="993" 
d="M332 1388v-1190h661v-198h-870v1388h209z" />
    <glyph glyph-name="M" unicode="M" horiz-adv-x="1591" 
d="M794 320l496 1068h177v-1388h-210v860l-396 -860h-132l-397 860v-860h-209v1388h175z" />
    <glyph glyph-name="N" unicode="N" horiz-adv-x="1304" 
d="M971 397v991h210v-1388h-177l-672 992v-992h-209v1388h175z" />
    <glyph glyph-name="O" unicode="O" horiz-adv-x="1433" 
d="M1179 1195q91 -97 144 -224q54 -129 54 -277q0 -150 -54 -278q-54 -127 -144 -223q-89 -95 -211 -150q-120 -54 -252 -54t-252 54q-122 55 -211 150q-90 96 -144 223q-54 128 -54 278q0 148 54 277q53 127 144 224q89 95 211 150q120 54 252 54t252 -54q122 -55 211 -150
zM1129 487q39 95 39 207t-39 207q-41 99 -101 165q-65 71 -144 107q-86 39 -168 39q-83 0 -167 -39q-82 -38 -145 -107q-61 -67 -101 -164q-39 -94 -39 -208q0 -112 39 -207q40 -97 101 -164q62 -68 145 -108q81 -39 167 -39t168 39q80 38 144 108q61 67 101 164z" />
    <glyph glyph-name="P" unicode="P" horiz-adv-x="1101" 
d="M938 1258q60 -60 95 -140q35 -81 35 -170t-35 -171q-35 -81 -95 -140q-61 -59 -140 -95q-77 -35 -170 -35h-298v-507h-209v1388h507q89 0 170 -35q79 -35 140 -95zM840 853q19 42 19 95q0 50 -19 92q-21 47 -51 77q-35 35 -74 53q-43 20 -87 20h-298v-485h298q46 0 87 19
t74 52q30 30 51 77z" />
    <glyph glyph-name="Q" unicode="Q" horiz-adv-x="1445" 
d="M1349 499q-24 -78 -60 -148q-41 -74 -88 -130l154 -155l-121 -132l-165 165q-40 -30 -95 -55q-50 -23 -110 -38q-66 -17 -148 -17q-132 0 -252 54q-122 55 -211 150q-90 96 -144 223q-54 128 -54 278q0 148 54 277q53 127 144 224q89 95 211 150q120 54 252 54t252 -54
q122 -55 211 -150q91 -97 144 -224q54 -129 54 -277q0 -105 -28 -195zM1150 554q18 60 18 140q0 112 -39 207q-41 99 -101 165q-65 71 -144 107q-86 39 -168 39q-83 0 -167 -39q-82 -38 -145 -107q-61 -67 -101 -164q-39 -94 -39 -208q0 -112 39 -207q40 -97 101 -164
q62 -68 145 -108q81 -39 167 -39q46 0 89 10q35 8 65 24q32 14 56 32l-133 132l121 133l144 -143q31 36 55 86q18 39 37 104z" />
    <glyph glyph-name="R" unicode="R" horiz-adv-x="1171" 
d="M937 652q-69 -53 -153 -80l341 -572h-232l-319 551h-242v-551h-209v1388h551q86 0 163 -33q80 -34 133 -89q56 -58 89 -134q33 -77 33 -163q0 -121 -48 -197t-107 -120zM674 749q42 0 79 18q39 19 66 47q29 30 46 69q18 41 18 86q0 47 -18 87q-17 39 -46 69
q-27 28 -66 47q-37 18 -79 18h-342v-441h342z" />
    <glyph glyph-name="S" unicode="S" horiz-adv-x="1095" 
d="M836 702q81 -48 137 -125q55 -76 55 -203q0 -76 -34 -144q-35 -70 -97 -123q-64 -55 -153 -86q-91 -32 -201 -32q-111 0 -199 32q-89 32 -149 88q-63 59 -94 136q-31 78 -31 174h208q0 -116 67 -180q66 -63 198 -63q141 0 208 57q68 57 68 141q0 79 -55 122
q-58 45 -137 74q-77 28 -178 58q-91 27 -177 74q-81 44 -137 117q-55 71 -55 195q0 75 33 144q33 68 95 123t147 86q87 32 188 32q99 0 182 -33q82 -33 143 -92q62 -61 94 -136q33 -78 33 -169h-210q0 108 -67 175q-68 68 -175 68q-55 0 -104 -17q-48 -17 -81 -45
q-32 -28 -51 -64q-18 -34 -18 -72q0 -74 56 -113q57 -40 136 -68q57 -20 178 -56q101 -30 177 -75z" />
    <glyph glyph-name="T" unicode="T" horiz-adv-x="1040" 
d="M-4 1190v198h1047v-198h-420v-1190h-209v1190h-418z" />
    <glyph glyph-name="U" unicode="U" horiz-adv-x="1241" 
d="M929 507v881h210v-881q0 -113 -39 -207q-40 -97 -108 -165q-71 -71 -164 -108q-96 -38 -208 -38q-111 0 -207 38q-93 37 -164 108q-68 68 -108 165q-39 94 -39 207v881h210v-881q0 -75 23 -136q22 -58 65 -103q41 -42 98 -67q58 -25 122 -25q63 0 122 25q58 24 99 67
q43 45 65 103q23 61 23 136z" />
    <glyph glyph-name="V" unicode="V" horiz-adv-x="1210" 
d="M605 320l385 1068h221l-507 -1388h-198l-508 1388h221z" />
    <glyph glyph-name="W" unicode="W" horiz-adv-x="1730" 
d="M1217 429l297 959h210l-430 -1388h-144l-286 925l-286 -925h-144l-430 1388h210l298 -959l286 959h133z" />
    <glyph glyph-name="X" unicode="X" horiz-adv-x="1142" 
d="M1110 1388l-419 -683l442 -705h-232l-330 529l-330 -529h-233l441 705l-418 683h231l309 -507l308 507h231z" />
    <glyph glyph-name="Y" unicode="Y" horiz-adv-x="1067" 
d="M539 761l319 627h221l-440 -848v-540h-210v540l-441 848h220l320 -627h11z" />
    <glyph glyph-name="Y" unicode="&#x178;" horiz-adv-x="1067" 
d="M539 761l319 627h221l-440 -848v-540h-210v540l-441 848h220l320 -627h11z" />
    <glyph glyph-name="Y" unicode="&#xdd;" horiz-adv-x="1067" 
d="M539 761l319 627h221l-440 -848v-540h-210v540l-441 848h220l320 -627h11z" />
    <glyph glyph-name="Z" unicode="Z" horiz-adv-x="1036" 
d="M299 198h706v-198h-970v143l672 1047h-650v198h915v-143z" />
    <glyph glyph-name="bracketleft" unicode="[" horiz-adv-x="638" 
d="M310 1299v-1432h253v-177h-440v1785h440v-176h-253z" />
    <glyph glyph-name="backslash" unicode="\" horiz-adv-x="790" 
d="M622 -310l-573 1785h187l574 -1785h-188z" />
    <glyph glyph-name="bracketright" unicode="]" horiz-adv-x="641" 
d="M329 -133v1432h-253v176h441v-1785h-441v177h253z" />
    <glyph glyph-name="asciicircum" unicode="^" horiz-adv-x="833" 
d="M240 836h-177l309 639h89l308 -639h-176l-177 386z" />
    <glyph glyph-name="a" unicode="a" horiz-adv-x="974" 
d="M851 796q28 -63 28 -140v-650h-35q-49 0 -90.5 27t-61.5 72q-28 -30 -69 -55q-39 -23 -89 -38q-52 -16 -129 -16q-168 0 -254 82q-87 82 -87 214q0 77 28 137t98 103q71 43 188 67q119 24 302 24v33q0 77 -47 121q-48 45 -140 45q-99 0 -144 -36t-54 -86h-198
q9 133 111 221q101 88 285 88q85 0 157 -27t123 -75q50 -47 78 -111zM680 394v53q-133 0 -214 -12q-80 -12 -127 -33t-62 -52q-16 -32 -16 -68q0 -42 40 -76t115 -34q125 0 195 65q69 65 69 157z" />
    <glyph glyph-name="a" unicode="&#xe5;" horiz-adv-x="974" 
d="M851 796q28 -63 28 -140v-650h-35q-49 0 -90.5 27t-61.5 72q-28 -30 -69 -55q-39 -23 -89 -38q-52 -16 -129 -16q-168 0 -254 82q-87 82 -87 214q0 77 28 137t98 103q71 43 188 67q119 24 302 24v33q0 77 -47 121q-48 45 -140 45q-99 0 -144 -36t-54 -86h-198
q9 133 111 221q101 88 285 88q85 0 157 -27t123 -75q50 -47 78 -111zM680 394v53q-133 0 -214 -12q-80 -12 -127 -33t-62 -52q-16 -32 -16 -68q0 -42 40 -76t115 -34q125 0 195 65q69 65 69 157z" />
    <glyph glyph-name="b" unicode="b" horiz-adv-x="1112" 
d="M1018 707q36 -93 36 -205t-36 -205q-35 -90 -102 -160q-62 -65 -151 -104q-84 -37 -185 -37q-77 0 -129 16q-56 17 -88 38q-38 23 -69 55q-20 -45 -62 -72t-91 -27h-35v1388h198v-496q26 29 69 56q35 19 86 37t121 18q98 0 185 -38q89 -39 151 -104q67 -70 102 -160z
M832 373q23 60 23 129t-23 129q-22 58 -62 102q-39 43 -92 66q-54 23 -109 23q-57 0 -109 -23q-50 -22 -91 -66q-41 -43 -63 -102q-23 -60 -23 -129t23 -129q22 -57 63 -101t91 -66q52 -23 109 -23q55 0 109 23q53 23 92 66q41 45 62 101z" />
    <glyph glyph-name="c" unicode="c" horiz-adv-x="1026" 
d="M681 234q57 51 81 136h210q-16 -76 -55 -148q-36 -66 -95 -119q-56 -50 -131 -79q-72 -28 -160 -28q-101 0 -185 37q-89 39 -151 104q-67 70 -102 160q-36 93 -36 205t36 205q35 90 102 160q62 65 151 104q87 38 185 38q88 0 160 -28q73 -28 131 -80q59 -53 95 -119
q37 -67 55 -147h-210q-26 85 -82 135q-58 52 -149 52q-52 0 -104 -23q-50 -22 -88 -66q-39 -46 -61 -102q-23 -60 -23 -129t23 -129q21 -55 61 -101q38 -44 88 -66q52 -23 104 -23q93 0 150 51z" />
    <glyph glyph-name="d" unicode="d" horiz-adv-x="1112" 
d="M806 1394h198v-1388h-35q-49 0 -90.5 27t-61.5 72q-27 -30 -68 -55q-39 -23 -89 -38q-52 -16 -129 -16q-101 0 -185 37q-89 39 -151 104q-67 70 -102 160q-36 93 -36 205t36 205q35 90 102 160q62 65 151 104q87 38 185 38q70 0 121 -18t86 -37q40 -25 68 -56v496z
M805 373q23 60 23 129t-23 129q-21 56 -63 102q-39 44 -91 66q-54 23 -109 23q-57 0 -109 -23t-92 -66q-41 -43 -63 -102q-23 -60 -23 -129t23 -129q22 -57 63 -101q40 -43 92 -66t109 -23q55 0 109 23q52 22 91 66q42 47 63 101z" />
    <glyph glyph-name="e" unicode="e" horiz-adv-x="1042" 
d="M946 707q37 -96 37 -205q0 -12 -2 -34q-1 -6 -3 -15.5t-2 -12.5q-1 -6 -2.5 -15.5t-1.5 -10.5h-706q4 -46 27 -88q24 -45 56 -74q33 -30 82 -50q47 -19 100 -19q90 0 143 38q52 37 77 72h210q-27 -66 -62 -116q-36 -51 -91 -94q-54 -42 -122 -64q-71 -23 -155 -23
q-101 0 -185 37q-89 39 -151 104q-66 69 -101 160q-37 96 -37 205t37 205q36 92 99 160q62 67 147 104q87 38 180 38t180 -38q85 -37 147 -104q63 -68 99 -160zM266 579h529q-16 107 -87 175t-188 68q-99 0 -167 -67q-69 -67 -87 -176z" />
    <glyph glyph-name="f" unicode="f" horiz-adv-x="593" 
d="M403 1174q-45 -45 -45 -110v-66h221v-187h-221v-805h-198v805h-121v187h121v66q0 76 24 143q23 63 64 106q43 45 98 68q57 24 122 24q26 0 45 -3q17 -3 35 -8q6 -2 17.5 -5.5t13.5 -4.5v-177q-2 0 -8.5 1.5t-11.5 2.5q-3 0 -11 2l-12 3q-16 2 -24 2q-65 0 -109 -44z" />
    <glyph glyph-name="g" unicode="g" horiz-adv-x="1087" 
d="M947 998h34v-948q0 -91 -33 -167q-34 -78 -90 -133q-60 -59 -142 -88q-84 -30 -187 -30q-92 0 -163 25q-75 27 -127 67q-51 40 -89 98q-36 55 -51 119h198q24 -51 79 -92t153 -41q115 0 185 68q69 67 69 174v99q-26 -28 -69 -54q-43 -25 -86 -39q-49 -16 -121 -16
q-92 0 -173 37q-84 38 -145 102q-62 65 -98 153t-36 192q0 102 36 191t98 154q61 64 145 102t173 38q75 0 129 -18q57 -19 89 -37q40 -25 68 -56q20 46 62 73t92 27zM781 409q23 55 23 115t-23 115t-61 96q-39 43 -88 64q-52 23 -103 23q-52 0 -104 -23q-49 -21 -88 -64
q-39 -42 -61 -95q-23 -55 -23 -116q0 -60 23 -115q22 -54 62 -95q41 -43 88 -64q51 -23 105 -23q51 0 102 23q48 22 87 64t61 95z" />
    <glyph glyph-name="h" unicode="h" horiz-adv-x="1064" 
d="M944 754q31 -82 31 -175v-573h-198v573q0 50 -19 92q-22 48 -50 78q-32 33 -74 53q-43 20 -88 20q-50 0 -95 -20q-44 -20 -77 -53q-34 -33 -53 -77q-18 -40 -18 -93v-573h-198v1180h-74v208h272v-496q31 30 71 56q33 18 87 37q51 18 117 18q84 0 154 -32q75 -34 127 -88
q56 -57 85 -135z" />
    <glyph glyph-name="i" unicode="i" horiz-adv-x="436" 
d="M331 998v-992h-198v791h-74v208h272v-7zM331 1196h-198v198h198v-198z" />
    <glyph glyph-name="j" unicode="j" horiz-adv-x="411" 
d="M106 -15v1013h198v-1013q0 -79 -23 -143q-22 -63 -65 -107q-42 -44 -98 -68q-55 -24 -123 -24q-47 0 -78 10q-20 6 -32 12v176q12 -6 21 -7l21 -3q7 -1 25 -1q66 0 110 44t44 111zM304 1196h-198v198h198v-198z" />
    <glyph glyph-name="k" unicode="k" horiz-adv-x="940" 
d="M492 536l440 -530h-242l-386 474v-474h-198v1180h-73v208h271v-208v-618l342 430h232z" />
    <glyph glyph-name="l" unicode="l" horiz-adv-x="409" 
d="M33 1394h271v-1388h-198v1180h-73v208z" />
    <glyph glyph-name="m" unicode="m" horiz-adv-x="1540" 
d="M1421 772q27 -76 27 -171v-595h-198v595q0 100 -56 160q-57 61 -131 61q-76 0 -131 -61q-56 -62 -56 -160v-595h-199v595q0 98 -56 160q-55 61 -131 61q-77 0 -132 -61q-56 -62 -56 -160v-595h-198v992h34q50 0 92 -27t62 -73q25 29 63 56q28 18 77 37q45 18 102 18
q70 0 121 -24q47 -22 86 -53q38 -34 68 -78l20 24q18 23 56 53q39 31 92 54q55 24 130 24q71 0 133 -27q60 -26 107 -81q48 -56 74 -129z" />
    <glyph glyph-name="n" unicode="n" horiz-adv-x="1064" 
d="M944 754q31 -78 31 -175v-573h-198v573q0 50 -19 92q-22 49 -51 78q-35 35 -74 53q-42 20 -86 20q-54 0 -97 -20t-77 -53q-32 -32 -52 -77q-19 -42 -19 -93v-573h-198v992h34q50 0 92 -27t62 -73q27 30 67 56q34 18 90 37q54 18 129 18q84 0 154 -32q75 -34 127 -88
q53 -55 85 -135z" />
    <glyph glyph-name="o" unicode="o" horiz-adv-x="1062" 
d="M968 707q36 -93 36 -205t-36 -205q-35 -91 -101 -160q-62 -65 -151 -104q-84 -37 -185 -37t-185 37q-89 39 -151 104q-67 70 -102 160q-36 93 -36 205t36 205q35 90 102 160q62 65 151 104q87 38 185 38t185 -38q89 -39 151 -104q66 -69 101 -160zM783 373q23 60 23 129
t-23 129q-22 56 -61 102q-38 44 -88 66q-52 23 -103 23q-52 0 -104 -23q-50 -22 -88 -66q-39 -46 -61 -102q-23 -60 -23 -129t23 -129q21 -55 61 -101q38 -44 88 -66q52 -23 104 -23q51 0 103 23q50 22 88 66q40 46 61 101z" />
    <glyph glyph-name="p" unicode="p" horiz-adv-x="1112" 
d="M1018 707q36 -93 36 -205t-36 -205q-35 -90 -102 -160q-62 -65 -151 -104q-84 -37 -185 -37q-73 0 -122 16q-53 17 -85 38q-38 23 -69 55v-452h-198v1345h34q50 0 92 -27t62 -73q27 30 67 56q34 18 90 37q54 18 129 18q98 0 185 -38q89 -39 151 -104q67 -70 102 -160z
M832 373q23 60 23 129t-23 129q-22 59 -63 102q-41 44 -91 66q-52 23 -109 23q-55 0 -109 -23q-52 -22 -91 -66q-42 -46 -63 -102q-23 -60 -23 -129t23 -129q21 -54 63 -101q39 -44 91 -66q54 -23 109 -23q57 0 109 23q50 22 91 66t63 101z" />
    <glyph glyph-name="q" unicode="q" horiz-adv-x="1112" 
d="M970 998h34v-1345h-198v452q-27 -30 -68 -55q-39 -23 -86 -38q-49 -16 -121 -16q-101 0 -185 37q-89 39 -151 104q-67 70 -102 160q-36 93 -36 205t36 205q35 90 102 160q62 65 151 104q87 38 185 38q75 0 129 -18t89 -37q40 -25 68 -56q20 46 61.5 73t91.5 27zM805 373
q23 60 23 129t-23 129q-21 56 -63 102q-39 44 -91 66q-54 23 -109 23q-57 0 -109 -23t-92 -66q-41 -43 -63 -102q-23 -60 -23 -129t23 -129q22 -57 63 -101q40 -43 92 -66t109 -23q55 0 109 23q52 22 91 66q42 47 63 101z" />
    <glyph glyph-name="r" unicode="r" horiz-adv-x="628" 
d="M600 1001q2 -2 5.5 -7t5.5 -7v-188q-2 0 -9 2t-11 3q-16 2 -23 4q-12 3 -23 3q-50 0 -95 -20q-43 -19 -77 -53q-31 -31 -52 -78q-19 -42 -19 -92v-562h-198v992h34q50 0 92 -27t62 -73q25 29 63 56q30 19 79 37q48 18 111 18q12 0 28 -2q15 -3 27 -6z" />
    <glyph glyph-name="s" unicode="s" horiz-adv-x="868" 
d="M760 444q40 -52 40 -141q0 -133 -95 -220t-269 -87q-182 0 -274 86t-101 244h198q9 -66 51 -105q41 -38 126 -38q91 0 134 35q42 34 42 85q0 46 -39 68q-42 23 -99 38q-9 2 -54.5 14.5t-72.5 18.5q-64 15 -126 47q-55 28 -98 82q-40 50 -40 140q0 62 24 116q23 52 69 95
q45 42 107 64q64 23 142 23q174 0 264 -84q91 -85 100 -225h-199q-9 49 -50 86q-40 36 -115 36q-74 0 -115 -35q-40 -34 -40 -76q0 -45 40 -67q43 -24 98 -38q80 -20 127 -32q66 -16 126 -47q58 -30 99 -83z" />
    <glyph glyph-name="t" unicode="t" horiz-adv-x="667" 
d="M618 811h-220v-474q0 -66 44 -110t109 -44q15 0 23 1q3 0 8 1t9 1.5t7 0.5q8 1 20 7v-177q-17 -7 -31 -11q-35 -11 -79 -11q-63 0 -122 25q-55 23 -98 68q-43 44 -65 107q-23 64 -23 142v476h-184v185h184v264h197v-264h221v-187z" />
    <glyph glyph-name="u" unicode="u" horiz-adv-x="1067" 
d="M761 425v573h198v-992h-186l-2 99q-28 -30 -69 -55q-40 -23 -88 -38q-52 -16 -129 -16q-84 0 -155 31q-73 32 -126 88q-56 59 -85 136q-31 82 -31 174v573h198v-573q0 -53 19 -95q21 -46 50 -77q29 -30 74 -51q41 -19 88 -19q51 0 93 19q47 21 77 51q35 35 54 77
q20 45 20 95z" />
    <glyph glyph-name="v" unicode="v" horiz-adv-x="983" 
d="M767 998h210l-397 -992h-177l-397 992h210l275 -716z" />
    <glyph glyph-name="w" unicode="w" horiz-adv-x="1435" 
d="M1225 998h198l-330 -992h-166l-209 650l-210 -650h-164l-332 992h199l221 -683l219 683h133l220 -683z" />
    <glyph glyph-name="x" unicode="x" horiz-adv-x="954" 
d="M599 513l341 -507h-221l-242 364l-242 -364h-221l341 507l-319 485h220l221 -331l221 331h220z" />
    <glyph glyph-name="y" unicode="y" horiz-adv-x="985" 
d="M767 998h210l-420 -1057q-32 -81 -65 -141q-31 -56 -69 -91q-40 -37 -82 -51q-45 -15 -102 -15q-17 0 -25 1t-22 3q-11 2 -20 6v166q83 0 127 35q43 34 60 87l33 99l-386 958h210l275 -716z" />
    <glyph glyph-name="y" unicode="&#xff;" horiz-adv-x="985" 
d="M767 998h210l-420 -1057q-32 -81 -65 -141q-31 -56 -69 -91q-40 -37 -82 -51q-45 -15 -102 -15q-17 0 -25 1t-22 3q-11 2 -20 6v166q83 0 127 35q43 34 60 87l33 99l-386 958h210l275 -716z" />
    <glyph glyph-name="y" unicode="&#xfd;" horiz-adv-x="985" 
d="M767 998h210l-420 -1057q-32 -81 -65 -141q-31 -56 -69 -91q-40 -37 -82 -51q-45 -15 -102 -15q-17 0 -25 1t-22 3q-11 2 -20 6v166q83 0 127 35q43 34 60 87l33 99l-386 958h210l275 -716z" />
    <glyph glyph-name="z" unicode="z" horiz-adv-x="839" 
d="M296 194h496v-188h-739v177l475 628h-475v187h717v-176z" />
    <glyph glyph-name="braceleft" unicode="{" horiz-adv-x="712" 
d="M102 506v154q51 0 81 30t30 80v419q0 286 304 286h126v-176h-133q-50 0 -80 -30t-30 -80v-419q0 -59 -18 -94q-19 -37 -44 -57q-28 -26 -59 -36q33 -10 59 -35q24 -21 44 -58q18 -33 18 -94v-419q0 -50 30 -80t80 -30h133v-177h-126q-153 0 -229 71.5t-75 215.5v419
q0 50 -30 80t-81 30z" />
    <glyph glyph-name="verticalbar" unicode="|" horiz-adv-x="434" 
d="M310 1475v-1741h-187v1741h187z" />
    <glyph glyph-name="braceright" unicode="}" horiz-adv-x="712" 
d="M610 660v-154q-51 0 -81 -30t-30 -80v-419q0 -285 -303 -287h-126v177h132q51 0 80 29q30 30 30 81v419q0 58 18 94q19 38 42 58q26 24 61 35q-35 10 -61 36q-24 19 -42 57t-18 94v419q0 50 -30 80t-80 30h-132v176h126q152 0 228 -71.5t75 -214.5v-419q0 -50 30 -80
t81 -30z" />
    <glyph glyph-name="asciitilde" unicode="~" horiz-adv-x="1126" 
d="M985 596q-75 -80 -201 -80q-52 0 -114 21q-41 14 -123 46q-61 24 -114 45t-90 21q-50 0 -80 -32q-30 -31 -30 -89h-165q0 151 74 229q75 79 201 79q53 0 115 -21q65 -22 122 -45q95 -38 113 -45q54 -21 91 -21q51 0 80 32q30 33 30 89h166q0 -149 -75 -229z" />
    <glyph glyph-name="nonbreakingspace" unicode="&#xa0;" horiz-adv-x="530" 
 />
    <glyph glyph-name="exclamdown" unicode="&#xa1;" horiz-adv-x="456" 
d="M314 1138q36 -36 36 -86q0 -52 -36 -86q-37 -35 -86 -35t-86 35q-35 34 -35 86q0 51 35 86q36 36 86 36t86 -36zM316 810l34 -992h-244l34 992h176z" />
    <glyph glyph-name="cent" unicode="&#xa2;" horiz-adv-x="1110" 
d="M319 796q-23 -60 -23 -129t23 -129q22 -56 61 -102q38 -44 88 -66q52 -23 104 -23q92 0 150 52q57 51 81 135h210q-15 -68 -51 -137q-34 -64 -79 -111q-44 -45 -104 -77q-54 -29 -119 -38v-198h-187v198q-77 15 -139 52q-67 40 -119 104q-54 67 -85 150q-32 87 -32 190
q0 102 32 189q31 83 85 150t119 104q68 39 139 53v198h187v-198q62 -9 119 -39q60 -32 104 -77q45 -47 79 -111q33 -64 51 -137h-210q-26 86 -82 136q-57 51 -149 51q-52 0 -104 -23q-50 -22 -88 -66q-40 -46 -61 -101z" />
    <glyph glyph-name="sterling" unicode="&#xa3;" horiz-adv-x="1206" 
d="M445 700v-199q0 -29 -10 -54q-11 -27 -19 -41q-10 -20 -27 -37h705v-198h-992v198q58 0 95 37q38 38 38 95v199h-122v198h122v255q0 87 33 163q34 78 92 132q61 56 141 89q79 32 175 32q92 0 169 -32q79 -33 138 -87q59 -55 93 -125q33 -70 38 -151h-207q-9 92 -70 150
t-161 58q-50 0 -93 -17q-41 -16 -73 -48t-48 -73q-17 -43 -17 -91v-255h374v-198h-374z" />
    <glyph glyph-name="currency" unicode="&#xa4;" horiz-adv-x="1306" 
d="M1132 554q0 -131 -76 -253l151 -150l-151 -151l-151 151q-125 -77 -253 -77t-252 77l-151 -151l-151 151l151 150q-76 124 -76 253t76 253l-151 151l151 150l151 -150q124 76 252 76q129 0 253 -76l151 150l151 -150l-151 -151q76 -124 76 -253zM831 376q73 73 73 178
q0 106 -73 179t-179 73q-105 0 -178 -73t-73 -179q0 -105 73 -178q74 -74 178 -74q105 0 179 74z" />
    <glyph glyph-name="yen" unicode="&#xa5;" horiz-adv-x="1103" 
d="M1096 1559l-368 -694h225v-177h-297v-120h295v-177h-295v-220h-210v220h-297v177h297v120h-297v177h225l-368 694h221l324 -628l326 628h219z" />
    <glyph glyph-name="section" unicode="&#xa7;" horiz-adv-x="1081" 
d="M931 879q44 -68 44 -168q0 -74 -31 -127q-31 -52 -68 -85q-42 -40 -99 -64q41 -28 66 -57q25 -33 45 -74t20 -100q0 -58 -25 -111q-26 -55 -74 -97t-115 -66t-148 -24q-86 0 -152 25q-65 24 -115 70q-49 44 -77 105q-27 59 -32 130h187q9 -65 57 -109q50 -45 132 -45
q92 0 134 36q41 35 41 86q0 48 -45 80t-115 59q-16 6 -44.5 17.5t-54.5 21.5t-49 19q-79 30 -149 74q-68 43 -114 112t-46 168q0 74 32 130q32 55 72 93q44 39 105 74q-35 16 -61 48q-26 27 -42 69q-17 43 -17 101q0 61 25 114q26 56 70 95q42 38 109 65q62 25 137 25
q158 0 251 -87t102 -220h-188q-9 57 -49 94q-41 38 -116 38q-77 0 -115 -35q-39 -36 -39 -86q0 -54 44 -87q41 -31 110 -61q74 -32 143 -59q83 -33 144 -74q66 -45 110 -113zM746 620q31 35 31 91q0 75 -60 128q-59 52 -216 103q-58 -15 -100 -40q-37 -21 -68 -58t-31 -89
q0 -75 60 -129t216 -102q60 16 99 39q37 21 69 57z" />
    <glyph glyph-name="copyright" unicode="&#xa9;" horiz-adv-x="1572" 
d="M1415 981q54 -129 54 -276q0 -151 -54 -278q-54 -128 -147 -224q-92 -95 -217 -149t-265 -54q-142 0 -266 54q-125 54 -217 149q-93 96 -147 224t-54 278q0 147 54 276t147 225t217 150t266 54q140 0 265 -54q124 -54 217 -150t147 -225zM1272 482q42 104 42 223t-42 222
t-115 179q-69 72 -168 117q-95 43 -203 43q-109 0 -204 -43q-100 -45 -169 -117q-73 -76 -115 -179t-42 -222t42 -223q41 -101 115 -178q71 -74 168 -118q95 -43 205 -43q108 0 203 43q97 44 168 118q74 77 115 178zM603 803q-16 -44 -16 -98t16 -98q17 -46 45 -77
q30 -33 64 -50t74 -17q75 0 116 37q42 38 60 95h154q-9 -55 -35 -102q-27 -49 -67 -85q-40 -35 -97 -57q-56 -21 -121 -21q-70 0 -134 29q-66 30 -112 79q-50 53 -77 119q-30 73 -30 148t30 148q27 66 77 119q48 51 112 79q63 28 134 28q65 0 121 -21q57 -22 97 -57t67 -84
q25 -45 35 -101h-154q-16 55 -60 94q-41 37 -116 37q-37 0 -74 -17q-34 -16 -64 -50q-29 -34 -45 -77z" />
    <glyph glyph-name="softhyphen" unicode="&#xad;" horiz-adv-x="0" 
 />
    <glyph glyph-name="registered" unicode="&#xae;" horiz-adv-x="1572" 
d="M1415 981q54 -129 54 -276q0 -151 -54 -278q-54 -128 -147 -224q-92 -95 -217 -149t-265 -54q-142 0 -266 54q-125 54 -217 149q-93 96 -147 224t-54 278q0 147 54 276t147 225t217 150t266 54q140 0 265 -54q124 -54 217 -150t147 -225zM1272 482q42 104 42 223t-42 222
t-115 179q-69 72 -168 117q-95 43 -203 43q-109 0 -204 -43q-100 -45 -169 -117q-73 -76 -115 -179t-42 -222t42 -223q41 -101 115 -178q71 -74 168 -118q95 -43 205 -43q108 0 203 43q97 44 168 118q74 77 115 178zM1041 925q20 -43 20 -88q0 -64 -26 -103t-58 -65
q-37 -26 -82 -42l199 -286h-165l-177 265h-65v-265h-143v727h275q52 0 92 -18q44 -20 77 -51q33 -32 53 -74zM687 738h132q41 0 70 29t29 70q0 42 -29 71q-28 28 -70 28h-132v-198z" />
    <glyph glyph-name="mu" unicode="&#xb5;" horiz-adv-x="1099" 
d="M787 1163h198v-992h-143l-44 99q-25 -30 -65 -55q-35 -23 -75 -38q-46 -17 -103 -17q-58 0 -102 16q-47 17 -76 39q-37 25 -64 55v-452h-198v1345h198v-574q0 -54 18 -94q20 -44 51 -77q30 -32 74 -52q41 -19 88 -19q51 0 93 19q45 20 77 52q34 34 53 77q20 45 20 94v574
z" />
    <glyph glyph-name="paragraph" unicode="&#xb6;" horiz-adv-x="1087" 
d="M963 1559v-1586h-176v1409h-198v-1409h-177v925q-67 0 -125 26q-60 27 -106 73t-73 106q-26 58 -26 125q0 68 26 126q27 60 73 106q44 44 106 72q60 27 125 27h551z" />
    <glyph glyph-name="questiondown" unicode="&#xbf;" horiz-adv-x="976" 
d="M115 44q-31 71 -31 148q0 76 23 130q22 51 59 93q28 31 77 75q49 43 78 75q37 40 59 93q24 58 24 129v23h198v-23q0 -94 -24 -166q-22 -65 -59 -115q-34 -45 -77 -82q-40 -34 -77 -68q-39 -35 -60 -71q-23 -38 -23 -93q0 -75 59 -131t151 -56t150 64q59 65 59 190v21h197
v-21q0 -103 -30 -187t-86 -143t-130 -90q-76 -32 -160 -32t-162 31q-74 30 -130 84q-55 54 -85 122zM416 966q-35 34 -35 86q0 51 35 86q36 36 86 36q52 0 86 -36q35 -37 35 -86q0 -51 -35 -86t-86 -35q-49 0 -86 35z" />
    <glyph glyph-name="Agrave" unicode="&#xc0;" 
d="M341 320l-120 -320h-221l529 1388h176l529 -1388h-220l-122 320h-551zM529 1818l132 -264h-132l-188 264h188zM419 518h397l-199 550z" />
    <glyph glyph-name="Aacute" unicode="&#xc1;" horiz-adv-x="1232" 
d="M341 320l-120 -320h-221l529 1388h176l529 -1388h-220l-122 320h-551zM419 518h397l-199 550zM562 1554l132 264h187l-187 -264h-132z" />
    <glyph glyph-name="Acircumflex" unicode="&#xc2;" 
d="M341 320l-120 -320h-221l529 1388h176l529 -1388h-220l-122 320h-551zM705 1807l199 -264h-177l-110 154l-110 -154h-177l199 264h176zM419 518h397l-199 550z" />
    <glyph glyph-name="Atilde" unicode="&#xc3;" 
d="M341 320l-120 -320h-221l529 1388h176l529 -1388h-220l-122 320h-551zM880 1575q-58 -65 -142 -65q-53 0 -84 20q-39 25 -58 45q-3 3 -48 45q-23 20 -52 22q-33 0 -61 -32q-29 -33 -27 -90h-111q0 131 59 198q58 66 142 67q49 0 82 -21q36 -23 59 -46q8 -7 24.5 -22
t24.5 -23q20 -20 52 -20q35 0 61 32q28 32 28 89h109q0 -134 -58 -199zM419 518h397l-199 550z" />
    <glyph glyph-name="Adieresis" unicode="&#xc4;" 
d="M341 320l-120 -320h-221l529 1388h176l529 -1388h-220l-122 320h-551zM515 1750q36 -36 36 -87q0 -50 -36 -86q-35 -35 -86 -34q-51 0 -86 34q-35 35 -34 86q0 52 34 87q35 35 86 35t86 -35zM419 518h397l-199 550zM890 1750q35 -35 35 -87q0 -51 -35 -86t-85 -34
q-51 0 -86 34q-36 36 -36 86q0 51 36 87q35 35 86 35t85 -35z" />
    <glyph glyph-name="Aring" unicode="&#xc5;" 
d="M341 320l-120 -320h-221l529 1388h176l529 -1388h-220l-122 320h-551zM419 518h397l-199 550zM752 1817q53 -56 53 -131t-53 -131q-51 -56 -135 -56q-85 0 -136 56q-52 57 -52 131t52 131q51 56 136 56q84 0 135 -56zM672 1625q22 30 22 61q0 32 -22 60q-21 28 -55 28
t-55 -28q-22 -30 -22 -60q0 -31 22 -61q21 -29 55 -27q33 0 55 27z" />
    <glyph glyph-name="AE" unicode="&#xc6;" horiz-adv-x="1845" 
d="M417 330l-187 -330h-242l803 1388h970v-198h-637v-374h582v-199h-582v-419h660v-198h-871v330h-496zM901 1190l-374 -661h386v661h-12z" />
    <glyph glyph-name="Ccedilla" unicode="&#xc7;" horiz-adv-x="1368" 
d="M303 901q-39 -95 -39 -207t39 -207q40 -97 101 -164q62 -68 145 -108q81 -39 167 -39q75 0 144 24q62 21 112 64q50 42 80 94q31 53 49 115h221q-26 -95 -78 -180q-53 -86 -125 -152q-73 -67 -164 -107t-195 -45l-33 -77q56 -9 94 -48q38 -40 38 -95q0 -67 -51 -110
q-52 -44 -158 -44q-28 0 -40 1q-16 1 -31 3q-11 1 -29 7v99q13 -6 27 -7q9 -1 28 -3q11 -1 33 -1q50 0 76 21q25 22 25 44q0 24 -25 46q-24 21 -76 21q-10 0 -22 -2q-9 -2 -16 -5q-3 -1 -8.5 -3t-7.5 -2l66 155q-116 13 -224 71q-106 57 -189 150t-132 216q-50 124 -50 268
q0 148 54 277q53 127 144 224q89 95 211 150q120 54 252 54q114 0 214 -38q95 -36 175 -105q74 -64 129 -154q53 -86 77 -187h-221q-17 62 -49 115q-35 57 -80 95q-49 41 -108 63q-66 24 -137 24q-83 0 -167 -39q-82 -38 -145 -107q-60 -66 -101 -165z" />
    <glyph glyph-name="Egrave" unicode="&#xc8;" horiz-adv-x="1122" 
d="M1059 198v-198h-936v1388h914v-198h-705v-374h650v-199h-650v-419h727zM552 1818l133 -264h-133l-187 264h187z" />
    <glyph glyph-name="Eacute" unicode="&#xc9;" horiz-adv-x="1122" 
d="M1059 198v-198h-936v1388h914v-198h-705v-374h650v-199h-650v-419h727zM508 1554l132 264h188l-188 -264h-132z" />
    <glyph glyph-name="Ecircumflex" unicode="&#xca;" horiz-adv-x="1122" 
d="M1059 198v-198h-936v1388h914v-198h-705v-374h650v-199h-650v-419h727zM674 1807l198 -264h-177l-109 154l-111 -154h-177l199 264h177z" />
    <glyph glyph-name="Edieresis" unicode="&#xcb;" horiz-adv-x="1122" 
d="M1059 198v-198h-936v1388h914v-198h-705v-374h649v-199h-649v-419h727zM483 1750q36 -36 36 -87q0 -50 -36 -86q-36 -35 -85 -34q-51 0 -86 34q-35 35 -35 86q0 52 35 87t86 35t85 -35zM859 1750q34 -35 34 -87q0 -51 -34 -86q-35 -35 -86 -34q-51 0 -86 34
q-36 36 -36 86q0 51 36 87q35 35 86 35t86 -35z" />
    <glyph glyph-name="Igrave" unicode="&#xcc;" horiz-adv-x="454" 
d="M154 1818l133 -264h-133l-187 264h187zM331 1388v-1388h-209v1388h209z" />
    <glyph glyph-name="Iacute" unicode="&#xcd;" horiz-adv-x="454" 
d="M332 1388v-1388h-209v1388h209zM167 1554l131 264h189l-189 -264h-131z" />
    <glyph glyph-name="Icircumflex" unicode="&#xce;" horiz-adv-x="456" 
d="M311 1807l198 -264h-177l-109 154l-111 -154h-175l197 264h177zM332 1388v-1388h-208v1388h208z" />
    <glyph glyph-name="Idieresis" unicode="&#xcf;" horiz-adv-x="456" 
d="M132 1750q35 -35 35 -87q0 -51 -35 -86t-86 -34q-51 0 -86 34q-36 36 -36 86q0 51 36 87q35 35 86 35t86 -35zM332 1388v-1388h-209v1388h209zM506 1750q36 -36 36 -87q0 -50 -36 -86q-35 -35 -86 -34q-51 0 -86 34q-35 35 -35 86q0 52 35 87t86 35t86 -35z" />
    <glyph glyph-name="Ntilde" unicode="&#xd1;" horiz-adv-x="1300" 
d="M969 1399h210v-1388h-177l-672 992v-992h-209v1388h175l673 -991v991zM924 1609q-59 -67 -143 -67q-50 0 -83 21q-39 25 -59 46q-3 3 -48 45q-23 20 -52 20q-33 0 -61 -31q-28 -33 -27 -89h-111q0 130 60 198q58 65 142 65q50 0 81 -20q41 -26 60 -45q5 -5 22.5 -21
t25.5 -24q20 -20 53 -22q34 0 60 32q28 32 28 90h110q0 -133 -58 -198z" />
    <glyph glyph-name="Ograve" unicode="&#xd2;" horiz-adv-x="1433" 
d="M1323 981q54 -129 54 -276q0 -151 -54 -278q-54 -128 -144 -224q-88 -94 -210 -149q-120 -54 -253 -54q-132 0 -252 54q-123 56 -211 149q-90 96 -144 224t-54 278q0 147 54 276t144 225q89 95 211 150q120 54 252 54q133 0 253 -54t210 -150t144 -225zM1129 498
q39 94 39 207q0 111 -39 207q-40 97 -101 164q-63 71 -144 109q-81 39 -168 37q-87 0 -168 -37q-81 -38 -144 -109q-61 -68 -101 -164q-39 -94 -39 -207t39 -207q39 -95 101 -164q64 -72 144 -108q82 -39 168 -39t168 39q80 38 144 108q62 69 101 164zM650 1829l133 -265
h-133l-187 265h187z" />
    <glyph glyph-name="Oacute" unicode="&#xd3;" horiz-adv-x="1433" 
d="M1323 981q54 -129 54 -276q0 -151 -54 -278q-54 -128 -144 -224q-88 -94 -210 -149q-120 -54 -253 -54q-132 0 -252 54q-123 56 -211 149q-90 96 -144 224t-54 278q0 147 54 276t144 225q89 95 211 150q120 54 252 54q133 0 253 -54t210 -150t144 -225zM1129 498
q39 94 39 207q0 111 -39 207q-40 97 -101 164q-63 71 -144 109q-81 39 -168 37q-87 0 -168 -37q-81 -38 -144 -109q-61 -68 -101 -164q-39 -94 -39 -207t39 -207q39 -95 101 -164q64 -72 144 -108q82 -39 168 -39t168 39q80 38 144 108q62 69 101 164zM650 1564l133 265h187
l-187 -265h-133z" />
    <glyph glyph-name="Ocircumflex" unicode="&#xd4;" horiz-adv-x="1433" 
d="M1323 981q54 -129 54 -276q0 -151 -54 -278q-54 -128 -144 -224q-88 -94 -210 -149q-120 -54 -253 -54q-132 0 -252 54q-123 56 -211 149q-90 96 -144 224t-54 278q0 147 54 276t144 225q89 95 211 150q120 54 252 54q133 0 253 -54t210 -150t144 -225zM1129 498
q39 94 39 207q0 111 -39 207q-40 97 -101 164q-63 71 -144 109q-81 39 -168 37q-87 0 -168 -37q-81 -38 -144 -109q-61 -68 -101 -164q-39 -94 -39 -207t39 -207q39 -95 101 -164q64 -72 144 -108q82 -39 168 -39t168 39q80 38 144 108q62 69 101 164zM804 1817l198 -263
h-176l-110 154l-110 -154h-176l198 263h176z" />
    <glyph glyph-name="Otilde" unicode="&#xd5;" horiz-adv-x="1433" 
d="M1323 981q54 -129 54 -276q0 -151 -54 -278q-54 -128 -144 -224q-88 -94 -210 -149q-120 -54 -253 -54q-132 0 -252 54q-123 56 -211 149q-90 96 -144 224t-54 278q0 147 54 276t144 225q89 95 211 150q120 54 252 54q133 0 253 -54t210 -150t144 -225zM1129 498
q39 94 39 207q0 111 -39 207q-40 97 -101 164q-63 71 -144 109q-81 39 -168 37q-87 0 -168 -37q-81 -38 -144 -109q-61 -68 -101 -164q-39 -94 -39 -207t39 -207q39 -95 101 -164q64 -72 144 -108q82 -39 168 -39t168 39q80 38 144 108q62 69 101 164zM990 1609
q-59 -67 -142 -67q-51 0 -84 21q-37 23 -58 46q-3 3 -48 45q-23 20 -52 20q-33 0 -61 -31q-28 -33 -27 -89h-111q0 131 59 198q58 65 142 65q51 0 82 -20q39 -25 59 -45q8 -7 24.5 -22t24.5 -23q20 -21 52 -22q35 0 61 32q28 32 28 90h109q0 -133 -58 -198z" />
    <glyph glyph-name="Odieresis" unicode="&#xd6;" horiz-adv-x="1433" 
d="M1323 981q54 -129 54 -276q0 -151 -54 -278q-54 -128 -144 -224q-88 -94 -210 -149q-120 -54 -253 -54q-132 0 -252 54q-123 56 -211 149q-90 96 -144 224t-54 278q0 147 54 276t144 225q89 95 211 150q120 54 252 54q133 0 253 -54t210 -150t144 -225zM1129 498
q39 94 39 207q0 111 -39 207q-40 97 -101 164q-63 71 -144 109q-81 39 -168 37q-87 0 -168 -37q-81 -38 -144 -109q-61 -68 -101 -164q-39 -94 -39 -207t39 -207q39 -95 101 -164q64 -72 144 -108q82 -39 168 -39t168 39q80 38 144 108q62 69 101 164zM615 1760
q35 -35 35 -86t-35 -86t-86 -34q-51 0 -86 34q-36 36 -36 86t36 86t86 36t86 -36zM989 1760q36 -36 36 -86t-36 -86q-35 -35 -86 -34q-51 0 -86 34q-35 35 -34 86q0 51 34 86q36 36 86 36t86 -36z" />
    <glyph glyph-name="Oslash" unicode="&#xd8;" horiz-adv-x="1509" 
d="M502 1356q120 54 252 54q99 0 177 -27q86 -30 136 -56q62 -36 117 -82l143 132l133 -132l-155 -143q32 -48 56 -109q18 -47 37 -123q18 -72 18 -165q0 -148 -55 -278q-54 -128 -144 -224q-88 -93 -211 -149q-120 -54 -252 -54q-100 0 -178 25q-77 25 -137 57
q-65 37 -114 83l-143 -133l-133 133l154 143q-30 46 -55 108q-22 52 -38 124q-17 74 -17 165q0 147 54 276t144 225q89 95 211 150zM369 452l672 650q-40 36 -77 59q-35 24 -91 43q-53 18 -119 18q-85 0 -167 -38t-145 -107q-60 -66 -101 -165q-39 -94 -39 -207
q0 -57 10 -100q12 -52 23 -81q13 -39 34 -72zM636 204q54 -17 118 -17q86 0 168 39q80 38 144 108q61 67 101 164q39 94 39 207q0 50 -11 99q-9 40 -23 82q-17 45 -32 73l-672 -651q33 -36 77 -62q37 -25 91 -42z" />
    <glyph glyph-name="Ugrave" unicode="&#xd9;" horiz-adv-x="1241" 
d="M498 211q56 -24 122 -24t123 24q58 27 98 68q41 42 65 103t23 136v881h210v-881q0 -112 -39 -207t-109 -165q-69 -69 -163 -107q-94 -39 -208 -39q-112 0 -207 39t-164 107q-71 70 -108 165q-39 95 -39 207v881h210v-881q0 -75 23 -136q24 -61 65 -103q42 -44 98 -68z
M588 1829l132 -265h-132l-187 265h187z" />
    <glyph glyph-name="Uacute" unicode="&#xda;" horiz-adv-x="1241" 
d="M498 211q56 -24 122 -24t123 24q58 27 98 68q41 42 65 103t23 136v881h210v-881q0 -112 -39 -207t-109 -165q-69 -69 -163 -107q-94 -39 -208 -39q-112 0 -207 39t-164 107q-71 70 -108 165q-39 95 -39 207v881h210v-881q0 -75 23 -136q24 -61 65 -103q42 -44 98 -68z
M544 1564l132 265h187l-187 -265h-132z" />
    <glyph glyph-name="Ucircumflex" unicode="&#xdb;" horiz-adv-x="1241" 
d="M498 211q56 -24 122 -24t123 24q58 27 98 68q41 42 65 103t23 136v881h210v-881q0 -112 -39 -207t-109 -165q-69 -69 -163 -107q-94 -39 -208 -39q-112 0 -207 39t-164 107q-71 70 -108 165q-39 95 -39 207v881h210v-881q0 -75 23 -136q24 -61 65 -103q42 -44 98 -68z
M708 1817l199 -263h-176l-111 154l-110 -154h-176l198 263h176z" />
    <glyph glyph-name="Udieresis" unicode="&#xdc;" horiz-adv-x="1241" 
d="M498 211q56 -24 122 -24t123 24q58 27 98 68q41 42 65 103t23 136v881h210v-881q0 -112 -39 -207t-109 -165q-69 -69 -163 -107q-94 -39 -208 -39q-112 0 -207 39t-164 107q-71 70 -108 165q-39 95 -39 207v881h210v-881q0 -75 23 -136q24 -61 65 -103q42 -44 98 -68z
M519 1760q35 -35 35 -86t-35 -86t-86 -34q-51 0 -86 34q-36 36 -35 86q0 49 35 86q36 36 86 36t86 -36zM893 1760q36 -36 36 -86t-36 -86q-35 -35 -86 -34q-51 0 -85 34q-35 35 -35 86t35 86q36 36 85 36q50 0 86 -36z" />
    <glyph glyph-name="germandbls" unicode="&#xdf;" horiz-adv-x="1040" 
d="M836 991q-25 -38 -60 -71q62 -32 111 -81q40 -42 76 -110q33 -63 33 -161q0 -84 -30 -156q-29 -70 -85 -126q-55 -55 -127 -85t-155 -30h-109v187h109q85 0 142 59t57 151t-57 150q-57 59 -142 59h-109v199q92 0 151 57t59 141q0 91 -59 150q-58 58 -151 58
q-41 0 -80 -17q-36 -16 -66 -46q-28 -28 -46 -66q-18 -37 -18 -79v-1003h-198v1003q0 79 33 151q32 69 89 125q56 55 128 87q71 32 158 32q86 0 161 -30q71 -29 130 -84q56 -53 86 -122q31 -71 31 -149q0 -64 -19 -111q-18 -45 -43 -82z" />
    <glyph glyph-name="agrave" unicode="&#xe0;" horiz-adv-x="970" 
d="M206 925q103 89 285 89q87 0 158 -28q73 -29 122 -75t78 -112q28 -62 28 -138v-650h-35q-49 0 -90.5 27t-61.5 72q-28 -30 -69 -55q-43 -25 -89 -39q-52 -16 -129 -16q-165 0 -253 83q-89 83 -89 214q0 75 29 136q28 59 98 103q68 42 189 68q122 24 301 23v34
q0 76 -47 120q-48 45 -140 45q-100 0 -144 -35q-45 -36 -54 -86h-198q9 131 111 220zM447 1430l132 -265h-132l-188 265h188zM299 210q42 -34 115 -34q125 0 195 65q70 64 69 157v54q-135 0 -213 -13q-84 -12 -128 -32q-46 -21 -61 -53q-16 -33 -17 -68q0 -42 40 -76z" />
    <glyph glyph-name="aacute" unicode="&#xe1;" horiz-adv-x="970" 
d="M206 925q103 89 285 89q87 0 158 -28q73 -29 122 -75t78 -112q28 -62 28 -138v-650h-35q-49 0 -90.5 27t-61.5 72q-28 -30 -69 -55q-43 -25 -89 -39q-52 -16 -129 -16q-165 0 -253 83q-89 83 -89 214q0 75 29 136q28 59 98 103q68 42 189 68q122 24 301 23v34
q0 76 -47 120q-48 45 -140 45q-100 0 -144 -35q-45 -36 -54 -86h-198q9 131 111 220zM299 210q42 -34 115 -34q125 0 195 65q70 64 69 157v54q-135 0 -213 -13q-84 -12 -128 -32q-46 -21 -61 -53q-16 -33 -17 -68q0 -42 40 -76zM425 1165l132 265h188l-188 -265h-132z" />
    <glyph glyph-name="acircumflex" unicode="&#xe2;" horiz-adv-x="970" 
d="M206 925q103 89 285 89q87 0 158 -28q73 -29 122 -75t78 -112q28 -62 28 -138v-650h-35q-49 0 -90.5 27t-61.5 72q-28 -30 -69 -55q-43 -25 -89 -39q-52 -16 -129 -16q-165 0 -253 83q-89 83 -89 214q0 75 29 136q28 59 98 103q68 42 189 68q122 24 301 23v34
q0 76 -47 120q-48 45 -140 45q-100 0 -144 -35q-45 -36 -54 -86h-198q9 131 111 220zM579 1421l199 -264h-176l-111 154l-110 -154h-176l198 264h176zM299 210q42 -34 115 -34q125 0 195 65q70 64 69 157v54q-135 0 -213 -13q-84 -12 -128 -32q-46 -21 -61 -53
q-16 -33 -17 -68q0 -42 40 -76z" />
    <glyph glyph-name="atilde" unicode="&#xe3;" horiz-adv-x="970" 
d="M206 925q103 89 285 89q87 0 158 -28q73 -29 122 -75t78 -112q28 -62 28 -138v-650h-35q-49 0 -90.5 27t-61.5 72q-28 -30 -69 -55q-43 -25 -89 -39q-52 -16 -129 -16q-165 0 -253 83q-89 83 -89 214q0 75 29 136q28 59 98 103q68 42 189 68q122 24 301 23v34
q0 76 -47 120q-48 45 -140 45q-100 0 -144 -35q-45 -36 -54 -86h-198q9 131 111 220zM754 1190q-59 -67 -142 -67q-49 0 -84 22q-39 25 -58 45q-3 3 -48 45q-24 21 -52 21q-32 0 -61 -33q-28 -33 -27 -89h-111q0 132 59 199q58 66 142 66q48 0 81 -21q38 -24 60 -45
q8 -7 24.5 -22t24.5 -23q21 -20 52 -22q34 0 61 33q28 32 28 89h109q0 -133 -58 -198zM299 210q42 -34 115 -34q125 0 195 65q70 64 69 157v54q-135 0 -213 -13q-84 -12 -128 -32q-46 -21 -61 -53q-16 -33 -17 -68q0 -42 40 -76z" />
    <glyph glyph-name="adieresis" unicode="&#xe4;" horiz-adv-x="970" 
d="M206 925q103 89 285 89q87 0 158 -28q73 -29 122 -75t78 -112q28 -62 28 -138v-650h-35q-49 0 -90.5 27t-61.5 72q-28 -30 -69 -55q-43 -25 -89 -39q-52 -16 -129 -16q-165 0 -253 83q-89 83 -89 214q0 75 29 136q28 59 98 103q68 42 189 68q122 24 301 23v34
q0 76 -47 120q-48 45 -140 45q-100 0 -144 -35q-45 -36 -54 -86h-198q9 131 111 220zM390 1363q35 -34 35 -85t-35 -86t-86 -35q-52 0 -87 35t-34 86q0 51 34 85q36 36 87 36q50 0 86 -36zM299 210q42 -34 115 -34q125 0 195 65q70 64 69 157v54q-135 0 -213 -13
q-84 -12 -128 -32q-46 -21 -61 -53q-16 -33 -17 -68q0 -42 40 -76zM764 1363q36 -35 36 -85t-36 -86q-35 -35 -86 -35t-86 35q-36 36 -35 86q0 50 35 85q36 36 86 36t86 -36z" />
    <glyph glyph-name="ae" unicode="&#xe6;" horiz-adv-x="1611" 
d="M1538 297q-26 -64 -62 -115q-38 -54 -89 -95q-53 -42 -119 -64q-69 -23 -149 -23q-81 0 -140 25q-61 26 -104 57q-48 35 -86 83q-37 -46 -91 -83q-48 -32 -113 -57q-66 -25 -160 -25q-184 0 -273 82q-91 83 -91 215q0 64 29 122q28 57 98 99q70 43 188 65q121 23 302 23
v55q0 76 -47 120q-48 45 -140 45q-100 0 -144 -35q-45 -36 -54 -86h-198q9 131 111 220q103 89 285 89q77 0 133 -27q62 -30 94 -57q42 -37 71 -82q39 45 86 82q38 28 100 57q59 27 133 27q86 0 167 -38q79 -38 141 -105q59 -65 96 -160q36 -93 36 -204q0 -5 -2 -25
q-1 -6 -2.5 -15.5t-1.5 -10.5q0 -5 -2 -14t-2 -13h-675q5 -53 26 -94q23 -44 57 -77q34 -32 78 -52q42 -19 95 -19q79 0 132 39q54 40 78 71h209zM299 210q40 -34 115 -34q125 0 195 65q69 65 69 157v31q-137 0 -214 -10t-127 -31q-48 -20 -62 -46q-16 -29 -16 -56
q0 -42 40 -76zM1276 760q-69 66 -168 66q-49 0 -88 -18q-42 -20 -75 -51t-54 -74q-20 -39 -26 -88h496q-17 100 -85 165z" />
    <glyph glyph-name="ccedilla" unicode="&#xe7;" horiz-adv-x="1024" 
d="M972 374q-33 -149 -135 -250q-102 -100 -251 -124l-34 -78q59 -9 95 -47q38 -40 38 -96q0 -65 -51 -109q-52 -44 -158 -44q-27 0 -39 1q-20 2 -32 3q-14 1 -28 6v99q10 -4 26 -6q11 -1 27 -3q11 -1 35 -1q51 0 75 21t24 44q0 25 -24 46t-75 21q-9 0 -23 -2q-7 -1 -17 -6
q-3 -1 -8.5 -2.5t-7.5 -1.5l67 155q-87 9 -159 48q-75 40 -133 106t-93 155q-34 87 -34 198t36 204q35 90 102 160q64 67 151 105t185 38q85 0 160 -29q73 -28 131 -80q59 -53 95 -119q37 -67 55 -147h-210q-26 86 -82 136q-57 51 -149 51q-52 0 -104 -23q-50 -22 -88 -66
q-39 -46 -61 -102q-23 -60 -23 -128q0 -69 23 -129q22 -56 61 -102q38 -44 88 -66q52 -23 104 -23q92 0 150 52q57 51 81 135h210z" />
    <glyph glyph-name="egrave" unicode="&#xe8;" horiz-adv-x="1042" 
d="M961 297q-26 -64 -62 -115q-37 -53 -91 -95q-52 -40 -121 -64q-72 -24 -156 -23q-98 0 -185 38q-86 38 -151 104q-65 67 -101 159q-37 96 -37 206q0 108 37 204q36 94 99 161q65 68 147 104q87 38 180 38t180 -38q82 -36 147 -104q62 -65 99 -161t37 -204q0 -2 -3 -35
q-1 -6 -2.5 -16t-1.5 -12q-1 -6 -2.5 -14.5t-1.5 -10.5h-706q5 -47 27 -89q20 -39 56 -74q35 -33 82 -51q48 -18 100 -18q91 0 143 39t77 71h210zM454 1430l132 -265h-132l-188 265h188zM707 759q-70 67 -187 67q-100 0 -168 -67q-68 -66 -86 -176h529q-16 107 -88 176z" />
    <glyph glyph-name="eacute" unicode="&#xe9;" horiz-adv-x="1042" 
d="M961 297q-26 -64 -62 -115q-37 -53 -91 -95q-52 -40 -121 -64q-72 -24 -156 -23q-98 0 -185 38q-86 38 -151 104q-65 67 -101 159q-37 96 -37 206q0 108 37 204q36 94 99 161q65 68 147 104q87 38 180 38t180 -38q82 -36 147 -104q62 -65 99 -161t37 -204q0 -2 -3 -35
q-1 -6 -2.5 -16t-1.5 -12q-1 -6 -2.5 -14.5t-1.5 -10.5h-706q5 -47 27 -89q20 -39 56 -74q35 -33 82 -51q48 -18 100 -18q91 0 143 39t77 71h210zM707 759q-70 67 -187 67q-100 0 -168 -67q-68 -66 -86 -176h529q-16 107 -88 176zM454 1165l132 265h188l-188 -265h-132z" />
    <glyph glyph-name="ecircumflex" unicode="&#xea;" horiz-adv-x="1042" 
d="M961 297q-26 -64 -62 -115q-37 -53 -91 -95q-52 -40 -121 -64q-72 -24 -156 -23q-98 0 -185 38q-86 38 -151 104q-65 67 -101 159q-37 96 -37 206q0 108 37 204q36 94 99 161q65 68 147 104q87 38 180 38t180 -38q82 -36 147 -104q62 -65 99 -161t37 -204q0 -2 -3 -35
q-1 -6 -2.5 -16t-1.5 -12q-1 -6 -2.5 -14.5t-1.5 -10.5h-706q5 -47 27 -89q20 -39 56 -74q35 -33 82 -51q48 -18 100 -18q91 0 143 39t77 71h210zM608 1421l198 -264h-176l-110 154l-110 -154h-176l198 264h176zM707 759q-70 67 -187 67q-100 0 -168 -67q-68 -66 -86 -176
h529q-16 107 -88 176z" />
    <glyph glyph-name="edieresis" unicode="&#xeb;" horiz-adv-x="1042" 
d="M961 297q-26 -64 -62 -115q-37 -53 -91 -95q-52 -40 -121 -64q-72 -24 -156 -23q-98 0 -185 38q-86 38 -151 104q-65 67 -101 159q-37 96 -37 206q0 108 37 204q36 94 99 161q65 68 147 104q87 38 180 38t180 -38q82 -36 147 -104q62 -65 99 -161t37 -204q0 -2 -3 -35
q-1 -6 -2.5 -16t-1.5 -12q-1 -6 -2.5 -14.5t-1.5 -10.5h-706q5 -47 27 -89q20 -39 56 -74q35 -33 82 -51q48 -18 100 -18q91 0 143 39t77 71h210zM419 1363q35 -34 35 -85t-35 -86t-86 -35t-86 35q-36 36 -36 86t36 85q36 36 86 36t86 -36zM707 759q-70 67 -187 67
q-100 0 -168 -67q-68 -66 -86 -176h529q-16 107 -88 176zM793 1363q36 -35 36 -85t-36 -86q-35 -35 -86 -35t-86 35t-35 86t35 85q36 36 86 36t86 -36z" />
    <glyph glyph-name="igrave" unicode="&#xec;" horiz-adv-x="407" 
d="M148 1421l133 -264h-133l-187 264h187zM302 1003v-992h-198v992h198z" />
    <glyph glyph-name="iacute" unicode="&#xed;" horiz-adv-x="407" 
d="M302 1003v-992h-198v992h198zM138 1157l131 264h188l-188 -264h-131z" />
    <glyph glyph-name="icircumflex" unicode="&#xee;" horiz-adv-x="405" 
d="M290 1421l198 -264h-176l-110 154l-110 -154h-176l198 264h176zM301 1003v-992h-198v992h198z" />
    <glyph glyph-name="idieresis" unicode="&#xef;" horiz-adv-x="405" 
d="M101 1363q36 -35 36 -85t-36 -86q-35 -35 -86 -35t-86 35t-35 86t35 85q36 36 86 36t86 -36zM301 1003v-992h-198v992h198zM476 1363q35 -34 35 -85t-35 -86t-86 -35q-52 0 -87 35t-35 86t35 85q36 36 87 36q50 0 86 -36z" />
    <glyph glyph-name="ntilde" unicode="&#xf1;" horiz-adv-x="1064" 
d="M449 995q57 19 129 19q82 0 155 -33q74 -33 126 -88q52 -54 85 -136q31 -78 31 -174v-572h-198v572q0 51 -19 93q-18 44 -51 77q-35 35 -74 53q-40 18 -88 20q-54 0 -95 -20q-43 -20 -77 -53q-33 -33 -51 -77q-18 -45 -20 -93v-572h-198v992h144l44 -100q27 30 67 56
q36 19 90 36zM819 1212q-59 -66 -142 -66q-52 0 -83 20q-36 23 -59 46q-10 10 -27.5 26t-21.5 19q-22 19 -51 21q-34 0 -60 -32q-28 -32 -28 -89h-110q0 133 58 198q57 64 142 66q49 0 82 -21q39 -24 59 -45q36 -34 48 -46q20 -20 53 -20t61 32q29 33 27 89h111
q0 -131 -59 -198z" />
    <glyph glyph-name="ograve" unicode="&#xf2;" horiz-adv-x="1062" 
d="M969 711q35 -90 35 -204q0 -116 -35 -206q-35 -91 -103 -159q-65 -67 -150 -104q-87 -38 -185 -38t-185 38q-86 38 -151 104t-102 159q-37 97 -36 206q0 111 36 204q36 94 102 161q65 66 151 104q87 38 185 38t185 -38q85 -37 150 -104q65 -66 103 -161zM783 378
q23 56 23 129t-23 129q-22 54 -61 101q-38 44 -88 66q-49 23 -103 23q-55 0 -104 -23q-50 -24 -88 -66q-38 -44 -60 -101q-24 -58 -24 -129t24 -129q23 -57 60 -101q37 -43 88 -67q52 -24 104 -23q51 0 103 23q51 24 88 67q40 46 61 101zM476 1421l132 -264h-132l-187 264
h187z" />
    <glyph glyph-name="oacute" unicode="&#xf3;" horiz-adv-x="1062" 
d="M969 711q35 -90 35 -204q0 -116 -35 -206q-35 -91 -103 -159q-65 -67 -150 -104q-87 -38 -185 -38t-185 38q-86 38 -151 104t-102 159q-37 97 -36 206q0 111 36 204q36 94 102 161q65 66 151 104q87 38 185 38t185 -38q85 -37 150 -104q65 -66 103 -161zM783 378
q23 56 23 129t-23 129q-22 54 -61 101q-38 44 -88 66q-49 23 -103 23q-55 0 -104 -23q-50 -24 -88 -66q-38 -44 -60 -101q-24 -58 -24 -129t24 -129q23 -57 60 -101q37 -43 88 -67q52 -24 104 -23q51 0 103 23q51 24 88 67q40 46 61 101zM476 1157l132 264h187l-187 -264
h-132z" />
    <glyph glyph-name="ocircumflex" unicode="&#xf4;" horiz-adv-x="1062" 
d="M969 711q35 -90 35 -204q0 -116 -35 -206q-35 -91 -103 -159q-65 -67 -150 -104q-87 -38 -185 -38t-185 38q-86 38 -151 104t-102 159q-37 97 -36 206q0 111 36 204q36 94 102 161q65 66 151 104q87 38 185 38t185 -38q85 -37 150 -104q65 -66 103 -161zM619 1421
l198 -264h-176l-110 154l-110 -154h-176l198 264h176zM783 378q23 56 23 129t-23 129q-22 54 -61 101q-38 44 -88 66q-49 23 -103 23q-55 0 -104 -23q-50 -24 -88 -66q-38 -44 -60 -101q-24 -58 -24 -129t24 -129q23 -57 60 -101q37 -43 88 -67q52 -24 104 -23q51 0 103 23
q51 24 88 67q40 46 61 101z" />
    <glyph glyph-name="otilde" unicode="&#xf5;" horiz-adv-x="1062" 
d="M969 711q35 -90 35 -204q0 -116 -35 -206q-35 -91 -103 -159q-65 -67 -150 -104q-87 -38 -185 -38t-185 38q-86 38 -151 104t-102 159q-37 97 -36 206q0 111 36 204q36 94 102 161q65 66 151 104q87 38 185 38t185 -38q85 -37 150 -104q65 -66 103 -161zM794 1201
q-58 -67 -142 -67q-49 0 -84 22q-39 25 -58 45q-17 17 -49 45q-23 20 -52 20q-33 0 -60 -31q-28 -32 -28 -89h-110q0 133 58 198q58 66 142 66q49 0 82 -21q38 -24 59 -45q10 -9 26.5 -24t23.5 -21q21 -21 53 -21q33 0 60 31q28 32 28 90h110q0 -131 -59 -198zM783 378
q23 56 23 129t-23 129q-22 54 -61 101q-38 44 -88 66q-49 23 -103 23q-55 0 -104 -23q-50 -24 -88 -66q-38 -44 -60 -101q-24 -58 -24 -129t24 -129q23 -57 60 -101q37 -43 88 -67q52 -24 104 -23q51 0 103 23q51 24 88 67q40 46 61 101z" />
    <glyph glyph-name="odieresis" unicode="&#xf6;" horiz-adv-x="1062" 
d="M969 711q35 -90 35 -204q0 -116 -35 -206q-35 -91 -103 -159q-65 -67 -150 -104q-87 -38 -185 -38t-185 38q-86 38 -151 104t-102 159q-37 97 -36 206q0 111 36 204q36 94 102 161q65 66 151 104q87 38 185 38t185 -38q85 -37 150 -104q65 -66 103 -161zM430 1363
q35 -34 35 -85t-35 -86t-86 -35t-86 35q-36 36 -36 86t36 85q36 36 86 36t86 -36zM783 378q23 56 23 129t-23 129q-22 54 -61 101q-38 44 -88 66q-49 23 -103 23q-55 0 -104 -23q-50 -24 -88 -66q-38 -44 -60 -101q-24 -58 -24 -129t24 -129q23 -57 60 -101q37 -43 88 -67
q52 -24 104 -23q51 0 103 23q51 24 88 67q40 46 61 101zM804 1363q36 -35 36 -85t-36 -86q-35 -35 -86 -35t-86 35q-36 36 -36 86t36 85q36 36 86 36t86 -36z" />
    <glyph glyph-name="oslash" unicode="&#xf8;" horiz-adv-x="1142" 
d="M387 976q87 38 184 38q72 0 129 -18q60 -19 96 -37q50 -27 84 -56l111 100l110 -122l-122 -110q22 -48 33 -75q16 -54 23 -83q11 -44 11 -104q0 -109 -37 -206q-36 -94 -101 -162q-62 -65 -151 -104q-84 -37 -186 -37q-73 0 -128 16t-95 39q-43 22 -84 55l-111 -99
l-110 121l122 110q-23 43 -34 75q-11 30 -23 84q-10 46 -10 106q0 111 36 204q35 90 102 160q64 67 151 105zM318 374l419 397q-23 18 -46 28q-24 12 -52 19q-32 8 -68 8q-53 0 -104 -23q-49 -22 -88 -66q-38 -43 -61 -102q-22 -57 -22 -128q0 -51 12 -91q6 -28 10 -42z
M825 639l-418 -397q21 -16 46 -29q17 -8 52 -19q29 -9 66 -7q54 0 105 23q48 22 87 67q39 46 61 102q23 60 23 130q0 24 -3 48q-2 20 -8 42q-8 28 -11 40z" />
    <glyph glyph-name="ugrave" unicode="&#xf9;" horiz-adv-x="1067" 
d="M613 16q-51 -16 -128 -16q-85 0 -156 31q-73 33 -126 88t-84 136q-31 78 -31 174v574h198v-574q0 -52 19 -94q19 -46 51 -78q33 -33 73 -51q44 -19 88 -19q47 0 93 19q44 18 77 51t53 78q20 44 21 94v574h198v-992h-144l-44 99q-28 -30 -69 -55q-43 -25 -89 -39z
M496 1430l132 -265h-132l-187 265h187z" />
    <glyph glyph-name="uacute" unicode="&#xfa;" horiz-adv-x="1067" 
d="M613 16q-51 -16 -128 -16q-85 0 -156 31q-73 33 -126 88t-84 136q-31 78 -31 174v574h198v-574q0 -52 19 -94q19 -46 51 -78q33 -33 73 -51q44 -19 88 -19q47 0 93 19q44 18 77 51t53 78q20 44 21 94v574h198v-992h-144l-44 99q-28 -30 -69 -55q-43 -25 -89 -39z
M452 1167l132 265h187l-187 -265h-132z" />
    <glyph glyph-name="ucircumflex" unicode="&#xfb;" horiz-adv-x="1067" 
d="M613 16q-51 -16 -128 -16q-85 0 -156 31q-73 33 -126 88t-84 136q-31 78 -31 174v574h198v-574q0 -52 19 -94q19 -46 51 -78q33 -33 73 -51q44 -19 88 -19q47 0 93 19q44 18 77 51t53 78q20 44 21 94v574h198v-992h-144l-44 99q-28 -30 -69 -55q-43 -25 -89 -39z
M606 1421l198 -264h-176l-111 154l-109 -154h-177l198 264h177z" />
    <glyph glyph-name="udieresis" unicode="&#xfc;" horiz-adv-x="1067" 
d="M613 16q-51 -16 -128 -16q-85 0 -156 31q-73 33 -126 88t-84 136q-31 78 -31 174v574h198v-574q0 -52 19 -94q19 -46 51 -78q33 -33 73 -51q44 -19 88 -19q47 0 93 19q44 18 77 51t53 78q20 44 21 94v574h198v-992h-144l-44 99q-28 -30 -69 -55q-43 -25 -89 -39z
M427 1363q36 -35 36 -85t-36 -86q-35 -35 -86 -35t-85 35q-36 36 -36 86t36 85q36 36 85 36q50 0 86 -36zM801 1363q36 -35 36 -85t-36 -86q-35 -35 -85 -35q-51 0 -86 35t-35 86t35 85q36 36 86 36t85 -36z" />
    <glyph glyph-name="florin" unicode="&#x192;" horiz-adv-x="815" 
d="M557 843l-133 -694q-32 -166 -123 -254t-251 -88q-27 0 -39 1q-16 1 -31 3q-11 1 -29 7l44 189q10 -4 23 -6q23 -7 54 -7q135 0 165 155l132 694h-164l32 176h166l44 209q37 168 126 254q90 87 248 87q13 0 39 -2q8 -1 19 -2.5t13 -1.5q5 -1 14.5 -2.5t13.5 -1.5
l-44 -190q-7 1 -21 7q-2 0 -11 1.5t-14 2.5q-18 2 -30 2q-135 0 -166 -154l-44 -209h221l-34 -176h-220z" />
    <glyph glyph-name="perthousand" unicode="&#x2030;" horiz-adv-x="2054" 
d="M634 1382q23 -54 23 -109q0 -56 -23 -110q-22 -52 -63 -91q-44 -42 -91 -63q-52 -23 -109 -23q-55 0 -109 23q-48 21 -92 63q-41 39 -63 91q-23 54 -23 110q0 55 23 109q22 52 63 91q44 42 91 63q52 23 110 23q57 0 109 -23q47 -21 91 -63q41 -39 63 -91zM349 171h-154
l848 1388h155zM230 1335q-14 -31 -14 -62q0 -32 14 -63q15 -33 35 -53q24 -24 50 -37t56 -13q31 0 57 13q27 14 49 37t35 53q13 29 13 63q0 33 -13 62q-13 30 -35 53q-22 24 -50 37q-27 13 -56 13q-30 0 -56 -13t-50 -37q-20 -20 -35 -53zM746 348q-23 52 -23 109
q0 55 23 109q23 53 63 92q41 40 92 62q52 23 109 23t109 -23q49 -22 91 -62q40 -39 63 -92q24 -56 24 -109q0 -55 -24 -109q-22 -50 -63 -91t-91 -63q-52 -23 -109 -23q-55 0 -109 23q-51 22 -92 63t-63 91zM1151 394q13 29 13 63t-13 63q-14 31 -36 53q-23 23 -49 36
q-28 14 -56 14t-56 -14t-50 -36q-20 -20 -35 -53q-14 -31 -14 -63t14 -63q15 -33 35 -53q22 -22 50 -36q26 -13 56 -13t56 13t49 36q22 22 36 53zM1419 348q-23 52 -23 109q0 55 23 109q23 53 63 92q42 40 91 62q52 23 109 23q55 0 109 -23q51 -22 91 -62q41 -41 63 -92
q23 -54 23 -109q0 -57 -23 -109q-21 -47 -63 -91q-39 -41 -91 -63q-54 -23 -109 -23q-57 0 -109 23q-50 22 -91 63t-63 91zM1823 394q14 31 14 63t-14 63q-15 33 -35 53q-22 22 -50 36t-56 14q-29 0 -57 -14q-26 -13 -49 -36q-20 -20 -35 -53q-13 -29 -13 -63t13 -63
q15 -33 35 -53q23 -23 50 -36t56 -13q30 0 56 13q28 14 50 36q20 20 35 53z" />
    <glyph glyph-name="Euro" unicode="&#x20ac;" horiz-adv-x="1560" 
d="M247 828v26v23q0 9 2 23q0 8 2 20h-155v165h185q44 137 126 242q32 45 80 90q44 42 103 77q56 34 130 55q70 20 158 20q112 0 209 -38q95 -37 171 -104q73 -65 128 -154q52 -85 77 -188h-221q-16 59 -49 116q-32 55 -78 95q-47 41 -106 63q-61 23 -131 23q-53 0 -95 -13
q-44 -14 -79 -34q-40 -23 -65 -47q-30 -28 -51 -55q-53 -66 -86 -148h376v-165h-418q0 -2 -1.5 -9t-2.5 -11q-3 -21 -3 -23v-23v-26q0 -4 3 -25q0 -4 2 -13t2 -14h418v-164h-374q32 -75 84 -132q43 -51 115 -92q71 -41 175 -41q70 0 131 23q57 21 106 64q46 40 78 95
q31 53 49 115h221q-25 -98 -78 -187q-52 -88 -127 -154q-78 -69 -171 -105q-97 -38 -209 -38q-84 0 -158 20q-72 20 -130 50q-51 27 -103 72q-47 41 -80 83q-77 96 -122 227h-189v165h155q-2 18 -2 26q-2 14 -2 25z" />
    <glyph glyph-name="trademark" unicode="&#x2122;" horiz-adv-x="1239" 
d="M522 1289h-165v-452h-122v452h-165v110h452v-110zM908 1014h-67l-120 176v-353h-122v562h99l176 -253l177 253h99v-562h-122v353z" />
    </font>
</defs>
</svg>
