<?xml version="1.0" standalone="no"?>
<!DOCTYPE svg PUBLIC "-//W3C//DTD SVG 1.1//EN" "http://www.w3.org/Graphics/SVG/1.1/DTD/svg11.dtd" >
<svg xmlns="http://www.w3.org/2000/svg" xmlns:xlink="http://www.w3.org/1999/xlink" version="1.1">
<metadata>
Created by FontForge 20170731 at Mon Jan 31 23:10:13 2022
 By Aleksey,,,
</metadata>
<defs>
<font id="KineticBold" horiz-adv-x="1323" >
  <font-face 
    font-family="Kinetic"
    font-weight="700"
    font-stretch="normal"
    units-per-em="2048"
    panose-1="0 0 0 0 0 0 0 0 0 0"
    ascent="1638"
    descent="-410"
    x-height="1001"
    cap-height="1388"
    bbox="-111 -437 2101 1904"
    underline-thickness="102"
    underline-position="-307"
    unicode-range="U+000A-2122"
  />
<missing-glyph horiz-adv-x="1079" 
d="M102 1434h875v-1434h-875v1434zM160 1393l379 -633l381 633h-760zM514 717l-369 614v-1231zM541 674l-379 -631h758zM565 717l371 -621v1239z" />
    <glyph glyph-name=".notdef" horiz-adv-x="1079" 
d="M102 1434h875v-1434h-875v1434zM160 1393l379 -633l381 633h-760zM514 717l-369 614v-1231zM541 674l-379 -631h758zM565 717l371 -621v1239z" />
    <glyph glyph-name=".null" horiz-adv-x="0" 
 />
    <glyph glyph-name=".null" horiz-adv-x="0" 
 />
    <glyph glyph-name="nonmarkingreturn" horiz-adv-x="682" 
 />
    <glyph glyph-name="controlLF" unicode="&#xa;" horiz-adv-x="0" 
 />
    <glyph glyph-name="controlCR" unicode="&#xd;" horiz-adv-x="0" 
 />
    <glyph glyph-name="space" unicode=" " horiz-adv-x="571" 
 />
    <glyph glyph-name="exclam" unicode="!" horiz-adv-x="550" 
d="M451 1484l-33 -969h-287l-33 969h353zM390 366q50 -50 50 -116q0 -65 -50 -115t-115 -50q-66 0 -116 50t-50 115q0 66 50 116t116 50q65 0 115 -50z" />
    <glyph glyph-name="quotedbl" unicode="&#x22;" horiz-adv-x="821" 
d="M349 1484v-451h-275v451h275zM746 1484v-451h-276v451h276z" />
    <glyph glyph-name="quotedbl" unicode="&#x201d;" horiz-adv-x="821" 
d="M349 1484v-451h-275v451h275zM746 1484v-451h-276v451h276z" />
    <glyph glyph-name="quotedbl" unicode="&#x201c;" horiz-adv-x="821" 
d="M349 1484v-451h-275v451h275zM746 1484v-451h-276v451h276z" />
    <glyph glyph-name="numbersign" unicode="#" horiz-adv-x="1546" 
d="M179 911l55 243h243l66 330h242l-66 -330h242l66 330h243l-66 -330h264l-55 -243h-253l-44 -242h253l-55 -242h-243l-66 -331h-242l66 331h-242l-66 -331h-243l66 331h-264l55 242h253l44 242h-253zM675 911l-44 -242h242l44 242h-242z" />
    <glyph glyph-name="dollar" unicode="$" horiz-adv-x="1214" 
d="M469 -91v187q-183 33 -279 154q-96 122 -96 287l309 22q0 -188 198 -188q93 0 140 43t47 101q0 53 -50 81q-54 30 -127 53q-112 35 -164 51q-90 27 -164 74q-76 48 -127 124t-51 201q0 69 26 133q25 62 73 113t115 86q68 35 150 53v188h286v-199q79 -19 136 -56
q60 -39 103 -94q45 -58 68 -123q24 -69 24 -145l-309 -22q0 84 -46 130t-130 46q-74 0 -120 -41q-45 -40 -45 -91q0 -52 50 -78q49 -26 127 -49q3 -1 164 -50q87 -26 164 -75q76 -48 127 -127q51 -80 51 -205q0 -72 -25 -135q-25 -64 -74 -117q-46 -51 -116 -91
q-67 -39 -149 -54v-187h-286z" />
    <glyph glyph-name="percent" unicode="%" horiz-adv-x="1478" 
d="M101 1065q-23 57 -23 122t23 122q23 55 65 98q43 43 98 65q57 23 122 23q66 0 123 -23q56 -22 98 -65q43 -43 65 -98q23 -57 23 -122t-23 -122t-65 -99t-98 -65q-57 -23 -123 -23q-65 0 -122 23q-56 23 -98 65t-65 99zM1290 1484l-849 -1388h-253l848 1388h254zM472 1101
q36 36 36 86q0 48 -36 86q-37 35 -86 35q-51 0 -86 -35t-35 -86q0 -52 35 -86q35 -35 86 -35t86 35zM1377 516q23 -57 23 -122q0 -66 -23 -123q-22 -55 -65 -98q-42 -43 -98 -65q-57 -23 -123 -23q-65 0 -122 23q-55 23 -98 65q-43 43 -65 98q-23 57 -23 123q0 65 23 122
q22 56 65 98t98 65q57 23 122 23q66 0 123 -23q56 -23 98 -65q43 -42 65 -98zM1006 479q-36 -36 -36 -85q0 -52 36 -86q36 -36 85 -36q50 0 86 36t36 86q0 47 -36 85q-38 36 -86 36q-49 0 -85 -36z" />
    <glyph glyph-name="ampersand" unicode="&#x26;" horiz-adv-x="1482" 
d="M1425 96h-363l-143 143q-45 -45 -106 -83q-52 -32 -127 -57t-175 -25q-97 0 -178 28t-131 74q-53 48 -81 112q-29 66 -29 139q0 95 39 167q40 74 87 121q59 59 128 97l-67 77q-5 6 -33 40q-19 23 -36 56t-29 74q-12 42 -12 95q0 66 30 128t80 109t122 76q69 28 154 28
q82 0 153 -28t122 -76t81 -109t30 -128q0 -51 -14 -95q-12 -39 -32 -73q-21 -34 -39 -52q-7 -7 -37 -34l-110 -88l176 -176l100 143h341l-242 -341zM449 396q39 -36 95 -36q36 0 67 14q30 14 52 31q20 16 46 44l-198 198q-30 -24 -51 -46q-19 -23 -33 -52q-15 -30 -15 -67
q0 -52 37 -86zM473 1045q30 -38 71 -79q56 41 89 79q32 37 32 87q0 58 -30 89q-30 32 -80 32q-51 0 -81 -32q-29 -30 -29 -89q0 -52 28 -87z" />
    <glyph glyph-name="quotesingle" unicode="'" horiz-adv-x="423" 
d="M349 1484v-451h-275v451h275z" />
    <glyph glyph-name="quotesingle" unicode="&#x2019;" horiz-adv-x="423" 
d="M349 1484v-451h-275v451h275z" />
    <glyph glyph-name="quotesingle" unicode="&#x2018;" horiz-adv-x="423" 
d="M349 1484v-451h-275v451h275z" />
    <glyph glyph-name="parenleft" unicode="(" horiz-adv-x="718" 
d="M445 907q-38 -142 -38 -315q0 -176 38 -319q38 -145 87 -254q56 -125 128 -231l-231 -155q-92 118 -165 269q-63 124 -115 302q-51 174 -51 388q0 212 51 387q52 178 115 303q71 149 165 268l231 -154q-73 -111 -128 -233q-48 -112 -87 -256z" />
    <glyph glyph-name="parenright" unicode=")" horiz-adv-x="718" 
d="M271 273q40 151 40 319q0 166 -40 315q-37 138 -88 256q-56 124 -126 233l232 154q94 -119 165 -268q59 -122 113 -303q52 -179 52 -387q0 -216 -52 -388q-55 -181 -113 -302q-73 -151 -165 -269l-232 155q69 104 126 231q51 115 88 254z" />
    <glyph glyph-name="asterisk" unicode="*" horiz-adv-x="831" 
d="M327 1275l-11 220h198l-11 -220l199 77l55 -176l-209 -55l143 -177l-155 -110l-121 188l-121 -188l-154 110l143 177l-209 55l55 176z" />
    <glyph glyph-name="plus" unicode="+" horiz-adv-x="1048" 
d="M386 1110h276v-320h308v-264h-308v-320h-276v320h-308v264h308v320z" />
    <glyph glyph-name="comma" unicode="," horiz-adv-x="479" 
d="M121 366q50 50 116 50q67 0 116 -51q49 -50 49 -126q0 -106 -34 -177q-35 -72 -76 -118q-45 -52 -110 -90l-55 77q23 14 46 39q16 17 36 49q20 31 28 66q-66 0 -116 50q-49 49 -49 115q0 67 49 116z" />
    <glyph glyph-name="hyphen" unicode="-" horiz-adv-x="808" 
d="M68 526v264h672v-264h-672z" />
    <glyph glyph-name="period" unicode="." horiz-adv-x="471" 
d="M119 135q-49 49 -49 115q0 67 49 116q50 50 116 50t116 -50q49 -49 49 -116q0 -66 -49 -115q-50 -50 -116 -50t-116 50z" />
    <glyph glyph-name="slash" unicode="/" horiz-adv-x="856" 
d="M825 1484l-573 -1785h-287l573 1785h287z" />
    <glyph glyph-name="zero" unicode="0" horiz-adv-x="1380" 
d="M140 403q-46 129 -46 297q0 167 46 296q47 132 127 221q83 92 190 139q112 49 232 49q121 0 233 -49q106 -46 189 -139q80 -89 127 -221q46 -129 46 -296q0 -168 -46 -297q-47 -132 -127 -221q-83 -93 -189 -139q-112 -49 -233 -49q-120 0 -232 49q-107 47 -190 139
q-80 89 -127 221zM941 526q24 80 24 174q0 95 -24 173q-23 73 -60 123q-38 50 -88 75t-104 25q-53 0 -103 -25q-52 -26 -89 -75q-37 -50 -60 -123q-23 -75 -23 -173q0 -97 23 -174q23 -76 60 -125q38 -50 89 -74t103 -24q53 0 104 24q50 23 88 74q37 49 60 125z" />
    <glyph glyph-name="one" unicode="1" horiz-adv-x="786" 
d="M421 1394h253v-1388h-319v991l-143 -99l-155 242z" />
    <glyph glyph-name="two" unicode="2" horiz-adv-x="1159" 
d="M575 314h485v-308h-959v220l507 529q29 30 59 72q26 34 43 71q19 41 19 77q0 66 -39 105q-38 38 -115 38q-84 0 -130 -46t-46 -130l-309 22q0 95 34 175t97 140t152 93q90 33 202 33q116 0 205 -31q90 -32 153 -87q63 -56 95 -133q32 -78 32 -168q0 -80 -34 -151
q-35 -72 -76 -127q-43 -57 -111 -119z" />
    <glyph glyph-name="three" unicode="3" horiz-adv-x="1210" 
d="M419 986l-320 22q4 78 41 151q36 73 100 126q64 54 153 87t202 33q112 0 202 -32q88 -31 152 -86q62 -53 97 -123q34 -68 34 -145q0 -75 -30 -129q-28 -50 -65 -89q-38 -38 -93 -68q64 -30 111 -75q40 -37 76 -106q34 -65 34 -161q0 -80 -34 -151q-33 -69 -100 -125
q-65 -54 -159 -87q-97 -34 -214 -34t-214 34q-96 34 -161 88q-66 56 -102 129q-37 75 -41 157l320 22q9 -57 56 -100t131 -43q91 0 140 44q47 43 47 110q0 57 -49 100t-149 43h-132v265h132q93 0 134 37q42 38 42 95t-46 100t-130 43q-76 0 -116 -37t-49 -95z" />
    <glyph glyph-name="four" unicode="4" horiz-adv-x="1239" 
d="M1151 556v-308h-144v-242h-319v242h-606v286l546 860h379v-838h144zM688 997l-276 -441h276v441z" />
    <glyph glyph-name="five" unicode="5" horiz-adv-x="1210" 
d="M567 944q35 9 76 9q99 0 185 -36q85 -36 151 -102q65 -65 101 -151q37 -88 37 -185q0 -101 -38 -191q-39 -92 -105 -154q-69 -64 -165 -102q-95 -37 -210 -37q-107 0 -196 33t-153 87q-68 57 -105 125q-40 74 -53 151l320 22q10 -37 35 -66q19 -24 57 -45t95 -21
q84 0 141 57t57 141t-57 141q-58 58 -141 58q-55 0 -90 -18q-36 -18 -58 -37q-24 -24 -39 -56h-287l88 827h805v-309h-538l-24 -187q25 16 53 26q28 12 58 20z" />
    <glyph glyph-name="six" unicode="6" horiz-adv-x="1206" 
d="M814 32q-97 -38 -210 -38q-116 0 -212 38q-94 37 -163 102q-67 63 -106 154q-37 87 -37 191q0 74 21 143t45 120q28 59 66 112l364 540h330l-297 -441q99 9 191 -24q91 -33 161 -97q72 -66 113 -154q42 -90 42 -199q0 -101 -38 -191q-39 -91 -106 -154q-70 -65 -164 -102
zM463 630q-57 -58 -57 -151t57 -151t141 -58t141 58t57 151t-57 151q-57 59 -141 59t-141 -59z" />
    <glyph glyph-name="seven" unicode="7" horiz-adv-x="1081" 
d="M80 1394h925v-254l-528 -1134h-344l509 1079h-562v309z" />
    <glyph glyph-name="eight" unicode="8" horiz-adv-x="1224" 
d="M827 29q-97 -35 -215 -35t-215 35t-163 92t-103 134t-37 158q0 93 34 157q33 62 76 105q47 47 111 80q-45 28 -84 68q-29 32 -56 89q-26 55 -26 129q0 76 33 145q33 68 95 123t147 86q87 32 188 32t188 -32q85 -31 147 -86t95 -123q33 -69 33 -145q0 -75 -27 -129
q-28 -56 -57 -89q-39 -40 -81 -68q62 -31 110 -80q43 -43 76 -105q34 -64 34 -157q0 -83 -36 -158t-104 -134q-66 -57 -163 -92zM757 561q-51 50 -145 50t-145 -50q-53 -51 -53 -126q0 -74 53 -125t145 -51t145 51t53 125q0 75 -53 126zM722 1119q-43 43 -110 43t-110 -43
q-44 -44 -44 -100t44 -100q43 -43 110 -43t110 43q44 44 44 100t-44 100z" />
    <glyph glyph-name="nine" unicode="9" horiz-adv-x="1204" 
d="M390 1367q96 38 212 38q113 0 210 -38q94 -37 164 -102q68 -64 106 -153q38 -90 38 -192q0 -74 -21 -143q-20 -66 -45 -119q-27 -57 -67 -113l-363 -539h-331l298 440q-99 -9 -191 24t-162 97q-69 63 -112 155q-42 90 -42 198q0 105 37 192q38 89 106 153q69 65 163 102z
M743 769q57 59 57 151t-57 151q-57 58 -141 58t-141 -58q-58 -60 -58 -151t58 -151q57 -58 141 -58t141 58z" />
    <glyph glyph-name="colon" unicode=":" horiz-adv-x="499" 
d="M134 840q-50 50 -50 115q0 66 50 116t115 50q66 0 116 -50t50 -116q0 -65 -50 -115t-116 -50q-65 0 -115 50zM134 135q-50 50 -50 115q0 66 50 116t115 50q66 0 116 -50t50 -116q0 -65 -50 -115t-116 -50q-65 0 -115 50z" />
    <glyph glyph-name="semicolon" unicode=";" horiz-adv-x="505" 
d="M136 840q-50 50 -50 115q0 66 50 116t115 50q66 0 116 -50t50 -116q0 -65 -50 -115t-116 -50q-65 0 -115 50zM136 366q50 50 115 50q67 0 116 -51q50 -52 50 -126q0 -104 -35 -177q-35 -72 -76 -118q-45 -52 -110 -90l-55 77q23 14 46 39q19 21 37 49q18 29 27 66
q-65 0 -115 50t-50 115q0 66 50 116z" />
    <glyph glyph-name="less" unicode="&#x3c;" horiz-adv-x="1007" 
d="M915 812l-507 -220l507 -221v-275l-837 375v242l837 375v-276z" />
    <glyph glyph-name="equal" unicode="=" horiz-adv-x="1028" 
d="M943 1022v-276h-859v276h859zM943 570v-276h-859v276h859z" />
    <glyph glyph-name="greater" unicode="&#x3e;" horiz-adv-x="1007" 
d="M599 592l-507 220v276l838 -375v-242l-838 -375v275z" />
    <glyph glyph-name="question" unicode="?" horiz-adv-x="1081" 
d="M970 1258q32 -70 32 -148q0 -75 -23 -127q-22 -51 -57 -94q-36 -44 -75 -77q-47 -42 -76 -77q-34 -39 -61 -94q-26 -53 -27 -126h-309q0 93 22 159q23 70 55 116q33 48 72 84q11 10 71 67q35 33 56 63q22 31 22 73q0 57 -39 94q-40 38 -105 38q-56 0 -100 -48
q-43 -47 -43 -139l-319 22q18 208 139 329q122 122 323 122q114 0 200 -31q88 -32 148 -83q62 -53 94 -123zM424 135q-50 50 -50 115q0 66 50 116t115 50q66 0 116 -50t50 -116q0 -65 -50 -115t-116 -50q-65 0 -115 50z" />
    <glyph glyph-name="at" unicode="@" horiz-adv-x="1710" 
d="M551 1273q140 57 299 57q165 0 307 -56q138 -54 244 -154q103 -97 162 -229t59 -277q0 -94 -27 -171t-73 -129q-48 -54 -105 -80q-62 -28 -126 -28q-65 0 -108 21t-75 45q-34 27 -59 66q-29 -38 -66 -66q-32 -23 -80 -45q-47 -21 -108 -21q-68 0 -132 28q-61 27 -108 78
q-48 53 -74 122q-27 72 -27 158q0 85 27 157q27 71 74 123q47 51 108 78t132 27q43 0 76 -16q38 -18 59 -34q32 -25 53 -49l33 77h176v-385q0 -92 29 -129q29 -36 70 -36q50 0 86 46q35 47 35 163q0 109 -43 205t-118 168t-178 114t-223 42q-118 0 -217 -43
q-100 -43 -175 -117t-117 -175q-42 -102 -42 -216q0 -116 42 -217q42 -100 117 -175t175 -117q101 -42 217 -42q71 0 128 15q50 13 99 36q55 26 88 50q29 -35 58 -78q36 -54 55 -80q-51 -38 -117 -66q-65 -27 -134 -45q-75 -19 -177 -19q-160 0 -299 57q-140 57 -242 156
q-103 100 -161 234t-58 291q0 155 58 289q57 132 161 234q103 101 242 158zM944 456q50 53 50 136q0 82 -50 135q-50 52 -116 52t-115 -52q-50 -53 -50 -135q0 -83 50 -136q48 -51 115 -51q68 0 116 51z" />
    <glyph glyph-name="A" unicode="A" 
d="M903 264h-484l-88 -264h-331l496 1388h330l496 -1388h-330zM507 540h308l-154 463z" />
    <glyph glyph-name="B" unicode="B" horiz-adv-x="1247" 
d="M1052 800q-37 -37 -82 -62q62 -29 110 -75q40 -37 76 -101q34 -61 34 -154q0 -84 -33 -158t-93 -129q-58 -54 -144 -88q-82 -33 -181 -33h-628v1388h595q96 0 174 -31q81 -32 135 -83q56 -53 88 -123t32 -148q0 -73 -26 -122q-27 -51 -57 -81zM430 1124v-287h243
q67 0 110 43q44 44 44 101q0 56 -44 100q-43 43 -110 43h-243zM430 264h276q73 0 125 50q51 50 51 116t-51 115q-52 50 -125 50h-276v-331z" />
    <glyph glyph-name="C" unicode="C" horiz-adv-x="1409" 
d="M589 327q66 -30 141 -30q131 0 208 63q77 64 101 147l330 -22q-25 -102 -79 -190t-137 -157q-81 -67 -188 -108q-108 -41 -235 -41q-140 0 -265 54q-124 54 -217 150t-147 223q-54 128 -54 278q0 148 54 277q53 127 147 224q93 96 217 150q125 54 265 54q124 0 228 -40
q103 -40 185 -108q79 -66 136 -158q54 -88 79 -190l-330 -22q-13 41 -38 80q-24 38 -61 66q-36 28 -87 46q-49 18 -112 18q-75 0 -141 -30q-64 -29 -115 -83t-79 -125t-28 -159t28 -159t79 -125t115 -83z" />
    <glyph glyph-name="D" unicode="D" horiz-adv-x="1327" 
d="M111 0v1388h473q145 0 271 -54q128 -55 221 -148q95 -95 149 -221t54 -271t-54 -271q-53 -124 -149 -220q-95 -95 -221 -149t-271 -54h-473zM430 309h154q81 0 148 29t119 81q51 51 79 121q29 72 29 154q0 80 -29 153t-79 123t-119 80t-148 30h-154v-771z" />
    <glyph glyph-name="E" unicode="E" horiz-adv-x="1196" 
d="M111 0v1388h991v-308h-672v-221h617v-308h-617v-242h694v-309h-1013z" />
    <glyph glyph-name="F" unicode="F" horiz-adv-x="1101" 
d="M111 0v1388h958v-308h-639v-287h518v-308h-518v-485h-319z" />
    <glyph glyph-name="G" unicode="G" horiz-adv-x="1478" 
d="M730 485v264h672v-749h-77q-65 0 -119 36t-79 96q-47 -41 -108 -73q-43 -23 -124 -48q-70 -22 -165 -22q-140 0 -265 54q-124 54 -217 150t-147 223q-54 128 -54 278q0 148 54 277q53 127 147 224q93 96 217 150q125 54 265 54q123 0 228 -39q102 -38 185 -107
q80 -67 136 -156q55 -87 79 -183l-330 -22q-13 35 -38 73q-26 37 -61 64q-37 29 -87 45q-51 17 -112 17q-75 0 -141 -30q-64 -29 -115 -83t-79 -125t-28 -159t28 -159t79 -125t115 -83q66 -30 141 -30q64 0 118 17q50 16 90 44q38 26 63 61t38 66h-309z" />
    <glyph glyph-name="H" unicode="H" horiz-adv-x="1390" 
d="M959 1388h320v-1388h-320v551h-529v-551h-319v1388h319v-529h529v529z" />
    <glyph glyph-name="I" unicode="I" horiz-adv-x="542" 
d="M430 1388v-1388h-319v1388h319z" />
    <glyph glyph-name="J" unicode="J" horiz-adv-x="1054" 
d="M638 1388h320v-925q0 -109 -34 -195q-35 -88 -96 -149t-149 -96q-86 -34 -195 -34q-108 0 -195 33q-86 33 -149 94q-61 60 -96 143q-34 81 -34 182q13 1 94 5q39 2 105 8q61 5 121 9q0 -74 44 -120t110 -46t110 46t44 120v925z" />
    <glyph glyph-name="K" unicode="K" horiz-adv-x="1249" 
d="M1245 0h-363l-452 617v-617h-319v1388h319v-595l419 595h363l-489 -683z" />
    <glyph glyph-name="L" unicode="L" horiz-adv-x="1069" 
d="M111 0v1388h319v-1079h628v-309h-947z" />
    <glyph glyph-name="M" unicode="M" horiz-adv-x="1697" 
d="M849 408l452 980h286v-1388h-320v694l-319 -694h-198l-320 694v-694h-319v1388h286z" />
    <glyph glyph-name="N" unicode="N" horiz-adv-x="1390" 
d="M959 1388h320v-1388h-287l-562 815v-815h-319v1388h286l562 -815v815z" />
    <glyph glyph-name="O" unicode="O" horiz-adv-x="1462" 
d="M1359 971q54 -129 54 -277q0 -150 -54 -278t-146 -223q-93 -96 -217 -150t-266 -54q-140 0 -265 54q-124 54 -217 150t-147 223q-54 128 -54 278q0 148 54 277q53 127 147 224q93 96 217 150q125 54 265 54q142 0 266 -54t217 -150q92 -95 146 -224zM1065 535
q29 73 29 159t-29 159t-78 125q-50 53 -116 83t-141 30t-141 -30q-64 -29 -115 -83t-79 -125t-28 -159t28 -159t79 -125t115 -83q66 -30 141 -30t141 30t116 83q49 52 78 125z" />
    <glyph glyph-name="P" unicode="P" horiz-adv-x="1179" 
d="M111 1388h539q109 0 199 -36q89 -36 156 -101q66 -65 104 -151q37 -84 37 -186q0 -101 -37 -185q-38 -86 -104 -151q-67 -65 -156 -101q-90 -36 -199 -36h-220v-441h-319v1388zM430 749h220q74 0 126 50q51 49 51 115q0 67 -51 116q-52 50 -126 50h-220v-331z" />
    <glyph glyph-name="Q" unicode="Q" horiz-adv-x="1478" 
d="M1237 -44l-143 143q-40 -30 -99 -55q-42 -20 -115 -38q-68 -17 -150 -17q-140 0 -265 54q-124 54 -217 150t-147 223q-54 128 -54 278q0 148 54 277q53 127 147 224q93 96 217 150q125 54 265 54q142 0 266 -54t217 -150q92 -95 146 -224t54 -277q0 -96 -21 -173
q-20 -74 -45 -131q-28 -63 -66 -115l132 -132zM1087 621q7 40 7 73q0 86 -29 159t-78 125q-50 53 -116 83t-141 30t-141 -30q-64 -29 -115 -83t-79 -125t-28 -159t28 -159t79 -125t115 -83q66 -30 141 -30q50 0 95 12q19 4 37 11l-143 143l176 187l155 -154q12 25 22 62
q10 30 15 63z" />
    <glyph glyph-name="R" unicode="R" horiz-adv-x="1239" 
d="M111 1388h562q106 0 197 -35q90 -37 153 -95t99 -140q35 -82 35 -170q0 -118 -40 -197q-38 -75 -91 -128q-52 -52 -133 -94l308 -529h-352l-254 463h-165v-463h-319v1388zM430 771h243q83 0 130 44q46 43 46 111q0 67 -46 110q-47 44 -130 44h-243v-309z" />
    <glyph glyph-name="S" unicode="S" horiz-adv-x="1146" 
d="M123 802q-51 76 -51 201q0 78 35 151q34 72 98 125q65 55 155 87q92 33 208 33q114 0 202 -33q91 -34 152 -92q63 -60 97 -140t34 -175l-308 -22q0 83 -47 130q-46 46 -130 46q-74 0 -120 -41q-45 -40 -45 -91t51 -78t126 -49q31 -9 165 -50q87 -26 164 -75
q75 -47 126 -127q51 -79 51 -205q0 -86 -34 -158q-35 -74 -100 -129t-163 -88q-97 -33 -221 -33q-118 0 -213 33q-94 33 -160 94q-64 60 -99 143q-35 84 -35 182l309 22q0 -188 198 -188q93 0 140 43q48 44 48 101q0 53 -51 81q-54 30 -127 53q-112 35 -164 51
q-90 27 -164 74q-76 48 -127 124z" />
    <glyph glyph-name="T" unicode="T" horiz-adv-x="1130" 
d="M724 1080v-1080h-319v1080h-397v308h1113v-308h-397z" />
    <glyph glyph-name="U" unicode="U" horiz-adv-x="1327" 
d="M90 1388h320v-826q0 -127 68 -195q70 -70 185 -70t185 70q68 68 68 195v826h320v-826q0 -128 -42 -234q-41 -104 -117 -180t-180 -117q-107 -42 -234 -42t-234 42q-104 41 -180 117t-117 180q-42 106 -42 234v826z" />
    <glyph glyph-name="V" unicode="V" horiz-adv-x="1280" 
d="M948 1388h330l-474 -1388h-330l-474 1388h331l308 -958z" />
    <glyph glyph-name="W" unicode="W" horiz-adv-x="1878" 
d="M939 815l-254 -815h-242l-441 1388h309l264 -859l264 859h199l264 -859l265 859h308l-441 -1388h-242z" />
    <glyph glyph-name="X" unicode="X" horiz-adv-x="1292" 
d="M28 1388h353l264 -451l265 451h352l-418 -683l440 -705h-352l-287 474l-286 -474h-353l441 705z" />
    <glyph glyph-name="Y" unicode="Y" horiz-adv-x="1220" 
d="M450 0v518l-462 870h341l282 -551l280 551h342l-463 -870v-518h-320z" />
    <glyph glyph-name="Y" unicode="&#x178;" horiz-adv-x="1220" 
d="M450 0v518l-462 870h341l282 -551l280 551h342l-463 -870v-518h-320z" />
    <glyph glyph-name="Y" unicode="&#xdd;" horiz-adv-x="1220" 
d="M450 0v518l-462 870h341l282 -551l280 551h342l-463 -870v-518h-320z" />
    <glyph glyph-name="Z" unicode="Z" horiz-adv-x="1134" 
d="M1054 1124l-595 -815h628v-309h-1036v264l595 816h-573v308h981v-264z" />
    <glyph glyph-name="bracketleft" unicode="[" horiz-adv-x="716" 
d="M419 1176v-1168h220v-309h-528v1785h528v-308h-220z" />
    <glyph glyph-name="backslash" unicode="\" horiz-adv-x="856" 
d="M604 -301l-573 1785h286l573 -1785h-286z" />
    <glyph glyph-name="bracketright" unicode="]" horiz-adv-x="716" 
d="M296 8v1168h-220v308h529v-1785h-529v309h220z" />
    <glyph glyph-name="asciicircum" unicode="^" horiz-adv-x="944" 
d="M317 834h-254l320 650h176l320 -650h-254l-154 320z" />
    <glyph glyph-name="underscore" unicode="_" horiz-adv-x="950" 
d="M838 -69v-265h-727v265h727z" />
    <glyph glyph-name="a" unicode="a" horiz-adv-x="1046" 
d="M928 794q31 -75 31 -168v-617h-112q-49 0 -91 27t-62 72q-38 -32 -83 -55q-34 -20 -94 -38q-56 -17 -120 -17q-166 0 -254 81t-88 206q0 74 30 137t100 108q71 45 187 71q113 25 289 25q0 77 -37 115q-38 39 -95 39q-42 0 -67 -16q-27 -18 -41 -34q-18 -23 -24 -49
l-298 22q13 74 47 138q33 63 87 108q55 46 131 71q75 25 176 25q93 0 168 -31q78 -32 133 -87t87 -133zM661 406v44q-98 0 -155 -10q-62 -11 -95 -28q-34 -18 -46 -41q-12 -24 -12 -53q0 -42 32 -71q31 -28 89 -28q85 0 136 51t51 136z" />
    <glyph glyph-name="a" unicode="&#xe5;" horiz-adv-x="1046" 
d="M928 794q31 -75 31 -168v-617h-112q-49 0 -91 27t-62 72q-38 -32 -83 -55q-34 -20 -94 -38q-56 -17 -120 -17q-166 0 -254 81t-88 206q0 74 30 137t100 108q71 45 187 71q113 25 289 25q0 77 -37 115q-38 39 -95 39q-42 0 -67 -16q-27 -18 -41 -34q-18 -23 -24 -49
l-298 22q13 74 47 138q33 63 87 108q55 46 131 71q75 25 176 25q93 0 168 -31q78 -32 133 -87t87 -133zM661 406v44q-98 0 -155 -10q-62 -11 -95 -28q-34 -18 -46 -41q-12 -24 -12 -53q0 -42 32 -71q31 -28 89 -28q85 0 136 51t51 136z" />
    <glyph glyph-name="b" unicode="b" horiz-adv-x="1179" 
d="M1086 723q39 -95 39 -207t-39 -207q-40 -96 -103 -164q-64 -68 -151 -108q-86 -39 -181 -39q-65 0 -119 17q-56 18 -90 38q-46 25 -77 55q-20 -45 -62 -72t-91 -27h-112v1388h298v-451q29 25 68 44q31 17 81 31q46 13 104 13q95 0 181 -39q87 -40 151 -108
q63 -68 103 -164zM764 341q64 67 64 175t-64 175t-157 67q-92 0 -156 -67t-64 -175t64 -175t156 -67q93 0 157 67z" />
    <glyph glyph-name="c" unicode="c" horiz-adv-x="1101" 
d="M717 333q24 32 39 73l298 -22q-29 -111 -90 -199q-27 -37 -63 -72q-33 -33 -85 -64q-48 -28 -110 -45q-63 -17 -137 -17q-108 0 -202 41q-95 41 -164 112q-71 72 -111 168q-41 97 -41 208t41 208q40 96 111 168q69 71 164 112q94 41 202 41q74 0 137 -17q62 -17 110 -45
t85 -64q40 -40 63 -72q61 -88 90 -199l-298 -22q-15 40 -39 71q-21 25 -59 49q-37 23 -89 23q-92 0 -156 -68t-64 -185t64 -185t156 -68q54 0 89 22q40 25 59 48z" />
    <glyph glyph-name="d" unicode="d" horiz-adv-x="1179" 
d="M780 1397h298v-1388h-112q-49 0 -91 27t-62 72q-36 -32 -77 -55q-34 -20 -90 -38q-54 -17 -119 -17q-95 0 -181 39q-87 40 -151 108q-63 68 -103 164q-39 95 -39 207t39 207q40 96 103 164q64 68 151 108q86 39 181 39q59 0 105 -13q48 -13 80 -31q39 -19 68 -44v451z
M728 341q63 66 63 175t-63 175q-64 67 -157 67q-92 0 -156 -67t-64 -175t64 -175t156 -67q93 0 157 67z" />
    <glyph glyph-name="e" unicode="e" horiz-adv-x="1118" 
d="M1026 733q39 -97 39 -217q0 -12 -2 -34q-1 -6 -3 -16.5t-2 -15.5q-1 -7 -2.5 -18t-1.5 -15h-694q19 -60 71 -106q54 -48 138 -48q43 0 72 10q31 11 47 23q21 12 35 33l309 -22q-19 -58 -60 -119q-40 -59 -99 -103q-58 -43 -138 -71q-78 -27 -177 -27q-102 0 -195 41
t-161 112q-70 73 -110 168q-41 97 -41 208t41 208q40 96 111 168q69 71 164 112q94 41 202 41q103 0 194 -38q92 -38 158 -106q64 -65 105 -168zM360 604h418q-19 68 -71 116q-53 49 -138 49t-138 -49q-52 -48 -71 -116z" />
    <glyph glyph-name="f" unicode="f" horiz-adv-x="712" 
d="M510 1094q-37 -38 -37 -104v-11h209v-276h-209v-694h-298v694h-132v276h132v55q0 182 95 279q94 95 269 95q30 0 57 -3q22 -2 46 -8q6 -2 19.5 -5.5t20.5 -5.5v-264q-3 0 -10.5 2t-11.5 2q-3 0 -11 2t-13 3q-18 2 -31 2q-57 0 -95 -39z" />
    <glyph glyph-name="g" unicode="g" horiz-adv-x="1163" 
d="M951 1023h112v-926q0 -96 -37 -184q-35 -84 -102 -146q-64 -60 -160 -97q-94 -35 -208 -35q-142 0 -233 52q-91 53 -144 117q-64 74 -97 172l298 22q14 -29 37 -51q19 -18 54 -33t85 -15q92 0 151 57q58 57 58 141v55q-26 -26 -61 -44q-30 -17 -79 -31q-46 -13 -113 -13
q-93 0 -180 38q-83 36 -147 102q-63 64 -99 153q-37 91 -37 192t37 192q36 89 99 153q64 66 147 102q87 38 180 38q66 0 119 -18q55 -19 90 -37q41 -23 77 -55q20 45 62 72t91 27zM707 398q58 58 58 151t-58 151t-151 58t-151 -58t-58 -151t58 -151t151 -58t151 58z" />
    <glyph glyph-name="h" unicode="h" horiz-adv-x="1153" 
d="M1037 783q30 -79 30 -179v-595h-297v540q0 99 -52 154t-136 55t-135 -55q-52 -55 -52 -154v-540h-297v1098h-82v298h379v-298v-183q27 30 68 55q30 17 90 37q54 18 129 18q81 0 153 -30q70 -29 122 -86q49 -54 80 -135z" />
    <glyph glyph-name="i" unicode="i" horiz-adv-x="534" 
d="M57 736v298h379v-1025h-298v727h-81zM441 1095h-308v309h308v-309z" />
    <glyph glyph-name="j" unicode="j" horiz-adv-x="499" 
d="M101 64v959h297v-1003q0 -184 -94 -279t-269 -95q-56 0 -102 11q-21 4 -42 11v264q14 -6 22 -7q7 -1 25 -3q9 -1 31 -1q56 0 94 39q38 40 38 104zM398 1106h-297v298h297v-298z" />
    <glyph glyph-name="k" unicode="k" horiz-adv-x="1056" 
d="M672 538l375 -529h-342l-308 452v-452h-298v1098h-81v297h379v-297v-492l275 408h342z" />
    <glyph glyph-name="l" unicode="l" horiz-adv-x="495" 
d="M18 1403h379v-1394h-298v1096h-81v298z" />
    <glyph glyph-name="m" unicode="m" horiz-adv-x="1650" 
d="M1465 928q99 -106 99 -313v-606h-298v573q0 84 -43 130t-100 46t-100 -46t-43 -130v-573h-298v573q0 84 -43 130t-100 46t-100 -46t-43 -130v-573h-298v1014h112q49 0 91 -27t62 -72q27 30 68 55q32 19 80 37t105 18q76 0 132 -21q54 -21 91 -45q41 -30 64 -66
q35 38 81 66q38 24 95 45q55 21 121 21q166 0 265 -106z" />
    <glyph glyph-name="n" unicode="n" horiz-adv-x="1153" 
d="M1038 783q30 -79 30 -179v-595h-298v540q0 100 -51 154q-52 55 -136 55t-135 -55q-52 -55 -52 -154v-540h-298v1014h112q49 0 91 -27t62 -72q33 30 81 55q35 18 95 37q55 18 121 18q90 0 165 -30q74 -30 129 -86q54 -56 84 -135z" />
    <glyph glyph-name="o" unicode="o" horiz-adv-x="1138" 
d="M1046 724q41 -97 41 -208t-41 -208q-40 -96 -111 -168q-69 -71 -164 -112q-94 -41 -202 -41t-202 41q-95 41 -164 112q-71 72 -111 168q-41 97 -41 208t41 208q40 96 111 168q69 71 164 112q94 41 202 41t202 -41q95 -41 164 -112q71 -72 111 -168zM726 331q63 67 63 185
t-63 185q-64 68 -157 68q-92 0 -156 -68t-64 -185t64 -185t156 -68q93 0 157 68z" />
    <glyph glyph-name="p" unicode="p" horiz-adv-x="1179" 
d="M1086 723q39 -95 39 -207t-39 -207q-40 -96 -103 -164q-64 -68 -151 -108q-86 -39 -181 -39q-58 0 -104 13q-50 14 -81 31q-39 19 -68 44v-429h-298v1366h112q49 0 91 -27t62 -72q31 30 77 55q35 18 90 37q52 18 119 18q95 0 181 -39q87 -40 151 -108q63 -68 103 -164z
M764 341q64 67 64 175t-64 175t-157 67q-92 0 -156 -67t-64 -175t64 -175t156 -67q93 0 157 67z" />
    <glyph glyph-name="q" unicode="q" horiz-adv-x="1179" 
d="M966 1023h112v-1366h-298v429q-29 -25 -68 -44q-32 -18 -80 -31q-46 -13 -105 -13q-95 0 -181 39q-87 40 -151 108q-63 68 -103 164q-39 95 -39 207t39 207q40 96 103 164q64 68 151 108q86 39 181 39q67 0 119 -18q55 -19 90 -37q41 -23 77 -55q20 45 62 72t91 27z
M728 341q63 66 63 175t-63 175q-64 67 -157 67q-92 0 -156 -67t-64 -175t64 -175t156 -67q93 0 157 67z" />
    <glyph glyph-name="r" unicode="r" horiz-adv-x="722" 
d="M669 1027q5 -1 13.5 -2.5t10.5 -1.5v-309q-4 1 -14.5 5t-16.5 6q-18 5 -35 8q-20 3 -44 3q-84 0 -135 -55q-52 -55 -52 -154v-518h-298v1014h102q54 0 98.5 -30t64.5 -80q26 31 64 59q35 27 76 43q48 19 102 19q14 0 36 -2q6 -1 16 -3t12 -2z" />
    <glyph glyph-name="s" unicode="s" horiz-adv-x="964" 
d="M865 457q39 -60 39 -150q0 -60 -28 -119q-27 -58 -80 -103q-51 -43 -129 -71q-77 -27 -171 -27q-207 0 -312 90t-129 241l287 22q9 -51 42 -81q32 -29 90 -29t89 27q32 27 32 61q0 27 -38 43q-39 17 -96 33q-84 24 -125 38q-65 22 -124 59q-57 36 -96 96t-39 149
q0 62 27 118q28 57 76 98q51 43 121 68q71 25 162 25q199 0 302 -88q104 -89 128 -221l-287 -22q-10 36 -39 61q-31 27 -82 27q-52 0 -75 -22q-24 -22 -24 -55q0 -29 38 -44q44 -17 96 -32q84 -24 125 -38q65 -22 124 -59q58 -37 96 -95z" />
    <glyph glyph-name="t" unicode="t" horiz-adv-x="794" 
d="M728 747h-210v-330q0 -65 38 -105q37 -38 95 -38q21 0 30 1q18 2 25 3q9 1 22 7v-265q-22 -8 -40 -11q-46 -11 -104 -11q-174 0 -268 96q-95 97 -95 279v378l-196 2v270h196v242h297v-242h210v-276z" />
    <glyph glyph-name="u" unicode="u" horiz-adv-x="1155" 
d="M756 1023h298v-1014h-266l1 99q-36 -30 -84 -55q-35 -20 -93 -38q-56 -17 -120 -17q-91 0 -166 30q-74 30 -129 86q-52 54 -83 135q-30 79 -30 179v595h297v-540q0 -99 52 -154t136 -55q83 0 135 55t52 154v540z" />
    <glyph glyph-name="v" unicode="v" horiz-adv-x="1101" 
d="M770 1001h320l-386 -1014h-308l-386 1014h320l220 -661z" />
    <glyph glyph-name="w" unicode="w" horiz-adv-x="1572" 
d="M1248 1001h309l-342 -1014h-253l-176 562l-177 -562h-253l-342 1014h309l176 -595l187 595h199l187 -595z" />
    <glyph glyph-name="x" unicode="x" horiz-adv-x="1064" 
d="M719 522l331 -518h-331l-187 308l-187 -308h-331l331 518l-309 495h331l165 -286l165 286h331z" />
    <glyph glyph-name="y" unicode="y" horiz-adv-x="1097" 
d="M768 1023h320l-408 -1014q-76 -187 -166 -276q-88 -87 -230 -87q-24 0 -35 1t-31 3q-15 1 -34 7v253q92 0 139 39q48 40 71 104l-386 970h320l220 -628z" />
    <glyph glyph-name="y" unicode="&#xff;" horiz-adv-x="1097" 
d="M768 1023h320l-408 -1014q-76 -187 -166 -276q-88 -87 -230 -87q-24 0 -35 1t-31 3q-15 1 -34 7v253q92 0 139 39q48 40 71 104l-386 970h320l220 -628z" />
    <glyph glyph-name="y" unicode="&#xfd;" horiz-adv-x="1097" 
d="M768 1023h320l-408 -1014q-76 -187 -166 -276q-88 -87 -230 -87q-24 0 -35 1t-31 3q-15 1 -34 7v253q92 0 139 39q48 40 71 104l-386 970h320l220 -628z" />
    <glyph glyph-name="z" unicode="z" horiz-adv-x="956" 
d="M453 296h441v-287h-826v243l418 484h-418v287h804v-243z" />
    <glyph glyph-name="braceleft" unicode="{" horiz-adv-x="788" 
d="M90 471v242q121 0 121 121v298q0 182 85 267t268 85h154v-286h-88q-121 0 -121 -121v-276q0 -67 -21 -107q-22 -42 -45 -65q-28 -26 -66 -37q38 -14 66 -40q23 -23 45 -64q21 -39 21 -106v-275q0 -121 121 -121h88v-287h-154q-183 0 -268 85t-85 268v297q0 122 -121 122z
" />
    <glyph glyph-name="verticalbar" unicode="|" horiz-adv-x="530" 
d="M419 1484v-1741h-308v1741h308z" />
    <glyph glyph-name="braceright" unicode="}" horiz-adv-x="788" 
d="M698 713v-242q-122 0 -122 -122v-297q0 -184 -84 -268q-85 -85 -268 -85h-154v287h88q121 0 121 121v275q0 67 21 106q22 41 45 64q28 26 66 40q-38 11 -66 37q-23 23 -45 65q-21 40 -21 107v276q0 121 -121 121h-88v286h154q183 0 268 -85q84 -84 84 -267v-298
q0 -121 122 -121z" />
    <glyph glyph-name="asciitilde" unicode="~" horiz-adv-x="1146" 
d="M832 878l242 -22q0 -184 -80 -273q-81 -90 -206 -90q-60 0 -111 17q-47 16 -102 38t-88 37q-40 18 -74 18q-41 0 -70 -30q-29 -31 -29 -80l-242 22q0 184 80 273q81 90 206 90q60 0 111 -17q47 -16 102 -38t88 -37q41 -18 74 -18q41 0 70 30q29 31 29 80z" />
    <glyph glyph-name="nonbreakingspace" unicode="&#xa0;" horiz-adv-x="571" 
 />
    <glyph glyph-name="exclamdown" unicode="&#xa1;" horiz-adv-x="526" 
d="M406 655l33 -948h-353l33 948h287zM378 1035q50 -50 50 -116t-50 -116q-49 -49 -116 -49q-66 0 -115 49q-50 50 -50 116t50 116q49 49 115 49q67 0 116 -49z" />
    <glyph glyph-name="cent" unicode="&#xa2;" horiz-adv-x="1175" 
d="M758 1350v-166q104 -32 168 -91q62 -57 101 -125q43 -73 62 -158l-298 -22q-15 38 -39 70q-23 27 -59 50q-37 23 -89 23q-93 0 -157 -68q-63 -67 -63 -185t63 -185q65 -69 157 -69q54 0 89 22q38 24 59 49q25 33 39 72l298 -22q-20 -81 -62 -154q-37 -64 -101 -125
q-65 -62 -168 -95v-188h-297v188q-79 24 -148 69q-68 44 -119 109q-50 63 -79 147t-29 182q0 102 32 189q31 85 85 151q53 66 120 107q65 40 138 59v166h297z" />
    <glyph glyph-name="sterling" unicode="&#xa3;" horiz-adv-x="1239" 
d="M544 700v-89q0 -32 -11 -57q-8 -17 -22 -42q-14 -18 -34 -33h653v-308h-1034v308q56 0 92 38q36 37 36 94v89h-110v264h110v165q0 99 32 181q32 81 94 139q63 58 148 89q88 32 200 32q100 0 182 -33t143 -89q60 -56 94 -134q33 -76 33 -163l-320 -22q0 76 -43 120
q-44 46 -100 46t-100 -46q-43 -44 -43 -120v-165h308v-264h-308z" />
    <glyph glyph-name="currency" unicode="&#xa4;" horiz-adv-x="1341" 
d="M1088 444l144 -143l-180 -184l-146 146q-57 -32 -113 -46q-59 -15 -122 -15q-59 0 -118 15t-114 45l-140 -141l-183 181l140 142q-32 59 -46 114q-15 58 -15 120q0 66 14 119q15 58 44 111l-142 141l178 191l147 -146q56 31 115 46t119 15q62 0 121 -15q62 -16 115 -46
l144 144l180 -182l-142 -143q30 -55 45 -114q15 -58 15 -121q0 -62 -15 -120t-45 -114zM825 525q64 64 64 153q0 90 -64 154t-154 64t-154 -64q-63 -63 -63 -154q0 -90 64 -153q66 -64 153 -64q90 0 154 64z" />
    <glyph glyph-name="yen" unicode="&#xa5;" horiz-adv-x="1220" 
d="M175 678v231h165l-352 650h341l282 -551l280 551h342l-353 -650h165v-231h-275v-89h275v-231h-275v-187h-320v187h-275v231h275v89h-275z" />
    <glyph glyph-name="section" unicode="&#xa7;" horiz-adv-x="1095" 
d="M905 499q-40 -40 -93 -64q34 -28 60 -61q27 -36 43 -74q19 -46 19 -96q0 -57 -27 -111t-75 -96q-47 -41 -118 -66q-72 -25 -155 -25q-197 0 -302 91q-104 91 -128 240l265 22q4 -36 20 -66q15 -26 39 -45q27 -21 73 -21q58 0 89 28q32 29 32 71q0 44 -41 73
q-40 29 -102 54q-107 45 -132 55q-75 32 -133 73q-59 42 -102 110q-41 65 -41 164q0 76 29 132q27 53 64 90q40 40 95 64q-35 27 -62 62q-24 32 -42 73q-18 42 -18 97q0 56 26 111q26 54 74 95t114 66q65 25 150 25q97 0 169 -25q73 -25 126 -69t84 -101t40 -124l-265 -23
q-6 31 -20 60q-15 26 -36 43q-24 19 -65 19q-49 0 -80 -29q-30 -29 -30 -70q0 -44 41 -73q40 -28 102 -54q107 -45 132 -55q71 -30 133 -74q60 -43 102 -109q41 -65 41 -164q0 -80 -30 -134t-65 -89zM661 818q-53 50 -168 91q-32 -18 -55 -40q-24 -19 -39 -44
q-16 -26 -16 -59q0 -59 51 -107q54 -51 169 -92q29 14 55 38q21 19 38 45t17 61q0 58 -52 107z" />
    <glyph glyph-name="copyright" unicode="&#xa9;" horiz-adv-x="1591" 
d="M1446 982q54 -129 54 -277q0 -149 -54 -277q-55 -130 -149 -224q-96 -96 -225 -150t-277 -54q-149 0 -277 54t-224 150t-150 224t-54 277q0 148 54 277q53 127 150 224q96 96 224 150t277 54q148 0 277 -54t225 -150q95 -95 149 -224zM318 913q-41 -97 -41 -208t41 -208
q40 -96 111 -168q69 -70 165 -112q94 -41 201 -41q108 0 202 41q95 41 164 112q71 72 111 168q41 97 41 208t-41 208q-40 96 -111 168q-69 71 -164 112q-94 41 -202 41q-107 0 -201 -41q-96 -42 -165 -112q-71 -72 -111 -168zM460 558q-28 68 -28 147q0 80 28 148
q27 65 79 119q49 51 115 79q67 29 141 29q107 0 177 -44q68 -43 108 -95q45 -58 68 -137l-198 -11q-10 29 -31 55q-21 23 -44 38q-26 17 -69 17q-74 0 -125 -52q-51 -53 -51 -146t51 -145q51 -53 125 -53q43 0 69 16q25 15 44 39q21 26 31 55l198 -11q-23 -81 -68 -139
q-37 -48 -108 -93q-68 -43 -177 -43q-76 0 -141 28q-64 28 -115 80q-52 54 -79 119z" />
    <glyph glyph-name="softhyphen" unicode="&#xad;" horiz-adv-x="0" 
 />
    <glyph glyph-name="registered" unicode="&#xae;" horiz-adv-x="1591" 
d="M1446 982q54 -129 54 -277q0 -149 -54 -277q-55 -130 -149 -224q-96 -96 -225 -150t-277 -54q-149 0 -277 54t-224 150t-150 224t-54 277q0 148 54 277q53 127 150 224q96 96 224 150t277 54q148 0 277 -54t225 -150q95 -95 149 -224zM318 913q-41 -97 -41 -208t41 -208
q40 -96 111 -168q69 -70 165 -112q94 -41 201 -41q108 0 202 41q95 41 164 112q71 72 111 168q41 97 41 208t-41 208q-40 96 -111 168q-69 71 -164 112q-94 41 -202 41q-107 0 -201 -41q-96 -42 -165 -112q-71 -72 -111 -168zM1073 919q20 -45 20 -93q0 -56 -24 -94t-53 -62
q-36 -27 -78 -42l210 -286h-210l-165 242h-55v-242h-187v727h297q57 0 106 -20q47 -19 84 -53q36 -34 55 -77zM718 749h99q52 0 75 22q24 23 24 55t-24 55q-23 22 -75 22h-99v-154z" />
    <glyph glyph-name="mu" unicode="&#xb5;" horiz-adv-x="1181" 
d="M106 -182v1366h298v-539q0 -100 52 -155q51 -55 135 -55t136 55t52 155v539h297v-1013h-220l-44 99q-22 -29 -58 -55q-34 -24 -73 -39q-42 -16 -101 -16q-40 0 -69 7q-28 7 -56 19q-26 10 -51 29v-397h-298z" />
    <glyph glyph-name="paragraph" unicode="&#xb6;" horiz-adv-x="1196" 
d="M446 1559h639v-1587h-242v1323h-154v-1323h-243v860q-77 0 -147 29q-67 28 -119 78q-52 51 -80 115q-28 65 -28 141t28 141q29 66 80 116q52 50 119 78q70 29 147 29z" />
    <glyph glyph-name="questiondown" unicode="&#xbf;" horiz-adv-x="1073" 
d="M106 44q-32 70 -32 149q0 73 23 127q23 52 57 92t75 75q36 31 76 74q36 40 61 88q26 48 27 117h309q0 -89 -22 -151q-23 -63 -55 -109q-33 -46 -72 -81q-53 -47 -72 -65q-36 -34 -55 -61q-22 -31 -22 -73q0 -58 39 -95q38 -37 105 -37q57 0 100 47t43 140l319 -22
q-18 -208 -140 -330t-322 -122q-114 0 -200 31q-88 32 -149 84t-93 122zM652 1146q50 -50 50 -116t-50 -116q-49 -49 -116 -49q-66 0 -115 49q-50 50 -50 116t50 116q49 49 115 49q67 0 116 -49z" />
    <glyph glyph-name="Agrave" unicode="&#xc0;" 
d="M903 269h-484l-88 -265h-331l496 1388h330l496 -1388h-330zM628 1833l143 -286h-231l-209 286h297zM507 544h308l-154 463z" />
    <glyph glyph-name="Aacute" unicode="&#xc1;" 
d="M903 269h-484l-88 -265h-331l496 1388h330l496 -1388h-330zM507 544h308l-154 463zM551 1547l143 286h298l-210 -286h-231z" />
    <glyph glyph-name="Acircumflex" unicode="&#xc2;" 
d="M903 269h-484l-88 -265h-331l496 1388h330l496 -1388h-330zM661 1679l-99 -132h-253l220 286h264l221 -286h-254zM507 544h308l-154 463z" />
    <glyph glyph-name="Atilde" unicode="&#xc3;" 
d="M903 269h-484l-88 -265h-331l496 1388h330l496 -1388h-330zM496 1514l-165 22q0 140 57 208q57 67 141 67q48 0 84 -15q24 -11 61 -35q9 -6 26 -17.5t24 -16.5q22 -15 47 -15q33 0 55 24q22 23 22 75l166 -22q0 -139 -58 -208q-57 -67 -141 -67q-49 0 -84 15t-61 34
q-9 6 -26 17.5t-24 16.5q-24 16 -47 16q-31 0 -54 -25t-23 -74zM507 544h308l-154 463z" />
    <glyph glyph-name="Adieresis" unicode="&#xc4;" 
d="M903 269h-484l-88 -265h-331l496 1388h330l496 -1388h-330zM569 1776q44 -44 44 -110q0 -67 -44 -111t-111 -44q-66 0 -110 44t-44 111q0 66 44 110t110 44q67 0 111 -44zM507 544h308l-154 463zM976 1776q44 -44 44 -110q0 -67 -44 -111t-110 -44t-110 44t-44 111
q0 66 44 110t110 44t110 -44z" />
    <glyph glyph-name="Aring" unicode="&#xc5;" 
d="M903 269h-484l-88 -265h-331l496 1388h330l496 -1388h-330zM821 1845q60 -58 60 -151q0 -92 -60 -151q-59 -58 -160 -58t-160 58q-60 59 -60 151t60 151q61 59 160 59t160 -59zM507 544h308l-154 463zM716 1639q22 22 22 55t-22 55t-55 22t-55 -22t-22 -55t22 -55t55 -22
t55 22z" />
    <glyph glyph-name="AE" unicode="&#xc6;" horiz-adv-x="1912" 
d="M893 4v265h-407l-133 -265h-363l716 1388h1113v-308h-606v-221h551v-308h-551v-242h628v-309h-948zM893 577v507l-253 -507h253z" />
    <glyph glyph-name="Ccedilla" unicode="&#xc7;" horiz-adv-x="1409" 
d="M589 331q64 -29 141 -29q133 0 208 62q77 64 101 147l330 -22q-24 -96 -75 -181q-53 -88 -125 -152q-73 -65 -173 -109q-96 -43 -215 -52l-40 -79q56 -10 93 -31q37 -19 65 -53q30 -34 30 -92q0 -75 -62 -126q-61 -51 -203 -51q-54 0 -95 11q-19 4 -37 11v111
q13 -6 26 -7q9 -1 28 -3q11 -1 34 -1q58 0 84 22t26 55q0 24 -24 45t-75 21q-17 0 -35 -6q-15 -5 -20 -5l75 183q-132 14 -238 72q-114 62 -192 152q-82 94 -128 214t-46 260q0 148 54 277t147 225q92 95 217 149t265 54q124 0 228 -40q103 -40 185 -108q79 -66 136 -158
q55 -89 79 -189l-330 -22q-13 39 -38 79q-24 38 -61 66q-36 28 -87 46q-49 18 -112 18q-75 0 -141 -30t-115 -82q-50 -53 -79 -126q-28 -71 -28 -159q0 -87 28 -158q29 -73 79 -126q51 -54 115 -83z" />
    <glyph glyph-name="Egrave" unicode="&#xc8;" horiz-adv-x="1196" 
d="M111 4v1388h991v-308h-672v-221h617v-308h-617v-242h694v-309h-1013zM615 1833l143 -286h-231l-209 286h297z" />
    <glyph glyph-name="Eacute" unicode="&#xc9;" horiz-adv-x="1196" 
d="M111 4v1388h991v-308h-672v-221h617v-308h-617v-242h694v-309h-1013zM487 1547l144 286h297l-209 -286h-232z" />
    <glyph glyph-name="Ecircumflex" unicode="&#xca;" horiz-adv-x="1196" 
d="M111 4v1388h991v-308h-672v-221h617v-308h-617v-242h694v-309h-1013zM606 1679l-99 -132h-253l220 286h265l220 -286h-253z" />
    <glyph glyph-name="Edieresis" unicode="&#xcb;" horiz-adv-x="1196" 
d="M111 4v1388h991v-308h-672v-221h617v-308h-617v-242h694v-309h-1013zM525 1776q44 -44 44 -110q0 -67 -44 -111t-110 -44q-67 0 -111 44t-44 111q0 66 44 110t111 44q66 0 110 -44zM933 1776q44 -44 44 -110q0 -67 -44 -111t-111 -44q-66 0 -110 44t-44 111q0 66 44 110
t110 44q67 0 111 -44z" />
    <glyph glyph-name="Igrave" unicode="&#xcc;" horiz-adv-x="540" 
d="M242 1833l143 -286h-231l-209 286h297zM430 1392v-1388h-320v1388h320z" />
    <glyph glyph-name="Iacute" unicode="&#xcd;" horiz-adv-x="540" 
d="M430 1392v-1388h-319v1388h319zM133 1547l143 286h297l-209 -286h-231z" />
    <glyph glyph-name="Icircumflex" unicode="&#xce;" horiz-adv-x="540" 
d="M265 1679l-100 -132h-253l220 286h265l220 -286h-253zM430 1392v-1388h-320v1388h320z" />
    <glyph glyph-name="Idieresis" unicode="&#xcf;" horiz-adv-x="540" 
d="M176 1778q44 -44 44 -110t-44 -110t-110 -44t-110 44t-44 110t44 110t110 44t110 -44zM430 1392v-1388h-320v1388h320zM584 1778q44 -44 44 -110t-44 -110t-110 -44t-110 44t-44 110t44 110t110 44t110 -44z" />
    <glyph glyph-name="Ntilde" unicode="&#xd1;" horiz-adv-x="1390" 
d="M959 1392h320v-1388h-287l-562 815v-815h-319v1388h286l562 -815v815zM529 1536l-165 22q0 140 57 208q57 67 141 67q48 0 84 -15q32 -14 62 -34q9 -6 25.5 -18t23.5 -17q22 -15 48 -15q33 0 55 24q22 23 22 75l165 -22q0 -141 -57 -208t-141 -67q-51 0 -85 15
q-35 15 -61 34q-9 6 -25.5 17.5t-23.5 16.5q-24 16 -48 16q-32 0 -54 -24q-23 -25 -23 -75z" />
    <glyph glyph-name="Ograve" unicode="&#xd2;" horiz-adv-x="1462" 
d="M1359 975q54 -129 54 -277q0 -150 -54 -277q-55 -130 -146 -224q-93 -96 -217 -150t-266 -54q-140 0 -265 54q-124 54 -217 150t-147 224q-54 127 -54 277q0 148 54 277t147 225q92 95 217 149t265 54q142 0 266 -54q125 -54 217 -149q91 -94 146 -225zM1065 540
q29 73 29 158q0 86 -29 159t-78 125q-50 53 -116 83t-141 30t-141 -30q-64 -29 -115 -83t-79 -125t-28 -159q0 -87 28 -158q29 -73 79 -126q51 -54 115 -83t141 -29t141 29q66 30 116 83q48 51 78 126zM708 1833l143 -286h-231l-209 286h297z" />
    <glyph glyph-name="Oacute" unicode="&#xd3;" horiz-adv-x="1462" 
d="M1359 975q54 -129 54 -277q0 -150 -54 -277q-55 -130 -146 -224q-93 -96 -217 -150t-266 -54q-140 0 -265 54q-124 54 -217 150t-147 224q-54 127 -54 277q0 148 54 277t147 225q92 95 217 149t265 54q142 0 266 -54q125 -54 217 -149q91 -94 146 -225zM1065 540
q29 73 29 158q0 86 -29 159t-78 125q-50 53 -116 83t-141 30t-141 -30q-64 -29 -115 -83t-79 -125t-28 -159q0 -87 28 -158q29 -73 79 -126q51 -54 115 -83t141 -29t141 29q66 30 116 83q48 51 78 126zM620 1547l143 286h298l-210 -286h-231z" />
    <glyph glyph-name="Ocircumflex" unicode="&#xd4;" horiz-adv-x="1462" 
d="M1359 975q54 -129 54 -277q0 -150 -54 -277q-55 -130 -146 -224q-93 -96 -217 -150t-266 -54q-140 0 -265 54q-124 54 -217 150t-147 224q-54 127 -54 277q0 148 54 277t147 225q92 95 217 149t265 54q142 0 266 -54q125 -54 217 -149q91 -94 146 -225zM1065 540
q29 73 29 158q0 86 -29 159t-78 125q-50 53 -116 83t-141 30t-141 -30q-64 -29 -115 -83t-79 -125t-28 -159q0 -87 28 -158q29 -73 79 -126q51 -54 115 -83t141 -29t141 29q66 30 116 83q48 51 78 126zM730 1679l-99 -132h-253l220 286h264l221 -286h-254z" />
    <glyph glyph-name="Otilde" unicode="&#xd5;" horiz-adv-x="1462" 
d="M1359 975q54 -129 54 -277q0 -150 -54 -277q-55 -130 -146 -224q-93 -96 -217 -150t-266 -54q-140 0 -265 54q-124 54 -217 150t-147 224q-54 127 -54 277q0 148 54 277t147 225q92 95 217 149t265 54q142 0 266 -54q125 -54 217 -149q91 -94 146 -225zM1065 540
q29 73 29 158q0 86 -29 159t-78 125q-50 53 -116 83t-141 30t-141 -30q-64 -29 -115 -83t-79 -125t-28 -159q0 -87 28 -158q29 -73 79 -126q51 -54 115 -83t141 -29t141 29q66 30 116 83q48 51 78 126zM554 1514l-165 22q0 140 57 208q57 67 141 67q48 0 84 -15
q24 -11 61 -35q9 -6 26 -17.5t24 -16.5q22 -15 47 -15q33 0 55 24q23 25 23 75l165 -22q0 -139 -58 -208q-57 -67 -141 -67q-49 0 -84 15t-61 34q-9 6 -26 17.5t-24 16.5q-24 16 -47 16q-31 0 -54 -25t-23 -74z" />
    <glyph glyph-name="Odieresis" unicode="&#xd6;" horiz-adv-x="1462" 
d="M1359 975q54 -129 54 -277q0 -150 -54 -277q-55 -130 -146 -224q-93 -96 -217 -150t-266 -54q-140 0 -265 54q-124 54 -217 150t-147 224q-54 127 -54 277q0 148 54 277t147 225q92 95 217 149t265 54q142 0 266 -54q125 -54 217 -149q91 -94 146 -225zM1065 540
q29 73 29 158q0 86 -29 159t-78 125q-50 53 -116 83t-141 30t-141 -30q-64 -29 -115 -83t-79 -125t-28 -159q0 -87 28 -158q29 -73 79 -126q51 -54 115 -83t141 -29t141 29q66 30 116 83q48 51 78 126zM642 1778q44 -44 44 -110t-44 -110t-110 -44t-110 44t-44 110t44 110
t110 44t110 -44zM1050 1778q44 -44 44 -110t-44 -110t-110 -44q-67 0 -111 44t-44 110t44 110t111 44q66 0 110 -44z" />
    <glyph glyph-name="Oslash" unicode="&#xd8;" horiz-adv-x="1525" 
d="M45 224l121 122q-25 45 -44 101q-17 46 -31 112q-13 62 -13 139q0 148 54 277t147 225q92 95 217 149t265 54q83 0 154 -18q74 -21 122 -43q57 -26 110 -60l121 110l209 -220l-121 -121q26 -45 44 -97q17 -43 31 -113q13 -64 13 -143q0 -150 -54 -277q-55 -130 -146 -224
q-93 -96 -217 -150q-125 -54 -266 -54q-83 0 -154 18q-69 18 -121 42q-65 29 -110 61l-122 -110zM426 857q-28 -71 -28 -159q0 -41 1 -56q2 -27 3 -39q1 -14 7 -26l506 485q-15 6 -39 15q-17 5 -49 12q-29 6 -66 6q-75 0 -141 -30q-64 -29 -115 -83t-79 -125zM1096 540
q29 73 29 158q0 25 -2 55q-1 9 -3 22t-2 16q0 5 -1 10.5t-2 10.5t-1 7l-507 -484q13 -8 40 -18q23 -7 48 -11t66 -4q77 0 141 29q66 30 116 83q48 51 78 126z" />
    <glyph glyph-name="Ugrave" unicode="&#xd9;" horiz-adv-x="1327" 
d="M90 1392h320v-826q0 -127 68 -195q69 -69 185 -69t185 69q68 68 68 195v826h320v-826q0 -128 -42 -234q-41 -104 -117 -180t-180 -117q-105 -42 -234 -42q-127 0 -234 42q-104 41 -180 117t-117 180q-42 105 -42 234v826zM652 1833l143 -286h-231l-209 286h297z" />
    <glyph glyph-name="Uacute" unicode="&#xda;" horiz-adv-x="1327" 
d="M90 1392h320v-826q0 -127 68 -195q69 -69 185 -69t185 69q68 68 68 195v826h320v-826q0 -128 -42 -234q-41 -104 -117 -180t-180 -117q-105 -42 -234 -42q-127 0 -234 42q-104 41 -180 117t-117 180q-42 105 -42 234v826zM542 1547l143 286h298l-210 -286h-231z" />
    <glyph glyph-name="Ucircumflex" unicode="&#xdb;" horiz-adv-x="1327" 
d="M90 1392h320v-826q0 -127 68 -195q69 -69 185 -69t185 69q68 68 68 195v826h320v-826q0 -128 -42 -234q-41 -104 -117 -180t-180 -117q-105 -42 -234 -42q-127 0 -234 42q-104 41 -180 117t-117 180q-42 105 -42 234v826zM663 1679l-99 -132h-254l221 286h264l221 -286
h-254z" />
    <glyph glyph-name="Udieresis" unicode="&#xdc;" horiz-adv-x="1327" 
d="M90 1392h320v-826q0 -127 68 -195q69 -69 185 -69t185 69q68 68 68 195v826h320v-826q0 -128 -42 -234q-41 -104 -117 -180t-180 -117q-105 -42 -234 -42q-127 0 -234 42q-104 41 -180 117t-117 180q-42 105 -42 234v826zM575 1780q44 -44 44 -110t-44 -110t-110 -44
t-110 44q-45 45 -45 110t45 110q44 44 110 44t110 -44zM983 1780q44 -44 44 -110t-44 -110t-111 -44q-66 0 -110 44t-44 110t44 110t110 44q67 0 111 -44z" />
    <glyph glyph-name="germandbls" unicode="&#xdf;" horiz-adv-x="1130" 
d="M924 986q-27 -39 -60 -66q63 -32 110 -82q40 -42 76 -110q35 -67 35 -161q0 -84 -31 -155q-32 -72 -87 -126q-51 -50 -134 -84q-75 -31 -167 -31h-132v264h110q56 0 100 44q43 43 43 110q0 68 -43 111q-44 44 -100 44h-110v264q75 0 114 39q40 40 40 104q0 155 -154 155
q-67 0 -111 -46t-44 -120v-969h-297v969q0 91 33 169q33 77 94 137q59 57 143 91q82 33 182 33q104 0 187 -31t142 -84q58 -52 90 -122t32 -149q0 -66 -18 -115q-17 -48 -43 -83z" />
    <glyph glyph-name="agrave" unicode="&#xe0;" horiz-adv-x="1046" 
d="M364 1025q78 26 176 26q93 0 168 -31q78 -32 133 -87q54 -54 87 -134q31 -75 31 -167v-617h-112q-49 0 -91 27t-62 72q-38 -32 -83 -55q-38 -22 -94 -39q-52 -16 -120 -16q-167 0 -254 80q-88 81 -88 206q0 75 30 138t100 108q71 45 187 71q113 25 289 25q0 77 -37 115
q-38 39 -95 39q-42 0 -67 -16q-27 -18 -41 -34q-18 -23 -24 -49l-298 22q13 74 47 138q33 63 87 108q53 44 131 70zM529 1447l143 -286h-231l-209 286h297zM385 253q32 -29 89 -29q84 0 136 52q51 51 51 136v44q-98 0 -155 -10q-62 -11 -95 -28q-34 -18 -46 -42t-12 -53
q0 -41 32 -70z" />
    <glyph glyph-name="aacute" unicode="&#xe1;" horiz-adv-x="1046" 
d="M364 1025q78 26 176 26q93 0 168 -31q78 -32 133 -87q54 -54 87 -134q31 -75 31 -167v-617h-112q-49 0 -91 27t-62 72q-38 -32 -83 -55q-38 -22 -94 -39q-52 -16 -120 -16q-167 0 -254 80q-88 81 -88 206q0 75 30 138t100 108q71 45 187 71q113 25 289 25q0 77 -37 115
q-38 39 -95 39q-42 0 -67 -16q-26 -17 -41 -35q-18 -23 -24 -48l-298 22q13 74 47 138q33 63 87 108q53 44 131 70zM385 253q32 -29 89 -29q84 0 136 52q51 51 51 136v44q-98 0 -155 -10q-62 -11 -95 -28q-34 -18 -46 -42t-12 -53q0 -41 32 -70zM419 1161l143 286h298
l-210 -286h-231z" />
    <glyph glyph-name="acircumflex" unicode="&#xe2;" horiz-adv-x="1046" 
d="M364 1025q78 26 176 26q93 0 168 -31q78 -32 133 -87q54 -54 87 -134q31 -75 31 -167v-617h-112q-49 0 -91 27t-62 72q-38 -32 -83 -55q-38 -22 -94 -39q-52 -16 -120 -16q-167 0 -254 80q-88 81 -88 206q0 75 30 138t100 108q71 45 187 71q113 25 289 25q0 77 -37 115
q-38 39 -95 39q-42 0 -67 -16q-26 -17 -41 -35q-18 -23 -24 -48l-298 22q13 74 47 138q33 63 87 108q53 44 131 70zM551 1293l-99 -132h-253l220 286h264l221 -286h-254zM385 253q32 -29 89 -29q84 0 136 52q51 51 51 136v44q-98 0 -155 -10q-62 -11 -95 -28
q-34 -18 -46 -42t-12 -53q0 -41 32 -70z" />
    <glyph glyph-name="atilde" unicode="&#xe3;" horiz-adv-x="1046" 
d="M364 1025q78 26 176 26q93 0 168 -31q78 -32 133 -87q54 -54 87 -134q31 -75 31 -167v-617h-112q-49 0 -91 27t-62 72q-38 -32 -83 -55q-38 -22 -94 -39q-52 -16 -120 -16q-167 0 -254 80q-88 81 -88 206q0 75 30 138t100 108q71 45 187 71q113 25 289 25q0 77 -37 115
q-38 39 -95 39q-42 0 -67 -16q-26 -17 -41 -35q-18 -23 -24 -48l-298 22q13 74 47 138q33 63 87 108q53 44 131 70zM375 1139l-165 22q0 141 57 208t141 67q48 0 84 -15q29 -13 61 -34q9 -6 26 -17.5t24 -16.5q24 -16 47 -16q32 0 55 24q22 23 22 75l166 -22
q0 -139 -58 -208q-57 -67 -141 -67q-50 0 -84 15q-35 15 -61 34q-9 6 -26 18t-24 17q-23 15 -47 15q-32 0 -54 -24q-23 -25 -23 -75zM385 253q32 -29 89 -29q84 0 136 52q51 51 51 136v44q-98 0 -155 -10q-62 -11 -95 -28q-34 -18 -46 -42t-12 -53q0 -41 32 -70z" />
    <glyph glyph-name="adieresis" unicode="&#xe4;" horiz-adv-x="1046" 
d="M364 1025q78 26 176 26q93 0 168 -31q78 -32 133 -87q54 -54 87 -134q31 -75 31 -167v-617h-112q-49 0 -91 27t-62 72q-38 -32 -83 -55q-38 -22 -94 -39q-52 -16 -120 -16q-167 0 -254 80q-88 81 -88 206q0 75 30 138t100 108q71 45 187 71q113 25 289 25q0 77 -37 115
q-38 39 -95 39q-42 0 -67 -16q-26 -17 -41 -35q-18 -23 -24 -48l-298 22q13 74 47 138q33 63 87 108q53 44 131 70zM459 1392q44 -44 44 -110t-44 -110t-111 -44q-66 0 -110 44t-44 110t44 110t110 44q67 0 111 -44zM385 253q32 -29 89 -29q84 0 136 52q51 51 51 136v44
q-98 0 -155 -10q-62 -11 -95 -28q-34 -18 -46 -42t-12 -53q0 -41 32 -70zM866 1392q44 -44 44 -110t-44 -110t-110 -44t-110 44t-44 110t44 110t110 44t110 -44z" />
    <glyph glyph-name="ae" unicode="&#xe6;" horiz-adv-x="1716" 
d="M362 1025q78 26 176 26q86 0 148 -18q64 -19 99 -37q45 -25 73 -56q33 33 75 56q37 19 95 37t138 18q102 0 194 -40q89 -39 158 -109q64 -65 105 -168q39 -98 39 -212q0 -16 -2 -40q-1 -7 -3 -17t-2 -14q-1 -5 -2.5 -14.5t-1.5 -13.5h-694q16 -46 42 -78q23 -30 64 -54
q40 -23 103 -23q43 0 72 10q31 11 47 23q21 12 35 33l309 -22q-19 -61 -62 -119q-43 -59 -101 -102q-60 -45 -138 -72q-75 -26 -173 -26q-83 0 -143 21t-99 45q-44 27 -77 66q-38 -36 -97 -66q-48 -24 -117 -45t-161 -21q-99 0 -175 24q-75 23 -128 66q-50 40 -78 96
q-27 54 -27 111q0 75 30 138t100 108q72 46 186 71q113 25 290 25q0 77 -37 115q-37 39 -95 39q-42 0 -67 -16q-27 -18 -41 -34q-18 -23 -24 -49l-298 22q13 74 47 138q33 63 87 108q53 44 131 70zM383 253q32 -29 89 -29q83 0 135 52t52 136v44q-98 0 -155 -10
q-62 -11 -95 -28q-34 -18 -46 -42t-12 -53q0 -41 32 -70zM1292 737q-52 49 -137 49t-137 -49t-61 -116h396q-9 67 -61 116z" />
    <glyph glyph-name="ccedilla" unicode="&#xe7;" horiz-adv-x="1101" 
d="M367 1010q94 41 202 41q74 0 137 -17q62 -17 110 -45t85 -64q37 -37 63 -73q62 -88 90 -198l-298 -22q-15 38 -39 70q-23 27 -59 50q-37 23 -89 23q-92 0 -156 -68t-64 -185t64 -185q65 -69 156 -69q54 0 89 22q38 24 59 49q24 32 39 73l298 -22q-24 -99 -77 -181
q-45 -69 -128 -133q-82 -64 -212 -79l-35 -70q56 -10 93 -31q37 -19 65 -53q29 -33 29 -92q0 -75 -61 -126q-62 -51 -203 -51q-54 0 -95 11q-19 4 -37 11v110q10 -4 26 -6q9 -1 28 -3q22 -2 34 -2q58 0 84 22t26 56q0 24 -24 45t-75 21q-17 0 -35 -6q-15 -5 -20 -5l68 169
q-94 10 -179 55q-84 44 -144 115q-62 73 -96 161q-35 88 -35 194q0 111 41 208q40 96 111 168q69 71 164 112z" />
    <glyph glyph-name="egrave" unicode="&#xe8;" horiz-adv-x="1118" 
d="M723 335l309 -23q-19 -58 -60 -119q-39 -57 -99 -102t-138 -72q-75 -26 -177 -26t-195 41t-161 112q-70 73 -110 168q-41 97 -41 208t41 208q40 96 111 168q69 71 164 112q94 41 202 41q103 0 194 -38q90 -38 158 -107q65 -66 105 -167q39 -98 39 -217q0 -12 -2 -34
q-1 -6 -3 -16.5t-2 -15.5q-1 -7 -2.5 -18t-1.5 -15h-694q19 -60 71 -106q55 -49 138 -49q43 0 72 10q31 11 47 23q20 12 35 34zM547 1447l143 -286h-231l-209 286h297zM707 726q-53 49 -138 49t-138 -49q-52 -48 -71 -116h418q-19 68 -71 116z" />
    <glyph glyph-name="eacute" unicode="&#xe9;" horiz-adv-x="1118" 
d="M723 335l309 -23q-19 -58 -60 -119q-39 -57 -99 -102t-138 -72q-75 -26 -177 -26t-195 41t-161 112q-70 73 -110 168q-41 97 -41 208t41 208q40 96 111 168q69 71 164 112q94 41 202 41q103 0 194 -38q90 -38 158 -107q65 -66 105 -167q39 -98 39 -217q0 -12 -2 -34
q-1 -6 -3 -16.5t-2 -15.5q-1 -7 -2.5 -18t-1.5 -15h-694q19 -60 71 -106q55 -49 138 -49q43 0 72 10q31 11 47 23q20 12 35 34zM707 726q-53 49 -138 49t-138 -49q-52 -48 -71 -116h418q-19 68 -71 116zM437 1161l143 286h298l-210 -286h-231z" />
    <glyph glyph-name="ecircumflex" unicode="&#xea;" horiz-adv-x="1118" 
d="M723 335l309 -23q-19 -58 -60 -119q-39 -57 -99 -102t-138 -72q-75 -26 -177 -26t-195 41t-161 112q-70 73 -110 168q-41 97 -41 208t41 208q40 96 111 168q69 71 164 112q94 41 202 41q103 0 194 -38q90 -38 158 -107q65 -66 105 -167q39 -98 39 -217q0 -12 -2 -34
q-1 -6 -3 -16.5t-2 -15.5q-1 -7 -2.5 -18t-1.5 -15h-694q19 -60 71 -106q55 -49 138 -49q43 0 72 10q31 11 47 23q20 12 35 34zM569 1293l-99 -132h-254l221 286h264l221 -286h-254zM707 726q-53 49 -138 49t-138 -49q-52 -48 -71 -116h418q-19 68 -71 116z" />
    <glyph glyph-name="edieresis" unicode="&#xeb;" horiz-adv-x="1118" 
d="M723 335l309 -23q-19 -58 -60 -119q-39 -57 -99 -102t-138 -72q-75 -26 -177 -26t-195 41t-161 112q-70 73 -110 168q-41 97 -41 208t41 208q40 96 111 168q69 71 164 112q94 41 202 41q103 0 194 -38q90 -38 158 -107q65 -66 105 -167q39 -98 39 -217q0 -12 -2 -34
q-1 -6 -3 -16.5t-2 -15.5q-1 -7 -2.5 -18t-1.5 -15h-694q19 -60 71 -106q55 -49 138 -49q43 0 72 10q31 11 47 23q20 12 35 34zM492 1392q44 -44 44 -110t-44 -110t-110 -44t-110 44t-44 110t44 110t110 44t110 -44zM707 726q-53 49 -138 49t-138 -49q-52 -48 -71 -116h418
q-19 68 -71 116zM900 1392q44 -44 44 -110t-44 -110t-111 -44q-66 0 -110 44t-44 110t44 110t110 44q67 0 111 -44z" />
    <glyph glyph-name="igrave" unicode="&#xec;" horiz-adv-x="495" 
d="M220 1436l143 -286h-231l-210 286h298zM396 1029v-1014h-298v1014h298z" />
    <glyph glyph-name="iacute" unicode="&#xed;" horiz-adv-x="495" 
d="M396 1029v-1014h-298v1014h298zM131 1150l144 286h297l-209 -286h-232z" />
    <glyph glyph-name="icircumflex" unicode="&#xee;" horiz-adv-x="495" 
d="M242 1293l-99 -132h-254l221 286h264l221 -286h-254zM396 1029v-1014h-297v1014h297z" />
    <glyph glyph-name="idieresis" unicode="&#xef;" horiz-adv-x="495" 
d="M154 1392q44 -44 44 -110t-44 -110t-110 -44q-67 0 -111 44t-44 110t44 110t111 44q66 0 110 -44zM396 1029v-1014h-297v1014h297zM562 1392q44 -44 44 -110t-44 -110t-111 -44q-66 0 -110 44t-44 110t44 110t110 44q67 0 111 -44z" />
    <glyph glyph-name="ntilde" unicode="&#xf1;" horiz-adv-x="1153" 
d="M539 1022q55 18 121 18q90 0 165 -30q74 -30 129 -86q53 -55 84 -136q30 -80 30 -178v-595h-298v540q0 100 -51 154q-52 55 -136 55q-83 0 -135 -55t-52 -154v-540h-298v1014h221l44 -100q36 33 81 56q35 18 95 37zM407 1150l-165 22q0 140 57 208q57 67 141 67
q48 0 84 -15q29 -12 61 -34q12 -9 50 -34q24 -16 47 -16q32 0 55 24q22 23 22 75l166 -22q0 -139 -58 -208q-57 -67 -141 -67q-50 0 -85 15q-32 14 -60 34q-9 6 -26 18t-24 17q-23 15 -47 15q-32 0 -54 -24q-23 -25 -23 -75z" />
    <glyph glyph-name="ograve" unicode="&#xf2;" horiz-adv-x="1138" 
d="M92 314q-41 97 -41 208t41 208q40 94 111 167q71 72 164 113q94 41 202 41t202 -41q93 -41 164 -113q71 -73 111 -167q41 -97 41 -208t-41 -208q-40 -96 -111 -168q-69 -71 -164 -112q-94 -41 -202 -41t-202 41q-95 41 -164 112q-71 72 -111 168zM558 1436l143 -286h-231
l-209 286h297zM726 337q63 67 63 185t-63 185q-65 68 -157 68t-156 -68t-64 -185t64 -185q65 -69 156 -69q93 0 157 69z" />
    <glyph glyph-name="oacute" unicode="&#xf3;" horiz-adv-x="1138" 
d="M92 314q-41 97 -41 208t41 208q40 94 111 167q71 72 164 113q94 41 202 41t202 -41q93 -41 164 -113q71 -73 111 -167q41 -97 41 -208t-41 -208q-40 -96 -111 -168q-69 -71 -164 -112q-94 -41 -202 -41t-202 41q-95 41 -164 112q-71 72 -111 168zM726 337q63 67 63 185
t-63 185q-65 68 -157 68t-156 -68t-64 -185t64 -185q65 -69 156 -69q93 0 157 69zM459 1150l143 286h298l-210 -286h-231z" />
    <glyph glyph-name="ocircumflex" unicode="&#xf4;" horiz-adv-x="1138" 
d="M92 314q-41 97 -41 208t41 208q40 94 111 167q71 72 164 113q94 41 202 41t202 -41q93 -41 164 -113q71 -73 111 -167q41 -97 41 -208t-41 -208q-40 -96 -111 -168q-69 -71 -164 -112q-94 -41 -202 -41t-202 41q-95 41 -164 112q-71 72 -111 168zM569 1293l-99 -132h-254
l221 286h264l221 -286h-254zM726 337q63 67 63 185t-63 185q-65 68 -157 68t-156 -68t-64 -185t64 -185q65 -69 156 -69q93 0 157 69z" />
    <glyph glyph-name="otilde" unicode="&#xf5;" horiz-adv-x="1138" 
d="M92 314q-41 97 -41 208t41 208q40 94 111 167q71 72 164 113q94 41 202 41t202 -41q93 -41 164 -113q71 -73 111 -167q41 -97 41 -208t-41 -208q-40 -96 -111 -168q-69 -71 -164 -112q-94 -41 -202 -41t-202 41q-95 41 -164 112q-71 72 -111 168zM393 1139l-166 22
q0 139 58 208q57 67 141 67q48 0 84 -15q29 -13 61 -34q12 -9 50 -34q24 -16 47 -16q32 0 55 24q22 23 22 75l166 -22q0 -139 -58 -208q-57 -67 -141 -67q-51 0 -85 15q-32 14 -60 34q-9 6 -26 18t-24 17q-23 15 -47 15q-32 0 -54 -24q-23 -25 -23 -75zM726 337
q63 67 63 185t-63 185q-65 68 -157 68t-156 -68t-64 -185t64 -185q65 -69 156 -69q93 0 157 69z" />
    <glyph glyph-name="odieresis" unicode="&#xf6;" horiz-adv-x="1138" 
d="M92 314q-41 97 -41 208t41 208q40 94 111 167q71 72 164 113q94 41 202 41t202 -41q93 -41 164 -113q71 -73 111 -167q41 -97 41 -208t-41 -208q-40 -96 -111 -168q-69 -71 -164 -112q-94 -41 -202 -41t-202 41q-95 41 -164 112q-71 72 -111 168zM481 1392
q44 -44 44 -110t-44 -110t-110 -44t-110 44q-45 45 -45 110t45 110q44 44 110 44t110 -44zM726 337q63 67 63 185t-63 185q-65 68 -157 68t-156 -68t-64 -185t64 -185q65 -69 156 -69q93 0 157 69zM889 1392q44 -44 44 -110t-44 -110t-111 -44q-66 0 -110 44t-44 110t44 110
t110 44q67 0 111 -44z" />
    <glyph glyph-name="oslash" unicode="&#xf8;" horiz-adv-x="1183" 
d="M53 180l88 77q-18 32 -33 75q-10 27 -23 84q-10 46 -10 106q0 111 41 208q40 96 111 168q69 71 164 112q94 41 202 41q69 0 126 -17q56 -17 92 -34q52 -27 80 -48l88 77l154 -166l-88 -77q19 -39 33 -79q16 -56 22 -85q11 -50 11 -100q0 -111 -41 -208q-40 -96 -111 -168
q-69 -71 -164 -112q-94 -41 -202 -41q-69 0 -125 15t-93 33q-46 24 -79 51l-88 -77zM437 707q-64 -68 -64 -185q0 -17 1 -24q0 -4 1 -11.5t2 -10.5q1 -8 7 -20l308 297q-4 2 -12 5.5t-12 5.5q-16 5 -32 8q-18 3 -43 3q-92 0 -156 -68zM750 337q63 67 63 185q0 7 -2 23
q-1 4 -2.5 12t-1.5 11q-1 4 -3 10.5t-2 9.5l-308 -298q10 -7 24 -11q28 -11 75 -11q93 0 157 69z" />
    <glyph glyph-name="ugrave" unicode="&#xf9;" horiz-adv-x="1153" 
d="M610 20q-52 -16 -120 -16q-91 0 -166 30q-74 30 -129 86q-52 54 -83 135q-30 80 -30 179v595h297v-540q0 -100 52 -155t136 -55q83 0 135 55q52 57 52 155v540h298v-1014h-260l-5 99q-36 -30 -84 -55q-39 -23 -93 -39zM567 1447l143 -286h-231l-210 286h298z" />
    <glyph glyph-name="uacute" unicode="&#xfa;" horiz-adv-x="1153" 
d="M610 20q-52 -16 -120 -16q-91 0 -166 30q-74 30 -129 86q-52 54 -83 135q-30 80 -30 179v595h297v-540q0 -100 52 -155t136 -55q83 0 135 55q52 57 52 155v540h298v-1014h-221l-44 99q-36 -30 -84 -55q-39 -23 -93 -39zM446 1161l143 286h297l-209 -286h-231z" />
    <glyph glyph-name="ucircumflex" unicode="&#xfb;" horiz-adv-x="1153" 
d="M610 20q-52 -16 -120 -16q-91 0 -166 30q-74 30 -129 86q-52 54 -83 135q-30 80 -30 179v595h297v-540q0 -100 52 -155t136 -55q83 0 135 55q52 57 52 155v540h298v-1014h-221l-44 99q-36 -30 -84 -55q-39 -23 -93 -39zM567 1293l-99 -132h-254l221 286h264l220 -286
h-253z" />
    <glyph glyph-name="udieresis" unicode="&#xfc;" horiz-adv-x="1153" 
d="M610 20q-52 -16 -120 -16q-91 0 -166 30q-74 30 -129 86q-52 54 -83 135q-30 80 -30 179v595h297v-540q0 -100 52 -155t136 -55q83 0 135 55q52 57 52 155v540h298v-1014h-221l-44 99q-36 -30 -84 -55q-39 -23 -93 -39zM490 1392q44 -44 44 -110t-44 -110t-111 -44
q-66 0 -110 44t-44 110t44 110t110 44q67 0 111 -44zM897 1392q44 -44 44 -110t-44 -110t-110 -44t-110 44t-44 110t44 110t110 44t110 -44z" />
    <glyph glyph-name="florin" unicode="&#x192;" horiz-adv-x="909" 
d="M633 755l-110 -606q-32 -167 -128 -254q-97 -88 -280 -88q-55 0 -105 11q-20 4 -49 11l66 265q13 -6 22 -7q11 -1 24 -3q9 -1 31 -1q111 0 144 132l99 540h-166l56 286h165q2 13 6.5 37.5t6.5 35.5q6 42 10 63q9 50 10 52q33 164 129 253q95 88 279 88q29 0 56 -3
q20 -2 49 -8q29 -7 49 -11l-66 -264q-4 0 -11.5 2t-10.5 2q-2 0 -11 1.5t-14 2.5q-27 3 -30 3q-111 0 -144 -133q-3 -11 -7 -35q-2 -16 -8 -40q-6 -33 -7 -46h210l-55 -286h-210z" />
    <glyph glyph-name="perthousand" unicode="&#x2030;" horiz-adv-x="2177" 
d="M97 1139q-23 57 -23 123q0 65 23 122q22 56 65 98q42 42 98 65q57 23 122 23q66 0 123 -23q55 -23 98 -65t65 -98q23 -57 23 -122q0 -66 -23 -123q-22 -55 -65 -98t-98 -65q-57 -23 -123 -23q-65 0 -122 23q-56 22 -98 65t-65 98zM1286 1559l-849 -1388h-253l848 1388
h254zM468 1176q35 35 35 86q0 49 -35 86q-37 35 -86 35q-51 0 -86 -35q-35 -37 -35 -86q0 -52 35 -86q38 -36 86 -36q50 0 86 36zM802 346q-23 57 -23 122q0 66 23 123q22 56 65 98q43 43 98 65q57 23 122 23q66 0 123 -23q56 -22 98 -65q42 -42 65 -98q23 -57 23 -123
q0 -65 -23 -122q-23 -55 -65 -98q-42 -42 -98 -65q-57 -23 -123 -23q-65 0 -122 23q-55 23 -98 65t-65 98zM1173 382q36 36 36 86q0 48 -36 86q-37 35 -86 35q-51 0 -86 -35q-35 -37 -35 -86q0 -52 35 -86q37 -35 86 -35q51 0 86 35zM1507 346q-23 57 -23 122q0 66 23 123
q23 56 65 98q42 43 98 65q57 23 123 23q65 0 122 -23q56 -22 98 -65q43 -42 65 -98q23 -57 23 -123q0 -65 -23 -122q-22 -55 -65 -98q-42 -42 -98 -65q-57 -23 -122 -23q-66 0 -123 23q-56 23 -98 65t-65 98zM1878 382q36 36 36 86q0 48 -36 86q-37 35 -85 35q-51 0 -86 -35
q-36 -38 -36 -86q0 -52 36 -86q37 -35 86 -35q50 0 85 35z" />
    <glyph glyph-name="Euro" unicode="&#x20ac;" horiz-adv-x="1605" 
d="M86 623v176h132v110h-132v176h165q43 134 130 243q29 39 84 89q45 41 111 77q61 34 141 55q78 21 173 21q130 0 232 -37t182 -103q78 -64 132 -153q53 -87 82 -192l-319 -22q-24 93 -100 157t-209 64q-79 0 -134 -31q-56 -31 -93 -69q-41 -42 -70 -99h330v-176h-374v-110
h374v-176h-330q32 -53 70 -89q37 -33 93 -60q58 -28 134 -28q133 0 209 64t100 157l319 -22q-29 -105 -82 -192q-54 -89 -132 -153q-80 -66 -182 -103t-232 -37q-93 0 -173 20q-78 20 -141 51q-62 31 -111 74q-52 45 -84 86q-87 104 -130 232h-165z" />
    <glyph glyph-name="trademark" unicode="&#x2122;" horiz-adv-x="1357" 
d="M411 826h-187v397h-154v176h495v-176h-154v-397zM984 981h-66l-99 143v-298h-187v573h165l154 -231l154 231h166v-573h-188v298z" />
    </font>
</defs>
</svg>
